<svg xmlns="http://www.w3.org/2000/svg" viewBox="0 0 750 500"><g id="freepik--background-complete--inject-144"><path d="M181.79,444.21a32.17,32.17,0,0,0,3.68-.46,9.32,9.32,0,0,1,7.08.86,31.81,31.81,0,0,0,15.93,4.22,39.85,39.85,0,0,0,9.38-1.68c2.23-.6,2.41-2.17.52-3.48a20.22,20.22,0,0,0-4.56-2.33,24.81,24.81,0,0,0-16-.85c-4.09,1.18-8.36,1.2-11.29-3.06-.47-.68-1.57-.92-2.38-1.36l-.54.61,2.16,4.42-4.29,2.2Z" style="fill:#e0e0e0"></path><path d="M208.94,461.29a11.87,11.87,0,0,0,1.42,2.14c.07.31-4.62,1.84-3.36,3.18,1.79-.22,3.21-.45,4.64-.55a19.69,19.69,0,0,1,4.06,0c3.23.44,6.42,1.39,9.64,1.5a56,56,0,0,0,18.41-2.76,17.42,17.42,0,0,0,7.52-4.05c1.1-1.1,1.12-1.75-.23-2.45a13.22,13.22,0,0,0-3.51-1.24,45.41,45.41,0,0,0-13.77-.38,25.83,25.83,0,0,0-11.65,3.87,9.1,9.1,0,0,1-10.9-.89c-.75-.68-1.59-1.69-2.76-1C207,459.43,208.71,460.33,208.94,461.29Z" style="fill:#e0e0e0"></path><path d="M247.28,442.06a7.23,7.23,0,0,0,.9,1.35c0,.2-2.94,1.17-2.13,2,1.13-.14,2-.29,2.94-.35a12.37,12.37,0,0,1,2.58,0c2,.27,4.07.88,6.11.95a35.47,35.47,0,0,0,11.69-1.75,11.16,11.16,0,0,0,4.77-2.57c.7-.7.71-1.12-.14-1.56a8.6,8.6,0,0,0-2.23-.79,29.11,29.11,0,0,0-8.74-.24,16.5,16.5,0,0,0-7.4,2.46,5.79,5.79,0,0,1-6.91-.56c-.48-.43-1-1.08-1.76-.65S247.13,441.45,247.28,442.06Z" style="fill:#e0e0e0"></path><path d="M710.75,64.63c.92-6.72-8.56-12.24-15.69-12.82-3.4-.27-6.93.25-10.15-.88-7-2.43-9.76-11.44-16.57-14.31-5.09-2.15-11-.24-15.88,2.25s-9.81,5.6-15.32,6c-4.79.3-10-1.47-14.2.87-3.12,1.74-4.76,5.35-7.64,7.47s-6.5,2.52-10,2.71-7.12.23-10.3,1.68-5.82,4.83-5.16,8.27Z" style="fill:#ebebeb"></path><path d="M511.58,344.88c0,.15-102.14.26-228.1.26S55.36,345,55.36,344.88s102.11-.26,228.12-.26S511.58,344.74,511.58,344.88Z" style="fill:#263238"></path><path d="M724.82,288.78c-35,7.44-122.28,13-158,11.71-27.38-1-40.23.56-67.61-.45-21.87-.79-58.37-1.34-80.17-3.23-30.41-2.63-54.79-9.74-87.91-20.73-18.05-6-36.23-15.46-52.77-24.84-11.77-6.67-24.09-12.7-36-19.1-64.3-34.5-122.49-41.84-182.4-30.89l-48.63,4.41V345l676.24-1Z" style="fill:#ebebeb"></path><path d="M460.28,157.46c.66-4.78-6.08-8.7-11.14-9.11-2.41-.19-4.92.17-7.21-.62C437,146,435,139.6,430.16,137.56c-3.61-1.52-7.77-.17-11.28,1.6s-7,4-10.88,4.23c-3.4.22-7.1-1-10.08.62-2.22,1.24-3.38,3.8-5.43,5.31s-4.61,1.78-7.1,1.92-5.05.16-7.31,1.2-4.14,3.42-3.67,5.87Z" style="fill:#f5f5f5"></path><path d="M671.43,192.7c.65-4.78-6.08-8.7-11.15-9.11-2.41-.2-4.92.17-7.2-.62-5-1.73-6.94-8.13-11.77-10.17-3.62-1.52-7.78-.17-11.28,1.6s-7,4-10.88,4.23c-3.41.22-7.1-1-10.08.62-2.22,1.24-3.39,3.8-5.43,5.3s-4.62,1.79-7.1,1.93-5.06.16-7.32,1.19-4.13,3.43-3.66,5.87Z" style="fill:#f5f5f5"></path><path d="M116.89,60.11c.66-4.78-6.08-8.7-11.14-9.11-2.41-.2-4.92.17-7.21-.62-5-1.73-6.93-8.13-11.76-10.17C83.16,38.68,79,40,75.5,41.81s-7,4-10.89,4.23c-3.4.22-7.1-1-10.08.62-2.22,1.24-3.38,3.79-5.43,5.3S44.49,53.75,42,53.89s-5.06.16-7.32,1.19S30.56,58.51,31,61Z" style="fill:#f5f5f5"></path><polygon points="186.53 217.67 198.87 166 218.2 214 212.53 212.34 226.53 241 218.53 238.34 228.2 249.29 184.87 249.29 188.53 239.67 184.87 244.67 192.88 214.43 186.53 217.67" style="fill:#ebebeb"></polygon><polygon points="218.3 226.34 228.07 185.44 243.37 223.44 238.89 222.12 249.97 244.82 243.64 242.71 251.29 251.38 216.98 251.38 219.89 243.76 216.98 247.72 223.33 223.78 218.3 226.34" style="fill:#ebebeb"></polygon><polygon points="52.41 179.51 69.4 108.33 96.04 174.46 88.23 172.17 107.52 211.66 96.5 207.99 109.81 233.71 50.11 233.71 55.16 209.82 50.11 216.71 61.16 175.05 52.41 179.51" style="fill:#ebebeb"></polygon><polygon points="13.83 166.88 30.82 95.7 57.46 161.83 49.65 159.53 68.94 199.03 57.91 195.35 71.23 221.07 11.53 221.07 16.58 197.19 11.53 204.08 22.57 162.42 13.83 166.88" style="fill:#ebebeb"></polygon><polygon points="140.66 179.51 157.66 108.33 184.29 174.46 176.48 172.17 195.77 211.66 184.75 207.99 198.07 233.71 138.37 233.71 143.42 209.82 138.37 216.71 149.41 175.05 140.66 179.51" style="fill:#ebebeb"></polygon><polygon points="254.04 245.28 260.82 216.88 271.45 243.26 268.33 242.35 276.03 258.11 271.63 256.64 276.95 266.9 253.13 266.9 255.14 257.37 253.13 260.12 257.53 243.5 254.04 245.28" style="fill:#ebebeb"></polygon><polygon points="354.57 272.43 365.63 226.1 382.97 269.14 377.88 267.65 390.44 293.36 383.27 290.96 391.94 307.71 353.07 307.71 356.36 292.16 353.07 296.64 360.26 269.52 354.57 272.43" style="fill:#ebebeb"></polygon><polygon points="332.8 272.74 339.58 244.34 350.21 270.73 347.1 269.81 354.79 285.57 350.39 284.1 355.71 294.37 331.89 294.37 333.9 284.84 331.89 287.58 336.29 270.96 332.8 272.74" style="fill:#ebebeb"></polygon><polygon points="101.25 186.42 114.49 130.97 135.24 182.49 129.16 180.7 144.18 211.46 135.6 208.6 145.97 228.63 99.47 228.63 103.4 210.03 99.47 215.4 108.07 182.94 101.25 186.42" style="fill:#ebebeb"></polygon></g><g id="freepik--Plants--inject-144"><path d="M139.19,234.64s0,.19-.11.56-.22.93-.39,1.63c-.35,1.43-.84,3.55-1.44,6.29s-1.24,6.1-1.87,10-1.22,8.41-1.77,13.39c-1,10-2.42,21.82-4,35s-3.52,27.59-5.5,42.75c-4,30.31-7.34,57.8-9.29,77.74-1,10-1.64,18-2.09,23.63-.2,2.78-.36,4.94-.46,6.43-.06.72-.11,1.28-.14,1.68s-.06.56-.06.56,0-.19,0-.57,0-1,.08-1.67c.09-1.5.21-3.66.37-6.45.39-5.59,1-13.67,1.93-23.65,1.85-19.95,5.1-47.45,9.14-77.77,2-15.16,4.06-29.57,5.54-42.74s3-25,4.07-34.95c.58-5,1.2-9.47,1.85-13.4s1.35-7.29,2-10,1.15-4.85,1.53-6.28c.19-.69.33-1.23.44-1.62S139.19,234.64,139.19,234.64Z" style="fill:#455a64"></path><path d="M173.18,250.3a3.38,3.38,0,0,1-.32.65l-1,1.82c-.9,1.57-2.25,3.81-4,6.51a198,198,0,0,1-15.4,20c-6.46,7.46-12.61,13.93-17,18.63l-5.28,5.54-1.45,1.48a4.76,4.76,0,0,1-.53.5,3.16,3.16,0,0,1,.45-.57L130,303.3l5.15-5.65c4.36-4.76,10.47-11.27,16.91-18.72a219.92,219.92,0,0,0,15.5-19.86c1.81-2.66,3.21-4.87,4.16-6.41l1.09-1.77A2.92,2.92,0,0,1,173.18,250.3Z" style="fill:#455a64"></path><path d="M160.34,269.26c-.4-.53-1.52-.53.52-4.47s13.34-16.1,13.34-16.1-4.29,10-6.82,13.69C163.1,268.64,160.34,269.26,160.34,269.26Z" style="fill:#455a64"></path><path d="M153.8,278.34c-.1-.63-.37.23,1-1.72,2.55-3.7,21.41-11.88,21.41-11.88s-8.64,7.49-12.71,9.93C156.61,278.78,153.8,278.34,153.8,278.34Z" style="fill:#455a64"></path><path d="M145.51,287c0-.52-.33.16,1-1.31,2.52-2.79,18.88-7.75,18.88-7.75s-7.94,5.33-11.55,6.95C147.75,287.62,145.51,287,145.51,287Z" style="fill:#455a64"></path><path d="M138.43,294.42c0-.42-.29.09.95-.95,2.34-2,16.1-4.22,16.1-4.22a99.63,99.63,0,0,1-10.09,4.36C140.17,295.17,138.43,294.42,138.43,294.42Z" style="fill:#455a64"></path><path d="M142.31,290.23c-.37-.22,0,.3-.47-1.26-.82-3,2.9-16.39,2.9-16.39a99.15,99.15,0,0,1-.25,11C143.71,289,142.31,290.23,142.31,290.23Z" style="fill:#455a64"></path><path d="M108.72,259.12a3,3,0,0,1,.14.68c.07.5.16,1.15.28,2,.24,1.7.62,4.15,1.19,7.17a209.4,209.4,0,0,0,6,23.22c2.79,9,5.64,17,7.63,22.77,1,2.86,1.78,5.2,2.35,6.89.25.77.46,1.4.61,1.88a4.2,4.2,0,0,1,.19.67,2.84,2.84,0,0,1-.28-.64l-.71-1.84c-.61-1.68-1.46-4-2.5-6.84-2.08-5.78-5-13.77-7.79-22.73A187.86,187.86,0,0,1,110,269c-.53-3-.85-5.51-1-7.22-.08-.81-.14-1.47-.19-2A5.92,5.92,0,0,1,108.72,259.12Z" style="fill:#455a64"></path><path d="M112.7,280.55c.55-.31,1.53.11,1.26-4.09s-5.52-19.13-5.52-19.13-.07,10.33.73,14.53C110.52,279,112.7,280.55,112.7,280.55Z" style="fill:#455a64"></path><path d="M115,291c.33-.51.24.35-.2-1.87-.82-4.19-14.21-18.52-14.21-18.52s4.71,9.82,7.34,13.51C112.32,290.27,115,291,115,291Z" style="fill:#455a64"></path><path d="M118.89,301.67c.21-.45.23.26-.37-1.53-1.14-3.39-13.58-13.95-13.58-13.95s4.92,7.67,7.46,10.46C116.69,301.36,118.89,301.67,118.89,301.67Z" style="fill:#455a64"></path><path d="M122.25,310.84c.12-.39.21.19-.47-1.2-1.29-2.61-12.49-9.82-12.49-9.82a96.29,96.29,0,0,0,7.17,7.66C120.43,310.82,122.25,310.84,122.25,310.84Z" style="fill:#455a64"></path><path d="M120.46,305.71c.4-.06-.09.27.89-.92,1.85-2.26,3.74-15.39,3.74-15.39a96.07,96.07,0,0,0-4,9.67C119.71,304.06,120.46,305.71,120.46,305.71Z" style="fill:#455a64"></path><path d="M134.63,261.36c-.32-.44-.19.29.07-1.57.51-3.53,11.55-15.24,11.55-15.24s-3.63,8.17-5.76,11.21C136.91,260.87,134.63,261.36,134.63,261.36Z" style="fill:#455a64"></path><path d="M135.28,253.18c-.54,0,.15.31-1.32-.87-2.78-2.22-7.27-17.67-7.27-17.67s5.2,7.27,6.74,10.64C136,251,135.28,253.18,135.28,253.18Z" style="fill:#455a64"></path><path d="M136.87,245.15c-.46-.3-.08.33-.5-1.5-.8-3.48,5.28-18.37,5.28-18.37s-.45,8.92-1.33,12.52C138.82,243.87,136.87,245.15,136.87,245.15Z" style="fill:#455a64"></path><path d="M45.94,271.55s0,.16,0,.48v1.39c0,1.22,0,3,0,5.35a189.36,189.36,0,0,0,1.41,19.63c1.05,8.24,2.09,18.1,3.28,29s2.26,23,3.48,35.61c2.35,25.27,4.77,48.12,6.88,64.62,1,8.25,2,14.91,2.67,19.51.35,2.28.62,4.06.81,5.29.08.59.15,1.05.2,1.38s0,.48,0,.48,0-.16-.11-.47-.14-.78-.25-1.37l-.9-5.28c-.73-4.59-1.76-11.24-2.84-19.49-2.2-16.49-4.68-39.35-7-64.63-1.22-12.63-2.19-24.68-3.44-35.6S48,306.7,47,298.44a176.24,176.24,0,0,1-1.24-19.67c0-2.32,0-4.13.08-5.35l.06-1.4C45.92,271.71,45.94,271.55,45.94,271.55Z" style="fill:#455a64"></path><path d="M25.82,297a2.17,2.17,0,0,1,.25.52c.15.4.35.91.59,1.53.52,1.33,1.29,3.24,2.31,5.58a174.16,174.16,0,0,0,9.14,17.67c3.91,6.73,7.7,12.67,10.38,17l3.17,5.15c.34.57.61,1,.84,1.41a3.24,3.24,0,0,1,.26.52,2,2,0,0,1-.35-.46l-.92-1.36-3.31-5.06c-2.76-4.29-6.6-10.21-10.52-16.95a152,152,0,0,1-9-17.79c-1-2.36-1.7-4.3-2.16-5.65-.2-.63-.37-1.15-.5-1.57A3.5,3.5,0,0,1,25.82,297Z" style="fill:#455a64"></path><path d="M33,313.61c.38-.35,1.26-.19.25-3.54s-8-14.46-8-14.46,1.85,8.37,3.28,11.63C31,312.72,33,313.61,33,313.61Z" style="fill:#455a64"></path><path d="M36.76,321.61c.18-.47.26.24-.5-1.47-1.44-3.25-14.93-12.36-14.93-12.36s5.62,7.08,8.43,9.57C34.51,321.55,36.76,321.61,36.76,321.61Z" style="fill:#455a64"></path><path d="M41.93,329.55c.09-.4.24.17-.58-1.16-1.55-2.53-13.57-8.78-13.57-8.78a96,96,0,0,0,8,7.08C40.1,329.71,41.93,329.55,41.93,329.55Z" style="fill:#455a64"></path><path d="M46.35,336.35c0-.34.21.11-.6-.88-1.52-1.88-11.92-5.63-11.92-5.63A80.42,80.42,0,0,0,41,334.7C44.88,336.67,46.35,336.35,46.35,336.35Z" style="fill:#455a64"></path><path d="M44,332.53c.32-.12,0,.24.56-.91,1.07-2.17.17-13.15.17-13.15A77.06,77.06,0,0,0,43.25,327C43.05,331.34,44,332.53,44,332.53Z" style="fill:#455a64"></path><path d="M47.2,294c-.34-.3-.1.27-.23-1.29-.25-3,6.52-14.46,6.52-14.46a84.47,84.47,0,0,1-2.58,10.13C49,293.2,47.2,294,47.2,294Z" style="fill:#455a64"></path><path d="M46.21,287.28c-.43.14.18.22-1.23-.46-2.66-1.28-9.16-12.95-9.16-12.95a83.25,83.25,0,0,1,7.43,7.36C46.4,285.35,46.21,287.28,46.21,287.28Z" style="fill:#455a64"></path><path d="M46,280.48c-.42-.15,0,.29-.68-1.12-1.29-2.66.87-15.84.87-15.84a82,82,0,0,1,1.24,10.38C47.35,279.09,46,280.48,46,280.48Z" style="fill:#455a64"></path><path d="M90.1,328.21a2.92,2.92,0,0,1,.06.32l.13.94c.11.83.24,2,.4,3.63.31,3.16.65,7.75.67,13.42,0,2.84,0,6-.13,9.28s-.25,6.89-.31,10.64c-.16,7.5-.34,15.73-.53,24.38-.25,17.29-.48,32.94-.64,44.31-.11,5.64-.2,10.22-.26,13.42,0,1.56-.07,2.78-.09,3.65,0,.4,0,.71,0,.95a1.34,1.34,0,0,1,0,.32,1.14,1.14,0,0,1,0-.32l0-.95v-3.65c0-3.21,0-7.79.09-13.43.13-11.37.3-27,.49-44.31.21-8.65.4-16.89.57-24.39.07-3.74.23-7.3.35-10.63s.2-6.43.2-9.27c0-5.66-.25-10.24-.5-13.4-.13-1.55-.23-2.77-.31-3.64,0-.39-.06-.7-.08-.94A1.37,1.37,0,0,1,90.1,328.21Z" style="fill:#455a64"></path><path d="M61.8,336.69a2.43,2.43,0,0,1,.26.51c.18.39.4.89.67,1.5.58,1.3,1.43,3.17,2.56,5.46a175.68,175.68,0,0,0,9.92,17.22c4.21,6.54,8.26,12.3,11.13,16.51l3.39,5,.9,1.37a2.05,2.05,0,0,1,.28.5,2.68,2.68,0,0,1-.37-.44l-1-1.32c-.87-1.21-2.07-2.87-3.52-4.9-3-4.16-7.05-9.89-11.27-16.44A153.1,153.1,0,0,1,65,344.32c-1.09-2.31-1.9-4.22-2.42-5.55L62,337.24A2.23,2.23,0,0,1,61.8,336.69Z" style="fill:#455a64"></path><path d="M69.74,352.93c.36-.37,1.24-.25.08-3.55s-8.64-14.06-8.64-14.06,2.24,8.27,3.82,11.45C67.65,352.14,69.74,352.93,69.74,352.93Z" style="fill:#455a64"></path><path d="M73.84,360.75c.15-.48.27.22-.57-1.45-1.59-3.17-15.42-11.66-15.42-11.66s5.92,6.81,8.83,9.17C71.6,360.79,73.84,360.75,73.84,360.75Z" style="fill:#455a64"></path><path d="M79.36,368.44c.06-.41.24.16-.64-1.14-1.66-2.45-13.89-8.14-13.89-8.14a95.51,95.51,0,0,0,8.25,6.7C77.54,368.68,79.36,368.44,79.36,368.44Z" style="fill:#455a64"></path><path d="M84.07,375c0-.34.22.1-.64-.85-1.6-1.8-12.11-5.08-12.11-5.08a77.83,77.83,0,0,0,7.4,4.53C82.63,375.41,84.07,375,84.07,375Z" style="fill:#455a64"></path><path d="M81.51,371.32c.31-.14,0,.24.5-.94,1-2.21-.46-13.13-.46-13.13a78,78,0,0,0-1,8.62C80.55,370.17,81.51,371.32,81.51,371.32Z" style="fill:#455a64"></path><path d="M111.2,350.72a2.43,2.43,0,0,1-.09.54c-.09.41-.21.91-.35,1.52-.33,1.32-.85,3.22-1.59,5.53a145.79,145.79,0,0,1-7.12,17.59c-3.18,6.7-6.34,12.61-8.62,16.9l-2.73,5.06-.76,1.36a2.36,2.36,0,0,1-.3.46,1.72,1.72,0,0,1,.2-.51c.18-.37.41-.84.68-1.41l2.59-5.13c2.19-4.33,5.3-10.27,8.47-16.95a167.37,167.37,0,0,0,7.24-17.48c.78-2.29,1.36-4.17,1.74-5.47l.45-1.5A2.22,2.22,0,0,1,111.2,350.72Z" style="fill:#455a64"></path><path d="M105.72,367c-.4-.31-1.21-.08-.53-3.34s6.42-14.34,6.42-14.34-1.09,8.08-2.17,11.28C107.6,366,105.72,367,105.72,367Z" style="fill:#455a64"></path><path d="M102.81,374.91c-.2-.43-.23.25.36-1.44,1.1-3.19,13.15-12.9,13.15-12.9s-4.76,7.15-7.22,9.74C104.94,374.67,102.81,374.91,102.81,374.91Z" style="fill:#455a64"></path><path d="M98.54,382.85c-.11-.38-.21.18.46-1.15,1.27-2.52,12.16-9.4,12.16-9.4a91.83,91.83,0,0,1-7,7.34C100.3,382.85,98.54,382.85,98.54,382.85Z" style="fill:#455a64"></path><path d="M94.9,389.64c-.05-.31-.19.13.5-.88,1.3-1.9,10.85-6.29,10.85-6.29a76,76,0,0,1-6.45,5.19C96.32,389.83,94.9,389.64,94.9,389.64Z" style="fill:#455a64"></path><path d="M96.87,385.83c-.31-.08,0,.23-.6-.82-1.19-2-1.22-12.44-1.22-12.44a75.82,75.82,0,0,1,2,8C97.63,384.63,96.87,385.83,96.87,385.83Z" style="fill:#455a64"></path><path d="M90.7,349.61c.3-.31.12.24.12-1.24,0-2.82-7.34-13.19-7.34-13.19a79.64,79.64,0,0,0,3.26,9.39C89,349,90.7,349.61,90.7,349.61Z" style="fill:#455a64"></path><path d="M91.1,343.14c.42.1-.15.22,1.13-.53,2.42-1.43,7.64-13,7.64-13a80,80,0,0,0-6.45,7.57C90.77,341.33,91.1,343.14,91.1,343.14Z" style="fill:#455a64"></path><path d="M90.75,336.68c.39-.18,0,.27.56-1.11,1-2.63-2.1-14.95-2.1-14.95a78.72,78.72,0,0,0-.34,9.94C89.37,335.47,90.75,336.68,90.75,336.68Z" style="fill:#455a64"></path><path d="M17.34,420.06H30.17l10.93,55.6V422.44l12.83,1.9V470.9l13.78-43.24L89.56,431l-3.8,40.86,12.36-38.48s9.5,0,9,1.42-3.8,33.26-3.8,33.26l14.73-30.88,9.51,6.17L119.5,472.8l18.05-24.94,5.23,4.51L132.33,472.8l13.78-9.5,8.07,3.8v11H14.49v-58" style="fill:#455a64"></path></g><g id="freepik--Sun--inject-144"><circle cx="446.67" cy="71.77" r="16.71" transform="translate(304.64 501.3) rotate(-80.83)" style="fill:#FF725E"></circle><path d="M446.67,88.5a16.64,16.64,0,1,1,6.52-1.31A16.71,16.71,0,0,1,446.67,88.5Z" style="fill:#FF725E"></path><path d="M444.29,109.14c-.09,0-.17-3.08-.17-6.89s.08-6.89.17-6.89a65.82,65.82,0,0,1,.18,6.89A65.82,65.82,0,0,1,444.29,109.14Z" style="fill:#FF725E"></path><path d="M444.29,109.16s-.09,0-.14-2c0-1.31,0-3,0-4.88s0-3.57,0-4.87c.05-2,.11-2,.14-2s.09,0,.15,2c0,1.3.05,3,.05,4.87s0,3.57-.05,4.88C444.38,109.16,444.33,109.16,444.29,109.16Zm0-13.77c-.07.25-.15,2.87-.15,6.86s.08,6.61.15,6.86c.08-.25.16-2.87.16-6.86S444.37,95.64,444.29,95.39Z" style="fill:#FF725E"></path><path d="M434.66,91.47a71.39,71.39,0,0,1-3.51,6.43c-2,3.51-3.73,6.31-3.81,6.26a71.39,71.39,0,0,1,3.51-6.43C432.87,94.22,434.58,91.42,434.66,91.47Z" style="fill:#FF725E"></path><path d="M427.34,104.18h0s-.08,0,1-1.94c.66-1.22,1.56-2.82,2.54-4.51s1.92-3.28,2.64-4.46c1-1.67,1.15-1.81,1.19-1.81h0s.08,0-1,1.94c-.66,1.21-1.56,2.82-2.54,4.51-1.74,3-3.67,6.22-3.82,6.26Zm7.31-12.68c-.21.2-1.67,2.56-3.79,6.23s-3.44,6.12-3.51,6.4c.21-.2,1.67-2.57,3.79-6.24S434.58,91.78,434.65,91.5Z" style="fill:#FF725E"></path><path d="M424.78,85.32a39.32,39.32,0,0,1-3.9,3.32,37,37,0,0,1-4.13,3,38.81,38.81,0,0,1,3.91-3.32A36.45,36.45,0,0,1,424.78,85.32Z" style="fill:#FF725E"></path><path d="M416.76,91.71h0s-.06-.07,1.1-1.06c.74-.63,1.73-1.44,2.81-2.3a42.54,42.54,0,0,1,4.12-3h0s0,0,0,0h0a41.46,41.46,0,0,1-3.91,3.34c-1.08.85-2.09,1.64-2.87,2.21A5.6,5.6,0,0,1,416.76,91.71Zm8-6.38a44.83,44.83,0,0,0-4.09,3,44,44,0,0,0-3.9,3.3,43.44,43.44,0,0,0,4.1-3.05A45.19,45.19,0,0,0,424.76,85.33Zm0,0Z" style="fill:#FF725E"></path><path d="M461,102.35a9.64,9.64,0,0,1-.44-1.69c-.24-1.06-.58-2.51-1-4.09s-.86-3-1.18-4a9.46,9.46,0,0,1-.47-1.69,8.59,8.59,0,0,1,.7,1.61c.39,1,.86,2.44,1.29,4s.73,3.07.91,4.14A8.28,8.28,0,0,1,461,102.35Z" style="fill:#FF725E"></path><path d="M461,102.37c-.06,0-.13-.26-.46-1.71-.22-1-.57-2.47-1-4.09s-.89-3.1-1.18-4v0c-.43-1.38-.51-1.67-.46-1.69s.05,0,.25.42.3.73.48,1.19c.26.7.77,2.14,1.29,4s.79,3.41.91,4.13a9.17,9.17,0,0,1,.2,1.76Zm-3.09-11.51a16.7,16.7,0,0,0,.47,1.64v0c.3.94.74,2.39,1.19,4s.78,3.11,1,4.09a17.06,17.06,0,0,0,.42,1.67,9.67,9.67,0,0,0-.21-1.71c-.12-.73-.4-2.23-.91-4.13s-1-3.34-1.28-4A10.64,10.64,0,0,0,457.88,90.86Z" style="fill:#FF725E"></path><path d="M477.92,90.32A56,56,0,0,1,473,86.24a59.19,59.19,0,0,1-4.71-4.35A60.73,60.73,0,0,1,473.21,86,61.41,61.41,0,0,1,477.92,90.32Z" style="fill:#FF725E"></path><path d="M477.91,90.34A62.8,62.8,0,0,1,473,86.25c-1.29-1.12-2.49-2.2-3.38-3-1.39-1.28-1.35-1.33-1.33-1.35h0c.17,0,2.67,2.11,4.94,4.09,1.29,1.13,2.49,2.2,3.38,3,1.39,1.29,1.35,1.33,1.33,1.36h0Zm-9.62-8.43c.13.21,1.91,1.87,4.7,4.32s4.68,4,4.91,4.07c-.13-.21-1.91-1.87-4.7-4.31S468.52,82,468.29,81.91Z" style="fill:#FF725E"></path><path d="M484.41,73.79a13.07,13.07,0,0,1-2-.29c-1.24-.2-2.95-.47-4.85-.69s-3.63-.34-4.89-.42a11.72,11.72,0,0,1-2-.18,10.47,10.47,0,0,1,2-.07c1.26,0,3,.11,4.92.32s3.62.53,4.85.8A10.93,10.93,0,0,1,484.41,73.79Z" style="fill:#FF725E"></path><path d="M484.35,73.82c-.15,0-.55-.07-1.56-.23l-.4-.07c-1.69-.28-3.32-.51-4.85-.69s-3.16-.32-4.88-.42l-.39,0c-1.38-.09-1.65-.11-1.65-.17h0a10.76,10.76,0,0,1,2-.08,49.31,49.31,0,0,1,4.92.33c2.25.26,4,.61,4.86.79a11.91,11.91,0,0,1,2,.54v0h0S484.4,73.82,484.35,73.82Zm-13.68-1.61c.12,0,.75.08,1.6.14l.4,0c1.72.11,3.36.25,4.88.43s3.15.4,4.85.69l.4.06c.8.14,1.4.24,1.56.24h0a12.43,12.43,0,0,0-1.94-.51,50.22,50.22,0,0,0-9.77-1.12A15,15,0,0,0,470.67,72.21Z" style="fill:#FF725E"></path><path d="M484.43,57.54c0,.09-3.59,1.06-8.08,2.15s-8.14,1.9-8.16,1.81,3.59-1.06,8.08-2.15S484.41,57.44,484.43,57.54Z" style="fill:#FF725E"></path><path d="M468.22,61.52s-.05,0-.05,0,0-.09,2.36-.72c1.53-.41,3.57-.92,5.73-1.45s4.22-1,5.76-1.35c2.41-.53,2.42-.48,2.43-.45h0s0,.09-2.36.73c-1.53.4-3.56.92-5.73,1.44s-4.22,1-5.76,1.35A21,21,0,0,1,468.22,61.52Zm16.18-4c-.33,0-3.43.67-8.13,1.81s-7.75,2-8,2.13c.34,0,3.43-.68,8.13-1.82S484.1,57.7,484.4,57.55Z" style="fill:#FF725E"></path><path d="M465.55,38.6c.08,0-1.65,2.81-3.87,6.17s-4.08,6-4.16,6,1.65-2.81,3.87-6.17S465.47,38.55,465.55,38.6Z" style="fill:#FF725E"></path><path d="M457.52,50.76h0c0-.16,2-3.3,3.87-6.18,1.08-1.62,2.1-3.13,2.88-4.26,1.21-1.74,1.28-1.73,1.31-1.72h0s.07.05-1.07,1.87c-.73,1.17-1.72,2.7-2.79,4.33s-2.1,3.13-2.88,4.26C457.72,50.62,457.56,50.76,457.52,50.76Zm8-12.13c-.22.18-1.81,2.44-4.13,5.95s-3.77,5.86-3.86,6.13c.22-.18,1.81-2.44,4.13-6S465.44,38.9,465.53,38.63Z" style="fill:#FF725E"></path><path d="M446.81,34.64a16.93,16.93,0,0,1,0,2.3c0,1.41-.05,3.37-.05,5.52s0,4.12.06,5.53a15.1,15.1,0,0,1,0,2.3,15.1,15.1,0,0,1-.23-2.29c-.08-1.41-.16-3.37-.16-5.53s.07-4.13.15-5.54A12.43,12.43,0,0,1,446.81,34.64Z" style="fill:#FF725E"></path><path d="M446.82,50.3s-.05,0-.11-.62c0-.43-.09-1-.13-1.68-.06-1-.16-2.94-.17-5.54s.1-4.58.15-5.53c0-.67.09-1.25.13-1.68.06-.6.09-.62.11-.62h0c.05,0,.07.21,0,2.31,0,1.33-.05,3.35-.05,5.52s0,4,.06,5.44V48c0,2.1,0,2.31,0,2.31Zm0-15.62c0,.15-.12.94-.2,2.25-.06,1-.15,2.94-.15,5.53s.1,4.59.16,5.54a21.36,21.36,0,0,0,.21,2.25c0-.19,0-1.42,0-2.26V47.9c0-1.4-.05-3.32-.05-5.44s0-4.19,0-5.52C446.82,36.1,446.84,34.87,446.8,34.68Z" style="fill:#FF725E"></path><path d="M432.61,52.32c-.08,0-1.84-2.68-3.93-6.1S425,40,425.05,39.94s1.84,2.68,3.93,6.1S432.69,52.27,432.61,52.32Z" style="fill:#FF725E"></path><path d="M432.61,52.34s-.18-.14-1.23-1.76c-.74-1.15-1.7-2.7-2.71-4.35-1.8-2.93-3.68-6.13-3.64-6.29h0s.07,0,1.24,1.75C427,42.83,428,44.38,429,46s1.94,3.22,2.63,4.4c1.07,1.86,1,1.89,1,1.9h0ZM425.07,40c.07.27,1.44,2.66,3.63,6.24s3.69,5.89,3.89,6.08c-.07-.27-1.44-2.66-3.62-6.24S425.27,40.16,425.07,40Z" style="fill:#FF725E"></path><path d="M424.13,59.53a9.08,9.08,0,0,1-1.77-.29c-1.09-.22-2.58-.59-4.21-1.07s-3.07-1-4.11-1.38a8.22,8.22,0,0,1-1.65-.73,10.85,10.85,0,0,1,1.73.5c1.06.33,2.51.8,4.13,1.27s3.1.88,4.16,1.17A9.63,9.63,0,0,1,424.13,59.53Z" style="fill:#FF725E"></path><path d="M424.08,59.55a2.83,2.83,0,0,1-.43,0c-.34,0-.78-.13-1.3-.24-.73-.15-2.25-.5-4.2-1.07s-3.41-1.11-4.12-1.38c-.49-.19-.91-.36-1.21-.5-.46-.2-.45-.23-.44-.25s.25,0,1.75.48c.84.27,2.42.77,4.13,1.28,1.55.46,3,.84,4.16,1.17,1.52.41,1.74.48,1.73.54h0S424.14,59.55,424.08,59.55Zm-11.66-3.48a10.61,10.61,0,0,0,1.63.7c.7.27,2.17.81,4.11,1.39s3.47.91,4.2,1.07a12.71,12.71,0,0,0,1.72.29h0c-.12-.07-1-.31-1.69-.5-1.2-.33-2.61-.71-4.16-1.17-1.71-.5-3.29-1-4.13-1.28C413.46,56.36,412.57,56.08,412.42,56.07Z" style="fill:#FF725E"></path><path d="M420.43,72.37a44,44,0,0,1-5.33.69,40.37,40.37,0,0,1-5.37.33,44,44,0,0,1,5.33-.69A40.37,40.37,0,0,1,420.43,72.37Z" style="fill:#FF725E"></path><path d="M410,73.44a.79.79,0,0,1-.31,0h0s0,0,0,0a82.41,82.41,0,0,1,10.72-1h0s0,0,0,0a43,43,0,0,1-5.34.69C413,73.27,410.84,73.44,410,73.44Zm-.28,0a46.93,46.93,0,0,0,5.34-.35,49.66,49.66,0,0,0,5.31-.67,47.17,47.17,0,0,0-5.34.35A50.59,50.59,0,0,0,409.75,73.39Z" style="fill:#FF725E"></path></g><g id="freepik--Floor--inject-144"><path d="M52.32,478.1c0-.14,152.13-.26,339.74-.26s339.77.12,339.77.26-152.1.26-339.77.26S52.32,478.25,52.32,478.1Z" style="fill:#263238"></path></g><g id="freepik--seagulls--inject-144"><path d="M229.14,113.84a9.75,9.75,0,0,1-2.18-.47c-1.33-.35-3.14-.91-5.12-1.6s-3.75-1.39-5-1.93a9,9,0,0,1-2-1,9.43,9.43,0,0,1,2.13.65l5,1.78,5.06,1.74A10.15,10.15,0,0,1,229.14,113.84Z" style="fill:#263238"></path><path d="M230.94,112a8.71,8.71,0,0,1-2.18-.46c-1.33-.36-3.14-.91-5.12-1.6s-3.75-1.39-5-1.93a8.71,8.71,0,0,1-2-1,10.64,10.64,0,0,1,2.13.66l5,1.78,5.06,1.74A10.57,10.57,0,0,1,230.94,112Z" style="fill:#263238"></path><path d="M174.75,94.31s3.31-3.46,6-3.94,24.55,3.15,24.55,3.15l35.42,13.38s-2.21,3.46-8,2.36-12.28-3-12.28-3a23.08,23.08,0,0,1-11.65,3.21c-6.61-.06-14.95-1.63-19.83-6.83s-10.83-1.78-12-6.2A2.74,2.74,0,0,0,174.75,94.31Z" style="fill:#e0e0e0"></path><path d="M261.41,55.33A70.8,70.8,0,0,1,254,64.08a4.74,4.74,0,0,1-2.94,1.74,44.91,44.91,0,0,0,8-15.39c-1.13,1.71-2.32,3.37-3.59,5a36.85,36.85,0,0,1-3,3.46,51.52,51.52,0,0,1-9.79,7.08,60.74,60.74,0,0,1-8.09,4.63c-5.8,2.4-6.07,2.06-12.27,4.13-1.9.63-5.47,1.43-7,2.71a12.63,12.63,0,0,0-1.95,2.3,53.27,53.27,0,0,1-18.6,15.85l11.42,5.62a20.42,20.42,0,0,0,14.42-3.52,33.84,33.84,0,0,0,10-11.25,8,8,0,0,1,2.27-2.86,11.61,11.61,0,0,1,2.86-1,10.74,10.74,0,0,0,4.44-2.66,5.42,5.42,0,0,1-3.49.11,94.82,94.82,0,0,0,10.56-4.7c3.18-1.65,6.37-3.58,8.38-6.55A10.35,10.35,0,0,1,251,70.87,32.6,32.6,0,0,0,261.41,55.33Z" style="fill:#e0e0e0"></path><path d="M180.54,93.2a.65.65,0,0,0-.72,0,.94.94,0,0,0-.37.65,1.15,1.15,0,0,0,.72,1.19,1.12,1.12,0,0,0,1.3-.47,1.05,1.05,0,0,0-.29-1.34,2.07,2.07,0,0,0-1-.28" style="fill:#263238"></path><path d="M175.71,93.39s-3.26-.28-4.92,1.25-2.23,3.09-2,3.25c0,0,.74-.86,3.33-1.06a43.6,43.6,0,0,1,5.09-.06Z" style="fill:#FF725E"></path><path d="M202,89.55q-4.65-7.12-9.29-14.25a25.92,25.92,0,0,1-2.83-5.16c-1.41-3.86-.94-8.21-2.36-12.07-.49.87-1,1.73-1.48,2.59a27.36,27.36,0,0,0-1.05-7.58l-1.65,3a26.4,26.4,0,0,0-1.57-10.38,6.67,6.67,0,0,0-2.68,4,66.31,66.31,0,0,0-1.54-9.49c-5,6.62-6.05,15.34-6.23,23.61a17.65,17.65,0,0,0,.37,4.82,16.16,16.16,0,0,0,2.4,4.76c4.27,6.36,9.8,12,12.52,19.21l18.38,4.13C204.22,96.07,202.33,90.14,202,89.55Z" style="fill:#e0e0e0"></path><path d="M205.13,96.75l-.19,0C205,96.77,205.08,96.8,205.13,96.75Z" style="fill:#e0e0e0"></path><path d="M230.63,86.41a8,8,0,0,1,2.27-2.86,11.61,11.61,0,0,1,2.86-1,10.74,10.74,0,0,0,4.44-2.66,5.42,5.42,0,0,1-3.49.11,94.82,94.82,0,0,0,10.56-4.7c3.18-1.65,6.37-3.58,8.38-6.55A10.35,10.35,0,0,1,251,70.87a32.6,32.6,0,0,0,10.44-15.54A70.8,70.8,0,0,1,254,64.08a4.74,4.74,0,0,1-2.94,1.74,44.91,44.91,0,0,0,8-15.39c-1.13,1.71-2.32,3.37-3.59,5a36.85,36.85,0,0,1-3,3.46,51.52,51.52,0,0,1-9.79,7.08c-2.66,1.62-5.32,3.24-8.09,4.63l11.93-2.13-7.17,5.12L246,72.44s-11.91,5.5-14.57,9.15a9.64,9.64,0,0,0-2.09,6.87Z" style="fill:#263238"></path><path d="M189.83,70.14c-1.41-3.86-.94-8.21-2.36-12.07-.49.87-1,1.73-1.48,2.59a27.36,27.36,0,0,0-1.05-7.58l-1.65,3a26.4,26.4,0,0,0-1.57-10.38,6.67,6.67,0,0,0-2.68,4,66.31,66.31,0,0,0-1.54-9.49c-5,6.62-6.05,15.34-6.23,23.61a17.65,17.65,0,0,0,.37,4.82l2.28-6.26s2.6-8.26,4-4.36,4.44,10.46,4.44,10.46l.61-5.95s1.84,5.79,3.68,6.95A3.94,3.94,0,0,0,189.83,70.14Z" style="fill:#263238"></path><path d="M214.53,78.17s0,0,0,0,0,0,0,.08a3.29,3.29,0,0,1-.21.28c-.18.25-.46.61-.83,1.06-.75.9-1.84,2.19-3.24,3.75s-3.07,3.39-5,5.36c-1,1-2,2-3.19,3A9.73,9.73,0,0,1,200.13,93a4.13,4.13,0,0,1-1.29.06c-.4,0-.8-.07-1.19-.12-6.35-.76-12-1.84-16.15-2.36a4.29,4.29,0,0,0-2.61.57,12.55,12.55,0,0,0-1.76,1.14c-.93.71-1.39,1.16-1.42,1.13A1.63,1.63,0,0,1,176,93a10.93,10.93,0,0,1,1-.93,12.58,12.58,0,0,1,1.75-1.24,4.56,4.56,0,0,1,2.78-.68c4.18.43,9.86,1.45,16.17,2.21l1.18.12a4.33,4.33,0,0,0,1,0,9.77,9.77,0,0,0,1.83-1.26c1.14-.95,2.19-1.95,3.17-2.91,2-1.94,3.67-3.75,5.09-5.27l3.35-3.63.91-1,.25-.26s0-.07.05,0Z" style="fill:#263238"></path><path d="M239.44,73.07a1.57,1.57,0,0,1-.26.32,8.37,8.37,0,0,1-.84.82,14.93,14.93,0,0,1-3.68,2.3,36.48,36.48,0,0,1-6.08,2A29.1,29.1,0,0,0,225,79.65a11.59,11.59,0,0,0-3.37,2,40.43,40.43,0,0,0-5,5.9,28.53,28.53,0,0,1-4.42,4.65,25.84,25.84,0,0,1-3.55,2.48c-.45.25-.8.43-1,.55s-.38.17-.39.15a12.16,12.16,0,0,1,1.32-.87A31,31,0,0,0,211.92,92a29.77,29.77,0,0,0,4.28-4.67,38.4,38.4,0,0,1,5.09-6,11.89,11.89,0,0,1,3.52-2.13,32.23,32.23,0,0,1,3.65-1.08,39.53,39.53,0,0,0,6-1.91,17.25,17.25,0,0,0,3.7-2.12C239,73.44,239.4,73,239.44,73.07Z" style="fill:#263238"></path><path d="M204.39,105.17a2.87,2.87,0,0,1-2.31-.25c-1.22-.54-1.84-1.47-1.73-1.55s.84.6,1.94,1.08S204.39,105,204.39,105.17Z" style="fill:#263238"></path><path d="M209.39,105.77a7.84,7.84,0,0,1-7.1-2.56c.1-.12,1.43,1,3.4,1.7S209.39,105.61,209.39,105.77Z" style="fill:#263238"></path><path d="M285.9,102.53a9.27,9.27,0,0,0-2.54.14,6.13,6.13,0,0,0-3.4,2.47,3.78,3.78,0,0,0,1.3,0,33.07,33.07,0,0,1,5.17-.19,3.07,3.07,0,0,0-.53-2.44" style="fill:#FF725E"></path><path d="M314.69,109.5a101.59,101.59,0,0,1-17.43-4.31c-3.86,3.63-6.39,8.64-10.75,11.64-2,1.36-4.28,2.26-6.08,3.85-2.49,2.19-3.76,5.42-4.87,8.54A224.61,224.61,0,0,0,268,155.27l5.93-7.81-.2,4.7,8.17-13.26.82,4.27,18.8-16.55a96.93,96.93,0,0,0,9.6-10Z" style="fill:#e0e0e0"></path><path d="M298.7,100.46a38.92,38.92,0,0,0,5.51-10c2.46-6.33,3.18-19.41,10.48-24.72s25.49-18.19,25.49-18.19l-7.56,10.63,9.19-7.36a34.22,34.22,0,0,1-7.76,10.42l7.4-3.48s-.92,8-4.26,8.53c-.46.07-2.58,3-2.58,3l.8,1.92s-8.79,18.71-11.12,22.45S316,104.77,316,104.77Z" style="fill:#e0e0e0"></path><path d="M285.62,103.11c.08-.27.41-3.54,5.75-3.71a27.3,27.3,0,0,1,7.74.53s15.26,4.06,17.44,5.26,17.66-2.47,17.66-2.47,7,12.29-2.18,20.35-14.34,5.09-14.34,5.09-.79-9.62-4.72-12.06c0,0-6.82-.09-10.05-1.67s-9.27-7.25-10.49-8-4.72-.3-5.95-1.2A2,2,0,0,1,285.62,103.11Z" style="fill:#e0e0e0"></path><circle cx="289.11" cy="102.31" r="1.08" style="fill:#263238"></circle><path d="M335.41,71.2l-.8-1.92s2.12-2.93,2.58-3c3.34-.55,4.26-8.53,4.26-8.53l-7.4,3.48a34.22,34.22,0,0,0,7.76-10.42l-9.19,7.36,7.56-10.63S322,60.41,314.69,65.73L326.41,62l-2.18,5.52,9.24-4a6.62,6.62,0,0,0-.9,5.53C333.6,71.85,335.41,71.2,335.41,71.2Z" style="fill:#263238"></path><path d="M282.76,143.17l-.82-4.27-8.17,13.26.2-4.7L268,155.27a224.61,224.61,0,0,1,7.52-26.05l-.16,7.92L280,133.8v5.74l4-3.68Z" style="fill:#263238"></path><path d="M326,119.42c-.05.07-.59-.38-1.61-.82s-2.53-.86-4.12-1.6a15.5,15.5,0,0,1-5.21-3.51c.1-.13,2.3,1.62,5.42,3,1.55.72,3.05,1.17,4.07,1.74S326.09,119.38,326,119.42Z" style="fill:#263238"></path><path d="M328.07,116.05a18.73,18.73,0,0,1-5.91-1.49,18.35,18.35,0,0,1-5.36-2.87c.08-.14,2.44,1.19,5.55,2.39S328.1,115.9,328.07,116.05Z" style="fill:#263238"></path><path d="M313.66,115.55a2.5,2.5,0,0,1-.83.36,20.4,20.4,0,0,1-2.38.65,11.19,11.19,0,0,1-3.69.17,11.07,11.07,0,0,1-4.18-1.7,34,34,0,0,1-6.46-4.93c-.74-.73-1.31-1.35-1.68-1.8a3,3,0,0,1-.54-.73c.06,0,.93.89,2.47,2.26a41.37,41.37,0,0,0,6.47,4.75,10.86,10.86,0,0,0,4,1.67,11.22,11.22,0,0,0,3.55-.06C312.41,115.86,313.64,115.46,313.66,115.55Z" style="fill:#263238"></path><path d="M325.5,64.66a9.75,9.75,0,0,1-1.12,1.25l-3.18,3.27c-1.34,1.38-3,3-4.74,4.82a6.94,6.94,0,0,0-1.83,3.35,17.38,17.38,0,0,0-.08,4.22,30.5,30.5,0,0,1-.65,8.31,20.18,20.18,0,0,1-2.58,6.31,15.72,15.72,0,0,1-3,3.5,9,9,0,0,1-1,.78c-.23.16-.36.24-.37.22a20,20,0,0,0,4-4.7,20.81,20.81,0,0,0,2.42-6.22,31.16,31.16,0,0,0,.6-8.18,17.47,17.47,0,0,1,.1-4.34,7.32,7.32,0,0,1,2-3.57c1.79-1.85,3.46-3.41,4.84-4.76l3.3-3.16A10.82,10.82,0,0,1,325.5,64.66Z" style="fill:#263238"></path><path d="M334.12,73.62s-.22.21-.66.53-1.1.73-1.94,1.21A36.68,36.68,0,0,1,317.22,80c-1,.1-1.74.14-2.29.14a2.79,2.79,0,0,1-.84,0,28.05,28.05,0,0,1,3.08-.46,48.08,48.08,0,0,0,7.28-1.7,46.94,46.94,0,0,0,6.9-2.88A27.56,27.56,0,0,1,334.12,73.62Z" style="fill:#263238"></path><path d="M334.51,66.09s-.1.31-.45.76a7.55,7.55,0,0,1-1.84,1.58A24.71,24.71,0,0,1,329,70c-1.22.55-2.57,1.11-4,1.68-2.86,1.12-5.49,2-7.41,2.68a19,19,0,0,1-3.13.91,22.41,22.41,0,0,1,3-1.26l7.34-2.82c1.42-.56,2.78-1.11,4-1.63A27.87,27.87,0,0,0,332,68.11,9.82,9.82,0,0,0,334.51,66.09Z" style="fill:#263238"></path><path d="M327.64,83.24A3.25,3.25,0,0,1,326,84.41a34,34,0,0,1-4.74,1.27,23.92,23.92,0,0,1-4.85.79,3.15,3.15,0,0,1-2-.5,13.13,13.13,0,0,0,2,.13,35.24,35.24,0,0,0,4.74-.93c1.85-.43,3.57-.71,4.72-1.1A18.17,18.17,0,0,0,327.64,83.24Z" style="fill:#263238"></path><path d="M278.19,136a4.8,4.8,0,0,1,.35-1.23,14.74,14.74,0,0,1,1.63-3.1,15.46,15.46,0,0,1,3.6-3.74,29.44,29.44,0,0,1,5.58-3,30.91,30.91,0,0,0,5.5-3,21.71,21.71,0,0,0,3.76-3.42,38.45,38.45,0,0,0,2.75-3.83,4.28,4.28,0,0,1-.52,1.17,19.21,19.21,0,0,1-1.95,2.9,20.34,20.34,0,0,1-3.76,3.57,28.85,28.85,0,0,1-5.57,3,30.29,30.29,0,0,0-5.51,2.93,15.9,15.9,0,0,0-3.58,3.57A24.36,24.36,0,0,0,278.19,136Z" style="fill:#263238"></path><path d="M286.3,138.21a45,45,0,0,0,.78-5.43,44.87,44.87,0,0,0-.38-5.47,13.94,13.94,0,0,1-.4,10.9Z" style="fill:#263238"></path><path d="M292.56,133.12c-.15,0-.05-1.8-.21-4a38.1,38.1,0,0,1-.32-4,14.16,14.16,0,0,1,.53,8Z" style="fill:#263238"></path><path d="M297.78,128.9A35.63,35.63,0,0,1,297,125a32.5,32.5,0,0,1-.8-3.93,10.44,10.44,0,0,1,1.31,3.83A10.08,10.08,0,0,1,297.78,128.9Z" style="fill:#263238"></path><path d="M303.61,120.17c-.09.11-.75-.32-1.48-1S300.9,118,301,117.85s.76.32,1.48,1S303.71,120.07,303.61,120.17Z" style="fill:#263238"></path><path d="M317.55,101.88A16.71,16.71,0,0,1,314,99.6a17.07,17.07,0,0,1-3.24-2.71,17.4,17.4,0,0,1,3.55,2.29A18,18,0,0,1,317.55,101.88Z" style="fill:#263238"></path><path d="M324.3,93.17a12.64,12.64,0,0,1-5.85,1.36c-1.68,0-3.16-.15-4.23-.21a9.07,9.07,0,0,1-1.75-.15,4.75,4.75,0,0,1,1.76-.22c1.09,0,2.58.1,4.21.06A44.79,44.79,0,0,0,324.3,93.17Z" style="fill:#263238"></path></g><g id="freepik--Ground--inject-144"><g style="opacity:0.2"><path d="M402.74,341.07c-.46-.46-.66-.61-1.3-.51a1.5,1.5,0,0,0-.93.5,1.15,1.15,0,0,0-.28,1.43,1.52,1.52,0,0,0,.91.52,1.78,1.78,0,0,0,1.67-.2A1.26,1.26,0,0,0,402.74,341.07Z"></path></g><g style="opacity:0.2"><path d="M405.94,340.1c-.27-.26-.38-.35-.75-.29a.84.84,0,0,0-.53.28.67.67,0,0,0-.16.82.86.86,0,0,0,.52.3,1,1,0,0,0,1-.11A.73.73,0,0,0,405.94,340.1Z"></path></g><path d="M282,365.88s-20.26-5.92-24.63-6.23c-3.45-.25-6.52,3.8-7.64,5.5-.3.45-.46.73-.46.73Z" style="fill:#e0e0e0"></path><path d="M282,365.88l-9.37.09c-5.87.07-14.17.18-23.36.17h-.47l.24-.39c.29-.46.6-1,.94-1.43a12.82,12.82,0,0,1,5.28-4.59,5,5,0,0,1,1.71-.33,3.41,3.41,0,0,1,.85.05c.27,0,.55.06.82.11,1.07.19,2.1.41,3.11.64,4,.94,7.59,1.93,10.59,2.77s5.42,1.56,7.09,2.06l1.91.6a5.4,5.4,0,0,1,.66.25,5.36,5.36,0,0,1-.69-.14l-1.94-.51-7.12-1.91c-3-.79-6.6-1.74-10.61-2.65-1-.22-2-.44-3.08-.62a5.52,5.52,0,0,0-3.12.16,12.25,12.25,0,0,0-5,4.41c-.34.46-.64.95-.92,1.39l-.22-.39c9,0,17.11.1,23,.17Z" style="fill:#263238"></path><path d="M344.1,365.56c0,.14-33.16.4-74.05.58s-74.05.21-74.05.06,33.15-.4,74.05-.58S344.09,365.41,344.1,365.56Z" style="fill:#263238"></path><path d="M289.46,370.89c0,.14-9.12.26-20.36.26s-20.37-.12-20.37-.26,9.12-.26,20.37-.26S289.46,370.75,289.46,370.89Z" style="fill:#263238"></path><path d="M493.93,324.22l-2.12-.81-2.76,2.73,1.8-5.07-3.67-.7-3.06,5.06L485.6,319l-3.7-.45-2.11,7,.65-9.62-1.7.55-2.54,9.9.87-12.5s-4.38-1.61-4.48-1.26-5.73,12.64-5.73,12.64l1.42-12.4-10.47-2.05-2.68,15-.43-14.89-9.07-.94-2.17,17.2-1.62-17.95-2,.13.7,18.35-5.16-19.2-11.34.42.52,20.35-4.92-19.76-2.58.41,3.44,20-6.15-17.33-4.52,1.41L408,318.47l-.53,18.39-2.88-20.12-2.58.4,1.39,20.31-5.76-19.51L386.69,321l1,19.87-5-17.68-2,.5,4,17.58-7.35-15.7L369,329.26l4.17,14.3L366,330.15l-9.34,5.17,5.17,11.36s-9.14-10-9.34-10.27-3.87,2.58-3.87,2.58l4.66,11.62L347.85,342h-1.79l3.58,9-4.17-6.05-3.38,1.56,3.38,5.66L341,348.23,337.72,350l3.28,4.27-3.47-1.75L335.76,354l2.85,3,81.11-15.79-1.53-4.3L492.14,328Z" style="fill:#455a64"></path><path d="M294,366.08S416.1,331,452.57,326.28s94.13,0,94.13,0l-10.29,20L344.09,365.56Z" style="fill:#e0e0e0"></path><path d="M294,366.08l50.11-.67h0L536.39,346l-.21.14c2.69-5.2,5.56-10.77,8.45-16.38l1.84-3.57.21.38c-17.8-1.31-35.21-2-52-2.06-8.4,0-16.66.11-24.72.56a199.86,199.86,0,0,0-23.54,2.45c-1.91.26-3.79.69-5.66,1l-5.57,1.08L424.31,332l-10.52,2.43-10.17,2.45c-13.31,3.27-25.68,6.45-36.94,9.42-22.53,5.94-40.69,10.95-53.23,14.43l-14.43,4-3.75,1-1.29.34,1.27-.39L299,364.6l14.4-4.12c12.53-3.53,30.67-8.6,53.2-14.58,11.26-3,23.62-6.2,36.93-9.48L413.69,334l10.52-2.45,10.87-2.36,5.58-1.08c1.87-.35,3.74-.77,5.66-1a199,199,0,0,1,23.59-2.47c8.08-.46,16.34-.6,24.75-.58,16.83,0,34.25.74,52.06,2l.39,0-.18.35L545.09,330l-8.44,16.38-.07.13h-.14L344.11,365.71h0Z" style="fill:#263238"></path><g style="opacity:0.2"><path d="M334.76,354.49s34.2,2.74,44,2.48,51.71-7.29,53-7.2S454.41,336,463,335.56s37.82,3.55,37.82,3.55l5.34-3.58s-38-4.89-44.87-4.67-24.14,14.95-30.12,16-69.35,4.3-74,2.89L355,349Z"></path></g><path d="M510.36,346.38,508,249.78l12.24-10.2-1-2-11.43,8.14-5.65-70.56h-2.81s-2,157.55-5.36,163-9.63,8.28-9.63,8.28Z" style="fill:#db8a76"></path><path d="M506.88,341.4a1,1,0,0,1,0-.31c0-.23.05-.53.08-.91.09-.83.22-2,.38-3.52.32-3.05.81-7.46,1.25-12.92a155.36,155.36,0,0,0,.44-19.22,97.78,97.78,0,0,0-1.15-11.29c-.65-3.89-1.58-7.88-2.49-12a103.18,103.18,0,0,1-2.09-12.07,54.83,54.83,0,0,1-.23-5.83,50.4,50.4,0,0,1,.46-5.57c.48-3.6,1.22-7,1.89-10.15s1.26-6.11,1.63-8.82a40.59,40.59,0,0,0,0-12.9,28.38,28.38,0,0,0-.84-3.44c-.12-.36-.22-.65-.29-.87a1.31,1.31,0,0,1-.08-.31s.05.1.13.29l.33.87a24.6,24.6,0,0,1,.93,3.43,39.26,39.26,0,0,1,.15,13c-.35,2.73-.93,5.69-1.58,8.86s-1.37,6.54-1.84,10.13a49.71,49.71,0,0,0-.44,5.53,51.46,51.46,0,0,0,.24,5.78,103.11,103.11,0,0,0,2.09,12c.91,4.1,1.84,8.09,2.48,12a94.39,94.39,0,0,1,1.13,11.34,150.38,150.38,0,0,1-.54,19.26c-.48,5.47-1,9.88-1.41,12.92-.19,1.5-.35,2.68-.46,3.5-.05.39-.1.69-.13.92A2.4,2.4,0,0,1,506.88,341.4Z" style="fill:#9a5d53"></path><path d="M488.35,346.31a14.7,14.7,0,0,0,4.4-.45,16.67,16.67,0,0,0,9.29-6.72,24.46,24.46,0,0,0,3.23-7.07,59.4,59.4,0,0,0,1.68-8.72,84.08,84.08,0,0,0,.39-20.3,8.57,8.57,0,0,0-.85-3.31,3.22,3.22,0,0,0-1.11-1.23,2.44,2.44,0,0,0-1.61-.31,4.13,4.13,0,0,0-2.57,2,17.68,17.68,0,0,0-1.44,3,22.17,22.17,0,0,0-1.11,12,6.65,6.65,0,0,0,.84,2.59,1.25,1.25,0,0,0,1.05.57,1.54,1.54,0,0,0,1.06-.57,4.31,4.31,0,0,0,.68-1.07,11.55,11.55,0,0,0,.51-1.15,11.83,11.83,0,0,0,.62-2.31,12.24,12.24,0,0,0-1.28-7.83h.22a9.45,9.45,0,0,0-1.81,5.46,11.85,11.85,0,0,0,.11,1.52,4,4,0,0,1,.08.52,6.71,6.71,0,0,1-.32-2,9.38,9.38,0,0,1,1.73-5.6l.12-.17.1.18a12.46,12.46,0,0,1,1.39,8,10.77,10.77,0,0,1-1.85,4.7,1.9,1.9,0,0,1-1.35.71,1.67,1.67,0,0,1-1.39-.72,6.81,6.81,0,0,1-.92-2.73A22.3,22.3,0,0,1,499.33,303a17.71,17.71,0,0,1,1.46-3.05,6.81,6.81,0,0,1,1.18-1.35,3.5,3.5,0,0,1,1.72-.85,3,3,0,0,1,1.95.38,3.62,3.62,0,0,1,1.27,1.4,8.68,8.68,0,0,1,.91,3.47,83.7,83.7,0,0,1-.43,20.39,57.68,57.68,0,0,1-1.74,8.77,24.61,24.61,0,0,1-3.32,7.14A16.8,16.8,0,0,1,492.8,346a13.19,13.19,0,0,1-3.3.38,7.45,7.45,0,0,1-.86-.06A.85.85,0,0,1,488.35,346.31Z" style="fill:#9a5d53"></path><path d="M503.67,236.78a3.53,3.53,0,0,1-.4-.3l-1.2-1,.1,0a8.61,8.61,0,0,0-.57,2.64,8.2,8.2,0,0,0,.7,3.76,3.48,3.48,0,0,0,.57,1,1.07,1.07,0,0,0,1,.4,1.41,1.41,0,0,0,.88-.77,3.35,3.35,0,0,0,.38-1.22,20.22,20.22,0,0,0,.05-5.83,19.65,19.65,0,0,0-.7-3.17,7.38,7.38,0,0,0-.62-1.55,3.07,3.07,0,0,0-1.15-1.22,1.73,1.73,0,0,0-1.64,0,3,3,0,0,0-1.15,1.31,8.31,8.31,0,0,0-.6,1.74c-.18.61-.29,1.23-.43,1.86-1,5-.42,10.61.22,16.32a153.4,153.4,0,0,1,1,19.44A150.68,150.68,0,0,1,499.06,286c-.54,4.49-1.17,8.11-1.67,10.6-.23,1.24-.47,2.2-.61,2.86-.07.3-.13.55-.17.74a.9.9,0,0,1-.08.25.84.84,0,0,1,0-.26c0-.19.07-.44.13-.75.11-.66.31-1.62.51-2.87.45-2.49,1-6.11,1.53-10.61s.88-9.86.93-15.83a156.89,156.89,0,0,0-1-19.4c-.64-5.71-1.2-11.31-.19-16.44.15-.63.26-1.26.45-1.88a8.14,8.14,0,0,1,.64-1.81,3.37,3.37,0,0,1,1.32-1.49,2.2,2.2,0,0,1,2.07,0,3.43,3.43,0,0,1,1.3,1.38,7.39,7.39,0,0,1,.65,1.63,21.45,21.45,0,0,1,.69,3.23,20.68,20.68,0,0,1-.1,5.91,4.09,4.09,0,0,1-.43,1.32,1.71,1.71,0,0,1-1.1.9,1.38,1.38,0,0,1-1.28-.5,3.68,3.68,0,0,1-.6-1,8.27,8.27,0,0,1,0-6.53l0-.08.07.06,1.15,1A2.36,2.36,0,0,1,503.67,236.78Z" style="fill:#9a5d53"></path><path d="M502.73,109c0,1-22.14,59.73-22.14,59.73l11.07-9.48-16,41.08L486.22,188l-16.79,52,10.41-5.85-10.51,36.34,9-9.48-9,27.18,71.3-4.43-16.89-51.19,10.2,9.48-13.2-37.29,6.76,3.16-15.39-48,7.13,4.11Z" style="fill:#455a64"></path><polygon points="356.73 478.11 402.01 443.44 423.59 421.5 418.66 372.94 525.77 350.44 736.67 349.73 737.7 478.02 411.76 478.11 356.73 478.11" style="fill:#9a5d53"></polygon><g style="opacity:0.2"><path d="M635.54,408.7s-29-6.14-54.75-1.49-63.3,18.41-93.6,16.44-64.14-17.53-64.14-17.53l-1,.17L423.24,418s39.84,10.81,61.33,17.8,68-16.67,86.41-21.69,50.73-1.44,60.74,3.89,105.37-15.19,105.37-15.19l-.19-24Z" style="fill:#fff"></path></g><path d="M585.29,348.09c-.71.46-9.22,7.85-9.22,7.85l-1,10.55-4,1.2-9.36-2.21-7.11,6.28-7.94-3.13,7.7,4.49,2.37-1,5.2-4.56,9,2.07-8.18,1.65-5,4.54.25,5.86,1-5.05,4.16-3.68,9.62-2.37,4.64-2.79,1.9-7L580.8,368l-7.61,5.2L572,383l-10.36,2.64-6.16,4.47-3.62-5.3-12.12-1.35,10.76,2.82,4.51,6.55-2.87,3.35-8-2-9.06,9.34,9-6.67,8.71,1.52,3.14-2.62,1.75-4.94,4.68-4.12,8.6-1.31,1,5.78-9.47,5.59L560.7,407l-9.1,3.65,11-3.67,1.51-8.9,10.59-5.71-1-7.68,1.63-11.21,3.24-1.68-.27,9.73,6.27,3.5-4.08-4.31.17-8.95,3-3.94-1.69-8.56-1-3.7,5.55-5Z" style="fill:#824943"></path><path d="M581.21,361.16c.63.14,8.68,3.23,8.68,3.23l3.44,7.35,3.23-.2,6.16-4,6.75,2.66,4.9-4.32L610,371.08l-2-.12-4.94-1.91-5.91,3.83,6.32-1,4.8,2,1.34,4.28-2-3.38-4-1.56-7.54.81-4.07-.79-3.2-4.58.78,5.62,6.83,1.75,3.44,6.75,8.14-.8,5.6,1.6,1.22-4.76,8.36-4.14-7,4.84-1.53,5.89,2.93,1.66,5.25-3.52,9,4.36-8.19-2.46-5.87,3.37-2.94-1.06-2.55-3.1-4.45-1.74-6.53,1.3.79,4.43,8.27,1.54,3.93,6.93,7.51.25-8.88.23-3.41-6-9.11-1.34-1.27-5.79-4.1-7.63-2.77-.36,2.74,6.92-3.6,4.15,1.81-4.16-2.46-6.4-3.19-2-1-6.6-.26-2.91L581,363.3Z" style="fill:#824943"></path><path d="M736.67,286s-262.86,45.87-281,57.6A240.11,240.11,0,0,0,419,372.94l.64,6.38s52.6-2.19,92.77-13.72l76.25-12.07,148,1.35Z" style="fill:#455a64"></path><path d="M693.17,308.19l-2.46-101,12.8-10.66-1-2.11-12,8.5-5.9-73.76H681.7s-2.1,164.72-5.6,170.37S666,308.19,666,308.19Z" style="fill:#db8a76"></path><path d="M689.53,303a1.17,1.17,0,0,1,0-.33c0-.23.05-.55.09-.95.09-.87.22-2.1.39-3.68.34-3.18.86-7.8,1.31-13.51a161.16,161.16,0,0,0,.46-20.09,100.08,100.08,0,0,0-1.21-11.8c-.67-4.07-1.64-8.24-2.59-12.53a108.43,108.43,0,0,1-2.19-12.62,54.57,54.57,0,0,1-.24-6.09,52.3,52.3,0,0,1,.48-5.82c.51-3.77,1.28-7.31,2-10.61s1.33-6.39,1.71-9.23a42.51,42.51,0,0,0,0-13.49,31.07,31.07,0,0,0-.88-3.58c-.13-.39-.23-.69-.3-.92a1.37,1.37,0,0,1-.09-.32,1.34,1.34,0,0,1,.14.3c.08.23.2.53.35.91a25.61,25.61,0,0,1,1,3.58,41.23,41.23,0,0,1,.15,13.56c-.36,2.85-1,6-1.65,9.26s-1.43,6.84-1.92,10.59a51.8,51.8,0,0,0-.46,5.78,56.19,56.19,0,0,0,.25,6A108.73,108.73,0,0,0,688.48,240c.95,4.28,1.92,8.46,2.59,12.55a101,101,0,0,1,1.19,11.85,156.13,156.13,0,0,1-.58,20.14c-.5,5.71-1.07,10.32-1.47,13.5-.2,1.57-.36,2.8-.48,3.67-.06.4-.1.71-.14,1A1.43,1.43,0,0,1,689.53,303Z" style="fill:#9a5d53"></path><path d="M670.16,308.12a16,16,0,0,0,4.6-.48,17.38,17.38,0,0,0,9.71-7,25.48,25.48,0,0,0,3.38-7.39,61.59,61.59,0,0,0,1.76-9.13,88.48,88.48,0,0,0,.41-21.21,9,9,0,0,0-.9-3.47,3.34,3.34,0,0,0-1.16-1.28,2.52,2.52,0,0,0-1.68-.33,4.37,4.37,0,0,0-2.69,2.08,18.53,18.53,0,0,0-1.5,3.11,23.13,23.13,0,0,0-1.16,12.54,6.72,6.72,0,0,0,.88,2.7,1.3,1.3,0,0,0,1.09.6,1.63,1.63,0,0,0,1.11-.6,4.87,4.87,0,0,0,.72-1.12,11.53,11.53,0,0,0,.53-1.2,13.09,13.09,0,0,0,.65-2.41,12.89,12.89,0,0,0-1.34-8.19h.22a9.92,9.92,0,0,0-1.88,5.71,11.27,11.27,0,0,0,.11,1.59,4.5,4.5,0,0,1,.08.54,7,7,0,0,1-.33-2.12,9.71,9.71,0,0,1,1.81-5.85l.12-.18.1.19a13,13,0,0,1,1.47,8.34,11.34,11.34,0,0,1-1.95,4.93,2,2,0,0,1-1.41.74,1.75,1.75,0,0,1-1.45-.75,7.29,7.29,0,0,1-1-2.86,23.43,23.43,0,0,1,1.13-12.76,19.06,19.06,0,0,1,1.54-3.19,6.57,6.57,0,0,1,1.23-1.42,3.68,3.68,0,0,1,1.8-.88,3.16,3.16,0,0,1,2,.39,3.86,3.86,0,0,1,1.33,1.46,9.36,9.36,0,0,1,.95,3.63,87.66,87.66,0,0,1-.45,21.31,61.38,61.38,0,0,1-1.82,9.18,25.55,25.55,0,0,1-3.48,7.46,17.54,17.54,0,0,1-10,7,14,14,0,0,1-3.44.4c-.4,0-.7-.05-.9-.06Z" style="fill:#9a5d53"></path><path d="M686.18,193.6a2.24,2.24,0,0,1-.42-.31l-1.26-1,.11,0a8.61,8.61,0,0,0,.13,6.68,3.7,3.7,0,0,0,.6,1,1.11,1.11,0,0,0,1,.41,1.44,1.44,0,0,0,.91-.79,3.48,3.48,0,0,0,.4-1.29,21,21,0,0,0,0-6.09,20.49,20.49,0,0,0-.72-3.31,7.35,7.35,0,0,0-.66-1.62,3.15,3.15,0,0,0-1.2-1.28,1.82,1.82,0,0,0-1.71,0,3.09,3.09,0,0,0-1.2,1.37,8.32,8.32,0,0,0-.63,1.82c-.19.63-.3,1.29-.45,1.94-1,5.29-.44,11.09.23,17.07a160.18,160.18,0,0,1,1,20.32,157.88,157.88,0,0,1-1.09,16.59c-.57,4.7-1.22,8.48-1.75,11.08-.24,1.3-.49,2.31-.63,3l-.19.77a.77.77,0,0,1-.08.26l0-.27c0-.2.08-.46.14-.78.11-.69.32-1.69.54-3,.46-2.61,1.06-6.39,1.59-11.09s.92-10.31,1-16.55a165.72,165.72,0,0,0-1.08-20.28c-.67-6-1.25-11.82-.2-17.19.15-.66.27-1.32.47-2a8.74,8.74,0,0,1,.66-1.9,3.57,3.57,0,0,1,1.39-1.55,2.27,2.27,0,0,1,2.16,0,3.53,3.53,0,0,1,1.36,1.44,7.72,7.72,0,0,1,.68,1.71,20.71,20.71,0,0,1,.72,3.37,21.12,21.12,0,0,1-.11,6.18,3.69,3.69,0,0,1-.45,1.37,1.7,1.7,0,0,1-1.14.94,1.43,1.43,0,0,1-1.34-.51,4.2,4.2,0,0,1-.63-1.09,8.83,8.83,0,0,1-.68-4,8.52,8.52,0,0,1,.69-2.79l0-.08.07.06,1.21,1.06A3.65,3.65,0,0,1,686.18,193.6Z" style="fill:#9a5d53"></path><path d="M685.19,60c0,1-23.14,62.45-23.14,62.45l11.57-9.92-16.67,43,11-12.89-17.55,54.35,10.88-6.11-11,38,9.41-9.91-9.41,28.42,74.54-4.63-17.66-53.52,10.67,9.91-13.81-39,7.07,3.31L695,113.15l7.46,4.3Z" style="fill:#455a64"></path><path d="M521.82,366.55,517.37,359q2.73,2.19,5.58,4.18a28,28,0,0,1-2-9.25,39.81,39.81,0,0,0,4.81,8.83c.19-2,.44-4.1,1.66-5.68a24.5,24.5,0,0,0,2.5,9.79,14,14,0,0,0-6.22,0" style="fill:#9a5d53"></path><circle cx="444.37" cy="425.5" r="4.42" style="fill:#824943"></circle><path d="M682.53,378.52a4.73,4.73,0,1,1-4.72-4.72A4.72,4.72,0,0,1,682.53,378.52Z" style="fill:#824943"></path><g style="opacity:0.2"><path d="M603.44,419.54a4.73,4.73,0,1,1-4.73-4.73A4.72,4.72,0,0,1,603.44,419.54Z"></path></g><path d="M457.05,418a2.64,2.64,0,1,1-2.64-2.64A2.64,2.64,0,0,1,457.05,418Z" style="fill:#824943"></path><circle cx="662.9" cy="370.83" r="2.82" style="fill:#824943"></circle><g style="opacity:0.2"><circle cx="584.67" cy="432.74" r="2.82"></circle></g><path d="M356.73,478.1c13.87-3.18,28.35-14.78,43.63-14.22,4.19.15,8.2,1.58,12.32,2.36,13.19,2.51,26.69-1.68,39.17-6.66,7.51-3,15.21-6.35,23.29-6.09,6.9.23,13.51,3.1,20.42,3.36,18.54.71,33.78-17.12,52.34-17,10,.05,19.71,5.35,29.5,3.54,8.12-1.5,14.61-7.61,22.39-10.36,9-3.16,19.15-1.52,27.6,2.85,0,0,8.79,3.85,17.05,1.87S663,425.2,668.91,425.5s68.38,2,68.38,2L737.7,478l-294.45.22-36.18.42Z" style="fill:#824943"></path><path d="M527.56,308.39a10.88,10.88,0,0,1,1.93,1.87,34.4,34.4,0,0,1,6.58,11.07,10.44,10.44,0,0,1,.72,2.58,18.43,18.43,0,0,1-1.06-2.45,47.43,47.43,0,0,0-2.87-5.71,48,48,0,0,0-3.65-5.26A18.2,18.2,0,0,1,527.56,308.39Z" style="fill:#263238"></path><path d="M537.25,300.31a7.53,7.53,0,0,1,0,.91,13.86,13.86,0,0,0,.19,2.47c.29,2.09.69,5,1.22,8.16s1.06,6,1.45,8.13a25.25,25.25,0,0,1,.57,3.38,19.67,19.67,0,0,1-.93-3.3c-.49-2.06-1.08-4.93-1.61-8.12s-.87-6.1-1.06-8.21a10.82,10.82,0,0,1,0-2.52A2,2,0,0,1,537.25,300.31Z" style="fill:#263238"></path><path d="M543.5,312.4c.15,0-.24,2.27-.24,5.06s.38,5,.23,5.06a17.33,17.33,0,0,1,0-10.12Z" style="fill:#263238"></path><path d="M631.93,306.32c-.14.06-1.5-3-3.61-6.45s-4.13-6.1-4-6.2a8.28,8.28,0,0,1,1.47,1.61,40.85,40.85,0,0,1,3,4.32,41.38,41.38,0,0,1,2.43,4.67A8.18,8.18,0,0,1,631.93,306.32Z" style="fill:#263238"></path><path d="M633.71,305.11c-.15,0-1-2.84-2.32-6.26s-2.73-6.07-2.6-6.15a6.36,6.36,0,0,1,1.08,1.66,40.14,40.14,0,0,1,3.48,8.81A6.83,6.83,0,0,1,633.71,305.11Z" style="fill:#263238"></path><path d="M635,289.14a10.72,10.72,0,0,1,.12,2.32c0,1.62.07,3.5.11,5.57s.15,3.94.22,5.57a10.65,10.65,0,0,1,0,2.32,9.93,9.93,0,0,1-.38-2.29c-.16-1.43-.31-3.4-.37-5.59s0-4.16,0-5.59A9.91,9.91,0,0,1,635,289.14Z" style="fill:#263238"></path><path d="M477.78,359.5c-.13.07-1.23-1.74-2.86-3.74s-3.18-3.45-3.08-3.57a17.2,17.2,0,0,1,5.94,7.31Z" style="fill:#263238"></path><path d="M480.83,359.4a7.22,7.22,0,0,1-1.15-1.75c-.65-1.11-1.49-2.68-2.36-4.44s-1.59-3.4-2.07-4.59a8.42,8.42,0,0,1-.68-2,68.78,68.78,0,0,1,3.22,6.34C479.51,356.5,481,359.33,480.83,359.4Z" style="fill:#263238"></path><path d="M484.57,358.92a6.64,6.64,0,0,1-.68-1.92,37.81,37.81,0,0,1-.95-4.83,35.9,35.9,0,0,1-.29-4.9,6.82,6.82,0,0,1,.18-2c.15,0,.14,3.1.63,6.87S484.72,358.88,484.57,358.92Z" style="fill:#263238"></path><polygon points="663.06 312.66 680.02 304.03 696.03 299.92 697.79 315.42 676.36 317.36 663.06 312.66" style="fill:#455a64"></polygon><polygon points="464.48 401.7 476.42 403.71 486.1 392.04 476.63 384.59 459.54 390.49 464.48 401.7" style="fill:#824943"></polygon><polygon points="537.71 417.2 539.43 423.32 547.13 425.3 548.55 419.14 541.92 412.35 537.71 417.2" style="fill:#824943"></polygon><polygon points="469.4 437.51 477.7 446.33 496.91 448.51 504.98 434.88 487.19 429.92 469.4 437.51" style="fill:#824943"></polygon><path d="M511.08,431.37c.27,1,1,5.25,1,5.25h3.73l4-2.63Z" style="fill:#824943"></path><g style="opacity:0.2"><path d="M568.67,352.63c.08.29-4.64,1.87-12.6,2.24a65,65,0,0,1-13.93-.91,16.45,16.45,0,0,1-4.13-1.14,5.73,5.73,0,0,1-2.1-1.53,3.6,3.6,0,0,1-.73-1.4,3.7,3.7,0,0,1,0-1.62,7.54,7.54,0,0,1,1.05-2.33c.19-.32.37-.61.52-.88a3,3,0,0,0,.28-.7,1.19,1.19,0,0,0-.08-1c-.11-.15-.43-.32-1.09-.37-5.87-.27-11.64-.55-16.8-.85l-7.35-.45a10.26,10.26,0,0,1-3.62-.76,3.48,3.48,0,0,1-1.62-1.42,2.77,2.77,0,0,1-.2-2.18,7.19,7.19,0,0,1,1.75-2.64l1.7-1.82c1.07-1.14,2-2.11,2.78-2.89,1.55-1.55,2.47-2.36,2.61-2.24s-.53,1.14-1.84,2.91c-.66.88-1.48,1.94-2.45,3.17l-1.55,1.95a5.89,5.89,0,0,0-1.23,2.05.85.85,0,0,0,.1.72,1.6,1.6,0,0,0,.77.56,8.82,8.82,0,0,0,2.91.44l7.35.2c5.21.17,10.83.37,16.91.66a5.22,5.22,0,0,1,1.44.3,3.38,3.38,0,0,1,1.46,1,3.31,3.31,0,0,1,.68,1.67,4.37,4.37,0,0,1-.12,1.55,5.44,5.44,0,0,1-.53,1.32c-.2.36-.4.68-.58,1a5.51,5.51,0,0,0-.75,1.52,1,1,0,0,0,.21.9,3.47,3.47,0,0,0,1.21.87,14.63,14.63,0,0,0,3.51,1A75.64,75.64,0,0,0,556.05,353C563.8,353.13,568.59,352.22,568.67,352.63Z" style="fill:#fff"></path></g><polygon points="585.96 160.78 595.76 146.89 597.18 151.15 585.61 168.15 585.96 160.78" style="fill:#db8a76"></polygon><path d="M560.52,303.28c-.82,4.39.07,8.91,1,13.29q-4.1-5.52-7.82-11.32a37.93,37.93,0,0,0,4,12.23,92.4,92.4,0,0,0-7.51-6.05q3.79,4.88,7.19,10.06l8.6-.86A79.34,79.34,0,0,1,560.52,303.28Z" style="fill:#455a64"></path><path d="M711.68,275.85c-.82,4.4.07,8.91,1,13.29q-4.1-5.52-7.82-11.31a38,38,0,0,0,4,12.23,92.4,92.4,0,0,0-7.51-6.05q3.8,4.88,7.19,10.06l8.6-.87A79.17,79.17,0,0,1,711.68,275.85Z" style="fill:#455a64"></path><polygon points="551.38 344.14 559.82 334.29 571.41 328.57 579.72 334.55 573.27 341.43 551.38 344.14" style="fill:#e0e0e0"></polygon><path d="M551.32,344.17l0-.05,8.45-9.85,11.6-5.73h0l8.34,6,0,0-6.46,6.9h0Zm8.51-9.86-8.39,9.79,21.82-2.69,6.42-6.86-8.27-5.95Z" style="fill:#263238"></path><path d="M589.84,31.62c0,1.24-26.64,77.92-26.64,77.92l13.32-12.37-19.19,53.6L570,134.69l-20.2,67.82,12.52-7.63L549.65,242.3l10.84-12.37-10.84,35.45,85.8-5.77-20.32-66.79,12.27,12.37-15.88-48.65,8.13,4.12L601.13,98l8.58,5.36Z" style="fill:#455a64"></path><path d="M599,341.37l-2.83-126L610.93,202l-1.17-2.63L596,210,589.2,118h-3.38s-2.42,205.54-6.45,212.59-11.59,10.81-11.59,10.81Z" style="fill:#db8a76"></path><path d="M594.83,334.87a2.53,2.53,0,0,1,0-.41c0-.3.06-.69.1-1.19q.15-1.63.45-4.59c.39-4,1-9.73,1.51-16.86a222.43,222.43,0,0,0,.53-25.07A137,137,0,0,0,596.05,272c-.78-5.07-1.9-10.28-3-15.62a143.87,143.87,0,0,1-2.52-15.76,75,75,0,0,1-.28-7.59,71.16,71.16,0,0,1,.55-7.27c.59-4.7,1.48-9.12,2.28-13.24s1.52-8,2-11.51a57.16,57.16,0,0,0,0-16.83,37.77,37.77,0,0,0-1-4.48c-.14-.48-.26-.86-.35-1.14a3,3,0,0,1-.1-.4,2.38,2.38,0,0,1,.16.38l.4,1.13a33.07,33.07,0,0,1,1.12,4.47,55.83,55.83,0,0,1,.18,16.91c-.42,3.57-1.12,7.43-1.9,11.56s-1.65,8.54-2.22,13.22c-.28,2.34-.48,4.75-.53,7.21s.07,5,.29,7.53a148.84,148.84,0,0,0,2.52,15.69c1.09,5.34,2.21,10.56,3,15.66A137.81,137.81,0,0,1,598,286.73a211.6,211.6,0,0,1-.66,25.12c-.57,7.13-1.23,12.88-1.69,16.86-.24,2-.42,3.49-.56,4.57-.06.5-.12.89-.16,1.19A1.69,1.69,0,0,1,594.83,334.87Z" style="fill:#9a5d53"></path><path d="M572.54,341.28a17.24,17.24,0,0,0,5.29-.59A20.23,20.23,0,0,0,589,331.92a33.32,33.32,0,0,0,3.89-9.23,82.34,82.34,0,0,0,2-11.38,119.28,119.28,0,0,0,.47-26.47,11.76,11.76,0,0,0-1-4.33,4.11,4.11,0,0,0-1.33-1.6,2.72,2.72,0,0,0-1.94-.4A5.05,5.05,0,0,0,588,281.1a23.93,23.93,0,0,0-1.73,3.87,31.29,31.29,0,0,0-1.34,15.66,9.16,9.16,0,0,0,1,3.37,1.49,1.49,0,0,0,1.26.74,1.8,1.8,0,0,0,1.28-.75,5.53,5.53,0,0,0,.82-1.39c.24-.49.43-1,.62-1.5a17.62,17.62,0,0,0,.74-3,17.2,17.2,0,0,0-1.54-10.22l.26,0a13,13,0,0,0-2.17,7.13,14.67,14.67,0,0,0,.13,2,5.56,5.56,0,0,1,.09.67,9.59,9.59,0,0,1-.38-2.65,12.89,12.89,0,0,1,2.08-7.3l.14-.22.12.24a17.4,17.4,0,0,1,1.68,10.41,14.69,14.69,0,0,1-2.23,6.14,2.32,2.32,0,0,1-1.62.93,2,2,0,0,1-1.68-.94,9.51,9.51,0,0,1-1.1-3.57,31.49,31.49,0,0,1,1.3-15.92,24.19,24.19,0,0,1,1.77-4,8,8,0,0,1,1.41-1.77,4.12,4.12,0,0,1,2.08-1.1,3.28,3.28,0,0,1,2.34.49,4.62,4.62,0,0,1,1.53,1.82,12.35,12.35,0,0,1,1.1,4.53,118.49,118.49,0,0,1-.52,26.6,82.07,82.07,0,0,1-2.09,11.44,33.27,33.27,0,0,1-4,9.32,20.25,20.25,0,0,1-11.47,8.76,14.52,14.52,0,0,1-4,.5c-.46,0-.81-.06-1-.07A2.49,2.49,0,0,1,572.54,341.28Z" style="fill:#9a5d53"></path><path d="M591,198.38a4.35,4.35,0,0,1-.48-.39l-1.44-1.27.12,0a11.6,11.6,0,0,0,.15,8.34,4.81,4.81,0,0,0,.69,1.26,1.23,1.23,0,0,0,1.21.51,1.7,1.7,0,0,0,1-1,4.87,4.87,0,0,0,.46-1.6,28.39,28.39,0,0,0-.78-11.73,10.29,10.29,0,0,0-.75-2,3.85,3.85,0,0,0-1.39-1.59,1.89,1.89,0,0,0-2,0,3.82,3.82,0,0,0-1.39,1.71,11,11,0,0,0-.72,2.28c-.22.78-.35,1.6-.52,2.41-1.18,6.6-.5,13.85.27,21.3a218.14,218.14,0,0,1,1.19,25.36c-.09,7.81-.61,14.83-1.25,20.7s-1.41,10.58-2,13.83c-.28,1.62-.56,2.87-.73,3.73l-.21,1a1.54,1.54,0,0,1-.09.33,1.43,1.43,0,0,1,0-.34c0-.25.1-.57.16-1,.13-.85.38-2.11.62-3.74.54-3.25,1.23-8,1.83-13.84s1.07-12.86,1.13-20.65a222.11,222.11,0,0,0-1.24-25.3c-.77-7.45-1.44-14.76-.23-21.45.18-.83.31-1.66.54-2.46a12.48,12.48,0,0,1,.76-2.36,4.38,4.38,0,0,1,1.6-1.94,2.44,2.44,0,0,1,2.49,0,4.3,4.3,0,0,1,1.57,1.8,11.19,11.19,0,0,1,.78,2.13,28.27,28.27,0,0,1,.82,4.2,28.63,28.63,0,0,1-.12,7.72,4.91,4.91,0,0,1-.52,1.72,2.07,2.07,0,0,1-1.31,1.17,1.61,1.61,0,0,1-1.55-.65,5.58,5.58,0,0,1-.72-1.36,11.59,11.59,0,0,1-.78-5,11.28,11.28,0,0,1,.79-3.47l0-.11.08.08,1.39,1.32A3.16,3.16,0,0,1,591,198.38Z" style="fill:#9a5d53"></path><path d="M574.15,115.81c-1.61,17.48,8.46,33,12.47,40.7a34.9,34.9,0,0,0-.22-12.23,10.57,10.57,0,0,0,2.05,4.7l7.88,12.13q-2-8.09-3.16-16.31a29.51,29.51,0,0,0,16,11.81s-11-6.51-12.34-19.89,1.2-20.91,1.2-20.91" style="fill:#455a64"></path><path d="M598,115.81a.87.87,0,0,1,0,.21c0,.16-.09.35-.15.61-.13.54-.3,1.34-.49,2.4a57.76,57.76,0,0,0-.76,9.21c0,2,.07,4.18.25,6.55a28.8,28.8,0,0,0,1.42,7.52,28,28,0,0,0,11,14.1l1.32.87-1.51-.45A29.81,29.81,0,0,1,593,144.94l.47-.17c.62,4.18,1.41,8.52,2.39,12.92l.78,3.36.33,1.44-.8-1.24-5.48-8.43L588,148.74a10,10,0,0,1-1.85-4.44l.49-.07a35.31,35.31,0,0,1,.21,12.32l-.11.67-.33-.6a165.49,165.49,0,0,1-7.9-15.76,61.38,61.38,0,0,1-3.91-13.1,47,47,0,0,1-.69-8.82c.07-1,.12-1.78.16-2.33,0-.25,0-.45,0-.6s0-.2,0-.2a1.57,1.57,0,0,1,0,.2c0,.16,0,.35,0,.6,0,.56,0,1.33-.08,2.33a48.57,48.57,0,0,0,.81,8.77,62.42,62.42,0,0,0,4,13,167.8,167.8,0,0,0,8,15.69l-.44.07a35,35,0,0,0-.23-12.14l.49-.07a9.48,9.48,0,0,0,1.77,4.21l2.65,4.07,5.48,8.42-.47.21-.78-3.37c-1-4.41-1.77-8.76-2.39-13l-.16-1.13.63.95a29.4,29.4,0,0,0,15.8,11.72l-.18.43a28.21,28.21,0,0,1-11.16-14.38,28.81,28.81,0,0,1-1.39-7.61c-.17-2.39-.24-4.59-.19-6.59a55.17,55.17,0,0,1,.89-9.23c.21-1,.41-1.86.56-2.39.08-.27.14-.47.19-.6A2,2,0,0,1,598,115.81Z" style="fill:#263238"></path><polygon points="607.47 328.57 587.06 331.77 563.14 345.81 610.29 348.45 619.79 336.2 607.47 328.57" style="fill:#455a64"></polygon><path d="M626.87,344.17a2.27,2.27,0,0,1-.4-.27l-1.09-.83-4.07-3.17-14-11.14.2.06-11.61,1.83L587.1,332l.09,0L570,342l-5,2.87-1.36.75a1.72,1.72,0,0,1-.48.23,3.1,3.1,0,0,1,.44-.31l1.32-.82,5-3,17.07-10.13,0,0h0l8.8-1.39,11.61-1.8.11,0,.08.07,13.88,11.28,4,3.28,1,.9A1.87,1.87,0,0,1,626.87,344.17Z" style="fill:#263238"></path><g style="opacity:0.2"><path d="M735.08,329c.06.16-2.13,1.11-6.18,2.59s-10,3.43-17.34,5.62-16.21,4.62-26.17,6.92a41.87,41.87,0,0,1-7.95,1.09,19,19,0,0,1-8.5-1.57,14.26,14.26,0,0,1-6.58-6.32,10.33,10.33,0,0,1-1.14-4.74c0-.42,0-.85.1-1.26s.16-.85.27-1.23a21.62,21.62,0,0,1,.78-2.19,36,36,0,0,0,1.46-3.94,4.92,4.92,0,0,0,.18-1.68,1.77,1.77,0,0,0-.53-1.11c-.56-.64-1.7-.78-3.09-.81s-2.76-.06-4.13,0a153.56,153.56,0,0,0-15.75,1.23c-10,1.25-19.19,2.56-27,2.68a12,12,0,0,1-5.78-.83,4.71,4.71,0,0,1-.65-.4,2.1,2.1,0,0,1-.3-.22l-.15-.12a1.87,1.87,0,0,1-.21-.24,1.61,1.61,0,0,1-.32-1.12,2.54,2.54,0,0,1,.19-.81,9.62,9.62,0,0,1,1.29-2.23,50.42,50.42,0,0,1,5.38-5.83c3.15-3,5.06-4.4,5.17-4.27s-1.55,1.83-4.44,5a58,58,0,0,0-4.91,6,8.32,8.32,0,0,0-1,1.89,1.41,1.41,0,0,0-.08.39c0,.06,0,.06,0,.09a.17.17,0,0,0-.07,0l-.06,0h0v0h0l.06-.07h0l.11.07.21.15a4.31,4.31,0,0,0,.47.26,10.52,10.52,0,0,0,5,.48c7.62-.35,16.61-1.83,26.71-3.22a147.2,147.2,0,0,1,16-1.4c1.4-.06,2.82,0,4.25,0a12.69,12.69,0,0,1,2.35.22,4.88,4.88,0,0,1,2.49,1.31,4.38,4.38,0,0,1,1.29,2.67,7.31,7.31,0,0,1-.24,2.61,37.62,37.62,0,0,1-1.56,4.26,19.8,19.8,0,0,0-.69,1.94c-.1.32-.13.61-.2.91s0,.6-.08.9a7.88,7.88,0,0,0,.86,3.56,11.77,11.77,0,0,0,5.36,5.17,16.68,16.68,0,0,0,7.35,1.39,40.83,40.83,0,0,0,7.5-1c9.87-2.14,18.76-4.4,26.17-6.34s13.4-3.65,17.53-4.82S735,328.81,735.08,329Z" style="fill:#fff"></path></g></g><g id="freepik--fossils--inject-144"><path d="M505,383.19l-1.86,1.17s-1.78,6.25-1.7,6.4-8.5,6-7.81,8.61c.36,1.33.88,3.94,1.3,6.16a7.2,7.2,0,0,0,4.41,5.36l5.65,2.24a5.69,5.69,0,0,0,5.36-.61c2.7-1.88,6.7-4.77,7.49-5.92,1.22-1.77,2-9.26,2-9.54,0,0,0-.1,0-.22a14.55,14.55,0,0,0-9.15-11.45Z" style="fill:#824943"></path><path d="M502.77,394.12a15.16,15.16,0,0,0-4.53,2.65,6.9,6.9,0,0,0-2.39,4.55,7.63,7.63,0,0,0,.56,3.12c1.2,3.21,3.93,6,7.32,6.49a11.47,11.47,0,0,0,4.08-.3c4.11-.93,8.3-3.3,9.61-7.3a11.52,11.52,0,0,0,.49-3.74,14.19,14.19,0,0,0-4.11-10.22c-2.49-2.3-5.93-3.32-9.31-3.65Z" style="fill:#e0e0e0"></path><path d="M505.44,400.12a1.89,1.89,0,0,0-.95.69,1.86,1.86,0,0,0-.35,1.3,2.25,2.25,0,0,0,.91,1.54,3.52,3.52,0,0,0,4.38-.55,4.81,4.81,0,0,0,1.41-2.41,4.67,4.67,0,0,0-.28-3,5.53,5.53,0,0,0-1.92-2.32,6.28,6.28,0,0,0-2.64-1,8.08,8.08,0,0,0-2.58-.09,8,8,0,0,0-2.15.67,14.29,14.29,0,0,0-2.78,1.75l-.7.56a1.41,1.41,0,0,1-.24.19,11.83,11.83,0,0,1,.89-.82,13.89,13.89,0,0,1,2.77-1.82,8,8,0,0,1,2.18-.7,8.42,8.42,0,0,1,2.64.07,6.51,6.51,0,0,1,2.73,1,5.69,5.69,0,0,1,2,2.41,4.86,4.86,0,0,1,.29,3.11,5,5,0,0,1-1.48,2.5,3.66,3.66,0,0,1-4.6.52,2.4,2.4,0,0,1-.94-1.63,2,2,0,0,1,.41-1.37,1.72,1.72,0,0,1,.71-.56A.87.87,0,0,1,505.44,400.12Z" style="fill:#263238"></path><path d="M505.41,410.71a7.32,7.32,0,0,1,0-3.24c.15-.89.34-1.68.47-2.25a4.56,4.56,0,0,1,.25-.92,28.7,28.7,0,0,1-.51,3.2,13.83,13.83,0,0,0-.2,2.26A7.06,7.06,0,0,1,505.41,410.71Z" style="fill:#263238"></path><path d="M514.38,406.64a22.2,22.2,0,0,0-2-2.17,23.63,23.63,0,0,0-2.39-1.74,3.2,3.2,0,0,1,.81.36,9.69,9.69,0,0,1,3.14,2.79A2.73,2.73,0,0,1,514.38,406.64Z" style="fill:#263238"></path><path d="M517.56,396.66c.05.19-1.54.32-3.41.7-.93.19-1.78.39-2.39.54a5.5,5.5,0,0,1-1,.23,3.8,3.8,0,0,1,1-.37,23.89,23.89,0,0,1,2.39-.61C516,396.77,517.57,396.74,517.56,396.66Z" style="fill:#263238"></path><path d="M512.17,388a4,4,0,0,0-.95.69,13.15,13.15,0,0,0-1.63,2.34,17,17,0,0,0-1.2,2.61,11,11,0,0,1-.41,1.12,5.09,5.09,0,0,1,.27-1.17A14.49,14.49,0,0,1,509.4,391a10.91,10.91,0,0,1,1.72-2.34,2.5,2.5,0,0,1,.73-.5A.65.65,0,0,1,512.17,388Z" style="fill:#263238"></path><path d="M505.83,401.33s-.11.07-.28.17a.55.55,0,0,0-.11.73,1.2,1.2,0,0,0,1,.65,1.17,1.17,0,0,0,1.16-.75,1.56,1.56,0,0,0-.29-1.42,1.47,1.47,0,0,0-1-.62,3.1,3.1,0,0,0-1.16.16s.09-.08.28-.16a2.12,2.12,0,0,1,.9-.15,1.8,1.8,0,0,1,1.51,2.26,1.34,1.34,0,0,1-2.47.09.65.65,0,0,1,.21-.86A.76.76,0,0,1,505.83,401.33Z" style="fill:#263238"></path><path d="M504.16,402.43a11.93,11.93,0,0,1-1.13.41,12.5,12.5,0,0,0-2.54,1.3,12.35,12.35,0,0,0-2.17,1.86c-.5.54-.77.91-.8.89a1.11,1.11,0,0,1,.16-.28,6.69,6.69,0,0,1,.53-.71,10.66,10.66,0,0,1,2.16-1.94A10.55,10.55,0,0,1,503,402.7a6.25,6.25,0,0,1,.85-.23A1.09,1.09,0,0,1,504.16,402.43Z" style="fill:#263238"></path><path d="M504.88,400.32a2.64,2.64,0,0,1-1-.81,5.63,5.63,0,0,0-1-.91,4.26,4.26,0,0,0-1.55-.56,10.29,10.29,0,0,0-3,0,6.47,6.47,0,0,1-1.27.12,8.37,8.37,0,0,1,1.25-.26,8.93,8.93,0,0,1,3.09,0,4.25,4.25,0,0,1,1.61.61,5,5,0,0,1,1,1A7.59,7.59,0,0,0,504.88,400.32Z" style="fill:#263238"></path><path d="M505.89,394.7a2,2,0,0,1,.43.69,5.45,5.45,0,0,1,.49,1.9,5.56,5.56,0,0,1-.21,1.95,2.15,2.15,0,0,1-.33.74,8.44,8.44,0,0,0,.33-2.68A8.74,8.74,0,0,0,505.89,394.7Z" style="fill:#263238"></path><path d="M510.75,401.27a1.9,1.9,0,0,1-1.52.81,1.85,1.85,0,0,1-1.62-.59,2.77,2.77,0,0,0,3.14-.22Z" style="fill:#263238"></path><path d="M511.35,409.57a25.23,25.23,0,0,0-1.12-2.92,28.64,28.64,0,0,0-1.64-2.66,3.68,3.68,0,0,1,.63.67,10.68,10.68,0,0,1,2,4A3.32,3.32,0,0,1,511.35,409.57Z" style="fill:#263238"></path><path d="M517.3,403.26a7.18,7.18,0,0,1-.64-.84,4.15,4.15,0,0,0-2-1.45,16.59,16.59,0,0,0-2.45-.59,5.26,5.26,0,0,1-1-.25,4.62,4.62,0,0,1,1,.11,11.73,11.73,0,0,1,2.5.53,4,4,0,0,1,2,1.57A4.21,4.21,0,0,1,517.3,403.26Z" style="fill:#263238"></path><path d="M515.47,391.29a25.42,25.42,0,0,0-3.31,2.09,8.8,8.8,0,0,0-1.82,2.06c-.37.6-.53,1-.56,1a.84.84,0,0,1,.08-.31,4.85,4.85,0,0,1,.36-.77,7.62,7.62,0,0,1,1.81-2.15,11.44,11.44,0,0,1,2.37-1.5A4.92,4.92,0,0,1,515.47,391.29Z" style="fill:#263238"></path><path d="M504.56,385.48a1.29,1.29,0,0,1,.13.36,5.78,5.78,0,0,1,.21,1,14.19,14.19,0,0,1,0,3.43,5.82,5.82,0,0,1-1.17,3.21,3.27,3.27,0,0,1-.8.67.87.87,0,0,1-.36.14,4.12,4.12,0,0,0,1.05-.91,5.87,5.87,0,0,0,1.07-3.13,17.69,17.69,0,0,0,.11-3.39C504.68,386,504.52,385.49,504.56,385.48Z" style="fill:#263238"></path><g style="opacity:0.30000000000000004"><path d="M504.21,402.71a1.55,1.55,0,0,0,.34,1.62,2.55,2.55,0,0,0,1.54.74,5.38,5.38,0,0,0,5-2.62,6.11,6.11,0,0,0,1.07-4.17,5.42,5.42,0,0,0-3.13-4,6.83,6.83,0,0,0-5.2-.09,9.1,9.1,0,0,1,4.59,1.12,6.45,6.45,0,0,1,.94.79,5.34,5.34,0,0,1,1.64,2.56,5,5,0,0,1-.33,2.74,4.62,4.62,0,0,1-.69,1.32,4.21,4.21,0,0,1-4.39,1.06c-.54-.15-1.14-.45-1.27-1"></path></g><g style="opacity:0.2"><path d="M666.78,396.6c0,.08.1.14.15.22l0,0Z"></path></g><g style="opacity:0.2"><path d="M693.49,429.26a42.71,42.71,0,0,0-6.33-10.71c-6.23-7.73-15.09-13.26-20.23-21.73a12.71,12.71,0,0,0-4.64-3.34c-5.48-2.24-11.31-1.9-17.21-1.45a7.3,7.3,0,0,0-3,.73,6.16,6.16,0,0,0-2.45,3c-2.75,6.11-.19,13.44-2.09,19.87a8.3,8.3,0,0,0-.59,3,6.4,6.4,0,0,0,1.87,3.35c5.43,6.26,10.92,12.58,17.61,17.47s14.78,8.3,23.06,7.93A18.87,18.87,0,0,0,689.89,444a11.66,11.66,0,0,0,5-9.46A15.87,15.87,0,0,0,693.49,429.26Z"></path></g><g style="opacity:0.2"><path d="M667.19,397.15l1.5,2.13a12.49,12.49,0,0,0-1.73-2.43l1.33,1.88Z"></path></g><path d="M667,402.5l-5-6.28L653.18,394l-9.69,2.6-.63,12.9,4,5s13,16.38,11.69,17.81-14.94-17.9-14.94-17.9l-2.94,1.8,11.46,14.38s9.67,8.56,12.32,9.67c3.37,1.42,7,3.38,10.83,2.73,11-1.87-9.84-10.68-13.67-12.4S650.94,418,649.79,416.1s0-4.79,2.39-4.21,6.23,8.42,7.57,12.06,7.85,6.52,13.59,9.39,18.2,3.45,18.2,3.45,1.91-4-2.3-9.39-14-17-14-17M669,412.82c-.09.76-.18,1.52-.26,2.29a4.56,4.56,0,0,1-.36,1.54,4.47,4.47,0,0,1-1.78,1.61,3.79,3.79,0,0,1-2.65.84,3.33,3.33,0,0,1-1.25-.62,6,6,0,0,1-2-2,7.15,7.15,0,0,1-.64-3.17c-.05-1-.09-2-.14-3a2.9,2.9,0,0,1,.27-1.7,1.26,1.26,0,0,1,.61-.45h0c2-1.11,4.43-.1,6.14.9A3.86,3.86,0,0,1,669,411.4,4.51,4.51,0,0,1,669,412.82Zm19.34,19.76c-1.37.21-5.48-.29-7-1.37a3.65,3.65,0,0,1-1.73-4.11,4.08,4.08,0,0,1,1.08-2.16c.22,0,1.3-1.52,4.11,1S689.72,432.36,688.35,432.58Z" style="fill:#e0e0e0"></path><path d="M679.91,434.54s-1.19,6.64,0,5.45,2.46-6,2.46-6l-2.87.29" style="fill:#e0e0e0"></path><path d="M684.07,435s-1.19,6.63,0,5.44,2.46-6,2.46-6l-2.87.3" style="fill:#e0e0e0"></path><path d="M687.67,435.86s-2.32,8.23-.77,6.61,3.23-7,3.23-7Z" style="fill:#e0e0e0"></path><path d="M668.61,419.89a4.42,4.42,0,0,1-.6.49,6.93,6.93,0,0,1-1.88.93,5.72,5.72,0,0,1-3.11.14,4.8,4.8,0,0,1-3-2.24,6.16,6.16,0,0,1-.62-1.89c-.11-.63-.2-1.24-.28-1.82-.15-1.16-.24-2.22-.28-3.1s-.06-1.6,0-2.1c0-.2,0-.39,0-.57s0-.2,0-.2,0,.28,0,.77,0,1.21.11,2.09.17,1.93.33,3.08a11.74,11.74,0,0,0,.89,3.64,4.71,4.71,0,0,0,2.91,2.16,5.72,5.72,0,0,0,3-.1A9.17,9.17,0,0,0,668.61,419.89Z" style="fill:#263238"></path><path d="M682.74,424.65l-.16-.12-.42-.37-1.53-1.37-2.24-2.06-1.32-1.21a2.74,2.74,0,0,0-.73-.56,1.7,1.7,0,0,0-.9-.09c-.32,0-.64.13-1,.19a2.68,2.68,0,0,1-1,0,4.77,4.77,0,0,1-1.67-.73,7.1,7.1,0,0,1-2.13-2.2,5.28,5.28,0,0,1-.73-1.93,3.64,3.64,0,0,1,0-.76,5.77,5.77,0,0,0,.89,2.61,7.26,7.26,0,0,0,2.1,2.12,4.65,4.65,0,0,0,1.61.69,2.47,2.47,0,0,0,.9,0c.31-.06.63-.15,1-.2a1.88,1.88,0,0,1,1,.11,2.74,2.74,0,0,1,.77.6l1.32,1.22,2.21,2.09,1.49,1.42.39.4C682.7,424.59,682.75,424.64,682.74,424.65Z" style="fill:#263238"></path></g><g id="freepik--Heron--inject-144"><path d="M202.1,305.88s18.12.32,26,4.24l-3.41.31.43.87L203.74,313Z" style="fill:#263238"></path><path d="M186.55,325.3c-2.49.52-5.7-1.45-5.89-3.66C180.07,314.83,190,315,190,315l13.74-2-1.64-7.1s-8.26-6.2-17.41-5.32a19.77,19.77,0,0,0-11.64,5.31c-4.83,2.42-10.2,5.71-13.52,9.64a6.87,6.87,0,0,0-2,4,35.89,35.89,0,0,0,10.61-7.16,61.34,61.34,0,0,0-7.14,8.54,9.89,9.89,0,0,0-1.83,3.72,7.48,7.48,0,0,0-.07,2.06.59.59,0,0,0,.13.39c.22.21.57,0,.78-.25l6.35-6.84c-1.41,3.32-1.8,7-2.16,10.57a4,4,0,0,0,.12,2c.06.16.17.33.34.34s.3-.15.39-.3a22.8,22.8,0,0,0,2-5.13,26.66,26.66,0,0,1,1.28-3.08c1.72,8.21,5.39,10.36,10.38,11.2a19.48,19.48,0,0,0,6.91,0c4-.78,4.05,2.64,4,4.44L187.81,350s-5.78-5.16-17.59-3.69-57.85,75-57.85,75,4.72,5.9,17.71-2.66a63.14,63.14,0,0,0,19-19.11s15,2.29,20.87-2.73,25.82-26,28-36.31c0,0,3.83-15.58,2.09-25C198,324.18,186.55,325.3,186.55,325.3Z" style="fill:#FF725E"></path><path d="M178.82,357.5a3.92,3.92,0,0,1-.21.68c-.18.49-.41,1.13-.7,1.95-.63,1.68-1.55,4.13-2.86,7.12a61.18,61.18,0,0,1-5.56,10.15,39.89,39.89,0,0,1-4.44,5.34,33.11,33.11,0,0,1-2.77,2.47c-.5.4-1,.76-1.55,1.14a2.36,2.36,0,0,1-1,.33,1.19,1.19,0,0,1-.6-.1.74.74,0,0,1-.42-.55l.45.11c-1.44,1.73-2.87,3.61-4.27,5.55-3.49,4.87-6.65,9.65-9.88,13.73a63.12,63.12,0,0,1-9.41,10.13,37.15,37.15,0,0,1-7.8,5.1,22,22,0,0,1-2.33,1,5,5,0,0,1-.83.29,5.39,5.39,0,0,1,.79-.38c.53-.23,1.31-.57,2.28-1.09a38.58,38.58,0,0,0,7.65-5.19,64.8,64.8,0,0,0,9.27-10.14c3.2-4.09,6.33-8.86,9.83-13.74,1.41-2,2.85-3.84,4.3-5.57l.41-.49,0,.6c0,.37.83.27,1.28,0s1-.72,1.49-1.1a33.79,33.79,0,0,0,2.74-2.42,40.53,40.53,0,0,0,4.41-5.25,62.31,62.31,0,0,0,5.62-10c1.34-3,2.31-5.39,3-7.05.33-.8.6-1.43.79-1.91A4.31,4.31,0,0,1,178.82,357.5Z" style="fill:#263238"></path><polygon points="144.79 421.05 146.62 478.68 148.62 478.28 147.42 421.57 157.44 400.15 154.67 399.9 144.79 421.05" style="fill:#263238"></polygon><circle cx="146.58" cy="420.85" r="2.89" style="fill:#263238"></circle><polygon points="150.45 421.05 152.28 478.68 154.28 478.28 153.08 421.57 163.23 399.52 160.59 399.93 150.45 421.05" style="fill:#263238"></polygon><circle cx="152.24" cy="420.85" r="2.89" style="fill:#263238"></circle><path d="M225.13,310.4a91.79,91.79,0,0,1-9.85.24,94.37,94.37,0,0,1-9.85-.28,91.79,91.79,0,0,1,9.85-.24A94.37,94.37,0,0,1,225.13,310.4Z" style="fill:#455a64"></path><path d="M158.74,385.88c1.94-3.48,5.12-10.3,6.89-13.86"></path><path d="M134.44,399s.71-.26,1.95-.81a28.57,28.57,0,0,0,5-2.88c3.95-2.83,8.82-7.49,14-12.8s9.88-10.16,12.92-13.95a52.4,52.4,0,0,0,3.37-4.66c.73-1.14,1.09-1.81,1.13-1.78a1.91,1.91,0,0,1-.22.5c-.15.33-.4.79-.74,1.39a44.06,44.06,0,0,1-3.25,4.78c-3,3.88-7.7,8.71-12.84,14.08s-10.13,10-14.17,12.74a25.7,25.7,0,0,1-5.08,2.77,14.27,14.27,0,0,1-1.49.5A1.87,1.87,0,0,1,134.44,399Z" style="fill:#263238"></path><path d="M134.61,399.56a4.82,4.82,0,0,1-.54,1c-.38.66-1,1.59-1.7,2.72a89.53,89.53,0,0,1-6.33,8.47,91.64,91.64,0,0,1-7.26,7.7c-1,.92-1.81,1.65-2.39,2.13a4.63,4.63,0,0,1-.94.72,6.07,6.07,0,0,1,.8-.87l2.27-2.25c1.91-1.91,4.47-4.61,7.12-7.76s4.87-6.14,6.43-8.35l1.83-2.62A5,5,0,0,1,134.61,399.56Z" style="fill:#263238"></path><path d="M147.5,391.09a5.39,5.39,0,0,1-.32,1.22,30.68,30.68,0,0,1-1.25,3.22,72.75,72.75,0,0,1-5.49,10,86.24,86.24,0,0,1-6.79,9.13c-.94,1.11-1.76,2-2.33,2.55a5.44,5.44,0,0,1-.94.85,6.7,6.7,0,0,1,.79-1c.53-.62,1.29-1.51,2.2-2.64,1.82-2.26,4.21-5.48,6.63-9.18a91.21,91.21,0,0,0,5.6-9.84c.63-1.3,1.08-2.39,1.39-3.14A6.65,6.65,0,0,1,147.5,391.09Z" style="fill:#263238"></path><path d="M184.43,357.77c-.05.07-.59-.33-1.6-.59a6.89,6.89,0,0,0-4,.26,12.24,12.24,0,0,0-3.48,2.09,7.66,7.66,0,0,1-1.36,1.06,4.5,4.5,0,0,1,1.12-1.33A10.09,10.09,0,0,1,178.7,357a6.53,6.53,0,0,1,4.24-.12A2.76,2.76,0,0,1,184.43,357.77Z" style="fill:#263238"></path><path d="M197.58,337.07a2.49,2.49,0,0,1,.18,1.73,2,2,0,0,1-.4.86,2,2,0,0,1-.43.37.66.66,0,0,1-.73,0,1.45,1.45,0,0,1-.37-.54c-.08-.18-.16-.36-.23-.55a5.87,5.87,0,0,1-.28-1.22l.51,0a3.45,3.45,0,0,0-.1.59,5.14,5.14,0,0,1-.22,1.36,1.69,1.69,0,0,1-1,1,1,1,0,0,1-1.2-.48,3.47,3.47,0,0,1-.37-1,2.91,2.91,0,0,1,.06-1.94,15,15,0,0,0,.3,1.85c.16.51.48,1.31,1.07,1.08a1.22,1.22,0,0,0,.66-.71,4.84,4.84,0,0,0,.18-1.23,3.61,3.61,0,0,1,.12-.67l.35-1.32.15,1.36a5.71,5.71,0,0,0,.25,1.12,5.27,5.27,0,0,0,.19.51,1.16,1.16,0,0,0,.21.37c.06.1.39-.07.56-.27a1.68,1.68,0,0,0,.38-.67A11.12,11.12,0,0,0,197.58,337.07Z" style="fill:#263238"></path><path d="M197.24,342c0,.05-.12.28-.51.53a1.44,1.44,0,0,1-.83.24,1.11,1.11,0,0,1-.92-.63,3.32,3.32,0,0,1-.2-2.45c.16,0,.23,1.1.66,2.2.23.51.75.46,1.13.31S197.2,342,197.24,342Z" style="fill:#263238"></path><path d="M177.39,317s-.1.13-.25.35a4.65,4.65,0,0,1-.72,1,1.14,1.14,0,0,1-.92.29.92.92,0,0,1-.68-.92,7.11,7.11,0,0,1,.29-2.28l.49.19c-.11.23-.24.47-.38.7a7.23,7.23,0,0,1-.81,1.06,1.68,1.68,0,0,1-1.21.66.78.78,0,0,1-.63-.45,1.42,1.42,0,0,1-.07-.63,4.67,4.67,0,0,1,.23-1,3.08,3.08,0,0,1,1-1.6c.07,0-.39.62-.69,1.7a4.86,4.86,0,0,0-.15.89c0,.32.09.57.3.57a1.28,1.28,0,0,0,.8-.53,7.56,7.56,0,0,0,.75-1,6.74,6.74,0,0,0,.35-.64l.48.18a7.14,7.14,0,0,0-.33,2.1c0,.31.12.5.31.55a.85.85,0,0,0,.62-.16,9.41,9.41,0,0,0,.79-.84C177.21,317,177.38,317,177.39,317Z" style="fill:#263238"></path><path d="M178.61,310.4c0,.06-.14.25-.49.46a1.52,1.52,0,0,1-1.68,0A1.12,1.12,0,0,1,176,310a2.41,2.41,0,0,1,.12-.73c.14-.4.32-.59.38-.56s0,.27,0,.64-.08.93.26,1.15a1.39,1.39,0,0,0,1.22.08C178.33,310.41,178.57,310.34,178.61,310.4Z" style="fill:#263238"></path><g style="opacity:0.30000000000000004"><path d="M148.93,399.52s.3.73,4.68-3,5.7-6.75,5.7-6.75a19.06,19.06,0,0,0,10.33-7.24c4.22-5.88,10.77-25.71,10.77-25.71l-1.59.73s-6.86,23.19-20.77,29.57Z"></path></g><path d="M193.42,369.91a2.25,2.25,0,0,1-.27.52,14.49,14.49,0,0,1-.9,1.42c-.82,1.2-2.08,2.89-3.7,4.93-3.26,4.06-7.86,9.58-13.21,15.46a54.42,54.42,0,0,1-4.22,4,12.81,12.81,0,0,1-4.8,2.59c-1.68.45-3.26.84-4.78,1.12a32.73,32.73,0,0,1-4.25.48,28.78,28.78,0,0,1-6.16-.39c-.72-.13-1.27-.26-1.64-.36a3.54,3.54,0,0,1-.56-.17,2,2,0,0,1,.58.07c.38.07.93.16,1.65.26a31.38,31.38,0,0,0,6.12.22,33,33,0,0,0,4.19-.54c1.48-.29,3.07-.7,4.71-1.15,3.34-.85,6-3.71,8.78-6.5,5.33-5.85,10-11.34,13.3-15.33,1.66-2,3-3.66,3.83-4.82S193.37,369.88,193.42,369.91Z" style="fill:#263238"></path><g style="opacity:0.30000000000000004"><path d="M202.26,306.48c-.24-.06-12.59-1.22-12.59-1.22l.93,6.84,13.07.36Z"></path></g><path d="M193.1,308.7a3.44,3.44,0,1,1-3.43-3.44A3.44,3.44,0,0,1,193.1,308.7Z" style="fill:#fff"></path><path d="M191.53,308.7a1.86,1.86,0,1,1-1.86-1.87A1.87,1.87,0,0,1,191.53,308.7Z" style="fill:#263238"></path></g><g id="freepik--Duck--inject-144"><path d="M317.1,419.64a7.58,7.58,0,0,1-3.07-.42,7.74,7.74,0,0,1-1.92-1.3c-.67-.55-2.54-.53-3.05-1.24a4.73,4.73,0,0,1-1.06-2.77l-1.49,1a15.1,15.1,0,0,0,12.87,10.33,1.9,1.9,0,0,1,1.61-3,1.9,1.9,0,0,1,.71-2.15,5.48,5.48,0,0,1,2.24-.88A60.17,60.17,0,0,1,317.1,419.64Z" style="fill:#FF725E"></path><g style="opacity:0.30000000000000004"><path d="M317.1,419.64a7.58,7.58,0,0,1-3.07-.42,7.74,7.74,0,0,1-1.92-1.3c-.67-.55-2.54-.53-3.05-1.24a4.73,4.73,0,0,1-1.06-2.77l-1.49,1a15.1,15.1,0,0,0,12.87,10.33,1.9,1.9,0,0,1,1.61-3,1.9,1.9,0,0,1,.71-2.15,5.48,5.48,0,0,1,2.24-.88A60.17,60.17,0,0,1,317.1,419.64Z"></path></g><path d="M313.51,422.45a7.59,7.59,0,0,1-3-.88,8.26,8.26,0,0,1-1.7-1.59c-.57-.65-2.42-.92-2.81-1.7a4.63,4.63,0,0,1-.61-2.9l-1.63.72a15.1,15.1,0,0,0,11.1,12.22,1.91,1.91,0,0,1,2.07-2.76,1.9,1.9,0,0,1,1-2,5.72,5.72,0,0,1,2.35-.52A58.25,58.25,0,0,1,313.51,422.45Z" style="fill:#FF725E"></path><path d="M272.11,387.85s.22-6.82,5.38-7.78c0,0,7.93-2.88,11.27,3.25s-1.4,12.44-1.4,12.44l-1.07,4.17-12,3.43,5.46-10.12s-3.41,0-4.7-.68S272.11,387.85,272.11,387.85Z" style="fill:#455a64"></path><path d="M273.67,386.06s1,.27.87,1.78-.83,2.64.19,3.14,2.31,1.34,2.31,1.34-4.92,1-7.43,1.34-6.08,0-6.57-.4-1-.54-.68-1.17.66-1,3.27-.93,6.43-3.81,6.71-5C272.46,385.58,273.67,386.06,273.67,386.06Z" style="fill:#FF725E"></path><path d="M279.84,385a.86.86,0,0,1,1.23.35,2.12,2.12,0,0,1,.05,1.43,2,2,0,0,1-.35.86.81.81,0,0,1-.81.32c-.44-.12-.59-.66-.67-1.11a2.45,2.45,0,0,1,0-1.11c.1-.36.52-.89.9-.88" style="fill:#263238"></path><path d="M337.81,402.76c-6.29,7.42-14.37,12.34-24.44,12.81-9.71.44-18.74,1.91-28.36.61a15.86,15.86,0,0,1-9.2-4.3c-2.4-2.46-3.28-6.72-1-9.33,0,0,9.32-6.38,16.13-8.28,11.46-3.19,36.51-1.92,39.13-.2l-1.25,1.27,11.75,4.15Z" style="fill:#FF725E"></path><path d="M287.71,401.49l.18-.15.57-.41c.51-.35,1.27-.85,2.29-1.45a31.23,31.23,0,0,1,3.85-1.92,19.48,19.48,0,0,1,2.55-.88,14.84,14.84,0,0,1,3-.45,145.19,145.19,0,0,1,15,.18c2.82.16,5.8.35,8.88.79a14.06,14.06,0,0,1,4.56,1.39,9.79,9.79,0,0,1,3.72,3.24l.17.25-.32,0-4.39.2,0-.35.2,0,4,.78.29.06-.18.23a28.28,28.28,0,0,1-7.4,6.32,35.9,35.9,0,0,1-8.26,3.61,49.71,49.71,0,0,1-7.94,1.64,54.29,54.29,0,0,1-7,.47,25.29,25.29,0,0,1-5.75-.63,17.66,17.66,0,0,1-4.09-1.5,14,14,0,0,1-2.3-1.49,6.79,6.79,0,0,1-.71-.63s.25.2.75.58a14.68,14.68,0,0,0,2.32,1.42,17.93,17.93,0,0,0,4.08,1.43,25.58,25.58,0,0,0,5.7.58,56,56,0,0,0,7-.51,50.25,50.25,0,0,0,7.89-1.67,36.08,36.08,0,0,0,8.17-3.59,28.19,28.19,0,0,0,7.3-6.25l.1.29-4-.79-.2,0-1.47-.29,1.5-.07,4.39-.2L332,402a9.48,9.48,0,0,0-3.58-3.1,13.62,13.62,0,0,0-4.44-1.37c-3.06-.44-6-.64-8.85-.81-5.65-.31-10.72-.45-14.94-.26a16,16,0,0,0-3,.42,21.43,21.43,0,0,0-2.53.84,34.15,34.15,0,0,0-3.85,1.87c-1,.57-1.8,1.06-2.32,1.39l-.59.38Z" style="fill:#263238"></path><path d="M301.55,406.1a39.43,39.43,0,0,0,4.95,1.59,38,38,0,0,0,5.17.52,5.24,5.24,0,0,1-1.54.18,16.8,16.8,0,0,1-3.71-.35,16.13,16.13,0,0,1-3.53-1.17A5.5,5.5,0,0,1,301.55,406.1Z" style="fill:#263238"></path><path d="M296.74,406.58a15.17,15.17,0,0,1,1.44.79,13.62,13.62,0,0,0,3.68,1.27,13.27,13.27,0,0,0,3.91.13,14.83,14.83,0,0,1,1.62-.22,5,5,0,0,1-1.59.47,11.38,11.38,0,0,1-4,0,11.59,11.59,0,0,1-3.75-1.41A5,5,0,0,1,296.74,406.58Z" style="fill:#263238"></path><path d="M293.61,407.17a16.24,16.24,0,0,0,4,1.75,15.8,15.8,0,0,0,4.33.29,3.27,3.27,0,0,1-1.27.29,9.37,9.37,0,0,1-6-1.49A3.36,3.36,0,0,1,293.61,407.17Z" style="fill:#263238"></path><g style="opacity:0.2"><path d="M331.73,403.3a10.18,10.18,0,0,1-3.82,5.36,23.92,23.92,0,0,1-5.56,3.59,47.35,47.35,0,0,1-14.64,3.13c-5.08.33-10.84,1.15-15.57-.74-2.7-1.08-4.06-3.38-5.47-6.05,0,0,4.53,8.5,22.23,5.85S331.73,403.3,331.73,403.3Z"></path></g><g style="opacity:0.2"><path d="M315.1,408.28c-1.37-.39-2.91-.88-4.28-1.27a1.76,1.76,0,0,1,.79.41.47.47,0,0,1,.05.71c-.16.16-.4.11-.63.12a23.34,23.34,0,0,1-4.18-.21c.19-.07.35.21.26.39a.76.76,0,0,1-.5.32,10.05,10.05,0,0,1-5.52,0l.31.44c-2.23.7-4.55-.4-6.77-1.14a5.47,5.47,0,0,0,2.17,2.48,10.79,10.79,0,0,0,3,.86,3.76,3.76,0,0,0,2.55-.24,3.35,3.35,0,0,1,.86-.52,2.39,2.39,0,0,1,1.54.43,4.15,4.15,0,0,0,4.07-.41,3.61,3.61,0,0,1,.78-.51,2.61,2.61,0,0,1,1.65.1,4.56,4.56,0,0,0,2.7.19,1.66,1.66,0,0,0,1.13-2.14"></path></g><path d="M295.33,395.38a8.41,8.41,0,0,1,1.16-.27c.75-.15,1.85-.33,3.21-.52a78.75,78.75,0,0,1,10.7-.75,79.93,79.93,0,0,1,10.7.7c1.36.18,2.46.36,3.21.51a7.35,7.35,0,0,1,1.16.26,6.84,6.84,0,0,1-1.18-.12c-.76-.11-1.86-.25-3.22-.4a92.87,92.87,0,0,0-21.34,0c-1.36.16-2.46.3-3.21.41A6.48,6.48,0,0,1,295.33,395.38Z" style="fill:#fff"></path><path d="M303.7,413a6.74,6.74,0,0,1,1-.06c.65,0,1.58-.07,2.73-.17s2.5-.28,4-.55a43.68,43.68,0,0,0,4.79-1.21,42.94,42.94,0,0,0,4.6-1.79,40,40,0,0,0,3.59-1.87c1-.58,1.78-1.08,2.31-1.44a5.2,5.2,0,0,1,.86-.53,6,6,0,0,1-.78.64,26.52,26.52,0,0,1-2.26,1.55,34.27,34.27,0,0,1-3.58,1.95,38.86,38.86,0,0,1-4.63,1.83,42.07,42.07,0,0,1-4.84,1.2,40.32,40.32,0,0,1-4,.48c-1.16.06-2.1.08-2.74.05A5.15,5.15,0,0,1,303.7,413Z" style="fill:#fff"></path><path d="M299.18,412.82c0-.1.51,0,1.09.05s1.05.12,1.06.22-.49.22-1.11.14S299.15,412.91,299.18,412.82Z" style="fill:#fff"></path><path d="M308.4,407.41c0-.1.27-.15.58-.11s.55.14.54.24-.27.15-.58.11S308.39,407.51,308.4,407.41Z" style="fill:#fff"></path><path d="M302.48,407.75c0-.1.34-.08.71,0s.63.28.6.37-.34.08-.71,0S302.45,407.84,302.48,407.75Z" style="fill:#fff"></path><path d="M297.78,408.52c0-.09.27-.06.5.05s.4.29.35.38-.27.06-.51-.05S297.73,408.61,297.78,408.52Z" style="fill:#fff"></path><path d="M279.71,393.24,282,398c-3.43,2.47-3.94,5-4.22,7.91a16.77,16.77,0,0,0,1.57,8.45c-2.9-1.32-5.86-4.27-6.35-7.42C272.25,402.26,277.87,395.89,279.71,393.24Z" style="fill:#455a64"></path><path d="M262.38,392.68a15.07,15.07,0,0,0,1.73.42,13.07,13.07,0,0,0,4.27-.39,28.85,28.85,0,0,0,4.15-1.26,11.9,11.9,0,0,1,1.69-.63,7.09,7.09,0,0,1-1.59.87,22.1,22.1,0,0,1-4.17,1.37,11.22,11.22,0,0,1-4.38.29,4.89,4.89,0,0,1-1.29-.41C262.51,392.81,262.37,392.7,262.38,392.68Z" style="fill:#263238"></path><path d="M277.38,408.66a4.92,4.92,0,0,1-.25-1.69,10.34,10.34,0,0,1,.73-4.06,10.5,10.5,0,0,1,2.24-3.46,4.85,4.85,0,0,1,1.34-1.06c0,.05-.47.46-1.16,1.23a12.29,12.29,0,0,0-2.09,3.43,12.05,12.05,0,0,0-.81,3.92C277.35,408,277.45,408.65,277.38,408.66Z" style="fill:#263238"></path><path d="M285.19,393.35c-.07-.08.36-.59.8-1.27s.76-1.27.86-1.24a2.42,2.42,0,0,1-.56,1.44C285.82,393,285.25,393.42,285.19,393.35Z" style="fill:#263238"></path><path d="M284.18,393.86c-.08-.05.17-.53.56-1.06s.78-.9.86-.84-.18.53-.57,1.06S284.26,393.92,284.18,393.86Z" style="fill:#263238"></path><path d="M282.75,394.45c-.07-.09.33-.49.77-1s.75-1,.84-.95-.1.61-.57,1.18S282.8,394.52,282.75,394.45Z" style="fill:#263238"></path><path d="M283,381a2.23,2.23,0,0,1,1.13.06,5.53,5.53,0,0,1,2.42,1.29,5.44,5.44,0,0,1,1.49,2.3,2.24,2.24,0,0,1,.16,1.12,7.67,7.67,0,0,1-.4-1,6,6,0,0,0-1.5-2.11,6.12,6.12,0,0,0-2.24-1.31A9.14,9.14,0,0,1,283,381Z" style="fill:#fff"></path><path d="M271.82,389.56c-.07-.07.16-.38.51-.69s.69-.5.76-.42-.17.38-.52.69S271.89,389.64,271.82,389.56Z" style="fill:#fff"></path><path d="M343.14,434.57s.2.19.61.49a4.91,4.91,0,0,0,2.06.83,5,5,0,0,0,3.36-.64,5.41,5.41,0,0,0,2.37-3.79,5.67,5.67,0,0,0-1.9-5,6.37,6.37,0,0,0-2.7-1.48,10.28,10.28,0,0,0-3.3-.26,20.73,20.73,0,0,0-7,1.67,75.23,75.23,0,0,0-6.86,3.74,35.39,35.39,0,0,1-14.39,4.76,22.18,22.18,0,0,1-6.64-.45,19.19,19.19,0,0,1-5.4-2.11,16.29,16.29,0,0,1-6-5.75,10.59,10.59,0,0,1-1.24-2.8,28.33,28.33,0,0,0,1.41,2.69,16.49,16.49,0,0,0,6,5.54,19.49,19.49,0,0,0,5.31,2,22,22,0,0,0,6.51.39,35.21,35.21,0,0,0,14.17-4.73,74.43,74.43,0,0,1,6.92-3.76,21,21,0,0,1,7.16-1.68,11,11,0,0,1,3.45.3,6.81,6.81,0,0,1,2.87,1.6,6,6,0,0,1,2,5.37,5.65,5.65,0,0,1-2.58,4,5.15,5.15,0,0,1-3.55.6,4.75,4.75,0,0,1-2.08-.94A2.55,2.55,0,0,1,343.14,434.57Z" style="fill:#263238"></path><path d="M356.64,422s.09-.13.34-.2a1.5,1.5,0,0,1,1.09.15,1.57,1.57,0,0,1,.88,1.42,1.81,1.81,0,0,1-1.22,1.64,1.85,1.85,0,0,1-1.94-.61,2.38,2.38,0,0,1-.45-1.58,1.37,1.37,0,0,1,.4-1c.23-.18.41-.12.4-.09s-.13.07-.26.23a1.42,1.42,0,0,0-.17.89,2.13,2.13,0,0,0,.44,1.27,1.41,1.41,0,0,0,1.42.42,1.35,1.35,0,0,0,.9-1.16,1.21,1.21,0,0,0-.58-1.08A2.17,2.17,0,0,0,356.64,422Z" style="fill:#263238"></path></g><g id="freepik--Water--inject-144"><path d="M280.23,416.85c-22.5,3-45.73,5.28-67.46-.78C176,405.79,128.15,394.84,85,394.48c-26-.22-48,0-73.44,5V410.3S52.8,399,84.67,399.52s83.74,26.62,138.61,28,72.53-7.79,94.33-11.18,48.48-11.85,74.79-7.79l32.44,5v-7C377.34,397,329.44,410.3,280.23,416.85Zm-99.41,2.44a3.74,3.74,0,1,1,4.13-3.72A3.94,3.94,0,0,1,180.82,419.29Zm9.59-2a1.75,1.75,0,1,1,1.93-1.74A1.85,1.85,0,0,1,190.41,417.31Z" style="fill:#f5f5f5"></path><path d="M418.91,405.41l-1.05-.11-3.09-.38c-2.71-.3-6.69-1-11.88-1.17l-4.1-.24-2.2-.14-2.32,0c-3.15,0-6.58-.07-10.27,0s-7.61.28-11.78.56l-6.42.53-3.34.28c-1.13.1-2.27.25-3.42.38l-7.07.81c-2.41.27-4.86.67-7.37,1-5,.66-10.22,1.53-15.6,2.39l-34.33,5.94c-6.05,1-12.27,2-18.65,2.76l-4.82.53c-.81.08-1.61.19-2.43.26l-2.45.15-4.94.3c-1.65.05-3.32,0-5,0s-3.36,0-5-.12l-5.06-.23L236,418.39c-6.88-.4-13.87-.93-20.88-2l-2.62-.45-2.6-.52c-1.73-.4-3.43-.83-5.12-1.27l-10.09-2.58c-6.7-1.63-13.29-3.28-19.81-4.7s-12.94-2.78-19.23-4.08c-6.31-1.15-12.48-2.34-18.55-3.25s-12-1.72-17.75-2.5c-5.78-.57-11.38-1.27-16.82-1.59-10.87-.91-21-1.05-30.31-1.07l-6.79.17c-2.2.07-4.35.06-6.43.23l-6.08.36c-2,.13-3.87.2-5.7.4l-10.22,1-8.57,1.11-3.64.47-3.18.52-5,.8-3.07.49c-.69.11-1.05.15-1.05.15s.35-.08,1-.2l3.06-.54,5-.86,3.18-.54,3.64-.49L37,396.24l10.22-1c1.84-.21,3.74-.29,5.71-.42l6.08-.39c2.08-.16,4.24-.16,6.44-.24l6.8-.19c9.28,0,19.46.11,30.34,1,5.45.31,11.06,1,16.85,1.57,5.76.77,11.71,1.45,17.76,2.48s12.26,2.09,18.58,3.24,12.73,2.55,19.24,4.06,13.12,3.07,19.83,4.69l10.09,2.59c1.7.44,3.39.86,5.1,1.26l2.58.52,2.61.45c7,1.08,14,1.61,20.83,2l10.25.5,5.07.24c1.68.11,3.35.12,5,.12s3.32.06,5,0l4.92-.3,2.44-.15c.81-.06,1.62-.17,2.42-.25l4.81-.52c6.37-.78,12.58-1.74,18.63-2.74l34.34-5.9c5.39-.84,10.59-1.71,15.61-2.36,2.51-.33,5-.72,7.38-1l7.08-.8c1.16-.12,2.29-.27,3.42-.37l3.35-.27,6.43-.51c4.17-.27,8.11-.35,11.8-.52s7.12,0,10.28,0l2.31,0,2.21.14,4.11.27c5.19.22,9.17.94,11.88,1.27l3.08.42C418.56,405.34,418.91,405.41,418.91,405.41Z" style="fill:#263238"></path></g><g id="freepik--Rock--inject-144"><polygon points="374.33 452.57 353.7 440.81 317.47 454.01 288.24 478.02 395.22 478.02 374.33 452.57" style="fill:#f5f5f5"></polygon><polygon points="288.24 478.02 325.32 456.46 374.33 452.57 352.87 439.86 317.47 454.01 288.24 478.02" style="fill:#e0e0e0"></polygon><polygon points="341.9 478.08 360.08 465.78 377 464.58 362.85 467.72 355.79 478.02 341.9 478.08" style="fill:#e0e0e0"></polygon><path d="M377.57,464.32a8.06,8.06,0,0,1-1.34.18l-3.69.33-12.44,1,.11,0-2,1.4c-4.56,3.12-8.7,5.93-11.71,7.94l-3.57,2.37-1,.62c-.23.14-.35.21-.36.19a1.57,1.57,0,0,1,.31-.26l.94-.7,3.49-2.48c3-2.08,7.08-4.93,11.64-8.05l2-1.4.05,0h.06l12.45-.82,3.7-.19A8.17,8.17,0,0,1,377.57,464.32Z" style="fill:#263238"></path><path d="M374.27,452.49s.13.14.38.44l1.1,1.3,4.23,5L395.64,478l.13.16h-.2l-87.39,0H287.85l.3-.24L317.31,454h0l35.33-14.22,0,0,0,0,15.88,9.35,4.2,2.48,1.08.65.36.22-.38-.21-1.09-.62-4.22-2.45-15.91-9.27h.07l-35.3,14.29,0,0-29.14,23.92-.09-.25,19.94,0,87.39.1-.08.16c-6.6-8-11.91-14.38-15.58-18.8l-4.2-5.09L374.63,453Z" style="fill:#263238"></path></g><g id="freepik--Mosquitoes--inject-144"><path d="M416.92,241.61c-3.06,0-5.22,3.08-6.37,5.92a10.06,10.06,0,0,0,.89,8.81,11.49,11.49,0,0,0,10.22,5.49,10.94,10.94,0,0,0,9.39-6.7,10.42,10.42,0,0,0-2.51-11.19c-3.79-3.49-7.72-4.09-12.7-2.2" style="fill:#FF725E"></path><g style="opacity:0.7000000000000001"><path d="M416.92,241.61c-3.06,0-5.22,3.08-6.37,5.92a10.06,10.06,0,0,0,.89,8.81,11.49,11.49,0,0,0,10.22,5.49,10.94,10.94,0,0,0,9.39-6.7,10.42,10.42,0,0,0-2.51-11.19c-3.79-3.49-7.72-4.09-12.7-2.2" style="fill:#fff"></path></g><path d="M419.35,249.21a34.86,34.86,0,0,0-3.92-13.64,10.15,10.15,0,0,0-3-3.81,3.84,3.84,0,0,0-6.22,3.84,10.7,10.7,0,0,0,1.81,4.24c2.69,4.26,6.27,6.93,11.37,9.37" style="fill:#fff"></path><path d="M419.35,249.21a1.62,1.62,0,0,1-.47-.16c-.29-.12-.73-.32-1.28-.59a28.35,28.35,0,0,1-4.45-2.69,21.48,21.48,0,0,1-5.3-5.64,11.72,11.72,0,0,1-1.91-4.2,4.64,4.64,0,0,1,1.61-4.66,3.86,3.86,0,0,1,2.54-.63,5.34,5.34,0,0,1,2.38.83,9.48,9.48,0,0,1,3,3.55,33.88,33.88,0,0,1,2.88,7.18,32.06,32.06,0,0,1,1,5.11c.06.61.09,1.09.1,1.41a1.43,1.43,0,0,1,0,.49,17.2,17.2,0,0,1-.3-1.87,40.08,40.08,0,0,0-1.14-5,35.49,35.49,0,0,0-2.94-7,9.19,9.19,0,0,0-2.81-3.33,3.94,3.94,0,0,0-4.28-.2,4.09,4.09,0,0,0-1.38,4.08,11.44,11.44,0,0,0,1.8,4,21.88,21.88,0,0,0,5.1,5.59,34.08,34.08,0,0,0,4.31,2.82A16.23,16.23,0,0,1,419.35,249.21Z" style="fill:#263238"></path><path d="M422.82,249.21a34.58,34.58,0,0,0,13.09-5.49,10,10,0,0,0,3.43-3.46,4.24,4.24,0,0,0-.26-4.63,4.29,4.29,0,0,0-4.28-1.1,10.8,10.8,0,0,0-4,2.3c-3.91,3.16-6.15,7-8,12.38" style="fill:#fff"></path><path d="M422.82,249.21a1.61,1.61,0,0,1,.11-.48c.09-.31.23-.76.43-1.34a29.26,29.26,0,0,1,2.16-4.74,21.53,21.53,0,0,1,5-5.92,12,12,0,0,1,3.95-2.39,4.67,4.67,0,0,1,4.82,1,3.84,3.84,0,0,1,.92,2.45,5.25,5.25,0,0,1-.54,2.46,9.74,9.74,0,0,1-3.18,3.37,34.28,34.28,0,0,1-6.79,3.69,32.27,32.27,0,0,1-5,1.55c-.6.13-1.07.22-1.39.26a1.4,1.4,0,0,1-.49,0s.65-.19,1.83-.52a38.69,38.69,0,0,0,4.86-1.71,35,35,0,0,0,6.63-3.75,9.22,9.22,0,0,0,3-3.18,4,4,0,0,0-.3-4.27,4.13,4.13,0,0,0-4.22-.9,11.49,11.49,0,0,0-3.78,2.27,22,22,0,0,0-5,5.71,33.72,33.72,0,0,0-2.29,4.61A13,13,0,0,1,422.82,249.21Z" style="fill:#263238"></path><path d="M419.35,248.34c-1.15,0-2,1.16-2.4,2.23a3.82,3.82,0,0,0,.33,3.32,4.35,4.35,0,0,0,3.85,2.07,4.11,4.11,0,0,0,3.54-2.53,3.92,3.92,0,0,0-.94-4.21,4.18,4.18,0,0,0-4.79-.83" style="fill:#FF725E"></path><path d="M415.67,259.18a4.69,4.69,0,0,1-1.57-1.08,10.38,10.38,0,0,1-2.61-3.82,7.76,7.76,0,0,1-.48-4.62,3.23,3.23,0,0,1,.82-1.74c.08.05-.25.69-.41,1.82a8.35,8.35,0,0,0,.6,4.32C413.3,257.37,415.83,259,415.67,259.18Z" style="fill:#fff"></path><path d="M419.13,260.34c0,.16-.41.36-1,.25s-.89-.48-.8-.61.47-.05.92,0S419.1,260.18,419.13,260.34Z" style="fill:#fff"></path><path d="M430.47,250c.07,0,.24.49.28,1.35a7.82,7.82,0,0,1-.65,3.25,7.55,7.55,0,0,1-1.93,2.69c-.64.56-1.12.78-1.16.72a15.49,15.49,0,0,0,2.56-3.64C430.58,252.05,430.29,250,430.47,250Z" style="fill:#fff"></path><path d="M423.62,242.83c-.15.07-.37-.06-.62-.16s-.49-.17-.55-.32.32-.4.77-.21S423.77,242.77,423.62,242.83Z" style="fill:#fff"></path><path d="M418.81,254.4c0,.06-.37,0-.77-.4a3,3,0,0,1-.92-1.88,3,3,0,0,1,.52-2c.32-.44.63-.6.67-.54a5.86,5.86,0,0,0-.62,2.51A5.68,5.68,0,0,0,418.81,254.4Z" style="fill:#fff"></path><path d="M420.61,255.19c0,.16-.21.27-.43.25s-.4-.16-.39-.32a.38.38,0,0,1,.44-.26C420.45,254.88,420.63,255,420.61,255.19Z" style="fill:#fff"></path><path d="M239.19,251.94c-2.29.58-3.33,3.3-3.66,5.64a7.84,7.84,0,0,0,2.33,6.44,8.88,8.88,0,0,0,8.7,2.19,8.48,8.48,0,0,0,5.78-6.8,8.06,8.06,0,0,0-4-7.92c-3.5-1.9-6.56-1.61-9.94.76" style="fill:#FF725E"></path><g style="opacity:0.7000000000000001"><path d="M239.19,251.94c-2.29.58-3.33,3.3-3.66,5.64a7.84,7.84,0,0,0,2.33,6.44,8.88,8.88,0,0,0,8.7,2.19,8.48,8.48,0,0,0,5.78-6.8,8.06,8.06,0,0,0-4-7.92c-3.5-1.9-6.56-1.61-9.94.76" style="fill:#fff"></path></g><path d="M242.45,257.18a26.77,26.77,0,0,0-5.52-9.48,7.88,7.88,0,0,0-3-2.29,3,3,0,0,0-3.93,4.06,8.39,8.39,0,0,0,2.16,2.84c2.81,2.68,6,4,10.29,4.87" style="fill:#fff"></path><path d="M242.45,257.18A5.8,5.8,0,0,1,241,257a21,21,0,0,1-3.86-1.16,16.53,16.53,0,0,1-5.06-3.22,9.31,9.31,0,0,1-2.25-2.8,3.66,3.66,0,0,1,.34-3.87,3.55,3.55,0,0,1,3.8-.8,7.61,7.61,0,0,1,2.92,2.12,25.8,25.8,0,0,1,3.5,4.86,24.64,24.64,0,0,1,1.67,3.66,5.84,5.84,0,0,1,.4,1.42c-.1,0-.71-2-2.42-4.88a28.13,28.13,0,0,0-3.54-4.69,7.1,7.1,0,0,0-2.72-2,3,3,0,0,0-3.17.64,3.12,3.12,0,0,0-.26,3.25,8.8,8.8,0,0,0,2.1,2.65,17,17,0,0,0,4.85,3.24C240.37,256.76,242.48,257.06,242.45,257.18Z" style="fill:#263238"></path><path d="M245.05,256.53a26.82,26.82,0,0,0,8.78-6.59,7.91,7.91,0,0,0,1.91-3.25,3,3,0,0,0-4.48-3.43,8.41,8.41,0,0,0-2.57,2.47c-2.33,3.11-3.28,6.44-3.64,10.8" style="fill:#fff"></path><path d="M245.05,256.53a6.7,6.7,0,0,1,0-1.48,21.2,21.2,0,0,1,.7-4,16.49,16.49,0,0,1,2.61-5.39,9,9,0,0,1,2.52-2.57,3.66,3.66,0,0,1,3.88-.11,3.53,3.53,0,0,1,1.24,3.67,7.43,7.43,0,0,1-1.77,3.15,26.21,26.21,0,0,1-4.41,4,24.05,24.05,0,0,1-3.44,2.09,6.32,6.32,0,0,1-1.37.56c-.05-.1,1.89-.94,4.57-3a28.13,28.13,0,0,0,4.24-4.06,7,7,0,0,0,1.62-2.93,3,3,0,0,0-1-3.07,3.12,3.12,0,0,0-3.26.12,8.87,8.87,0,0,0-2.38,2.39,17,17,0,0,0-2.65,5.2C245.23,254.42,245.18,256.55,245.05,256.53Z" style="fill:#263238"></path><path d="M242.29,256.53c-.87.22-1.26,1.24-1.38,2.12a2.92,2.92,0,0,0,.87,2.43,3.36,3.36,0,0,0,3.28.82,3.19,3.19,0,0,0,2.18-2.56,3,3,0,0,0-1.51-3,3.21,3.21,0,0,0-3.74.28" style="fill:#FF725E"></path><path d="M241.57,265.35c0,.07-.57-.07-1.4-.48a7.78,7.78,0,0,1-2.71-2.37,5.83,5.83,0,0,1-1.22-3.4c0-1,.26-1.49.33-1.46s0,.57.08,1.43a6.66,6.66,0,0,0,1.27,3.09C239.49,264.38,241.67,265.16,241.57,265.35Z" style="fill:#fff"></path><path d="M244.39,265.57c.07.14-.23.41-.69.43s-.77-.22-.72-.37.36-.19.7-.21S244.32,265.42,244.39,265.57Z" style="fill:#fff"></path><path d="M250.93,255.64c.12-.1,1,1.46.65,3.52a4.3,4.3,0,0,1-1.74,3.13,15.79,15.79,0,0,0,1.17-3.22A17.29,17.29,0,0,0,250.93,255.64Z" style="fill:#fff"></path><path d="M244.44,251.59a.74.74,0,0,1-.5.07c-.18,0-.37-.07-.46-.21s.14-.43.54-.37S244.57,251.5,244.44,251.59Z" style="fill:#fff"></path><path d="M243,261.18c0,.07-.29.07-.68-.12a2.36,2.36,0,0,1-1.08-1.25,2.32,2.32,0,0,1,0-1.66c.17-.39.38-.56.45-.52s-.3,1,.07,2S243.08,261,243,261.18Z" style="fill:#fff"></path><path d="M244.52,261.42a.3.3,0,0,1-.27.34.29.29,0,1,1-.09-.57A.3.3,0,0,1,244.52,261.42Z" style="fill:#fff"></path><path d="M321.41,196c-2.29.58-3.33,3.29-3.66,5.64a7.81,7.81,0,0,0,2.33,6.44,8.88,8.88,0,0,0,8.7,2.19,8.45,8.45,0,0,0,5.77-6.8,8,8,0,0,0-4-7.92c-3.5-1.9-6.56-1.61-9.94.76" style="fill:#FF725E"></path><g style="opacity:0.7000000000000001"><path d="M321.41,196c-2.29.58-3.33,3.29-3.66,5.64a7.81,7.81,0,0,0,2.33,6.44,8.88,8.88,0,0,0,8.7,2.19,8.45,8.45,0,0,0,5.77-6.8,8,8,0,0,0-4-7.92c-3.5-1.9-6.56-1.61-9.94.76" style="fill:#fff"></path></g><path d="M324.67,201.19a27,27,0,0,0-5.52-9.49,7.85,7.85,0,0,0-3-2.28,3,3,0,0,0-3.93,4.05,8.29,8.29,0,0,0,2.15,2.84c2.82,2.69,6,4,10.3,4.88" style="fill:#fff"></path><path d="M324.67,201.19a6.47,6.47,0,0,1-1.46-.21,21,21,0,0,1-3.86-1.16,16.6,16.6,0,0,1-5.06-3.22,9.16,9.16,0,0,1-2.25-2.8,3.66,3.66,0,0,1,.34-3.87,3.54,3.54,0,0,1,3.79-.8,7.57,7.57,0,0,1,2.93,2.12,26.55,26.55,0,0,1,3.5,4.85,24.22,24.22,0,0,1,1.67,3.67,6.5,6.5,0,0,1,.4,1.42,54.22,54.22,0,0,0-2.43-4.88,27.08,27.08,0,0,0-3.54-4.69,6.89,6.89,0,0,0-2.71-2,3,3,0,0,0-3.17.64,3.12,3.12,0,0,0-.26,3.25,8.92,8.92,0,0,0,2.1,2.65,16.89,16.89,0,0,0,4.85,3.24C322.59,200.77,324.7,201.07,324.67,201.19Z" style="fill:#263238"></path><path d="M327.27,200.54a27.2,27.2,0,0,0,8.78-6.59A7.91,7.91,0,0,0,338,190.7a3,3,0,0,0-4.48-3.43,8.29,8.29,0,0,0-2.57,2.47c-2.33,3.11-3.28,6.44-3.64,10.8" style="fill:#fff"></path><path d="M327.27,200.54a6,6,0,0,1,0-1.48,21.2,21.2,0,0,1,.7-4,16.7,16.7,0,0,1,2.6-5.4,9.31,9.31,0,0,1,2.53-2.56A3.68,3.68,0,0,1,337,187a3.52,3.52,0,0,1,1.23,3.68,7.37,7.37,0,0,1-1.76,3.15,26.21,26.21,0,0,1-4.41,4,23.29,23.29,0,0,1-3.45,2.08,6.18,6.18,0,0,1-1.36.57c0-.1,1.89-.94,4.56-3a27.78,27.78,0,0,0,4.25-4.07,7.12,7.12,0,0,0,1.62-2.92,3,3,0,0,0-1-3.08,3.14,3.14,0,0,0-3.26.13,8.87,8.87,0,0,0-2.38,2.39,17,17,0,0,0-2.65,5.2C327.45,198.43,327.4,200.56,327.27,200.54Z" style="fill:#263238"></path><path d="M324.5,200.54c-.86.21-1.25,1.24-1.38,2.12a3,3,0,0,0,.88,2.43,3.36,3.36,0,0,0,3.28.82,3.18,3.18,0,0,0,2.17-2.56,3,3,0,0,0-1.5-3,3.21,3.21,0,0,0-3.74.28" style="fill:#FF725E"></path><path d="M323.79,209.36a3.18,3.18,0,0,1-1.41-.48,7.87,7.87,0,0,1-2.71-2.37,5.9,5.9,0,0,1-1.21-3.4c0-1,.26-1.49.32-1.46s0,.57.09,1.43a6.66,6.66,0,0,0,1.27,3.09C321.71,208.39,323.89,209.17,323.79,209.36Z" style="fill:#fff"></path><path d="M326.61,209.57c.06.15-.23.42-.69.44s-.78-.22-.72-.37.36-.19.69-.21S326.54,209.43,326.61,209.57Z" style="fill:#fff"></path><path d="M333.14,199.65c.12-.1,1,1.45.66,3.52a4.3,4.3,0,0,1-1.74,3.13,16.51,16.51,0,0,0,1.17-3.22A16,16,0,0,0,333.14,199.65Z" style="fill:#fff"></path><path d="M326.66,195.6a.69.69,0,0,1-.5.06.73.73,0,0,1-.47-.2c-.09-.13.15-.43.55-.37S326.79,195.51,326.66,195.6Z" style="fill:#fff"></path><path d="M325.24,205.18c0,.07-.29.08-.68-.11a2.32,2.32,0,0,1-1.05-2.91c.17-.39.38-.56.44-.52s-.29,1,.08,2S325.3,205,325.24,205.18Z" style="fill:#fff"></path><path d="M326.74,205.43a.3.3,0,0,1-.27.34.31.31,0,0,1-.36-.24.3.3,0,0,1,.27-.33A.29.29,0,0,1,326.74,205.43Z" style="fill:#fff"></path></g></svg>