<svg id="Layer_1" data-name="Layer 1" xmlns="http://www.w3.org/2000/svg" xmlns:xlink="http://www.w3.org/1999/xlink" width="406" height="306" viewBox="0 0 428.72 349.98" class="illustration styles_illustrationTablet__1DWOa"><defs><linearGradient id="linear-gradient" x1="378.81" y1="135.73" x2="387.3" y2="135.73" gradientTransform="matrix(1, 0, 0, -1, 0, 348.01)" gradientUnits="userSpaceOnUse"><stop offset="0" stop-opacity="0"></stop><stop offset="0.91" stop-opacity="0.8"></stop><stop offset="1"></stop></linearGradient><linearGradient id="linear-gradient-2" x1="420.07" y1="188.08" x2="315.9" y2="151.47" gradientTransform="matrix(1, 0, 0, -1, 0.39, 308.63)" xlink:href="#linear-gradient"></linearGradient><linearGradient id="linear-gradient-3" x1="406.54" y1="133.85" x2="378.76" y2="136.48" gradientTransform="matrix(1, 0, 0, -1, 0.39, 308.63)" xlink:href="#linear-gradient"></linearGradient><linearGradient id="linear-gradient-4" x1="174.6" y1="187.53" x2="172.72" y2="176.93" xlink:href="#linear-gradient"></linearGradient><linearGradient id="linear-gradient-5" x1="153.71" y1="159.03" x2="145.33" y2="143.26" gradientTransform="matrix(1, 0, 0, -1, 0.39, 308.63)" gradientUnits="userSpaceOnUse"><stop offset="0" stop-color="#ecc4d7"></stop><stop offset="0.42" stop-color="#efd4d1"></stop><stop offset="1" stop-color="#f2eac9"></stop></linearGradient><linearGradient id="linear-gradient-6" x1="89.07" y1="100.25" x2="375.89" y2="100.25" gradientTransform="matrix(1, 0, 0, -1, 0.39, 308.63)" xlink:href="#linear-gradient"></linearGradient><linearGradient id="linear-gradient-7" x1="232.55" y1="151.63" x2="232.93" y2="115.22" gradientTransform="matrix(1, 0, 0, -1, 0.39, 308.63)" xlink:href="#linear-gradient"></linearGradient><linearGradient id="linear-gradient-8" x1="192.64" y1="184.79" x2="182.5" y2="181.13" xlink:href="#linear-gradient-5"></linearGradient><linearGradient id="linear-gradient-9" x1="164.87" y1="198.82" x2="205.94" y2="198.82" gradientTransform="matrix(1, 0, 0, -1, 0.39, 308.63)" xlink:href="#linear-gradient"></linearGradient><linearGradient id="linear-gradient-10" x1="171.33" y1="195.9" x2="168.61" y2="189.24" gradientTransform="matrix(1, 0, 0, -1, 0.39, 308.63)" xlink:href="#linear-gradient"></linearGradient><linearGradient id="linear-gradient-11" x1="202.31" y1="188.43" x2="202.31" y2="181.67" gradientTransform="matrix(1, 0, 0, -1, 0.39, 308.63)" xlink:href="#linear-gradient"></linearGradient><linearGradient id="linear-gradient-12" x1="180.23" y1="173.71" x2="193.88" y2="152.59" gradientTransform="matrix(1, 0, 0, -1, 0.39, 308.63)" xlink:href="#linear-gradient"></linearGradient><linearGradient id="linear-gradient-13" x1="171.03" y1="169.52" x2="204.72" y2="109.21" gradientTransform="matrix(1, 0, 0, -1, 0.39, 308.63)" xlink:href="#linear-gradient"></linearGradient><linearGradient id="linear-gradient-14" x1="143.1" y1="149.16" x2="152.11" y2="151.84" xlink:href="#linear-gradient-5"></linearGradient><linearGradient id="linear-gradient-15" x1="185.11" y1="169.14" x2="217.78" y2="169.14" xlink:href="#linear-gradient"></linearGradient><linearGradient id="linear-gradient-16" x1="197.6" y1="152.83" x2="232.58" y2="152.83" gradientTransform="matrix(1, 0, 0, -1, 0.39, 308.63)" xlink:href="#linear-gradient"></linearGradient><linearGradient id="linear-gradient-17" x1="217.39" y1="129.77" x2="225.26" y2="129.77" gradientTransform="matrix(1, 0, 0, -1, 0.39, 308.63)" xlink:href="#linear-gradient"></linearGradient><linearGradient id="linear-gradient-18" x1="232.45" y1="100.73" x2="226.26" y2="60.47" gradientTransform="matrix(1, 0, 0, -1, 0.39, 308.63)" xlink:href="#linear-gradient"></linearGradient><linearGradient id="linear-gradient-19" x1="194.04" y1="184.17" x2="185.62" y2="183.99" gradientTransform="matrix(1, 0, 0, -1, 0.39, 308.63)" xlink:href="#linear-gradient"></linearGradient><linearGradient id="linear-gradient-20" x1="6.3" y1="13.33" x2="426.85" y2="13.33" gradientTransform="matrix(1, 0, 0, -1, 0.39, 308.63)" xlink:href="#linear-gradient"></linearGradient><linearGradient id="linear-gradient-21" x1="216.18" y1="98.21" x2="219.56" y2="-76.64" gradientTransform="matrix(1, 0, 0, -1, 0.39, 308.63)" xlink:href="#linear-gradient"></linearGradient><linearGradient id="linear-gradient-22" x1="334.18" y1="81.45" x2="339.25" y2="58.36" gradientTransform="matrix(1, 0, 0, -1, 0.39, 308.63)" xlink:href="#linear-gradient"></linearGradient><linearGradient id="linear-gradient-23" x1="196.91" y1="132.59" x2="197.02" y2="122.13" gradientTransform="matrix(1, 0, 0, -1, 0.39, 308.63)" xlink:href="#linear-gradient"></linearGradient></defs><title>fishing</title><path d="M.39,250S-8.06,108.24,53.6,88s86.61-44.12,95.67-58.36S208.17-14.1,250.39,7.86s38.85,57.74,79.4,60.54,82.32,10.54,82.32,45.45S427.59,225,427.59,225,79,315.63.39,250Z" transform="translate(0 0.01)" fill="#68e1fd" opacity="0.27" style="isolation: isolate;"></path><path d="M344.9,135.41V162l67.23-13.27v-20a19.13,19.13,0,0,0-23.34-18.62l-29,6.61A19.1,19.1,0,0,0,344.9,135.41Z" transform="translate(0 0.01)" fill="#68e1fd"></path><path d="M403.55,150.45l-6.16,24.84s-14.78,27.62-40.24,17.48-6.62-37.66-6.62-37.66Z" transform="translate(0 0.01)" fill="#68e1fd"></path><polygon points="381.8 228.23 378.81 192.78 385.69 187.94 387.3 234.85 381.8 236.63 381.8 228.23" fill="#68e1fd"></polygon><polygon points="381.8 228.23 378.81 192.78 385.69 187.94 387.3 234.85 381.8 236.63 381.8 228.23" fill="url(#linear-gradient)"></polygon><path d="M344.9,135.41V162l67.23-13.27v-20a19.13,19.13,0,0,0-23.34-18.62l-29,6.61A19.1,19.1,0,0,0,344.9,135.41Z" transform="translate(0 0.01)" fill="url(#linear-gradient-2)"></path><path d="M403.55,150.45l-6.16,24.84s-14.78,27.62-40.24,17.48-6.62-37.66-6.62-37.66Z" transform="translate(0 0.01)" fill="url(#linear-gradient-3)"></path><line x1="381.8" y1="228.23" x2="378.81" y2="192.78" fill="none"></line><polygon points="184.87 151.81 175.92 164.88 162.88 156.67 156.06 162.1 175.22 176.66 191.06 170.59 184.87 151.81" fill="#68e1fd"></polygon><polygon points="184.87 151.81 175.92 164.88 162.88 156.67 156.06 162.1 175.22 176.66 191.06 170.59 184.87 151.81" opacity="0.25" fill="url(#linear-gradient-4)" style="isolation: isolate;"></polygon><path d="M143.69,146.63s6-.4,7.55,1a68.67,68.67,0,0,1,4.82,5.69l5.61,4.59-5.16,2.9-8.12-5.57Z" transform="translate(0 0.01)" fill="url(#linear-gradient-5)"></path><path d="M427.24,258.09a102.38,102.38,0,0,1-4.55,17.82C413,303.34,388.44,333.44,329,342.84c-106.33,16.79-264.19,7.5-316-67.21a98.09,98.09,0,0,1-6.29-10.4A92.11,92.11,0,0,1,.39,250s22.86-5.43,45.2-2.86,57.37-6.75,82-4.08,55.62,2.42,55.62,2.42,171.9-15.36,204.07-10.63S427.57,225,427.57,225A105.07,105.07,0,0,1,427.24,258.09Z" transform="translate(0 0.01)" fill="#68e1fd"></path><path d="M89.46,172.47s101.86,42.16,286.82-5.71c0,0-9.75,57.55-61.06,72s-131.82,15.54-164.58,0C94.7,212.2,89.46,172.47,89.46,172.47Z" transform="translate(0 0.01)" fill="#68e1fd"></path><path d="M89.46,172.47s101.86,42.16,286.82-5.71c0,0-9.75,57.55-61.06,72s-131.82,15.54-164.58,0C94.7,212.2,89.46,172.47,89.46,172.47Z" transform="translate(0 0.01)" opacity="0.25" fill="url(#linear-gradient-6)" style="isolation: isolate;"></path><path d="M89.46,172.47l-9.21-4.94V155.11s10.31,24.14,84.21,24.14c24.58,0,44.18,2.34,68.51,0,78.65-7.57,152.72-27.45,152.72-27.45l-1.61,11.63-7.8,3.33S168.27,221.27,89.46,172.47Z" transform="translate(0 0.01)" fill="#68e1fd"></path><path d="M89.46,172.47l-9.21-4.94V155.11s36.91,25.34,110.81,25.34c104.05,0,194.63-28.65,194.63-28.65l-1.61,11.63-7.8,3.33S168.27,221.27,89.46,172.47Z" transform="translate(0 0.01)" opacity="0.25" fill="url(#linear-gradient-7)" style="isolation: isolate;"></path><path d="M175.45,116.63s1.39,9.59,0,11,3.23,2.61,3.73,5.14,3.86,4.31,8.67,2.94a6.37,6.37,0,0,1,7.22,2.83s4.41-1.88,6.62-4.42c0,0-3.14-11.23-3.31-15.24S183.68,107.08,175.45,116.63Z" transform="translate(0 0.01)" fill="url(#linear-gradient-8)"></path><path d="M173.39,115.56c.75,0,32.93,8.15,32.93,8.15s-3.7-14-2.49-20.5-19-8.87-21-8-3.45,7.8-7.1,9.51-10.45,9.16-10.45,9.16Z" transform="translate(0 0.01)" fill="#68e1fd"></path><path d="M206.33,123.71s-32.18-8.15-32.93-8.15l-8.14-1.71.19-.21,2.93.62c.75,0,32.93,8.15,32.93,8.15s-3.7-14-2.49-20.5c.5-2.68-2.65-4.65-6.66-6,6,1.18,12.38,3.55,11.68,7.3C202.63,109.7,206.33,123.71,206.33,123.71Z" transform="translate(0 0.01)" opacity="0.25" fill="url(#linear-gradient-9)" style="isolation: isolate;"></path><path d="M165.26,113.85s-3.36,1.39,10.4,4.43c0,0-.7-1.93.26-2.16Z" transform="translate(0 0.01)" fill="#68e1fd"></path><path d="M206.33,123.71s1.43,1.25-1.94,1.56a18.42,18.42,0,0,1-4.92,0l-.71-3.48Z" transform="translate(0 0.01)" fill="#68e1fd"></path><path d="M165.26,113.85s-3.36,1.39,10.4,4.43c0,0-.7-1.93.26-2.16Z" transform="translate(0 0.01)" fill="url(#linear-gradient-10)"></path><path d="M206.33,123.71s1.43,1.25-1.94,1.56a18.42,18.42,0,0,1-4.92,0l-.71-3.48Z" transform="translate(0 0.01)" fill="url(#linear-gradient-11)"></path><path d="M191.06,119.86l.32,4.07s1.23-3.21,3-2.14-1.65,5.75-1.65,5.75l4.58,2.46,1.1-.63,1.74.63.64-.63.55-1.06s-1.91-3.69-1.7-4.6a9.12,9.12,0,0,0,.23-1.64Z" transform="translate(0 0.01)" fill="#232e30"></path><path d="M201.69,134.07s-14.63,6.55-16,10.07-2.42,36.22-2.42,36.22L233,179.25S227.93,140.57,201.69,134.07Z" transform="translate(0 0.01)" fill="#68e1fd"></path><path d="M203.84,136.69l-8.39,5.08s-8.75,15.2-9.65,18.74-1.19,17.61-1.19,17.61l-2.92-5.83s1.46-13.87,3.21-17.69a80.77,80.77,0,0,1,7.86-13.29c2.31-2.82,4.35-5.28,4.35-5.28l5.59-3.67,1.87,2.58Z" transform="translate(0 0.01)" fill="#68e1fd"></path><path d="M203.84,136.69l-8.39,5.08s-8.75,15.2-9.65,18.74-1.19,17.61-1.19,17.61l-2.92-5.83s1.46-13.87,3.21-17.69a80.77,80.77,0,0,1,7.86-13.29c2.31-2.82,4.35-5.28,4.35-5.28l5.59-3.67,1.87,2.58Z" transform="translate(0 0.01)" opacity="0.25" fill="url(#linear-gradient-12)" style="isolation: isolate;"></path><path d="M203.06,141.77s-10.89,14.53-11.49,21.34-11.26,9.61-11.26,9.61l-19.68-11.86-7.11,9.06,10.94,9.33h33.93s13.62-14.38,14.17-18.74S214.67,144.2,203.06,141.77Z" transform="translate(0 0.01)" fill="#68e1fd"></path><path d="M212.55,160.51c-.55,4.36-6.22,18-6.22,18l-41.87.78L153.52,170l1.54-2,5.57-7.1,19.68,11.86s10.65-2.8,11.26-9.61,11.49-21.34,11.49-21.34c5.2,1.09,7.75,4.09,8.94,7.45C213.47,153.38,212.86,158.1,212.55,160.51Z" transform="translate(0 0.01)" opacity="0.25" fill="url(#linear-gradient-13)" style="isolation: isolate;"></path><path d="M211.72,156.63c-.56,4.36-19,22.29-19,22.29l-23.39.3-14.26-11.29,5.57-7.1,19.68,11.86s10.65-2.8,11.26-9.61,11.49-21.34,11.49-21.34c5.2,1.09,7.75,4.09,8.94,7.45A33.68,33.68,0,0,1,211.72,156.63Z" transform="translate(0 0.01)" fill="#68e1fd"></path><path d="M159.33,161.63s-4.92-5.43-5.81-8.66-6.24-3.82-6.58-4.24-7-.51-7-.51-.77.42-.93,2.55,1.27,6.93,3.65,9.79,7.3,3.11,7.55,3.11,4.47,4.77,4.47,4.77S160.61,164.89,159.33,161.63Z" transform="translate(0 0.01)" fill="url(#linear-gradient-14)"></path><path d="M144.47,148.32S136,125.27,93.3,115s-69.36,1.1-69.36,1.1,38-8.47,76.14,2.65c33.43,9.74,41.39,29.51,41.39,29.51Z" transform="translate(0 0.01)" fill="#68e1fd"></path><path d="M23.94,116.06l1.63,138.25h1.35L24.54,115.94S24.39,115.51,23.94,116.06Z" transform="translate(0 0.01)" fill="#68e1fd"></path><polygon points="216.36 178.48 217.78 178.6 185.18 179.26 185.11 179.11 216.36 178.48" opacity="0.25" fill="url(#linear-gradient-15)" style="isolation: isolate;"></polygon><path d="M233,179.25l-7.41-.62c-.54-3.74-4.18-23.84-20.48-39.5L198,135.34a41.24,41.24,0,0,1,4.71-3l1.87,2.58,7.82,4.21C230.45,156.47,233,179.25,233,179.25Z" transform="translate(0 0.01)" opacity="0.25" fill="url(#linear-gradient-16)" style="isolation: isolate;"></path><path d="M225.65,179.25l-7.87-.66,5.9-.12,1.88.16C225.63,179,225.65,179.25,225.65,179.25Z" transform="translate(0 0.01)" opacity="0.25" fill="url(#linear-gradient-17)" style="isolation: isolate;"></path><path d="M369.91,185.05s-.74,2.42-2,5.82c-2.74,7.3-8,19.13-13.8,21.4,0,0-128.13,40.76-226.9,12.71,0,0-18-12.73-25.68-24.18a21.84,21.84,0,0,1-3-6.06s88.66,26.14,221.86,4.21Z" transform="translate(0 0.01)" fill="#68e1fd"></path><path d="M367.89,190.87c-2.74,7.3-8,19.13-13.8,21.4,0,0-128.13,40.76-226.9,12.71,0,0-18-12.73-25.68-24.18,16.52,4.24,100,23,218.88,3.41Z" transform="translate(0 0.01)" opacity="0.25" fill="url(#linear-gradient-18)" style="isolation: isolate;"></path><path d="M191.67,125.27s.93-.18.9-.9.65-2.22,1.1-1.92.29,2.92-1.17,3.87S191.67,125.27,191.67,125.27Z" transform="translate(0 0.01)" fill="url(#linear-gradient-19)"></path><path d="M427.24,258.09c-5,30.67-25.43,73.24-98.26,84.75C217.91,360.39,50.6,349.46,6.69,265.2a23.14,23.14,0,0,1,5.12-.34c5.11.2,10.67,1.09,15-1.65,2.53-1.61,4.25-4.27,6.77-5.9,4.93-3.19,11.36-1.67,17.15-.71,30.71,5.12,63-8.61,92.89.11,4.29,1.26,8.47,3,12.9,3.58,4.93.69,9.93,0,14.86-.67,27.94-3.76,56.85-6.38,83.9,1.51,15.73,4.58,33.3,12.48,47.41,4.17,3.22-1.9,5.95-4.53,9-6.66,6.29-4.37,13.81-6.55,21.17-8.65,15.68-4.41,33.22-10.44,49.75-9.18,12.56,1,25.5,9.4,37.15,14C422.23,255.8,424.76,256.88,427.24,258.09Z" transform="translate(0 0.01)" opacity="0.25" fill="url(#linear-gradient-20)" style="isolation: isolate;"></path><path d="M422.69,275.91C413,303.34,388.44,333.44,329,342.84c-106.33,16.79-264.19,7.5-316-67.21,28,1.73,57-8.76,84.09-.87,4.29,1.26,8.47,3,12.9,3.58,4.93.69,9.93,0,14.86-.67,27.94-3.76,56.85-6.38,83.9,1.51,15.73,4.58,33.3,12.48,47.41,4.17,3.22-1.9,5.95-4.53,9-6.66,6.29-4.37,13.81-6.55,21.17-8.65,15.68-4.41,33.22-10.44,49.75-9.18,12.56,1,25.5,9.4,37.15,14C374.69,273.43,401.11,274.71,422.69,275.91Z" transform="translate(0 0.01)" opacity="0.25" fill="url(#linear-gradient-21)" style="isolation: isolate;"></path><path d="M420.92,221.13c-3.24.12-6.21,1.77-9,3.45s-5.61,3.47-8.83,3.91c-6.17.86-12-3.41-18.26-3.28-5.85.13-11.12,4.12-17,4.08-3.29,0-6.48-1.33-9.77-1.22-4.14.13-8.14,2.5-12.23,1.77-1.38-.24-2.68-.84-4.05-1.14-6.17-1.36-11.92,3.24-18,4.86-5.2,1.37-10.71.55-16.09.85-11.44.63-21.95,6.3-33.13,8.79-8.05,1.8-16.35,1.94-24.59,2.14a5.27,5.27,0,0,0-3.3.83c-1.46,1.2-1.13,3.69.2,5a8.37,8.37,0,0,0,5.19,2c9.51,1,18.85-2.38,28.2-4.39,4.38-.95,8.81-1.6,13.24-2.24l14.47-2.1c16.29-2.34,32.81-4.66,49.15-2.74,5.8.68,11.57,1.89,17.41,1.83,9.7-.11,19.16-3.74,28.86-3.38,3.62.14,7.22.83,10.84.79s7.44-1,10-3.52C429.15,232.5,430.57,220.77,420.92,221.13Z" transform="translate(0 0.01)" fill="#68e1fd"></path><path d="M424.25,237.38c-2.57,2.56-6.39,3.47-10,3.52s-7.22-.65-10.84-.79c-7.29-.27-14.45,1.72-21.68,2.76a54.07,54.07,0,0,1-7.18.62c-5.84.06-11.61-1.15-17.41-1.83-16.34-1.92-32.86.4-49.15,2.74l-14.47,2.1-.61.09h0c-4.22.61-8.43,1.25-12.6,2.15-9.35,2-18.69,5.39-28.2,4.39a11.48,11.48,0,0,1-3.64-.88,5.72,5.72,0,0,1-1.55-1.07c-1.33-1.32-1.66-3.81-.2-5a5.27,5.27,0,0,1,3.3-.83c8.24-.2,16.54-.34,24.59-2.14,9.53-2.12,18.57-6.55,28.11-8.2a41.84,41.84,0,0,1,5-.59c1-.06,2-.07,3-.07a77.53,77.53,0,0,0,10.45-.26,21.92,21.92,0,0,0,2.66-.52c6.12-1.62,11.87-6.22,18-4.86,1.37.3,2.67.9,4.05,1.14,4.09.73,8.09-1.64,12.23-1.77,3.29-.11,6.48,1.2,9.77,1.22a15.5,15.5,0,0,0,3.46-.4,77.22,77.22,0,0,0,7.41-2.42,20.53,20.53,0,0,1,6.1-1.26c6.23-.13,12.09,4.14,18.26,3.28,3.22-.44,6.06-2.23,8.83-3.91s5.74-3.33,9-3.45C430.57,220.77,429.15,232.5,424.25,237.38Z" transform="translate(0 0.01)" opacity="0.25" fill="url(#linear-gradient-22)" style="isolation: isolate;"></path><path d="M381.87,242.73l-.15.14a54.07,54.07,0,0,1-7.18.62c-5.84.06-11.61-1.15-17.41-1.83-16.34-1.92-32.86.4-49.15,2.74l-14.47,2.1-.61.09h0c-9.11.56-18.22,1.86-27.26,3.16-4.83.7-9.65,1.39-14.47,2.1l-2.71.4a5.72,5.72,0,0,1-1.55-1.07c-1.33-1.32-1.66-3.81-.2-5a5.27,5.27,0,0,1,3.3-.83c8.24-.2,16.54-.34,24.59-2.14,9.53-2.12,18.57-6.55,28.11-8.2a7.68,7.68,0,0,0,.83.19c2.4.43,4.78-.21,7.17-.85a22.91,22.91,0,0,1,5.06-.93,23.89,23.89,0,0,1,5.39.67,23.87,23.87,0,0,0,4.37.56c5.85,0,11.13-4,17-4.08,6.22-.14,12.09,4.13,18.26,3.28,3.21-.44,6-2.23,8.82-3.91.58-.35,1.18-.71,1.78-1a16.07,16.07,0,0,1,7.2-2.42h.21C388.18,226.28,386.74,237.88,381.87,242.73Z" transform="translate(0 0.01)" fill="#fff" opacity="0.25" style="isolation: isolate;"></path><path d="M161.67,176.63l70.29-2.7,1,5.3-17.33.92-20.63.26-14,0-16.59-1.13Z" transform="translate(0 0.01)" fill="url(#linear-gradient-23)"></path></svg>