<svg width="1400" height="400" viewBox="0 0 1400 400" fill="none" xmlns="http://www.w3.org/2000/svg">
<rect width="1400" height="400" fill="#C9FECE"/>
<path d="M451.648 172.56V164.592H469.696V234H460.864V172.56H451.648ZM482.59 218.544V211.92L516.286 165.264H526.75V210.96H536.35V218.544H526.75V234H518.11V218.544H482.59ZM518.494 174.384L492.67 210.96H518.494V174.384ZM545.077 198.576C545.077 187.568 546.869 178.992 550.453 172.848C554.037 166.64 560.309 163.536 569.269 163.536C578.165 163.536 584.405 166.64 587.989 172.848C591.573 178.992 593.365 187.568 593.365 198.576C593.365 209.776 591.573 218.48 587.989 224.688C584.405 230.896 578.165 234 569.269 234C560.309 234 554.037 230.896 550.453 224.688C546.869 218.48 545.077 209.776 545.077 198.576ZM584.725 198.576C584.725 193.008 584.341 188.304 583.573 184.464C582.869 180.56 581.365 177.424 579.061 175.056C576.821 172.688 573.557 171.504 569.269 171.504C564.917 171.504 561.589 172.688 559.285 175.056C557.045 177.424 555.541 180.56 554.773 184.464C554.069 188.304 553.717 193.008 553.717 198.576C553.717 204.336 554.069 209.168 554.773 213.072C555.541 216.976 557.045 220.112 559.285 222.48C561.589 224.848 564.917 226.032 569.269 226.032C573.557 226.032 576.821 224.848 579.061 222.48C581.365 220.112 582.869 216.976 583.573 213.072C584.341 209.168 584.725 204.336 584.725 198.576ZM605.358 198.576C605.358 187.568 607.15 178.992 610.734 172.848C614.318 166.64 620.59 163.536 629.55 163.536C638.446 163.536 644.686 166.64 648.27 172.848C651.854 178.992 653.646 187.568 653.646 198.576C653.646 209.776 651.854 218.48 648.27 224.688C644.686 230.896 638.446 234 629.55 234C620.59 234 614.318 230.896 610.734 224.688C607.15 218.48 605.358 209.776 605.358 198.576ZM645.006 198.576C645.006 193.008 644.622 188.304 643.854 184.464C643.15 180.56 641.646 177.424 639.342 175.056C637.102 172.688 633.838 171.504 629.55 171.504C625.198 171.504 621.87 172.688 619.566 175.056C617.326 177.424 615.822 180.56 615.054 184.464C614.35 188.304 613.998 193.008 613.998 198.576C613.998 204.336 614.35 209.168 615.054 213.072C615.822 216.976 617.326 220.112 619.566 222.48C621.87 224.848 625.198 226.032 629.55 226.032C633.838 226.032 637.102 224.848 639.342 222.48C641.646 220.112 643.15 216.976 643.854 213.072C644.622 209.168 645.006 204.336 645.006 198.576ZM720.033 200.592L740.577 234H730.689L714.657 207.888L699.393 234H689.697L710.145 200.592L689.601 167.088H699.393L715.521 193.296L730.881 167.088H740.673L720.033 200.592ZM774.34 218.544V211.92L808.036 165.264H818.5V210.96H828.1V218.544H818.5V234H809.86V218.544H774.34ZM810.244 174.384L784.42 210.96H810.244V174.384ZM836.827 198.576C836.827 187.568 838.619 178.992 842.203 172.848C845.787 166.64 852.059 163.536 861.019 163.536C869.915 163.536 876.155 166.64 879.739 172.848C883.323 178.992 885.115 187.568 885.115 198.576C885.115 209.776 883.323 218.48 879.739 224.688C876.155 230.896 869.915 234 861.019 234C852.059 234 845.787 230.896 842.203 224.688C838.619 218.48 836.827 209.776 836.827 198.576ZM876.475 198.576C876.475 193.008 876.091 188.304 875.323 184.464C874.619 180.56 873.115 177.424 870.811 175.056C868.571 172.688 865.307 171.504 861.019 171.504C856.667 171.504 853.339 172.688 851.035 175.056C848.795 177.424 847.291 180.56 846.523 184.464C845.819 188.304 845.467 193.008 845.467 198.576C845.467 204.336 845.819 209.168 846.523 213.072C847.291 216.976 848.795 220.112 851.035 222.48C853.339 224.848 856.667 226.032 861.019 226.032C865.307 226.032 868.571 224.848 870.811 222.48C873.115 220.112 874.619 216.976 875.323 213.072C876.091 209.168 876.475 204.336 876.475 198.576ZM897.108 198.576C897.108 187.568 898.9 178.992 902.484 172.848C906.068 166.64 912.34 163.536 921.3 163.536C930.196 163.536 936.436 166.64 940.02 172.848C943.604 178.992 945.396 187.568 945.396 198.576C945.396 209.776 943.604 218.48 940.02 224.688C936.436 230.896 930.196 234 921.3 234C912.34 234 906.068 230.896 902.484 224.688C898.9 218.48 897.108 209.776 897.108 198.576ZM936.756 198.576C936.756 193.008 936.372 188.304 935.604 184.464C934.9 180.56 933.396 177.424 931.092 175.056C928.852 172.688 925.588 171.504 921.3 171.504C916.948 171.504 913.62 172.688 911.316 175.056C909.076 177.424 907.572 180.56 906.804 184.464C906.1 188.304 905.748 193.008 905.748 198.576C905.748 204.336 906.1 209.168 906.804 213.072C907.572 216.976 909.076 220.112 911.316 222.48C913.62 224.848 916.948 226.032 921.3 226.032C925.588 226.032 928.852 224.848 931.092 222.48C933.396 220.112 934.9 216.976 935.604 213.072C936.372 209.168 936.756 204.336 936.756 198.576Z" fill="#676767"/>
</svg>
