<svg width="1400" height="300" viewBox="0 0 1400 300" fill="none" xmlns="http://www.w3.org/2000/svg">
<rect width="1400" height="300" fill="#C9FECE"/>
<path d="M453.648 122.56V114.592H471.696V184H462.864V122.56H453.648ZM484.59 168.544V161.92L518.286 115.264H528.75V160.96H538.35V168.544H528.75V184H520.11V168.544H484.59ZM520.494 124.384L494.67 160.96H520.494V124.384ZM547.077 148.576C547.077 137.568 548.869 128.992 552.453 122.848C556.037 116.64 562.309 113.536 571.269 113.536C580.165 113.536 586.405 116.64 589.989 122.848C593.573 128.992 595.365 137.568 595.365 148.576C595.365 159.776 593.573 168.48 589.989 174.688C586.405 180.896 580.165 184 571.269 184C562.309 184 556.037 180.896 552.453 174.688C548.869 168.48 547.077 159.776 547.077 148.576ZM586.725 148.576C586.725 143.008 586.341 138.304 585.573 134.464C584.869 130.56 583.365 127.424 581.061 125.056C578.821 122.688 575.557 121.504 571.269 121.504C566.917 121.504 563.589 122.688 561.285 125.056C559.045 127.424 557.541 130.56 556.773 134.464C556.069 138.304 555.717 143.008 555.717 148.576C555.717 154.336 556.069 159.168 556.773 163.072C557.541 166.976 559.045 170.112 561.285 172.48C563.589 174.848 566.917 176.032 571.269 176.032C575.557 176.032 578.821 174.848 581.061 172.48C583.365 170.112 584.869 166.976 585.573 163.072C586.341 159.168 586.725 154.336 586.725 148.576ZM607.358 148.576C607.358 137.568 609.15 128.992 612.734 122.848C616.318 116.64 622.59 113.536 631.55 113.536C640.446 113.536 646.686 116.64 650.27 122.848C653.854 128.992 655.646 137.568 655.646 148.576C655.646 159.776 653.854 168.48 650.27 174.688C646.686 180.896 640.446 184 631.55 184C622.59 184 616.318 180.896 612.734 174.688C609.15 168.48 607.358 159.776 607.358 148.576ZM647.006 148.576C647.006 143.008 646.622 138.304 645.854 134.464C645.15 130.56 643.646 127.424 641.342 125.056C639.102 122.688 635.838 121.504 631.55 121.504C627.198 121.504 623.87 122.688 621.566 125.056C619.326 127.424 617.822 130.56 617.054 134.464C616.35 138.304 615.998 143.008 615.998 148.576C615.998 154.336 616.35 159.168 617.054 163.072C617.822 166.976 619.326 170.112 621.566 172.48C623.87 174.848 627.198 176.032 631.55 176.032C635.838 176.032 639.102 174.848 641.342 172.48C643.646 170.112 645.15 166.976 645.854 163.072C646.622 159.168 647.006 154.336 647.006 148.576ZM722.033 150.592L742.577 184H732.689L716.657 157.888L701.393 184H691.697L712.145 150.592L691.601 117.088H701.393L717.521 143.296L732.881 117.088H742.673L722.033 150.592ZM778.26 132.064C778.708 126.176 780.98 121.568 785.076 118.24C789.172 114.912 794.484 113.248 801.012 113.248C805.364 113.248 809.108 114.048 812.244 115.648C815.444 117.184 817.844 119.296 819.444 121.984C821.108 124.672 821.94 127.712 821.94 131.104C821.94 135.072 820.788 138.496 818.484 141.376C816.244 144.256 813.3 146.112 809.652 146.944V147.424C813.812 148.448 817.108 150.464 819.54 153.472C821.972 156.48 823.188 160.416 823.188 165.28C823.188 168.928 822.356 172.224 820.692 175.168C819.028 178.048 816.532 180.32 813.204 181.984C809.876 183.648 805.876 184.48 801.204 184.48C794.42 184.48 788.852 182.72 784.5 179.2C780.148 175.616 777.716 170.56 777.204 164.032H785.652C786.1 167.872 787.668 171.008 790.356 173.44C793.044 175.872 796.628 177.088 801.108 177.088C805.588 177.088 808.98 175.936 811.284 173.632C813.652 171.264 814.836 168.224 814.836 164.512C814.836 159.712 813.236 156.256 810.036 154.144C806.836 152.032 802.004 150.976 795.54 150.976H793.332V143.68H795.636C801.524 143.616 805.972 142.656 808.98 140.8C811.988 138.88 813.492 135.936 813.492 131.968C813.492 128.576 812.372 125.856 810.132 123.808C807.956 121.76 804.82 120.736 800.724 120.736C796.756 120.736 793.556 121.76 791.124 123.808C788.692 125.856 787.252 128.608 786.804 132.064H778.26ZM834.983 148.576C834.983 137.568 836.775 128.992 840.359 122.848C843.943 116.64 850.215 113.536 859.175 113.536C868.071 113.536 874.311 116.64 877.895 122.848C881.479 128.992 883.271 137.568 883.271 148.576C883.271 159.776 881.479 168.48 877.895 174.688C874.311 180.896 868.071 184 859.175 184C850.215 184 843.943 180.896 840.359 174.688C836.775 168.48 834.983 159.776 834.983 148.576ZM874.631 148.576C874.631 143.008 874.247 138.304 873.479 134.464C872.775 130.56 871.271 127.424 868.967 125.056C866.727 122.688 863.463 121.504 859.175 121.504C854.823 121.504 851.495 122.688 849.191 125.056C846.951 127.424 845.447 130.56 844.679 134.464C843.975 138.304 843.623 143.008 843.623 148.576C843.623 154.336 843.975 159.168 844.679 163.072C845.447 166.976 846.951 170.112 849.191 172.48C851.495 174.848 854.823 176.032 859.175 176.032C863.463 176.032 866.727 174.848 868.967 172.48C871.271 170.112 872.775 166.976 873.479 163.072C874.247 159.168 874.631 154.336 874.631 148.576ZM895.265 148.576C895.265 137.568 897.057 128.992 900.641 122.848C904.225 116.64 910.497 113.536 919.457 113.536C928.353 113.536 934.593 116.64 938.177 122.848C941.76 128.992 943.552 137.568 943.552 148.576C943.552 159.776 941.76 168.48 938.177 174.688C934.593 180.896 928.353 184 919.457 184C910.497 184 904.225 180.896 900.641 174.688C897.057 168.48 895.265 159.776 895.265 148.576ZM934.913 148.576C934.913 143.008 934.529 138.304 933.761 134.464C933.057 130.56 931.553 127.424 929.249 125.056C927.009 122.688 923.745 121.504 919.457 121.504C915.105 121.504 911.777 122.688 909.473 125.056C907.233 127.424 905.729 130.56 904.961 134.464C904.257 138.304 903.905 143.008 903.905 148.576C903.905 154.336 904.257 159.168 904.961 163.072C905.729 166.976 907.233 170.112 909.473 172.48C911.777 174.848 915.105 176.032 919.457 176.032C923.745 176.032 927.009 174.848 929.249 172.48C931.553 170.112 933.057 166.976 933.761 163.072C934.529 159.168 934.913 154.336 934.913 148.576Z" fill="#676767"/>
</svg>
