<svg xmlns="http://www.w3.org/2000/svg" viewBox="0 0 750 500"><g id="freepik--background-simple--inject-140"><path d="M568.39,89.16a278.94,278.94,0,0,0-74.5-43.83C452.82,29.23,407.59,21.47,362.34,21,230.12,19.66,220.06,149.89,179.41,168S65.07,188.23,62.53,260.66c-1.6,45.55,11.08,92.39,46.75,127.88,32.67,32.51,80.66,49,127.94,61.16,53.1,13.67,109.41,27.07,165.26,17.85,57.32-9.46,97.59-47.51,144.66-73.22,29.63-16.19,56.23-33.24,74.53-59.22,2.19-3.1,4.24-6.27,6.19-9.48,24.5-40.37,29.3-86.93,15.79-130.61C631.53,155.82,604.16,118.49,568.39,89.16Z" style="fill:#92E3A9"></path><path d="M568.39,89.16a278.94,278.94,0,0,0-74.5-43.83C452.82,29.23,407.59,21.47,362.34,21,230.12,19.66,220.06,149.89,179.41,168S65.07,188.23,62.53,260.66c-1.6,45.55,11.08,92.39,46.75,127.88,32.67,32.51,80.66,49,127.94,61.16,53.1,13.67,109.41,27.07,165.26,17.85,57.32-9.46,97.59-47.51,144.66-73.22,29.63-16.19,56.23-33.24,74.53-59.22,2.19-3.1,4.24-6.27,6.19-9.48,24.5-40.37,29.3-86.93,15.79-130.61C631.53,155.82,604.16,118.49,568.39,89.16Z" style="fill:#fff;opacity:0.7000000000000001"></path></g><g id="freepik--Clouds--inject-140"><path d="M230.65,82c-.35-1.08-.71-2.17-1.1-3.25C215.13,38.58,148,35.82,148,85.12c0,9.49-22.79,0-31.34,12.34s.95,19.94-10.44,23.74-12.34-5.7-26.59-4.75-12.34,14.24-17.09,18-4.75,1.9-15.19,2.85S35,145.88,35,145.88H284.74s9.5-28.48-7.59-38.92-17.09,3.79-30.39-1.9C235.78,100.35,233.73,91.42,230.65,82Z" style="fill:none;stroke:#b2b2b2;stroke-linecap:round;stroke-linejoin:round"></path><path d="M239.29,135.5s5.17-16-7.52-27.75-25.87-5.17-29.63,0-3.76,15-9.88,16-4.7-10.35-17.87-7.52-8,16-14.1,18.81-6.12-7.53-14.58-4.24-8,9.41-8,9.41" style="fill:none;stroke:#b2b2b2;stroke-linecap:round;stroke-linejoin:round"></path><path d="M171.75,103.55a23.83,23.83,0,0,0-24.09-2.1c-13.61,6.29-7.33,19.38-13.61,22.52s-9.43-.53-17.28,3.14-7.33,8.9-7.33,8.9" style="fill:none;stroke:#b2b2b2;stroke-linecap:round;stroke-linejoin:round"></path><path d="M476.46,46.51c-.15-.45-.3-.91-.47-1.37-6.1-17-34.48-18.13-34.48,2.71,0,4-9.63,0-13.25,5.22s.4,8.43-4.41,10-5.22-2.41-11.25-2-5.22,6-7.22,7.63-2,.8-6.43,1.21-5.22,3.61-5.22,3.61h105.6s4-12-3.21-16.46-7.23,1.6-12.85-.81C478.62,54.29,477.76,50.52,476.46,46.51Z" style="fill:none;stroke:#b2b2b2;stroke-linecap:round;stroke-linejoin:round"></path><path d="M480.11,69.16s2.19-6.76-3.18-11.74-10.94-2.18-12.53,0-1.59,6.37-4.18,6.76-2-4.37-7.55-3.18-3.38,6.76-6,8-2.59-3.18-6.16-1.79-3.38,4-3.38,4" style="fill:none;stroke:#b2b2b2;stroke-linecap:round;stroke-linejoin:round"></path><path d="M451.55,55.65a10.07,10.07,0,0,0-10.19-.89c-5.75,2.66-3.1,8.19-5.75,9.52s-4-.22-7.31,1.33-3.1,3.76-3.1,3.76" style="fill:none;stroke:#b2b2b2;stroke-linecap:round;stroke-linejoin:round"></path><path d="M594.34,151.29c-.1-.33-.22-.66-.34-1-4.42-12.29-25-13.13-25,2,0,2.91-7,0-9.6,3.78s.29,6.11-3.2,7.28-3.78-1.75-8.15-1.46-3.78,4.37-5.23,5.53-1.46.58-4.66.87-3.78,2.62-3.78,2.62h76.52s2.91-8.73-2.33-11.93-5.24,1.17-9.31-.58C595.91,156.93,595.28,154.19,594.34,151.29Z" style="fill:none;stroke:#b2b2b2;stroke-linecap:round;stroke-linejoin:round"></path><path d="M597,167.7a8.55,8.55,0,0,0-2.31-8.5c-3.89-3.6-7.92-1.59-9.07,0s-1.16,4.61-3,4.9-1.44-3.17-5.48-2.31-2.45,4.9-4.32,5.77-1.87-2.31-4.47-1.3-2.45,2.88-2.45,2.88" style="fill:none;stroke:#b2b2b2;stroke-linecap:round;stroke-linejoin:round"></path><path d="M576.29,157.91a7.29,7.29,0,0,0-7.38-.64c-4.17,1.92-2.24,5.93-4.17,6.9s-2.89-.16-5.29,1-2.25,2.73-2.25,2.73" style="fill:none;stroke:#b2b2b2;stroke-linecap:round;stroke-linejoin:round"></path></g><g id="freepik--Sun--inject-140"><path d="M615.72,57.09Q616.85,57,618,57a28,28,0,0,1,19.25,48.33" style="fill:none;stroke:#b2b2b2;stroke-linecap:round;stroke-linejoin:round"></path><path d="M607.09,59.2a27.9,27.9,0,0,1,4.64-1.49" style="fill:none;stroke:#b2b2b2;stroke-linecap:round;stroke-linejoin:round"></path><path d="M634.66,107.51A28,28,0,1,1,602,62" style="fill:none;stroke:#b2b2b2;stroke-linecap:round;stroke-linejoin:round"></path><line x1="618" y1="34" x2="618" y2="51" style="fill:none;stroke:#b2b2b2;stroke-linecap:round;stroke-linejoin:round"></line><line x1="618" y1="134.76" x2="618" y2="138" style="fill:none;stroke:#b2b2b2;stroke-linecap:round;stroke-linejoin:round"></line><line x1="618" y1="121" x2="618" y2="132.35" style="fill:none;stroke:#b2b2b2;stroke-linecap:round;stroke-linejoin:round"></line><line x1="654.77" y1="122.77" x2="642.75" y2="110.75" style="fill:none;stroke:#b2b2b2;stroke-linecap:round;stroke-linejoin:round"></line><line x1="586.89" y1="54.89" x2="581.23" y2="49.23" style="fill:none;stroke:#b2b2b2;stroke-linecap:round;stroke-linejoin:round"></line><line x1="593.25" y1="61.25" x2="588.5" y2="56.5" style="fill:none;stroke:#b2b2b2;stroke-linecap:round;stroke-linejoin:round"></line><line x1="666.15" y1="86" x2="653" y2="86" style="fill:none;stroke:#b2b2b2;stroke-linecap:round;stroke-linejoin:round"></line><line x1="670" y1="86" x2="667.75" y2="86" style="fill:none;stroke:#b2b2b2;stroke-linecap:round;stroke-linejoin:round"></line><line x1="578.55" y1="86" x2="566" y2="86" style="fill:none;stroke:#b2b2b2;stroke-linecap:round;stroke-linejoin:round"></line><line x1="583" y1="86" x2="581.22" y2="86" style="fill:none;stroke:#b2b2b2;stroke-linecap:round;stroke-linejoin:round"></line><line x1="654.77" y1="49.23" x2="642.75" y2="61.25" style="fill:none;stroke:#b2b2b2;stroke-linecap:round;stroke-linejoin:round"></line><line x1="593.25" y1="110.75" x2="581.23" y2="122.77" style="fill:none;stroke:#b2b2b2;stroke-linecap:round;stroke-linejoin:round"></line></g><g id="freepik--Mountain--inject-140"><path d="M77.91,414.54s79-53.45,124.56-100.16,149.81-176.82,162-194.24,27.87-9.58,36.58,9.59,108,182,151.56,224.71,104.52,83.62,104.52,83.62" style="fill:none;stroke:#b2b2b2;stroke-linecap:round;stroke-linejoin:round"></path><path d="M310.47,206.37c7-9.58,21.77-23.51,17.42-12.19s-3.48,30.48,1.74,22.65,35.71-66.2,39.2-58.36,9.58,40.94,15.68,35.71,8.71-21.78,11.32-13.07,21.77,46.17,32.23,42.68,7-22.64,10.45-20.9a114.59,114.59,0,0,1,10,6.53c-24.49-38.78-43.85-71.71-47.48-79.69-8.71-19.17-24.38-27-36.58-9.59-6.65,9.51-40.75,52.6-77.75,97.37C291.24,216.85,304.71,214.29,310.47,206.37Z" style="fill:none;stroke:#b2b2b2;stroke-linecap:round;stroke-linejoin:round"></path></g><g id="freepik--Plants--inject-140"><path d="M107.43,461.14s-9.78-8.48-7.82-11.09S112,452.66,112,452.66,104.82,437,110.69,439s6.53,14.35,6.53,14.35-1.31-16.95,5.87-16.3,2,17,2,17,5.87-8.48,6.52-3.27-3.26,10.44-3.26,10.44Z" style="fill:#92E3A9"></path><path d="M134.17,461.14s-9.78-8.48-7.82-11.09,12.39,2.61,12.39,2.61S131.56,437,137.43,439,144,453.31,144,453.31s-1.31-16.95,5.87-16.3,1.95,17,1.95,17,5.87-8.48,6.52-3.27S155,461.14,155,461.14Z" style="fill:#92E3A9"></path><path d="M184.08,461.14s9.62-8.48,7.7-11.09-12.2,2.61-12.2,2.61,7.06-15.65,1.29-13.7-6.42,14.35-6.42,14.35,1.28-16.95-5.77-16.3-1.93,17-1.93,17-5.78-8.48-6.42-3.27,3.21,10.44,3.21,10.44Z" style="fill:#92E3A9"></path><path d="M262,461.14s-9.78-8.48-7.82-11.09,12.39,2.61,12.39,2.61S259.39,437,265.26,439s6.52,14.35,6.52,14.35-1.3-16.95,5.87-16.3,2,17,2,17,5.87-8.48,6.52-3.27-3.26,10.44-3.26,10.44Z" style="fill:#92E3A9"></path><path d="M288.74,461.14s-9.78-8.48-7.82-11.09,12.39,2.61,12.39,2.61S286.13,437,292,439s6.52,14.35,6.52,14.35-1.3-16.95,5.87-16.3,2,17,2,17,5.87-8.48,6.52-3.27-3.26,10.44-3.26,10.44Z" style="fill:#92E3A9"></path><path d="M338.65,461.14s9.62-8.48,7.7-11.09-12.2,2.61-12.2,2.61,7.06-15.65,1.29-13.7S329,453.31,329,453.31s1.28-16.95-5.78-16.3-1.92,17-1.92,17-5.78-8.48-6.42-3.27,3.21,10.44,3.21,10.44Z" style="fill:#92E3A9"></path><path d="M443.31,461.14s-9.78-8.48-7.83-11.09,12.4,2.61,12.4,2.61S440.7,437,446.57,439s6.52,14.35,6.52,14.35-1.3-16.95,5.87-16.3,2,17,2,17,5.87-8.48,6.52-3.27-3.26,10.44-3.26,10.44Z" style="fill:#92E3A9"></path><path d="M470.05,461.14s-9.78-8.48-7.83-11.09,12.39,2.61,12.39,2.61-7.17-15.65-1.3-13.7,6.52,14.35,6.52,14.35-1.3-16.95,5.87-16.3,2,17,2,17,5.87-8.48,6.52-3.27-3.26,10.44-3.26,10.44Z" style="fill:#92E3A9"></path><path d="M520,461.14s9.63-8.48,7.7-11.09-12.19,2.61-12.19,2.61,7.06-15.65,1.28-13.7-6.41,14.35-6.41,14.35,1.28-16.95-5.78-16.3-1.92,17-1.92,17-5.78-8.48-6.42-3.27,3.21,10.44,3.21,10.44Z" style="fill:#92E3A9"></path><path d="M557,461.14s-9.78-8.48-7.82-11.09,12.39,2.61,12.39,2.61S554.42,437,560.29,439s6.52,14.35,6.52,14.35-1.3-16.95,5.87-16.3,2,17,2,17,5.87-8.48,6.52-3.27-3.26,10.44-3.26,10.44Z" style="fill:#92E3A9"></path><path d="M583.77,461.14S574,452.66,576,450.05s12.39,2.61,12.39,2.61S581.16,437,587,439s6.52,14.35,6.52,14.35-1.3-16.95,5.87-16.3,2,17,2,17,5.87-8.48,6.52-3.27-3.26,10.44-3.26,10.44Z" style="fill:#92E3A9"></path><path d="M633.68,461.14s9.62-8.48,7.7-11.09-12.2,2.61-12.2,2.61,7.06-15.65,1.29-13.7-6.42,14.35-6.42,14.35,1.28-16.95-5.78-16.3-1.92,17-1.92,17-5.78-8.48-6.42-3.27,3.21,10.44,3.21,10.44Z" style="fill:#92E3A9"></path></g><g id="freepik--Trees--inject-140"><path d="M217,250a.89.89,0,0,0-1-.83l-29.52,4.74a.89.89,0,0,1-.49-1.7l29.73-12.6a.89.89,0,0,0,.55-.89c-1.24-16.1-3.15-33.75-5.64-51.77a.9.9,0,0,0-1.06-.75l-26.12,5a.89.89,0,0,1-.67-1.61l25.2-17.19a.89.89,0,0,0,.38-.88c-1.35-8.69-2.83-17.39-4.43-26L201.79,137a.89.89,0,0,0-1.21-.61l-15.2,6.29a.89.89,0,0,1-1-1.46l15.13-15.13a.88.88,0,0,0,.24-.83c-3-14.09-6.37-27.5-10-39.57a.89.89,0,0,0-1.32-.5L168.89,97.23a.9.9,0,0,1-1.2-1.28l17.24-24.13A.91.91,0,0,0,185,71a164.14,164.14,0,0,0-9.69-22.66A.89.89,0,0,0,174.2,48l-13.59,6a.89.89,0,0,1-1.21-1.08L163.66,40c.07-.23.38-1.18.72-2l1.11-3.32c-3.15-2.91-6.39-4.5-9.68-4.5-3.52,0-7,1.8-10.34,5.11l5.07,17.58a.89.89,0,0,1-1.21,1.08L137.1,48.55a.89.89,0,0,0-1.15.39A170.57,170.57,0,0,0,126,72.58a.89.89,0,0,0,.12.82L142.25,96a.9.9,0,0,1-1.2,1.28L122.88,86.05a.89.89,0,0,0-1.33.5c-3.62,12.24-7,25.82-10,40.08a.91.91,0,0,0,.24.82l13.75,13.75a.89.89,0,0,1-1,1.46l-14-5.8a.89.89,0,0,0-1.22.65c-2.26,11.47-4.31,23.27-6.13,35a.89.89,0,0,0,.38.88l23.68,16.15a.89.89,0,0,1-.67,1.61l-24.48-4.71a.9.9,0,0,0-1.06.76c-2.51,18.16-4.42,35.95-5.65,52.14a.9.9,0,0,0,.54.89L124,252.18a.89.89,0,0,1-.49,1.7L95.69,249.4a.9.9,0,0,0-1,.84c-.55,9.31-.83,17.93-.83,25.59q0,7.29.34,14a.89.89,0,0,0,.63.81l29.37,9.21a.89.89,0,0,1-.21,1.74l-27.78,1.86a.9.9,0,0,0-.83,1c1.72,15.08,4.85,27.65,9.1,37.95a.89.89,0,0,0,1.11.5l17-5.53a.89.89,0,0,1,.93,1.46l-13.18,14.06a.89.89,0,0,0-.11,1.08c11.32,18.72,27.55,26.81,45.57,26.81,17.67,0,33.6-7.78,44.9-25.72a.9.9,0,0,0-.11-1.09l-14.19-15.14a.89.89,0,0,1,.93-1.46l18.53,6a.9.9,0,0,0,1.11-.5c4.34-10.36,7.54-23.05,9.29-38.32a.9.9,0,0,0-.83-1l-29.45-2a.89.89,0,0,1-.21-1.74l30.71-9.63a.91.91,0,0,0,.6-.62l.43-1.64a.69.69,0,0,0,0-.2q.24-5.76.25-11.93C217.8,268.1,217.51,259.38,217,250Z" style="fill:#92E3A9"></path><polygon points="157.65 313.51 156.23 232.62 181.1 212.02 156.05 222.2 155.58 195.75 155.37 196.19 155.52 192.31 154.85 154.3 175.44 135.29 155.25 147.41 154.81 151.43 153.98 104.33 153.53 113.61 151.35 184.01 150.41 182.14 134.25 171.64 151.22 188.13 148.46 277.38 122.94 269.36 148.17 286.7 146.27 348.01 136.68 346.09 145.97 357.71 144.94 391.13 143.66 461.08 160.25 461.08 157.78 320.84 177.87 316.21 157.65 313.51" style="fill:#263238"></polygon><path d="M568.62,289.58a.72.72,0,0,0-.84-.68l-24,3.85a.72.72,0,0,1-.4-1.38l24.16-10.24a.73.73,0,0,0,.44-.72c-1-13.08-2.56-27.42-4.58-42.05a.74.74,0,0,0-.86-.62l-21.22,4.08a.72.72,0,0,1-.55-1.31l20.48-14a.73.73,0,0,0,.31-.71c-1.1-7.07-2.31-14.13-3.6-21.09l-1.67-7a.73.73,0,0,0-1-.5L543,202.4a.73.73,0,0,1-.79-1.19l12.3-12.29a.75.75,0,0,0,.19-.67c-2.46-11.45-5.17-22.34-8.1-32.15a.73.73,0,0,0-1.08-.41l-15.92,9.8a.73.73,0,0,1-1-1l14-19.6a.76.76,0,0,0,.09-.67,133.5,133.5,0,0,0-7.88-18.41.72.72,0,0,0-.93-.32l-11,4.86a.73.73,0,0,1-1-.88L525.33,119c.06-.19.31-1,.58-1.62l.9-2.7c-2.56-2.37-5.19-3.66-7.86-3.66-2.86,0-5.67,1.46-8.4,4.15l4.12,14.28a.73.73,0,0,1-1,.88l-9.93-4.37a.72.72,0,0,0-.93.32,138.75,138.75,0,0,0-8.07,19.21.74.74,0,0,0,.09.66l13.09,18.32a.73.73,0,0,1-1,1l-14.76-9.08a.72.72,0,0,0-1.08.4c-2.94,9.94-5.67,21-8.14,32.57a.73.73,0,0,0,.2.66l11.17,11.17a.73.73,0,0,1-.79,1.19l-11.39-4.72a.74.74,0,0,0-1,.53c-1.83,9.33-3.5,18.91-5,28.47a.75.75,0,0,0,.31.72l19.24,13.11a.72.72,0,0,1-.55,1.31L475.3,238a.72.72,0,0,0-.85.61c-2,14.76-3.6,29.21-4.59,42.36a.71.71,0,0,0,.44.72l22.83,9.68a.72.72,0,0,1-.4,1.38l-22.63-3.63a.73.73,0,0,0-.84.67c-.44,7.57-.67,14.57-.67,20.8q0,5.91.28,11.37a.71.71,0,0,0,.5.65l23.86,7.49a.73.73,0,0,1-.16,1.42L470.5,333a.74.74,0,0,0-.68.81c1.4,12.25,3.94,22.47,7.4,30.83a.73.73,0,0,0,.9.41L492,360.58a.73.73,0,0,1,.75,1.19L482,373.19a.72.72,0,0,0-.1.88c9.21,15.2,22.39,21.78,37,21.78,14.35,0,27.3-6.33,36.47-20.9a.74.74,0,0,0-.08-.89l-11.53-12.29a.73.73,0,0,1,.75-1.19l15.06,4.88a.72.72,0,0,0,.9-.4c3.52-8.42,6.12-18.73,7.54-31.14a.73.73,0,0,0-.67-.81l-23.92-1.59a.73.73,0,0,1-.17-1.42l25-7.83a.71.71,0,0,0,.48-.5l.35-1.33a.45.45,0,0,0,0-.16q.2-4.68.2-9.69C569.31,304.3,569.07,297.22,568.62,289.58Z" style="fill:#92E3A9"></path><polygon points="520.45 341.2 519.29 275.48 539.49 258.75 519.14 267.01 518.76 245.53 518.6 245.88 518.72 242.74 518.17 211.85 534.9 196.41 518.5 206.25 518.13 209.52 517.46 171.25 517.09 178.8 515.32 235.99 514.56 234.47 501.44 225.94 515.22 239.34 512.98 311.85 492.25 305.33 512.74 319.42 511.2 369.23 503.4 367.67 510.95 377.11 510.12 404.26 509.08 461.08 522.55 461.08 520.55 347.15 536.87 343.39 520.45 341.2" style="fill:#263238"></polygon><path d="M648.47,329.27a.55.55,0,0,0-.64-.52l-18.44,3a.56.56,0,0,1-.3-1.07l18.56-7.86a.57.57,0,0,0,.34-.56c-.77-10.05-2-21.07-3.52-32.32a.56.56,0,0,0-.66-.47l-16.31,3.14a.56.56,0,0,1-.42-1l15.74-10.73a.57.57,0,0,0,.24-.55c-.85-5.43-1.77-10.86-2.77-16.21L639,258.72a.55.55,0,0,0-.76-.38l-9.49,3.92a.56.56,0,0,1-.61-.91l9.45-9.45a.56.56,0,0,0,.15-.51c-1.89-8.8-4-17.17-6.23-24.71a.56.56,0,0,0-.83-.31l-12.23,7.53a.56.56,0,0,1-.75-.8L628.48,218a.58.58,0,0,0,.07-.51,102,102,0,0,0-6.06-14.15.54.54,0,0,0-.71-.24l-8.49,3.73a.56.56,0,0,1-.76-.67l2.67-8c0-.14.23-.73.44-1.25l.7-2.07a9.05,9.05,0,0,0-6.05-2.81c-2.19,0-4.35,1.12-6.45,3.19l3.16,11a.55.55,0,0,1-.75.67l-7.64-3.36a.56.56,0,0,0-.72.25,107.89,107.89,0,0,0-6.2,14.76.55.55,0,0,0,.08.51l10.05,14.08a.56.56,0,0,1-.74.8l-11.35-7a.55.55,0,0,0-.82.31c-2.27,7.64-4.36,16.12-6.26,25a.56.56,0,0,0,.15.51l8.59,8.58a.56.56,0,0,1-.61.91L582,258.64a.56.56,0,0,0-.76.41c-1.41,7.16-2.69,14.53-3.83,21.88a.57.57,0,0,0,.24.55l14.79,10.08a.56.56,0,0,1-.42,1l-15.29-2.94a.56.56,0,0,0-.66.47c-1.57,11.34-2.76,22.45-3.53,32.56a.57.57,0,0,0,.34.55l17.55,7.43a.56.56,0,0,1-.31,1.07l-17.39-2.8a.57.57,0,0,0-.64.53c-.34,5.81-.52,11.19-.52,16,0,3,.07,5.95.21,8.75a.56.56,0,0,0,.39.5l18.34,5.75a.56.56,0,0,1-.13,1.09l-17.34,1.16a.56.56,0,0,0-.52.62,88.53,88.53,0,0,0,5.68,23.7.55.55,0,0,0,.69.31l10.65-3.45a.56.56,0,0,1,.58.91l-8.23,8.78a.56.56,0,0,0-.07.67c7.07,11.69,17.2,16.74,28.45,16.74,11,0,21-4.86,28-16.05a.59.59,0,0,0-.07-.69l-8.86-9.45a.56.56,0,0,1,.58-.91l11.57,3.75a.55.55,0,0,0,.69-.31,87.94,87.94,0,0,0,5.8-23.93.56.56,0,0,0-.52-.62l-18.38-1.23a.56.56,0,0,1-.13-1.09l19.17-6a.56.56,0,0,0,.37-.39l.28-1s0-.08,0-.13c.1-2.4.15-4.87.15-7.45C649,340.59,648.82,335.15,648.47,329.27Z" style="fill:#92E3A9"></path><polygon points="611.45 368.94 610.56 318.44 626.08 305.57 610.44 311.93 610.15 295.41 610.02 295.68 610.12 293.27 609.7 269.53 622.55 257.66 609.95 265.23 609.67 267.74 609.15 238.33 608.87 244.13 607.51 288.08 606.92 286.91 596.83 280.36 607.43 290.65 605.7 346.38 589.77 341.38 605.52 352.2 604.34 390.48 598.35 389.29 604.15 396.54 603.5 417.41 602.71 461.08 613.06 461.08 611.52 373.52 624.07 370.63 611.45 368.94" style="fill:#263238"></polygon></g><g id="freepik--Character--inject-140"><path d="M447.57,281.71s4.89,0,7.63-1.84,5.19-7.32,19.85-5.19,22.29,18.93,22.29,39.39-5.8,33.89-3.06,42.14,10.39,10.07,13.74,6.71,3.36-6.41,3.36-6.41a13.1,13.1,0,0,1,.61,9.77c-1.83,5.19-11.6,9.47-25,4.58s-20.15-14.65-20.15-34.2,1.22-40.6-3.36-46.71-12.52-5.19-12.52-5.19Z" style="fill:#263238;stroke:#263238;stroke-linecap:round;stroke-linejoin:round"></path><path d="M387.67,354.67s-4,13-.67,26,.22,32.6-5.78,46.27-10.67,19.66-10.67,20.66v2s-7.67,1-9,4.34-3,7-3,7,10.33-.34,13-.67,4.67-1.33,5-3,1-5.67,1-5.67a5.18,5.18,0,0,0,5-3.33c1.67-3.67,6.33-18.33,11.33-25.33s10.45-12.27,10.45-20.94,7-20.67,13.34-28-3-29.33-9.34-32.67S391.67,345.67,387.67,354.67Z" style="fill:#969696;stroke:#263238;stroke-linecap:round;stroke-linejoin:round"></path><path d="M379.48,430.75c-5.14,11-8.93,15.95-8.93,16.85v2s-7.67,1-9,4.34-3,7-3,7,10.33-.34,13-.67,4.67-1.33,5-3,1-5.67,1-5.67a5.18,5.18,0,0,0,5-3.33c.84-1.85,2.45-6.52,4.49-11.59Z" style="fill:#e8e8e8;stroke:#263238;stroke-linecap:round;stroke-linejoin:round"></path><path d="M376.55,457.27c.12-.59.28-1.46.43-2.35l-14.9-1.84a3.22,3.22,0,0,0-.53.86c-1.33,3.33-3,7-3,7s10.33-.34,13-.67S376.22,458.94,376.55,457.27Z" style="fill:#263238;stroke:#263238;stroke-linecap:round;stroke-linejoin:round"></path><path d="M302.33,368.67s12.34,24,16.34,33,6.33,12.33,9,15.66,11.33,16,13.33,19.34a10.38,10.38,0,0,0,4.67,4.33s3,9.67,4.66,11.33,4.34,3.67,5.67,4,4.33-11,4-12.66-8-4.67-8-4.67.67-4.33-.33-6-7-5-11.34-10.67-7-13.66-8-16-2.33-13.66-2.33-23V366s-15.67-4.33-17-4.33S302.33,368.67,302.33,368.67Z" style="fill:#969696;stroke:#263238;stroke-linecap:round;stroke-linejoin:round"></path><path d="M356,456.33c1.33.34,4.33-11,4-12.66s-8-4.67-8-4.67.67-4.33-.33-6-7-5-11.34-10.67a44.27,44.27,0,0,1-4.74-8.13c-.69,3.14-1.64,7.15-2.66,10.42,3.27,4.69,6.87,10.05,8.07,12.05a10.38,10.38,0,0,0,4.67,4.33s3,9.67,4.66,11.33S354.67,456,356,456.33Z" style="fill:#e8e8e8;stroke:#263238;stroke-linecap:round;stroke-linejoin:round"></path><path d="M360,443.67c-.13-.67-1.43-1.54-2.93-2.35l-7.18,10.43a3.79,3.79,0,0,0,.44.58c1.67,1.67,4.34,3.67,5.67,4S360.33,445.33,360,443.67Z" style="fill:#263238;stroke:#263238;stroke-linecap:round;stroke-linejoin:round"></path><path d="M235.51,216.34a24.42,24.42,0,0,0-10.18-3.29,26.42,26.42,0,0,0-9,.9s3.3,5.09,7.79,7.19,17.37.59,17.37.59Z" style="fill:#969696;stroke:#263238;stroke-linecap:round;stroke-linejoin:round"></path><path d="M323,238.25a88.62,88.62,0,0,1-32.75,24.25c-20.75,8.75-40.5,17-47,17S226,271.75,226,271.75" style="fill:none;stroke:#263238;stroke-linecap:round;stroke-linejoin:round"></path><path d="M325.86,227.25s1.87-1,2.75-.25a6.16,6.16,0,0,1,1.12,5c-.5,1.37-1.5,1.5-1.87,1a54,54,0,0,1-1.9-5.43Z" style="fill:#fff;stroke:#263238;stroke-linecap:round;stroke-linejoin:round"></path><path d="M346,244.8s-8.7-1.11-13.44-2.23c-1.49-.35-8.57-1.89-7.6-2.86a2.43,2.43,0,0,0,.87-2.37s.7.57,1-1.53-.9-8.38-1.5-9.58-6.59,2.39-8.09,4.19.9,7.79,1.5,9a39.8,39.8,0,0,0,5.23,6.77c2.61,2.37,13.64,10,17.23,11.2a63,63,0,0,1,8.09,3.59Z" style="fill:#fff;stroke:#263238;stroke-linecap:round;stroke-linejoin:round"></path><path d="M325.49,228s-6.23,2-7.22,3.62" style="fill:none;stroke:#263238;stroke-linecap:round;stroke-linejoin:round"></path><path d="M326,231.11s-5.61,1.87-6.85,3" style="fill:none;stroke:#263238;stroke-linecap:round;stroke-linejoin:round"></path><path d="M326.49,234.1s.25-1.12-1.5-.5a22.72,22.72,0,0,0-4.48,2.74" style="fill:none;stroke:#263238;stroke-linecap:round;stroke-linejoin:round"></path><path d="M324.33,275.33S305,270.67,297.67,266s-9.34-12-25.34-27.67-26-20-26-20A20.8,20.8,0,0,0,240,209c-5-4.33-12.33-3.33-14.67-3.67s-.66,3.34,2.34,8,9.66,7.67,9.66,7.67S222,236,222,237.33s-1.67,6.67-2.33,8.34S207.33,259.33,205,264.33s-5.33,6.67-3.33,9.67a61.59,61.59,0,0,0,4,5.33,6.07,6.07,0,0,0,4.66,2.34,41.3,41.3,0,0,0,5.34-.34,5.62,5.62,0,0,0,2.33.34c1.67,0,1.33,2.33,4.67,0a14,14,0,0,0,4.66-6S228,272.33,229,272s5.67-.67,9-1,10-3.33,10-3.33S265,313,267.33,320,275,336,275,336s-1.33,10-.33,16.33,4,16,4,19-8.34,39-8.67,43.67-10.67,30.67-11.67,32.33-7.66,2-11,4.34-5,9.33-5,9.33,10.67,1,14,.67,5.34-8,5.34-8,4,1.66,5-2.67,4-16,6-20.67a230.63,230.63,0,0,1,15.33-27C293.67,395,312.33,364,312.33,364s19,11.33,45.34,4.33a344.52,344.52,0,0,0,44.66-15s10.34,16.67,20.34,28.34S448,400,448,400s10.67,20,15.33,31.33,2.34,12.34,5.34,13l3,.67s3,8.67,6.33,10.67,5.33,3,6.33.66,2.34-12.33.34-13.66-8-2-8-2,.66-4.67-1-7.34-3-4.33-7-16.66S466,397,463,392s-9-8.67-10.33-12.33-8.67-20.34-7.34-29S449.67,339,449.67,339s11-10,10.66-29-14.33-33-23-37-24.33-2.33-31-.67-16,3.67-16,3.67-25,2.67-41.33,2.67S324.33,275.33,324.33,275.33Z" style="fill:#cfcfcf;stroke:#263238;stroke-linecap:round;stroke-linejoin:round"></path><path d="M218.76,266.78c-3.9,2.23-5.58,1.67-11.71,0a17.38,17.38,0,0,0-3-.57c-2.08,3.6-4.08,5.2-2.35,7.79a61.59,61.59,0,0,0,4,5.33,6.07,6.07,0,0,0,4.66,2.34,41.3,41.3,0,0,0,5.34-.34,5.62,5.62,0,0,0,2.33.34c1.67,0,1.33,2.33,4.67,0a14,14,0,0,0,4.66-6S228,272.33,229,272a12.27,12.27,0,0,1,1.89-.32C229.82,262.66,222.37,264.72,218.76,266.78Z" style="fill:#fff;stroke:#263238;stroke-linecap:round;stroke-linejoin:round"></path><path d="M215.67,281.33a12.1,12.1,0,0,0,4.57-9.28" style="fill:#263238"></path><path d="M207.66,271.15s-6-2.09-3.9,1.2S209.15,271.75,207.66,271.15Z" style="fill:#263238"></path><path d="M238.1,218.06a9.46,9.46,0,0,0-4.32-7.18c-4.1-2.41-9.46-5.41-9.46-5.41s3,9.34,8,12.71a43.45,43.45,0,0,0,6.74,4Z" style="fill:#263238"></path><path d="M243.62,269.44c1.85-.68,3.47-1.38,4.1-1.65l2.67-47.23a44.09,44.09,0,0,0-3.89-2.15l-1.39,24.7-24.23,21.78c-4.42-3.84-8.14-6.61-10.4-8.21-.89,1.07-1.74,2.13-2.51,3.14a138.73,138.73,0,0,1,19.11,16.44c.17-.37.25-.59.25-.59s.54-2.68,1.37-3.47c-1.64-1.65-3.26-3.21-4.81-4.63l20.9-18.79Z" style="fill:#263238"></path><path d="M235.51,219.64s-.9,2.09-5.09,4.79-7.79,7.49-7.79,9.29-2.09,3.29,0,1.79,3.9-3.59,6.89-5.09a9.58,9.58,0,0,0,3.89-3l.3,3.59s3.3-1.2,3.6-4.19a33.35,33.35,0,0,0,0-5.83Z" style="fill:#263238"></path><path d="M313.68,282.23c1.5-1.79,3.59-4.79,3.59-4.79l-3.89-1.2,3.63-2.86c-6.27-1.79-14.95-4.59-19.34-7.38-7.34-4.67-9.34-12-25.34-27.67-14.82-14.51-24.48-19.29-25.83-19.92a91.29,91.29,0,0,1,2.19,15.6c.3,7.79,6.89,14.38,6.89,14.38l1.19-7.19a51.22,51.22,0,0,0,2.4,11.08c1.8,4.8,8.39,11.68,8.39,11.68l-1.5-8.08a40.12,40.12,0,0,1,5.69,9.58c3,6.59,8.69,14.08,10.78,15s5.09,2.09,5.09,2.09l-3.89-7.78a41.61,41.61,0,0,0,7.79,6.89c4.19,2.69,10.78,6.88,12,7.18.7.18.06-2.12-.59-4.06a5.45,5.45,0,0,0,1.49.17C308.59,284.93,312.18,284,313.68,282.23Z" style="fill:#263238"></path><path d="M394.73,337.17a32.88,32.88,0,0,1,.6-4.5" style="fill:none;stroke:#263238;stroke-linecap:round;stroke-linejoin:round"></path><path d="M402.33,353.33s-6.86-2.65-7.59-12.65" style="fill:none;stroke:#263238;stroke-linecap:round;stroke-linejoin:round"></path><path d="M292.15,366.51a15.78,15.78,0,0,0,1.91-1.74" style="fill:none;stroke:#263238;stroke-linecap:round;stroke-linejoin:round"></path><path d="M281.3,371.67a35.21,35.21,0,0,0,8.39-3.49" style="fill:none;stroke:#263238;stroke-linecap:round;stroke-linejoin:round"></path><line x1="275" y1="336" x2="279.92" y2="328.9" style="fill:none;stroke:#263238;stroke-linecap:round;stroke-linejoin:round"></line><path d="M476.67,440.67s.66-4.67-1-7.34c-1.53-2.44-2.78-4.05-6-13.76a34.22,34.22,0,0,1-8.8,6.06c.93,2,1.79,4,2.5,5.7,4.67,11.34,2.34,12.34,5.34,13l3,.67s3,8.67,6.33,10.67,5.33,3,6.33.66,2.34-12.33.34-13.66S476.67,440.67,476.67,440.67Z" style="fill:#fff;stroke:#263238;stroke-linecap:round;stroke-linejoin:round"></path><path d="M482.11,441.66a18.21,18.21,0,0,1-4.11,12l-1,1.18a6.61,6.61,0,0,0,1,.82c3.33,2,5.33,3,6.33.66s2.34-12.33.34-13.66A9.2,9.2,0,0,0,482.11,441.66Z" style="fill:#263238;stroke:#263238;stroke-linecap:round;stroke-linejoin:round"></path><path d="M273.61,428.29l-5.25-7.06c-3,9.31-9.26,24.83-10,26.1-1,1.67-7.66,2-11,4.34s-5,9.33-5,9.33,10.67,1,14,.67,5.34-8,5.34-8,4,1.66,5-2.67,4-16,6-20.67C272.9,429.78,273.23,429.08,273.61,428.29Z" style="fill:#fff;stroke:#263238;stroke-linecap:round;stroke-linejoin:round"></path><path d="M260.59,456.77c-5.12-.72-11.3-2-15.33-2.83a26.1,26.1,0,0,0-2.93,7.06s10.67,1,14,.67C258.22,461.48,259.68,458.94,260.59,456.77Z" style="fill:#263238;stroke:#263238;stroke-linecap:round;stroke-linejoin:round"></path><polygon points="226.53 239.71 227.42 244.2 233.41 239.41 226.53 239.71" style="fill:#263238"></polygon><polygon points="335 340.33 336 315.33 331.33 313.67 329 337.67 332 341.33 335 340.33" style="fill:#fff;stroke:#263238;stroke-linecap:round;stroke-linejoin:round"></polygon><path d="M322,271.67s-5.33,16.66-2.33,26.66,8.66,20.67,33,21.67S393,313,396,302.33s3.33-25.66,3-30-5-2.33-5.33.34c0,0-29.34,4.33-39,4.33s-27.34-1.67-27.34-1.67S328.33,270.33,322,271.67Z" style="fill:#263238;stroke:#263238;stroke-linecap:round;stroke-linejoin:round"></path><path d="M393.67,272.67s0,15-3.34,24.66-11,14.34-29,16-29.66-4-34.33-13.66.33-24.34.33-24.34,1-5-5.33-3.66c0,0-5.33,16.66-2.33,26.66s8.66,20.67,33,21.67S393,313,396,302.33s3.33-25.66,3-30S394,270,393.67,272.67Z" style="fill:#fff;stroke:#263238;stroke-linecap:round;stroke-linejoin:round"></path><path d="M329,169.75s-1.46,3.1-1.27,5.1,2.18,2.37.18,5.29-2.37,4.74-1.28,5.11,2.37.91,2.37.91,3.28,7.48,4.93,8.57,7.29-1.64,7.29-1.64l8.39,13.13,10.94-12.4-5.1-8.76s5.83-6.56,5.83-9.84-2.55-5.84-12.22-7.48S329,169.75,329,169.75Z" style="fill:#fff;stroke:#263238;stroke-linecap:round;stroke-linejoin:round"></path><path d="M332.79,177.77c0,.91-.37,1.64-.82,1.64s-.82-.73-.82-1.64.37-1.64.82-1.64S332.79,176.86,332.79,177.77Z" style="fill:#263238"></path><path d="M330.6,174.85s1.1-2.37,2.74.18" style="fill:none;stroke:#263238;stroke-linecap:round;stroke-linejoin:round"></path><path d="M331.52,186.71s1.64.54,3.64-1.65" style="fill:none;stroke:#263238;stroke-linecap:round;stroke-linejoin:round"></path><path d="M382.94,199.84c-6.93-8.39-19.87-8.94-19.87-8.94s3.64-10.94,1.45-15.5-11.49-5.84-17-6a39.75,39.75,0,0,0-9.84.91s1.82,16.78,7.29,20.43,15.87,2.19,15.87,2.19,1.64,7.47,9.84,13.86,10.95,6,10.95,6S389.87,208.23,382.94,199.84Z" style="fill:#263238;stroke:#263238;stroke-linecap:round;stroke-linejoin:round"></path><path d="M381.67,212.78s-.55,5.66,1.82,9.85,8.57,6.93,8.57,9.67a11.66,11.66,0,0,1-.36,3.65s3.83-.73,5.83-8.58S391,209.14,381.67,212.78Z" style="fill:#263238;stroke:#263238;stroke-linecap:round;stroke-linejoin:round"></path><path d="M328.05,168.1s2.92-15.86,6.75-16.77,21.15-.55,23.16.73,4.19,17.5,4.19,18.05-18.42-3.1-24.07-3.1A46.06,46.06,0,0,0,328.05,168.1Z" style="fill:#fff;stroke:#263238;stroke-linecap:round;stroke-linejoin:round"></path><path d="M312.73,166.41s2.27,3.7,5.68,4.26,16.75-.28,23.56,1.71,11.65,4,18.74,4.26,13.07-5.11,13.07-6.25-1.71-1.14-9.09-2.27-20.73-4-29-2.56S317.55,167.27,312.73,166.41Z" style="fill:#fff;stroke:#263238;stroke-linecap:round;stroke-linejoin:round"></path><path d="M345.5,252.75l-.75,21.5s-9.37,7.92-11.25,9.25c-17.75,12.5-25,24.25-28.5,28s.75,10.25,1.5,11.25,15.75,24,15.75,24l11.25-6.5a31,31,0,0,0-2.25-12.75,54.32,54.32,0,0,0-7.75-13s17.75-6,29.75-13.25S374.66,287.37,379,283.5c7-6.25,5.75-13.5,3.25-19.75s-9-10.57-9-10.57Z" style="fill:#92E3A9;stroke:#263238;stroke-linecap:round;stroke-linejoin:round"></path><path d="M346.49,206.57s-8.1,16.66-7.87,21.05,4.17,13.19,4.63,14.12,1.39,8.09,1.16,11.1-.93,3.24.23,3.7,10.41-.69,19-1.16S374,253.3,374,251.91s-3.93-13.41-3.93-14.34,2.31-14.57,2.08-19.89-2.32-15-5.32-19a54.19,54.19,0,0,0-5.79-6.48Z" style="fill:#fff;stroke:#263238;stroke-linecap:round;stroke-linejoin:round"></path><line x1="364.3" y1="224.62" x2="355.28" y2="220.22" style="fill:none;stroke:#263238;stroke-linecap:round;stroke-linejoin:round"></line><line x1="365.69" y1="225.54" x2="355.74" y2="223.92" style="fill:none;stroke:#263238;stroke-linecap:round;stroke-linejoin:round"></line><polygon points="356.5 189 343.48 203.33 345.56 209.35 360.88 192.91 356.5 189" style="fill:#fff;stroke:#263238;stroke-linecap:round;stroke-linejoin:round"></polygon><path d="M371.24,236l-19.66,28.92s-6.71,3.24-8.79,4.63-4.17,9.25-4.17,9.25l2.55-.69,4.63-4.86s4.85-.46,6-1.85a36.54,36.54,0,0,0,3-5.32s28.45-25.91,29.15-26.84a10.34,10.34,0,0,0,1.38-5.55c-.23-1.62-2.54-5.32-2.54-5.32Z" style="fill:#fff;stroke:#263238;stroke-linecap:round;stroke-linejoin:round"></path><path d="M358.06,217.21,368.7,232l12.26-8.1s-9-17.81-11.57-21.51-3.47-6-7.86-5.79" style="fill:#fff;stroke:#263238;stroke-linecap:round;stroke-linejoin:round"></path><polygon points="366.85 231.56 370.09 237.57 384.43 227.62 380.26 220.45 366.85 231.56" style="fill:#fff;stroke:#263238;stroke-linecap:round;stroke-linejoin:round"></polygon><path d="M334.67,372l-17-26s7-7,13-8a59.65,59.65,0,0,1,8.33-1l10,35s.33,4.67.33,7.33V383l-6.66,1.33-2-3-4,1.67-2,.33a54.76,54.76,0,0,1-11.34-.66c-5.33-1-8-1.67-6.66-2.34a25,25,0,0,1,5.33-1.66C323.67,378.33,334.67,372,334.67,372Z" style="fill:#263238;stroke:#263238;stroke-linecap:round;stroke-linejoin:round"></path><polygon points="328 361.67 325.33 385.67 334.67 386.67 333.33 369.67 328 361.67" style="fill:#fff;stroke:#263238;stroke-linecap:round;stroke-linejoin:round"></polygon><path d="M249,244.8a2.4,2.4,0,1,0-2.4,2.39A2.39,2.39,0,0,0,249,244.8Z" style="fill:#fff;stroke:#263238;stroke-linecap:round;stroke-linejoin:round"></path><path d="M227,274.5s5.75,8.5,9,9.5-2.5,3,32-7.5,57.86-39.16,57.86-39.16" style="fill:none;stroke:#263238;stroke-linecap:round;stroke-linejoin:round"></path></g><g id="freepik--Floor--inject-140"><line x1="78.67" y1="461" x2="650" y2="461" style="fill:none;stroke:#263238;stroke-linecap:round;stroke-linejoin:round"></line></g></svg>