<svg xmlns="http://www.w3.org/2000/svg" viewBox="0 0 500 500"><g id="freepik--background-complete--inject-40"><rect y="382.4" width="500" height="0.25" style="fill:#ebebeb"></rect><rect x="416.78" y="398.49" width="33.12" height="0.25" style="fill:#ebebeb"></rect><rect x="322.53" y="401.21" width="8.69" height="0.25" style="fill:#ebebeb"></rect><rect x="396.59" y="389.21" width="19.19" height="0.25" style="fill:#ebebeb"></rect><rect x="52.46" y="390.89" width="43.19" height="0.25" style="fill:#ebebeb"></rect><rect x="104.56" y="390.89" width="6.33" height="0.25" style="fill:#ebebeb"></rect><rect x="131.47" y="395.11" width="93.68" height="0.25" style="fill:#ebebeb"></rect><path d="M237,337.8H43.91a5.71,5.71,0,0,1-5.7-5.71V60.66A5.71,5.71,0,0,1,43.91,55H237a5.71,5.71,0,0,1,5.71,5.71V332.09A5.71,5.71,0,0,1,237,337.8ZM43.91,55.2a5.46,5.46,0,0,0-5.45,5.46V332.09a5.46,5.46,0,0,0,5.45,5.46H237a5.47,5.47,0,0,0,5.46-5.46V60.66A5.47,5.47,0,0,0,237,55.2Z" style="fill:#ebebeb"></path><path d="M453.31,337.8H260.21a5.72,5.72,0,0,1-5.71-5.71V60.66A5.72,5.72,0,0,1,260.21,55h193.1A5.71,5.71,0,0,1,459,60.66V332.09A5.71,5.71,0,0,1,453.31,337.8ZM260.21,55.2a5.47,5.47,0,0,0-5.46,5.46V332.09a5.47,5.47,0,0,0,5.46,5.46h193.1a5.47,5.47,0,0,0,5.46-5.46V60.66a5.47,5.47,0,0,0-5.46-5.46Z" style="fill:#ebebeb"></path><path d="M69,309c-8.59,13.17,23.58,33.37,48.92,44.54,6.4,2.82,9.47,5.93,10.81,9.12a22.27,22.27,0,0,0,4.19.49,17.19,17.19,0,0,0,3.2-.25,18.28,18.28,0,0,0,3.14-.79,67.76,67.76,0,0,0,6.32-2.85,23.37,23.37,0,0,1,7-2.23,20.25,20.25,0,0,1,7.19.52c4.71,1.25,9,3.83,13.1,6.08a43.15,43.15,0,0,0,12.67,4.89,28.94,28.94,0,0,0,6.56.55,24.34,24.34,0,0,0,3.29-.28c1.1-.16,2.21-.39,3.32-.62a45.23,45.23,0,0,0,13-4.82,39.89,39.89,0,0,1-12.64,7c-1.11.38-2.22.71-3.36,1a27.28,27.28,0,0,1-3.45.67,27.64,27.64,0,0,1-7,0,39.93,39.93,0,0,1-13.5-4.4c-2.14-1.06-4.23-2.24-6.31-3.24A33,33,0,0,0,159.1,362a18.23,18.23,0,0,0-6.31-.51,22,22,0,0,0-6.24,1.85,70.21,70.21,0,0,1-6.62,2.64,18.38,18.38,0,0,1-7.12.71,23.55,23.55,0,0,1-3.24-.54c.78,8.33-6.34,16.53,6.58,20.45,19.66,6,109.68,21.44,117.18.68S243.81,371.4,294,363.66s41,4.77,46.64-23.64,38.29-6.66,58.37-40.74l1.49-2.56a41.54,41.54,0,0,1-10.76,5.51c-1.11.38-2.23.72-3.36,1a27.28,27.28,0,0,1-3.45.67,27.64,27.64,0,0,1-7,0,40.38,40.38,0,0,1-13.5-4.4c-2.15-1.07-4.23-2.24-6.31-3.25a33.22,33.22,0,0,0-6.27-2.38,18,18,0,0,0-6.31-.5,21.6,21.6,0,0,0-6.24,1.85,68.78,68.78,0,0,1-6.63,2.63,18.17,18.17,0,0,1-7.12.71,27.58,27.58,0,0,1-6.89-1.64c-1.11-.41-2.2-.85-3.29-1.28s-2.16-.91-3.2-1.23a16.5,16.5,0,0,0-6.56-.63,28.8,28.8,0,0,0-6.65,1.48,25.46,25.46,0,0,1,6.54-2.72,16.6,16.6,0,0,1,6.95-.3c1.19.22,2.29.59,3.4.9s2.2.63,3.29.91a27.52,27.52,0,0,0,6.52,1,16.38,16.38,0,0,0,3.2-.25A17.61,17.61,0,0,0,330,294c2.07-.73,4.14-1.82,6.32-2.84a23.67,23.67,0,0,1,6.95-2.24,20.51,20.51,0,0,1,7.19.52c4.71,1.26,8.95,3.84,13.1,6.08a43.2,43.2,0,0,0,12.66,4.89,29,29,0,0,0,6.56.55,24.49,24.49,0,0,0,3.3-.28c1.1-.16,2.21-.38,3.31-.62a45.65,45.65,0,0,0,11.48-4C418.56,265.4,410.94,268,405.52,248c-5.6-20.69,39.41-29.86,22-50.89S367,185.16,373.38,161.59s10-45.35-28.32-43.67-47.47-.22-52.92-10.61-21.62-9.25-52.56-6.84c-44.54,3.47-88.34,15.38-84.71,32.29a27.63,27.63,0,0,1,.59,10.38,28.06,28.06,0,0,1,8.22-4.38c.77-.27,1.54-.5,2.33-.71a18.27,18.27,0,0,1,2.41-.46,19.28,19.28,0,0,1,4.86,0,27.89,27.89,0,0,1,9.4,3.06c1.49.74,2.94,1.56,4.39,2.26a22.72,22.72,0,0,0,4.37,1.66,12.57,12.57,0,0,0,4.39.35,15.36,15.36,0,0,0,4.35-1.29,47.57,47.57,0,0,1,4.61-1.83,12.7,12.7,0,0,1,5-.5,19.32,19.32,0,0,1,4.8,1.15c.77.28,1.53.58,2.29.89s1.51.63,2.23.85a11.33,11.33,0,0,0,4.56.44,20.05,20.05,0,0,0,4.63-1,17.47,17.47,0,0,1-4.55,1.89,11.6,11.6,0,0,1-4.84.22c-.83-.16-1.59-.41-2.36-.63s-1.54-.44-2.3-.63a18.89,18.89,0,0,0-4.53-.71,11.84,11.84,0,0,0-2.23.17,13,13,0,0,0-2.19.55,46.66,46.66,0,0,0-4.4,2A16.71,16.71,0,0,1,196,148a14.1,14.1,0,0,1-5-.36c-3.27-.88-6.23-2.67-9.12-4.23a29.78,29.78,0,0,0-8.82-3.41,20.07,20.07,0,0,0-4.57-.38,16.2,16.2,0,0,0-2.29.19c-.76.11-1.54.27-2.31.43a31.91,31.91,0,0,0-8.47,3.08c-1.69,9.38-10.8,14.48-30.52,21.88-26,9.77-54,19-47.63,32.46s4.55,32.64-7.49,39.27-10,24.47,1.93,37.17S77.59,295.81,69,309Zm246.38-99.7a17.46,17.46,0,0,1,4.39-1.83,11.34,11.34,0,0,1,4.68-.2c.79.15,1.53.4,2.28.6s1.48.43,2.21.62a19.25,19.25,0,0,0,4.38.68,13,13,0,0,0,4.26-.7,45.86,45.86,0,0,0,4.25-1.91,15.63,15.63,0,0,1,4.68-1.5,13.57,13.57,0,0,1,4.83.34c3.16.85,6,2.58,8.8,4.09a29.06,29.06,0,0,0,8.52,3.29,19.86,19.86,0,0,0,4.41.37,16.34,16.34,0,0,0,2.21-.19c.74-.11,1.49-.26,2.23-.41a30.5,30.5,0,0,0,8.72-3.25,26.8,26.8,0,0,1-8.5,4.69c-.74.26-1.49.48-2.25.68a18.34,18.34,0,0,1-7,.44,26.92,26.92,0,0,1-9.07-3c-1.45-.72-2.85-1.51-4.25-2.18a22.39,22.39,0,0,0-4.21-1.6,12,12,0,0,0-4.24-.34,14.53,14.53,0,0,0-4.2,1.24A45.31,45.31,0,0,1,338,211a12.23,12.23,0,0,1-4.79.48,18.39,18.39,0,0,1-4.63-1.1c-.75-.28-1.48-.57-2.21-.87s-1.46-.6-2.16-.82a10.9,10.9,0,0,0-4.4-.42A19.7,19.7,0,0,0,315.37,209.29ZM203,309.53a14.33,14.33,0,0,1,4.59-2.53c.41-.14.81-.26,1.23-.37a10.6,10.6,0,0,1,1.25-.24,9.82,9.82,0,0,1,2.54,0,14.52,14.52,0,0,1,4.91,1.6c.78.39,1.53.82,2.29,1.18a12.52,12.52,0,0,0,2.28.87,6.58,6.58,0,0,0,2.29.18,8,8,0,0,0,2.27-.67,24.68,24.68,0,0,1,2.41-1,6.72,6.72,0,0,1,2.59-.26,10.14,10.14,0,0,1,2.5.6l1.2.46c.4.16.79.33,1.17.45a6,6,0,0,0,2.38.23,10.34,10.34,0,0,0,2.41-.54,9.24,9.24,0,0,1-2.37,1,6,6,0,0,1-2.53.11,11.66,11.66,0,0,1-1.23-.33c-.4-.11-.8-.23-1.2-.33a10.42,10.42,0,0,0-2.37-.37,6.41,6.41,0,0,0-1.16.09,7.32,7.32,0,0,0-1.14.29,24.18,24.18,0,0,0-2.3,1,8.71,8.71,0,0,1-2.53.81,7.41,7.41,0,0,1-2.61-.19,22.69,22.69,0,0,1-4.76-2.21,15.93,15.93,0,0,0-4.61-1.78,10.63,10.63,0,0,0-2.38-.2,9.71,9.71,0,0,0-1.2.1c-.4.06-.81.14-1.21.23A16.42,16.42,0,0,0,203,309.53Zm-5.53-138.88a25.08,25.08,0,0,1,6.53-2.73,16.66,16.66,0,0,1,7-.3c1.19.22,2.29.59,3.39.9s2.21.63,3.3.91a27.52,27.52,0,0,0,6.51,1,16.26,16.26,0,0,0,3.2-.25,17.16,17.16,0,0,0,3.14-.78c2.08-.74,4.15-1.82,6.32-2.85a23.46,23.46,0,0,1,6.95-2.23,20.31,20.31,0,0,1,7.2.51c4.7,1.26,8.95,3.84,13.09,6.08a43.26,43.26,0,0,0,12.67,4.89,29.58,29.58,0,0,0,6.56.56,25.92,25.92,0,0,0,3.29-.28c1.1-.17,2.21-.39,3.32-.62a45.78,45.78,0,0,0,13-4.82,40.3,40.3,0,0,1-12.64,7c-1.12.38-2.23.71-3.36,1a25.76,25.76,0,0,1-3.46.67,27.64,27.64,0,0,1-7,0,40.23,40.23,0,0,1-13.5-4.4c-2.14-1.07-4.22-2.24-6.31-3.24a32.47,32.47,0,0,0-6.26-2.38,18,18,0,0,0-6.32-.51,22.11,22.11,0,0,0-6.24,1.85,67.58,67.58,0,0,1-6.62,2.63,18.18,18.18,0,0,1-7.12.72,27.5,27.5,0,0,1-6.89-1.65c-1.11-.41-2.2-.84-3.29-1.28s-2.17-.91-3.21-1.23a16.45,16.45,0,0,0-6.55-.63A28.6,28.6,0,0,0,197.51,170.65ZM131,254.19a43.15,43.15,0,0,0-12.67-4.89,28.94,28.94,0,0,0-6.56-.55,24.34,24.34,0,0,0-3.29.28c-1.1.16-2.21.38-3.32.62a45.23,45.23,0,0,0-13,4.82,39.89,39.89,0,0,1,12.64-7c1.11-.38,2.22-.72,3.36-1a27.28,27.28,0,0,1,3.45-.67,27.64,27.64,0,0,1,7,0,40.38,40.38,0,0,1,13.5,4.4c2.14,1.07,4.23,2.24,6.31,3.25a33,33,0,0,0,6.27,2.38,18.23,18.23,0,0,0,6.31.51,22,22,0,0,0,6.24-1.86,70.18,70.18,0,0,1,6.62-2.63,18.36,18.36,0,0,1,7.12-.71,27.66,27.66,0,0,1,6.9,1.64c1.1.41,2.2.85,3.28,1.29s2.17.9,3.21,1.22A16.45,16.45,0,0,0,191,256a28.57,28.57,0,0,0,6.65-1.48,25.39,25.39,0,0,1-6.53,2.72,16.65,16.65,0,0,1-7,.3c-1.19-.22-2.29-.59-3.39-.9s-2.2-.63-3.3-.91a28,28,0,0,0-6.51-1,16.38,16.38,0,0,0-3.2.25,18.28,18.28,0,0,0-3.14.79,67.76,67.76,0,0,0-6.32,2.85,23.66,23.66,0,0,1-6.95,2.23,20.49,20.49,0,0,1-7.19-.52C139.43,259,135.18,256.43,131,254.19Zm-43.8,56.37a12.23,12.23,0,0,1,3-1.25,7.66,7.66,0,0,1,3.2-.13c.54.1,1,.27,1.55.41l1.52.42a12.47,12.47,0,0,0,3,.46,7.28,7.28,0,0,0,1.47-.11,8.23,8.23,0,0,0,1.44-.37,31.38,31.38,0,0,0,2.9-1.3,10.94,10.94,0,0,1,3.19-1,9.4,9.4,0,0,1,3.3.24,28.37,28.37,0,0,1,6,2.79,19.72,19.72,0,0,0,5.82,2.24,13.27,13.27,0,0,0,3,.26,10.86,10.86,0,0,0,1.51-.13c.51-.07,1-.18,1.53-.28a20.69,20.69,0,0,0,5.95-2.22,18.24,18.24,0,0,1-5.8,3.2c-.51.18-1,.33-1.55.47a12.22,12.22,0,0,1-1.58.3,12.77,12.77,0,0,1-3.21,0,18.45,18.45,0,0,1-6.19-2c-1-.49-1.94-1-2.9-1.49a14.49,14.49,0,0,0-2.88-1.09,8.14,8.14,0,0,0-2.9-.24,10,10,0,0,0-2.86.85,30.54,30.54,0,0,1-3,1.21,8.46,8.46,0,0,1-3.27.33,12.68,12.68,0,0,1-3.16-.76c-.51-.18-1-.38-1.51-.59s-1-.41-1.47-.56a7.64,7.64,0,0,0-3-.29A13.46,13.46,0,0,0,87.24,310.56Z" style="fill:#f5f5f5"></path><path d="M287.6,215.4s3.61-3.19,5.66-5.1l.3-.25.39-.34h0a16.31,16.31,0,0,0-1.14-4.53,6.07,6.07,0,0,1,4.58,2.68l.65-.17.07,0a5.76,5.76,0,0,1,.81-.15l.13,0q.33,0,.66-.06h.62c.23,0,.45,0,.67,0h0l.64.08.12,0,.52.11.15,0,.5.14.13.05.53.19.07,0,.6.28a12,12,0,0,1,3.08,2.23,8.14,8.14,0,0,1,1.27,1.59,7.48,7.48,0,0,1-.31,1v0l-.06.18,0,.06-.06.17a.2.2,0,0,0,0,.08l-.07.16a.54.54,0,0,1-.05.11.61.61,0,0,1-.07.14,1.11,1.11,0,0,1-.07.16l-.06.11a2.26,2.26,0,0,1-.11.22l0,.06c-.16.29-.34.6-.55.91h0c-.06.1-.13.19-.2.29l0,0-.2.27,0,.05-.21.26-.05.06-.22.24-.06.06-.23.24-.06.07-.24.22-.08.07-.25.22-.08.07-.27.21-.09.06-.29.21-.08.06-.32.2-.08.05-.35.19-.07,0-.41.2,0,0-.48.21-.34.12-.21.07-.47.14a9.23,9.23,0,0,1-1.27.26,7,7,0,0,1-4.67,3.79,11.17,11.17,0,0,0,.54-3.77l-.77-.1h-.09l-.75-.12h-.06l-.73-.14h0l-.71-.15-.1,0-.68-.16h0l-.63-.17-.09,0-.58-.17-.11,0-.51-.16h0l-.48-.16-.14,0-.39-.13-.16-.06L289,218l-.35-.13,0,0c-.5-.19-.79-.32-.8-.33a10,10,0,0,1-1.17,2.36,4.23,4.23,0,0,1-2.52,1.94h0a19.18,19.18,0,0,0,.25-2.59v0h0a5.27,5.27,0,0,0-.18-1.68,1.63,1.63,0,0,0-.11-.23c-.64-1.11-2.66-6.28-2.66-6.28a11.13,11.13,0,0,1,1.37.53A13.63,13.63,0,0,1,287.6,215.4Z" style="fill:#e0e0e0"></path><path d="M263.34,256s2.47-2.18,3.86-3.48l.21-.17a3,3,0,0,1,.27-.23h0a11,11,0,0,0-.78-3.09,4.15,4.15,0,0,1,3.13,1.83,3.6,3.6,0,0,1,.44-.12h0a5.35,5.35,0,0,1,.55-.11h.09l.45,0H272l.45,0h0l.44,0,.08,0,.36.07.1,0,.34.1.09,0,.36.13.05,0,.4.19a8.34,8.34,0,0,1,2.11,1.52,5,5,0,0,1,.86,1.09,4.42,4.42,0,0,1-.21.69v0l-.05.12v0a1.17,1.17,0,0,1-.05.11l0,.06-.05.11,0,.08a.36.36,0,0,1,0,.09l-.05.11a.59.59,0,0,0,0,.08,1.09,1.09,0,0,1-.08.15l0,0c-.11.2-.23.4-.37.61h0a1.43,1.43,0,0,1-.14.2l0,0-.13.18,0,0-.14.17,0,0-.15.17,0,0-.15.16-.05.05-.16.15-.05.05-.18.15-.05,0-.19.14-.05,0-.2.14-.06,0a1.64,1.64,0,0,1-.22.14l-.05,0-.24.14-.05,0-.28.14h0l-.33.14-.23.09-.15,0-.32.09a6.09,6.09,0,0,1-.87.18,4.76,4.76,0,0,1-3.18,2.58,7.49,7.49,0,0,0,.37-2.57c-.18,0-.35,0-.52-.06h-.07l-.51-.08h0l-.5-.1h0l-.49-.11h-.06l-.46-.12h0l-.43-.12-.06,0-.39-.11-.08,0-.34-.11h0l-.32-.11-.1,0-.26-.1-.11,0-.14-.05-.24-.09h0c-.35-.13-.55-.22-.55-.22a7.24,7.24,0,0,1-.8,1.6,2.91,2.91,0,0,1-1.72,1.33h0a14.44,14.44,0,0,0,.17-1.77v0h0a3.59,3.59,0,0,0-.12-1.15.8.8,0,0,0-.08-.16c-.43-.75-1.81-4.28-1.81-4.28a6.41,6.41,0,0,1,.93.36A9.21,9.21,0,0,1,263.34,256Z" style="fill:#e0e0e0"></path><path d="M174.2,237.83s3.17-2.79,5-4.46l.26-.23.35-.29h0a14,14,0,0,0-1-4,5.31,5.31,0,0,1,4,2.35l.56-.15.07,0a5.55,5.55,0,0,1,.71-.13l.11,0,.58-.05h.54a5.83,5.83,0,0,1,.59,0h0l.55.07.11,0a3.4,3.4,0,0,1,.46.09l.13,0,.43.12.12,0,.46.17.06,0a5.05,5.05,0,0,1,.53.24,10.71,10.71,0,0,1,2.7,2,7,7,0,0,1,1.11,1.4,6.55,6.55,0,0,1-.27.89v0a1,1,0,0,1-.06.16l0,0a.88.88,0,0,1-.05.15.25.25,0,0,0,0,.07l-.06.14a1,1,0,0,0,0,.1l-.06.12-.06.14a.31.31,0,0,0-.05.1c0,.06-.07.12-.1.19l0,0c-.14.26-.3.52-.48.79h0c0,.09-.11.17-.17.26l0,0-.18.23,0,.05-.18.22,0,0c-.06.07-.13.14-.19.22l-.05.05-.2.21-.06.06-.21.2-.07,0-.22.2-.07,0-.24.19-.07.06-.25.18-.08.05a2.61,2.61,0,0,1-.28.17l-.07.05-.31.17-.06,0-.35.18h0a2.65,2.65,0,0,1-.42.18l-.3.11-.19.07-.41.12a9.92,9.92,0,0,1-1.11.23,6.16,6.16,0,0,1-4.09,3.31,9.67,9.67,0,0,0,.48-3.3l-.68-.08H181l-.65-.11h0l-.64-.12h0l-.63-.13-.08,0-.59-.15h0a4.94,4.94,0,0,1-.55-.15l-.08,0-.51-.15-.1,0-.44-.13,0,0-.41-.14-.13,0-.34-.12-.14-.05-.18-.07-.31-.11,0,0-.7-.28a9.91,9.91,0,0,1-1,2.06,3.71,3.71,0,0,1-2.21,1.7h0a17.28,17.28,0,0,0,.22-2.27v0h0a4.56,4.56,0,0,0-.16-1.47l-.09-.21c-.56-1-2.33-5.5-2.33-5.5a9.06,9.06,0,0,1,1.2.47A12,12,0,0,1,174.2,237.83Z" style="fill:#e0e0e0"></path><path d="M129.57,276.61s2.36-2.09,3.7-3.33l.19-.17.26-.22h0a10.53,10.53,0,0,0-.75-3,3.92,3.92,0,0,1,3,1.75c.14-.05.29-.08.43-.12h0l.53-.1h.09l.43,0h.41l.43,0h0l.42,0h.08l.34.07.1,0a1.92,1.92,0,0,1,.32.09l.09,0,.34.12.05,0,.39.18a8,8,0,0,1,2,1.46,5.31,5.31,0,0,1,.84,1,6.28,6.28,0,0,1-.21.67h0l-.05.12v0a1.17,1.17,0,0,0-.05.11l0,.05a1,1,0,0,1,0,.1l0,.08a.36.36,0,0,1,0,.09s0,.07-.05.1l0,.08s-.05.09-.08.14l0,0a5.5,5.5,0,0,1-.36.59h0l-.14.19v0c0,.05-.09.11-.14.17l0,0-.14.16,0,0-.14.16,0,0-.15.16,0,0-.15.15-.05,0-.17.15-.05,0-.18.14-.05,0-.19.13-.06,0a1.37,1.37,0,0,1-.2.13l-.06,0a1.71,1.71,0,0,1-.23.13l0,0-.27.13h0l-.32.13-.22.08-.14.05-.31.1a7.6,7.6,0,0,1-.83.16,4.56,4.56,0,0,1-3,2.48,7.36,7.36,0,0,0,.35-2.46l-.5-.07h-.07l-.48-.07h0l-.48-.09h0l-.47-.1h-.06l-.44-.11h0l-.41-.11h-.05l-.38-.12-.08,0-.33-.1h0l-.31-.1-.09,0-.25-.08-.11,0-.14-.05-.23-.09h0l-.52-.21a6.78,6.78,0,0,1-.77,1.53,2.69,2.69,0,0,1-1.64,1.27h0a12.21,12.21,0,0,0,.16-1.69v0h0a3.28,3.28,0,0,0-.12-1.1.69.69,0,0,0-.07-.15c-.41-.72-1.73-4.1-1.73-4.1a6.3,6.3,0,0,1,.89.34A9.08,9.08,0,0,1,129.57,276.61Z" style="fill:#e0e0e0"></path><path d="M405.6,210s2.36-2.08,3.7-3.32l.19-.17.26-.22h0a10.64,10.64,0,0,0-.75-3,4,4,0,0,1,3,1.75l.42-.11h0c.18,0,.36-.08.53-.1h.09l.43,0h.85a3,3,0,0,1,.42,0h.08l.34.07.1,0,.32.1.09,0,.35.13,0,0,.39.18a7.74,7.74,0,0,1,2,1.46,5,5,0,0,1,.84,1s-.06.26-.2.66v0l-.05.12v0s0,.08,0,.11l0,.06,0,.1a.16.16,0,0,1,0,.07.3.3,0,0,1,0,.1.93.93,0,0,1-.05.1l0,.07-.08.15,0,0a5.6,5.6,0,0,1-.36.6h0l-.13.2,0,0-.14.18,0,0-.14.17,0,0a1.07,1.07,0,0,0-.14.16l0,0-.15.15-.05,0-.15.14,0,0-.17.14-.05,0-.18.14-.05,0-.19.13-.06,0-.2.13-.06,0-.23.13,0,0-.27.13,0,0-.32.13-.22.08-.14.05-.31.09a7.17,7.17,0,0,1-.83.17,4.58,4.58,0,0,1-3,2.47,7.31,7.31,0,0,0,.35-2.46c-.17,0-.34,0-.5-.06h-.07l-.48-.08h0l-.48-.1h0l-.47-.1-.06,0-.44-.11h0l-.41-.11,0,0-.38-.11-.08,0-.33-.11h0l-.31-.1-.09,0-.25-.09-.11,0-.13-.05-.24-.08h0l-.53-.22A7,7,0,0,1,405,213a2.73,2.73,0,0,1-1.64,1.27h0a12.21,12.21,0,0,0,.16-1.69v0h0a3.28,3.28,0,0,0-.12-1.1.52.52,0,0,0-.07-.15c-.41-.73-1.73-4.11-1.73-4.11a7.84,7.84,0,0,1,.89.35A9,9,0,0,1,405.6,210Z" style="fill:#e0e0e0"></path><path d="M76.75,260.22a.77.77,0,0,0-.07-.16C76.27,259.34,75,256,75,256a7.84,7.84,0,0,1,.89.35A9,9,0,0,1,79,258.82s2.36-2.08,3.7-3.33l.19-.16.26-.22h0a10.53,10.53,0,0,0-.75-3,4,4,0,0,1,3,1.75l.42-.11,0,0,.53-.09h.09a3,3,0,0,1,.43,0h.4l.44,0h0l.42.06h.08l.34.07.1,0,.32.09.09,0,.34.13,0,0a3.39,3.39,0,0,1,.39.18,7.74,7.74,0,0,1,2,1.46,5,5,0,0,1,.84,1,5.81,5.81,0,0,1-.21.66v0l0,.11v0l0,.11,0,.06,0,.1,0,.07,0,.1,0,.1,0,.07c0,.05,0,.1-.08.14l0,0a6.79,6.79,0,0,1-.36.6h0a1.33,1.33,0,0,1-.14.19v0l-.14.18,0,0-.14.17,0,0-.14.15,0,.05-.15.15-.05,0-.15.15,0,.05-.17.14-.05,0-.18.14,0,0-.19.14-.06,0-.2.13-.06,0-.23.13,0,0-.27.13,0,0-.32.13-.22.08-.14.05-.31.09a7.17,7.17,0,0,1-.83.17,4.58,4.58,0,0,1-3,2.47,7.2,7.2,0,0,0,.36-2.46l-.5-.06h-.07l-.48-.08h0l-.48-.09h0l-.47-.1-.06,0-.44-.11h0l-.41-.11,0,0-.38-.11-.08,0-.33-.11h0l-.31-.1-.09,0-.25-.09-.11,0-.14,0-.23-.08,0,0-.52-.21a7,7,0,0,1-.77,1.54A2.77,2.77,0,0,1,76.71,263h0a12.42,12.42,0,0,0,.16-1.69v0h0A3.28,3.28,0,0,0,76.75,260.22Z" style="fill:#e0e0e0"></path><path d="M234.78,117.77c-1.58-1.06-5,1.32-6.59,2.37s-4.68,5.52-4.69,5.54a23.79,23.79,0,0,1-1.91-1.58c-2-1.83-6.92-2.6-12-1.3a22.13,22.13,0,0,0-12.58-.65c-7.35,1.69-19,1.69-16.32,3.8s7.49,2.9,11.92,1.84a31,31,0,0,1,8.37-.18,16.92,16.92,0,0,0-3.06,4.14c-1.53,2.9-2.73,5.38-3.68,7.47-3.6,1.33-9.06,4.4-10.76,5.08-2.26.9-9.25,7.88-5.09,6.1s11.11-5.63,14.22-7.4h0a39.58,39.58,0,0,0-1.62,4.65c.29,1.81,3.5,2.72,7.77,3-5.48,3.24-8.83,10.6-7.46,9.33,1.06-1,8.79-5.86,13.07-9.26,6.45-.24,13.43-1.4,16.49-2.84a22.5,22.5,0,0,1-1.35,2.52c-1.8,2.75-3.21,8.51-1.89,11.15s3.16-3.43,4.48-6.07c1.08-2.16,5.87-10.33,6.41-14.67a10.26,10.26,0,0,0,1.5-7.22,8.76,8.76,0,0,0-2.45-4.72l0,0s1.9-4.27,4.27-5.59S236.36,118.82,234.78,117.77Z" style="fill:#e0e0e0"></path></g><g id="freepik--Shadow--inject-40"><ellipse id="freepik--path--inject-40" cx="250" cy="416.24" rx="193.89" ry="11.32" style="fill:#f5f5f5"></ellipse></g><g id="freepik--Bubbles--inject-40"><circle cx="135.18" cy="304.43" r="3.47" style="fill:#59C983"></circle><circle cx="116.15" cy="237.22" r="3.47" style="fill:#59C983"></circle><circle cx="91.9" cy="179.76" r="5.78" style="fill:#59C983"></circle><circle cx="116.15" cy="154.29" r="3.47" style="fill:#59C983"></circle><path d="M105.18,296.62a5.49,5.49,0,1,0,5.48-5.49A5.48,5.48,0,0,0,105.18,296.62Z" style="fill:#59C983"></path><path d="M94.21,268.39a5.49,5.49,0,1,0,5.48-5.49A5.48,5.48,0,0,0,94.21,268.39Z" style="fill:#59C983"></path><path d="M81.65,231a5.49,5.49,0,1,0,5.49-5.48A5.49,5.49,0,0,0,81.65,231Z" style="fill:#59C983"></path><circle cx="124.37" cy="270.82" r="7.34" transform="translate(-58.9 35.82) rotate(-13.28)" style="fill:#59C983"></circle><circle cx="119.62" cy="200.69" r="7.34" transform="translate(-111.58 234.4) rotate(-67.5)" style="fill:#59C983"></circle><g style="opacity:0.8"><circle cx="135.18" cy="304.43" r="3.47" style="fill:#fff"></circle><circle cx="116.15" cy="237.22" r="3.47" style="fill:#fff"></circle><circle cx="91.9" cy="179.76" r="5.78" style="fill:#fff"></circle><circle cx="116.15" cy="154.29" r="3.47" style="fill:#fff"></circle><path d="M105.18,296.62a5.49,5.49,0,1,0,5.48-5.49A5.48,5.48,0,0,0,105.18,296.62Z" style="fill:#fff"></path><path d="M94.21,268.39a5.49,5.49,0,1,0,5.48-5.49A5.48,5.48,0,0,0,94.21,268.39Z" style="fill:#fff"></path><path d="M81.65,231a5.49,5.49,0,1,0,5.49-5.48A5.49,5.49,0,0,0,81.65,231Z" style="fill:#fff"></path><circle cx="124.37" cy="270.82" r="7.34" transform="translate(-58.9 35.82) rotate(-13.28)" style="fill:#fff"></circle><circle cx="119.62" cy="200.69" r="7.34" transform="translate(-111.58 234.4) rotate(-67.5)" style="fill:#fff"></circle></g><path d="M353.74,128.71a3,3,0,1,0-3.05,3A3,3,0,0,0,353.74,128.71Z" style="fill:#59C983"></path><path d="M370.46,187.75a3.05,3.05,0,1,0-3,3A3.06,3.06,0,0,0,370.46,187.75Z" style="fill:#59C983"></path><path d="M393.78,238.21a5.07,5.07,0,1,0-5.07,5.07A5.08,5.08,0,0,0,393.78,238.21Z" style="fill:#59C983"></path><circle cx="367.41" cy="260.58" r="3.05" style="fill:#59C983"></circle><path d="M377.05,135.57a4.82,4.82,0,1,0-4.82,4.82A4.82,4.82,0,0,0,377.05,135.57Z" style="fill:#59C983"></path><path d="M386.68,160.37a4.82,4.82,0,1,0-4.82,4.82A4.82,4.82,0,0,0,386.68,160.37Z" style="fill:#59C983"></path><path d="M397.71,193.23a4.82,4.82,0,1,0-4.82,4.82A4.82,4.82,0,0,0,397.71,193.23Z" style="fill:#59C983"></path><path d="M366.64,158.23a6.45,6.45,0,1,0-6.45,6.45A6.45,6.45,0,0,0,366.64,158.23Z" style="fill:#59C983"></path><path d="M370.81,219.82a6.45,6.45,0,1,0-6.45,6.45A6.45,6.45,0,0,0,370.81,219.82Z" style="fill:#59C983"></path><g style="opacity:0.8"><path d="M353.74,128.71a3,3,0,1,0-3.05,3A3,3,0,0,0,353.74,128.71Z" style="fill:#fff"></path><path d="M370.46,187.75a3.05,3.05,0,1,0-3,3A3.06,3.06,0,0,0,370.46,187.75Z" style="fill:#fff"></path><path d="M393.78,238.21a5.07,5.07,0,1,0-5.07,5.07A5.08,5.08,0,0,0,393.78,238.21Z" style="fill:#fff"></path><circle cx="367.41" cy="260.58" r="3.05" style="fill:#fff"></circle><path d="M377.05,135.57a4.82,4.82,0,1,0-4.82,4.82A4.82,4.82,0,0,0,377.05,135.57Z" style="fill:#fff"></path><path d="M386.68,160.37a4.82,4.82,0,1,0-4.82,4.82A4.82,4.82,0,0,0,386.68,160.37Z" style="fill:#fff"></path><path d="M397.71,193.23a4.82,4.82,0,1,0-4.82,4.82A4.82,4.82,0,0,0,397.71,193.23Z" style="fill:#fff"></path><path d="M366.64,158.23a6.45,6.45,0,1,0-6.45,6.45A6.45,6.45,0,0,0,366.64,158.23Z" style="fill:#fff"></path><path d="M370.81,219.82a6.45,6.45,0,1,0-6.45,6.45A6.45,6.45,0,0,0,370.81,219.82Z" style="fill:#fff"></path></g><path d="M312.42,270a1.77,1.77,0,1,0-1.77,1.76A1.77,1.77,0,0,0,312.42,270Z" style="fill:#59C983"></path><circle cx="320.34" cy="304.19" r="1.77" style="fill:#59C983"></circle><circle cx="332.68" cy="333.43" r="2.94" style="fill:#59C983"></circle><circle cx="320.34" cy="346.4" r="1.77" style="fill:#59C983"></circle><path d="M325.92,274a2.79,2.79,0,1,0-2.79,2.79A2.79,2.79,0,0,0,325.92,274Z" style="fill:#59C983"></path><path d="M331.51,288.33a2.8,2.8,0,1,0-2.8,2.79A2.8,2.8,0,0,0,331.51,288.33Z" style="fill:#59C983"></path><path d="M337.9,307.37a2.8,2.8,0,1,0-2.8,2.79A2.79,2.79,0,0,0,337.9,307.37Z" style="fill:#59C983"></path><path d="M319.89,287.08a3.74,3.74,0,1,0-3.74,3.74A3.73,3.73,0,0,0,319.89,287.08Z" style="fill:#59C983"></path><path d="M322.31,322.78a3.74,3.74,0,1,0-3.74,3.74A3.73,3.73,0,0,0,322.31,322.78Z" style="fill:#59C983"></path><g style="opacity:0.8"><path d="M312.42,270a1.77,1.77,0,1,0-1.77,1.76A1.77,1.77,0,0,0,312.42,270Z" style="fill:#fff"></path><circle cx="320.34" cy="304.19" r="1.77" style="fill:#fff"></circle><circle cx="332.68" cy="333.43" r="2.94" style="fill:#fff"></circle><circle cx="320.34" cy="346.4" r="1.77" style="fill:#fff"></circle><path d="M325.92,274a2.79,2.79,0,1,0-2.79,2.79A2.79,2.79,0,0,0,325.92,274Z" style="fill:#fff"></path><path d="M331.51,288.33a2.8,2.8,0,1,0-2.8,2.79A2.8,2.8,0,0,0,331.51,288.33Z" style="fill:#fff"></path><path d="M337.9,307.37a2.8,2.8,0,1,0-2.8,2.79A2.79,2.79,0,0,0,337.9,307.37Z" style="fill:#fff"></path><path d="M319.89,287.08a3.74,3.74,0,1,0-3.74,3.74A3.73,3.73,0,0,0,319.89,287.08Z" style="fill:#fff"></path><path d="M322.31,322.78a3.74,3.74,0,1,0-3.74,3.74A3.73,3.73,0,0,0,322.31,322.78Z" style="fill:#fff"></path></g><path d="M227.24,174.7a1.77,1.77,0,1,0,1.76-1.77A1.76,1.76,0,0,0,227.24,174.7Z" style="fill:#59C983"></path><path d="M217.55,140.49a1.77,1.77,0,1,0,1.77-1.77A1.76,1.76,0,0,0,217.55,140.49Z" style="fill:#59C983"></path><path d="M204,111.24A2.94,2.94,0,1,0,207,108.3,2.95,2.95,0,0,0,204,111.24Z" style="fill:#59C983"></path><path d="M217.55,98.28a1.77,1.77,0,1,0,1.77-1.77A1.76,1.76,0,0,0,217.55,98.28Z" style="fill:#59C983"></path><path d="M213.73,170.72a2.8,2.8,0,1,0,2.79-2.79A2.79,2.79,0,0,0,213.73,170.72Z" style="fill:#59C983"></path><path d="M208.15,156.35a2.79,2.79,0,1,0,2.79-2.79A2.79,2.79,0,0,0,208.15,156.35Z" style="fill:#59C983"></path><path d="M201.76,137.31a2.79,2.79,0,1,0,2.79-2.79A2.79,2.79,0,0,0,201.76,137.31Z" style="fill:#59C983"></path><path d="M219.76,157.59a3.74,3.74,0,1,0,3.74-3.74A3.74,3.74,0,0,0,219.76,157.59Z" style="fill:#59C983"></path><path d="M217.34,121.9a3.74,3.74,0,1,0,3.74-3.74A3.75,3.75,0,0,0,217.34,121.9Z" style="fill:#59C983"></path><g style="opacity:0.8"><path d="M227.24,174.7a1.77,1.77,0,1,0,1.76-1.77A1.76,1.76,0,0,0,227.24,174.7Z" style="fill:#fff"></path><path d="M217.55,140.49a1.77,1.77,0,1,0,1.77-1.77A1.76,1.76,0,0,0,217.55,140.49Z" style="fill:#fff"></path><path d="M204,111.24A2.94,2.94,0,1,0,207,108.3,2.95,2.95,0,0,0,204,111.24Z" style="fill:#fff"></path><path d="M217.55,98.28a1.77,1.77,0,1,0,1.77-1.77A1.76,1.76,0,0,0,217.55,98.28Z" style="fill:#fff"></path><path d="M213.73,170.72a2.8,2.8,0,1,0,2.79-2.79A2.79,2.79,0,0,0,213.73,170.72Z" style="fill:#fff"></path><path d="M208.15,156.35a2.79,2.79,0,1,0,2.79-2.79A2.79,2.79,0,0,0,208.15,156.35Z" style="fill:#fff"></path><path d="M201.76,137.31a2.79,2.79,0,1,0,2.79-2.79A2.79,2.79,0,0,0,201.76,137.31Z" style="fill:#fff"></path><path d="M219.76,157.59a3.74,3.74,0,1,0,3.74-3.74A3.74,3.74,0,0,0,219.76,157.59Z" style="fill:#fff"></path><path d="M217.34,121.9a3.74,3.74,0,1,0,3.74-3.74A3.75,3.75,0,0,0,217.34,121.9Z" style="fill:#fff"></path></g></g><g id="freepik--Octopus--inject-40"><path d="M122.91,338.8c15-9.71,33.7-4.45,37.56,8.32s1.12,18.56,10.66,25.94,21.61,18.58,29.55,4.68,32.45-7.26,31.67,8.41,14,21,22.7,14.79-.64-16-4.67-14.79c0,0,7.78-7.1,11.89,4s1.42,19.69-12.92,20.15-24.53-19.94-28.93-27-12.26-.21-15.63,8.62-18,5-24.08,2.37c0,0,.82,6.39,9.9,7.24s18.1,9.54,5.93,12.59-82.53,1.43-88-2,10.58-8.58,11.54-13.39c0,0-8.54,13.23-30.95,4.34s-27.41-30.43-13-42.87,21.48-20.62,10.94-26.55-9,8.31-9,8.31-5.46-8.54,2.15-12.32,17-1.88,18.5,9.17-6.15,19.63-13,26.15-7.12,17.13,5,21.2,28.61-2.93,24.72-13.94S110.25,347,122.91,338.8Z" style="fill:#263238"></path><path d="M122.91,338.8c15-9.71,33.7-4.45,37.56,8.32s1.12,18.56,10.66,25.94,21.61,18.58,29.55,4.68,32.45-7.26,31.67,8.41,14,21,22.7,14.79-.64-16-4.67-14.79c0,0,7.78-7.1,11.89,4s1.42,19.69-12.92,20.15-24.53-19.94-28.93-27-12.26-.21-15.63,8.62-18,5-24.08,2.37c0,0,.82,6.39,9.9,7.24s18.1,9.54,5.93,12.59-82.53,1.43-88-2,10.58-8.58,11.54-13.39c0,0-8.54,13.23-30.95,4.34s-27.41-30.43-13-42.87,21.48-20.62,10.94-26.55-9,8.31-9,8.31-5.46-8.54,2.15-12.32,17-1.88,18.5,9.17-6.15,19.63-13,26.15-7.12,17.13,5,21.2,28.61-2.93,24.72-13.94S110.25,347,122.91,338.8Z" style="fill:#fff;opacity:0.4"></path><path d="M142.76,371.25a1.81,1.81,0,1,1-1.81-1.81A1.81,1.81,0,0,1,142.76,371.25Z" style="fill:#263238"></path><path d="M162,367.72a1.81,1.81,0,1,1-1.81-1.81A1.81,1.81,0,0,1,162,367.72Z" style="fill:#263238"></path><path d="M92.16,351.06c-.8,1.37-2.28,2-3.32,1.38s-1.24-2.2-.45-3.56,2.28-2,3.32-1.38S93,349.7,92.16,351.06Z" style="fill:#263238"></path><path d="M92.16,351.06c-.8,1.37-2.28,2-3.32,1.38s-1.24-2.2-.45-3.56,2.28-2,3.32-1.38S93,349.7,92.16,351.06Z" style="fill:#fff;opacity:0.6000000000000001"></path><path d="M91,350.38a.84.84,0,1,1-.17-1.33A1,1,0,0,1,91,350.38Z" style="opacity:0.2;isolation:isolate"></path><path d="M85.41,356.87c-1.21,1-2.81,1.09-3.58.16s-.42-2.49.79-3.5,2.82-1.08,3.59-.16S86.62,355.86,85.41,356.87Z" style="fill:#263238"></path><path d="M85.41,356.87c-1.21,1-2.81,1.09-3.58.16s-.42-2.49.79-3.5,2.82-1.08,3.59-.16S86.62,355.86,85.41,356.87Z" style="fill:#fff;opacity:0.6000000000000001"></path><path d="M84.54,355.83a1,1,0,0,1-1.34.06,1.1,1.1,0,1,1,1.34-.06Z" style="opacity:0.2;isolation:isolate"></path><path d="M78.91,363c-1.21,1-2.81,1.08-3.58.16s-.42-2.49.79-3.5,2.82-1.08,3.59-.16S80.12,362,78.91,363Z" style="fill:#263238"></path><path d="M78.91,363c-1.21,1-2.81,1.08-3.58.16s-.42-2.49.79-3.5,2.82-1.08,3.59-.16S80.12,362,78.91,363Z" style="fill:#fff;opacity:0.6000000000000001"></path><path d="M78,362a.84.84,0,1,1-1-1.24A.84.84,0,1,1,78,362Z" style="opacity:0.2;isolation:isolate"></path><path d="M75.35,369.66c-.9,1.66-2.66,2.45-3.92,1.76s-1.56-2.59-.66-4.24,2.65-2.45,3.92-1.76S76.25,368,75.35,369.66Z" style="fill:#263238"></path><path d="M75.35,369.66c-.9,1.66-2.66,2.45-3.92,1.76s-1.56-2.59-.66-4.24,2.65-2.45,3.92-1.76S76.25,368,75.35,369.66Z" style="fill:#fff;opacity:0.6000000000000001"></path><path d="M73.91,368.88a1,1,0,1,1-.25-1.58A1.14,1.14,0,0,1,73.91,368.88Z" style="opacity:0.2;isolation:isolate"></path><path d="M74.77,378.08c0,2.11-1.24,3.85-2.84,3.87s-3-1.65-3-3.76,1.24-3.84,2.84-3.87S74.73,376,74.77,378.08Z" style="fill:#263238"></path><path d="M74.77,378.08c0,2.11-1.24,3.85-2.84,3.87s-3-1.65-3-3.76,1.24-3.84,2.84-3.87S74.73,376,74.77,378.08Z" style="fill:#fff;opacity:0.6000000000000001"></path><path d="M72.94,378.12a1.13,1.13,0,1,1-1.11-1.41A1.29,1.29,0,0,1,72.94,378.12Z" style="opacity:0.2;isolation:isolate"></path><path d="M78.65,386.18c.82,1.94.29,4-1.19,4.65s-3.35-.43-4.17-2.37-.3-4,1.19-4.66S77.82,384.24,78.65,386.18Z" style="fill:#263238"></path><path d="M78.65,386.18c.82,1.94.29,4-1.19,4.65s-3.35-.43-4.17-2.37-.3-4,1.19-4.66S77.82,384.24,78.65,386.18Z" style="fill:#fff;opacity:0.6000000000000001"></path><path d="M77,386.89a1.13,1.13,0,1,1-1.56-.88A1.29,1.29,0,0,1,77,386.89Z" style="opacity:0.2;isolation:isolate"></path><path d="M85.73,393.58c1.7,1.24,2.32,3.31,1.37,4.6s-3.09,1.35-4.8.11-2.32-3.3-1.37-4.6S84,392.34,85.73,393.58Z" style="fill:#263238"></path><path d="M85.73,393.58c1.7,1.24,2.32,3.31,1.37,4.6s-3.09,1.35-4.8.11-2.32-3.3-1.37-4.6S84,392.34,85.73,393.58Z" style="fill:#fff;opacity:0.6000000000000001"></path><path d="M84.66,395.06a1.13,1.13,0,1,1-1.28,1.75,1.29,1.29,0,0,1-.52-1.71A1.3,1.3,0,0,1,84.66,395.06Z" style="opacity:0.2;isolation:isolate"></path><path d="M95.1,397.82c2,.76,3.1,2.59,2.52,4.09S95,404,93,403.26s-3.11-2.58-2.53-4.08S93.13,397.07,95.1,397.82Z" style="fill:#263238"></path><path d="M95.1,397.82c2,.76,3.1,2.59,2.52,4.09S95,404,93,403.26s-3.11-2.58-2.53-4.08S93.13,397.07,95.1,397.82Z" style="fill:#fff;opacity:0.6000000000000001"></path><path d="M94.45,399.53a1.13,1.13,0,1,1-1.72.5A1.29,1.29,0,0,1,94.45,399.53Z" style="opacity:0.2;isolation:isolate"></path><path d="M189.34,391.71c2.08.38,3.53,2,3.25,3.55s-2.2,2.56-4.28,2.18-3.53-2-3.24-3.54S187.27,391.34,189.34,391.71Z" style="fill:#263238"></path><path d="M189.34,391.71c2.08.38,3.53,2,3.25,3.55s-2.2,2.56-4.28,2.18-3.53-2-3.24-3.54S187.27,391.34,189.34,391.71Z" style="fill:#fff;opacity:0.6000000000000001"></path><path d="M189,393.51c.77.14,1.32.73,1.21,1.32a1.29,1.29,0,0,1-1.59.82c-.78-.14-1.32-.73-1.21-1.32A1.29,1.29,0,0,1,189,393.51Z" style="opacity:0.2;isolation:isolate"></path><path d="M198.33,392c1.85-.74,3.82-.2,4.38,1.21s-.47,3.16-2.32,3.91-3.81.21-4.38-1.21S196.48,392.7,198.33,392Z" style="fill:#263238"></path><path d="M198.33,392c1.85-.74,3.82-.2,4.38,1.21s-.47,3.16-2.32,3.91-3.81.21-4.38-1.21S196.48,392.7,198.33,392Z" style="fill:#fff;opacity:0.6000000000000001"></path><path d="M199,393.56a1.06,1.06,0,1,1,.77,1.9,1.07,1.07,0,1,1-.77-1.9Z" style="opacity:0.2;isolation:isolate"></path><path d="M202.48,386.91c.88-1.79,2.7-2.71,4.06-2s1.77,2.66.89,4.46-2.69,2.71-4.06,2S201.6,388.71,202.48,386.91Z" style="fill:#263238"></path><path d="M202.48,386.91c.88-1.79,2.7-2.71,4.06-2s1.77,2.66.89,4.46-2.69,2.71-4.06,2S201.6,388.71,202.48,386.91Z" style="fill:#fff;opacity:0.6000000000000001"></path><path d="M204,387.67a1.07,1.07,0,1,1,.34,1.66A1.23,1.23,0,0,1,204,387.67Z" style="opacity:0.2;isolation:isolate"></path><path d="M209.86,377.94c1.65-1.12,3.68-1,4.54.25s.21,3.19-1.44,4.31-3.69,1-4.54-.25S208.21,379.06,209.86,377.94Z" style="fill:#263238"></path><path d="M209.86,377.94c1.65-1.12,3.68-1,4.54.25s.21,3.19-1.44,4.31-3.69,1-4.54-.25S208.21,379.06,209.86,377.94Z" style="fill:#fff;opacity:0.6000000000000001"></path><path d="M210.83,379.37a1.07,1.07,0,1,1,1.16,1.7,1.07,1.07,0,1,1-1.16-1.7Z" style="opacity:0.2;isolation:isolate"></path><path d="M220.86,376.72c1.85.75,2.88,2.51,2.3,3.92s-2.54,1.94-4.39,1.18-2.88-2.51-2.3-3.92S219,376,220.86,376.72Z" style="fill:#263238"></path><path d="M220.86,376.72c1.85.75,2.88,2.51,2.3,3.92s-2.54,1.94-4.39,1.18-2.88-2.51-2.3-3.92S219,376,220.86,376.72Z" style="fill:#fff;opacity:0.6000000000000001"></path><path d="M220.2,378.32a1.06,1.06,0,1,1-1.63.44A1.21,1.21,0,0,1,220.2,378.32Z" style="opacity:0.2;isolation:isolate"></path><path d="M227.32,384.87c1,1.71.81,3.73-.49,4.52s-3.2,0-4.23-1.67-.82-3.74.49-4.52S226.28,383.16,227.32,384.87Z" style="fill:#263238"></path><path d="M227.32,384.87c1,1.71.81,3.73-.49,4.52s-3.2,0-4.23-1.67-.82-3.74.49-4.52S226.28,383.16,227.32,384.87Z" style="fill:#fff;opacity:0.6000000000000001"></path><path d="M225.84,385.76a1.07,1.07,0,1,1-1.76,1.06,1.07,1.07,0,1,1,1.76-1.06Z" style="opacity:0.2;isolation:isolate"></path><path d="M230.64,393.33c.86,1.42.67,3.1-.41,3.75s-2.66,0-3.52-1.38-.67-3.11.41-3.76S229.78,391.9,230.64,393.33Z" style="fill:#263238"></path><path d="M230.64,393.33c.86,1.42.67,3.1-.41,3.75s-2.66,0-3.52-1.38-.67-3.11.41-3.76S229.78,391.9,230.64,393.33Z" style="fill:#fff;opacity:0.6000000000000001"></path><path d="M229.41,394.07a.89.89,0,1,1-1.32-.52A1,1,0,0,1,229.41,394.07Z" style="opacity:0.2;isolation:isolate"></path><path d="M235.06,400.13c1.23,1.11,1.54,2.78.69,3.72s-2.54.79-3.77-.32-1.54-2.78-.69-3.72S233.83,399,235.06,400.13Z" style="fill:#263238"></path><path d="M235.06,400.13c1.23,1.11,1.54,2.78.69,3.72s-2.54.79-3.77-.32-1.54-2.78-.69-3.72S233.83,399,235.06,400.13Z" style="fill:#fff;opacity:0.6000000000000001"></path><path d="M234.09,401.19a.89.89,0,1,1-1.4-.12A1,1,0,0,1,234.09,401.19Z" style="opacity:0.2;isolation:isolate"></path><path d="M242.31,404.35c1.47.78,2.17,2.32,1.57,3.44s-2.26,1.38-3.73.6-2.16-2.32-1.57-3.44S240.85,403.57,242.31,404.35Z" style="fill:#263238"></path><path d="M242.31,404.35c1.47.78,2.17,2.32,1.57,3.44s-2.26,1.38-3.73.6-2.16-2.32-1.57-3.44S240.85,403.57,242.31,404.35Z" style="fill:#fff;opacity:0.6000000000000001"></path><path d="M241.64,405.62a.89.89,0,1,1-1.4.22A1,1,0,0,1,241.64,405.62Z" style="opacity:0.2;isolation:isolate"></path><path d="M250.22,406c1.65-.23,3.12.61,3.29,1.87s-1,2.45-2.67,2.67-3.12-.62-3.29-1.87S248.58,406.2,250.22,406Z" style="fill:#263238"></path><path d="M250.22,406c1.65-.23,3.12.61,3.29,1.87s-1,2.45-2.67,2.67-3.12-.62-3.29-1.87S248.58,406.2,250.22,406Z" style="fill:#fff;opacity:0.6000000000000001"></path><path d="M250.42,407.4a1,1,0,0,1,1.22.7c.06.47-.38.91-1,1a1,1,0,0,1-1.22-.7C249.36,407.93,249.8,407.48,250.42,407.4Z" style="opacity:0.2;isolation:isolate"></path><path d="M257.08,404.27c1.21-1.14,2.89-1.31,3.76-.38s.58,2.59-.64,3.73-2.89,1.3-3.76.37S255.86,405.4,257.08,404.27Z" style="fill:#263238"></path><path d="M257.08,404.27c1.21-1.14,2.89-1.31,3.76-.38s.58,2.59-.64,3.73-2.89,1.3-3.76.37S255.86,405.4,257.08,404.27Z" style="fill:#fff;opacity:0.6000000000000001"></path><path d="M258.06,405.32a1,1,0,0,1,1.4-.14,1.16,1.16,0,1,1-1.4.14Z" style="opacity:0.2;isolation:isolate"></path><path d="M260.27,398.88c.05-1.66,1.11-3,2.38-2.94s2.25,1.41,2.21,3.07-1.11,3-2.38,2.94S260.23,400.54,260.27,398.88Z" style="fill:#263238"></path><path d="M260.27,398.88c.05-1.66,1.11-3,2.38-2.94s2.25,1.41,2.21,3.07-1.11,3-2.38,2.94S260.23,400.54,260.27,398.88Z" style="fill:#fff;opacity:0.6000000000000001"></path><path d="M261.71,398.92c0-.62.41-1.11.89-1.1a1,1,0,0,1,.82,1.15c0,.62-.41,1.11-.88,1.09A1,1,0,0,1,261.71,398.92Z" style="opacity:0.2;isolation:isolate"></path><path d="M260.35,391.89c-.42-1.5.17-3,1.31-3.28s2.4.65,2.81,2.14-.17,3-1.31,3.28S260.76,393.39,260.35,391.89Z" style="fill:#263238"></path><path d="M260.35,391.89c-.42-1.5.17-3,1.31-3.28s2.4.65,2.81,2.14-.17,3-1.31,3.28S260.76,393.39,260.35,391.89Z" style="fill:#fff;opacity:0.6000000000000001"></path><path d="M261.64,391.53a1,1,0,0,1,.49-1.22.94.94,0,0,1,1.05.8,1,1,0,0,1-.49,1.22A.94.94,0,0,1,261.64,391.53Z" style="opacity:0.2;isolation:isolate"></path><path d="M257.33,386.53a1.69,1.69,0,1,1,2.59.75A1.94,1.94,0,0,1,257.33,386.53Z" style="fill:#263238"></path><path d="M257.33,386.53a1.69,1.69,0,1,1,2.59.75A1.94,1.94,0,0,1,257.33,386.53Z" style="fill:#fff;opacity:0.6000000000000001"></path><path d="M258.15,385.92a.63.63,0,1,1,1,.28A.72.72,0,0,1,258.15,385.92Z" style="opacity:0.2;isolation:isolate"></path><path d="M105.64,398c2.1-.17,3.91,1,4,2.59s-1.47,3.05-3.57,3.22-3.92-1-4.05-2.59S103.54,398.16,105.64,398Z" style="fill:#263238"></path><path d="M105.64,398c2.1-.17,3.91,1,4,2.59s-1.47,3.05-3.57,3.22-3.92-1-4.05-2.59S103.54,398.16,105.64,398Z" style="fill:#fff;opacity:0.6000000000000001"></path><path d="M105.79,399.8a1.3,1.3,0,0,1,1.51,1c0,.6-.55,1.13-1.33,1.2a1.29,1.29,0,0,1-1.51-1C104.41,400.4,105,399.87,105.79,399.8Z" style="opacity:0.2;isolation:isolate"></path><path d="M95.78,342.5c-.32,1.54-1.53,2.6-2.71,2.35s-1.87-1.69-1.55-3.24,1.53-2.59,2.71-2.35S96.1,341,95.78,342.5Z" style="fill:#263238"></path><path d="M95.78,342.5c-.32,1.54-1.53,2.6-2.71,2.35s-1.87-1.69-1.55-3.24,1.53-2.59,2.71-2.35S96.1,341,95.78,342.5Z" style="fill:#fff;opacity:0.6000000000000001"></path><path d="M94.44,342.22c-.12.58-.57,1-1,.88a1,1,0,0,1-.58-1.21c.12-.57.58-1,1-.88A1,1,0,0,1,94.44,342.22Z" style="opacity:0.2;isolation:isolate"></path><path d="M92.42,334.43c.66,1.3.38,2.76-.61,3.26s-2.33-.15-3-1.45-.39-2.76.6-3.26S91.76,333.13,92.42,334.43Z" style="fill:#263238"></path><path d="M92.42,334.43c.66,1.3.38,2.76-.61,3.26s-2.33-.15-3-1.45-.39-2.76.6-3.26S91.76,333.13,92.42,334.43Z" style="fill:#fff;opacity:0.6000000000000001"></path><path d="M91.29,335a.88.88,0,0,1-.22,1.21.89.89,0,0,1-1.12-.54.78.78,0,1,1,1.34-.67Z" style="opacity:0.2;isolation:isolate"></path><path d="M85.23,330.49a1.56,1.56,0,1,1-2.42.54A1.78,1.78,0,0,1,85.23,330.49Z" style="fill:#263238"></path><path d="M85.23,330.49a1.56,1.56,0,1,1-2.42.54A1.78,1.78,0,0,1,85.23,330.49Z" style="fill:#fff;opacity:0.6000000000000001"></path><path d="M84.83,331.34a.58.58,0,1,1-.47,1,.66.66,0,0,1-.43-.81A.66.66,0,0,1,84.83,331.34Z" style="opacity:0.2;isolation:isolate"></path><path d="M96.72,415.4c-2.71-2.41-.94-4.53,0-6.09s-.86-1.4-1.44-3.12.66-3.69,2.53-1.61,3.74,4.11,3.59.76-1.25-8.35.93-6,1.48,4.84,3.55,3.9,1.59-5.19,2.69-5.21-.16,4.44,1.87,4.59,3.7-.16,3.88-2.89,3.76-6.46,4.54-2.49,1.87,8.33,4.06,5,4.66-3.2,3.73,0,2,6.32,4.69,4.14,6.33.47,3.33,2.18-2.55.94-1.46,3.9-5.77,3.75-5.77,3.75Z" style="fill:#59C983"></path><path d="M96.72,415.4c-2.71-2.41-.94-4.53,0-6.09s-.86-1.4-1.44-3.12.66-3.69,2.53-1.61,3.74,4.11,3.59.76-1.25-8.35.93-6,1.48,4.84,3.55,3.9,1.59-5.19,2.69-5.21-.16,4.44,1.87,4.59,3.7-.16,3.88-2.89,3.76-6.46,4.54-2.49,1.87,8.33,4.06,5,4.66-3.2,3.73,0,2,6.32,4.69,4.14,6.33.47,3.33,2.18-2.55.94-1.46,3.9-5.77,3.75-5.77,3.75Z" style="fill:#fff;opacity:0.2"></path><path d="M120.11,388.14s-3.74-9.78-3.12-11,.49-3.3-.07-3.26-1.33-.06-1.18,1.47.74,4,0,3.95-1.85-2.44-2.63-3.52-.46-3.42-1.56-3.57a1.21,1.21,0,0,0-1.4.62,23.1,23.1,0,0,0,1.4,2.52c.47.6,2.34,3.24,2.34,3.95s-1.09.69-2.34,0-2.34-2.52-3-2.16-1.72,1.92-.78,2.16,2.65-.5,3.74.88a27.21,27.21,0,0,0,2.24,2.48,2.07,2.07,0,0,1-2.86.15,7.19,7.19,0,0,0-3.48-1.4s-3.49,2.65,0,2a4.88,4.88,0,0,1,5,1.57,26.23,26.23,0,0,1,3.17,3.11,14.74,14.74,0,0,1,1.25,1.87Z" style="fill:#59C983"></path><path d="M132.11,412.08s5.76-11,0-16.17-8.88-7.1-8.26-10.49,2.19-6.95-5.3-4.24-10,7.67-10,7.67S112,391.49,112,393s2.81,8.61,4.68,11-2.86,8.67-.49,10S132.11,412.08,132.11,412.08Z" style="fill:#59C983"></path><path d="M132.11,412.08s5.76-11,0-16.17-8.88-7.1-8.26-10.49,2.19-6.95-5.3-4.24-10,7.67-10,7.67S112,391.49,112,393s2.81,8.61,4.68,11-2.86,8.67-.49,10S132.11,412.08,132.11,412.08Z" style="fill:#fff;opacity:0.4"></path><path d="M208.54,413.67s3.36-6.37,0-12-7.72-7.76-3.76-13.77-6.46-7.4-7.44-13.06,4.84-6.13,0-11.27-7.79-11.88-2.85-16.42c0,0-9.49,5.69-7.12,9s3.56,7.08,2,8.84-7.09,10.61-2.36,13.76,4.93,10.36,2.16,15.1.59,8.71,4.35,10.49,3,12.38,3,12.38Z" style="fill:#59C983"></path><path d="M208.54,413.67s3.36-6.37,0-12-7.72-7.76-3.76-13.77-6.46-7.4-7.44-13.06,4.84-6.13,0-11.27-7.79-11.88-2.85-16.42c0,0-9.49,5.69-7.12,9s3.56,7.08,2,8.84-7.09,10.61-2.36,13.76,4.93,10.36,2.16,15.1.59,8.71,4.35,10.49,3,12.38,3,12.38Z" style="fill:#fff;opacity:0.2"></path><path d="M203.59,413.67a14.22,14.22,0,0,0,.86-7,7.34,7.34,0,0,0-1.24-3.21,3.46,3.46,0,0,0-.53-.68c-.19-.21-.36-.42-.59-.65a10.07,10.07,0,0,1-1.18-1.43,13.27,13.27,0,0,1-2.2-7c-.12-2.46.38-4.87-.1-7.09a6.92,6.92,0,0,0-1.42-3c-.71-.85-1.65-1.71-2.43-2.63a13.18,13.18,0,0,1-2.1-3.06,6.92,6.92,0,0,1-.67-3.69,19.42,19.42,0,0,1,.75-3.58,22,22,0,0,0,.6-3.49,14.07,14.07,0,0,0-1.1-7,13.63,13.63,0,0,1,1.59,7,22.89,22.89,0,0,1-.47,3.6,19.13,19.13,0,0,0-.61,3.48,6.92,6.92,0,0,0,.7,3.29,11.75,11.75,0,0,0,2,2.82c.4.44.81.86,1.23,1.29l.63.64.63.7a7.83,7.83,0,0,1,1.66,3.41c.49,2.52-.07,4.93,0,7.26a13.26,13.26,0,0,0,1.92,6.61,10.69,10.69,0,0,0,1.05,1.38c.2.2.4.46.6.69a4.08,4.08,0,0,1,.55.76,8,8,0,0,1,1.2,3.49A14,14,0,0,1,203.59,413.67Z" style="fill:#59C983"></path><path d="M215.21,415.09s9.42-5,7.78-9.19-8.25-6.92-3.17-11.28,6.57-4.54,4.94-9.49-7-7.71-1.77-10.68,2.4-9.5,2.4-9.5,0,4.36-2.4,4.95-9.24,3.64-6.34,8.5-6.56,7.52-6.67,12.66,7,9.78,3.25,12-5.69,9-4.33,11.09S215.21,415.09,215.21,415.09Z" style="fill:#59C983"></path><path d="M215.21,415.09s9.42-5,7.78-9.19-8.25-6.92-3.17-11.28,6.57-4.54,4.94-9.49-7-7.71-1.77-10.68,2.4-9.5,2.4-9.5,0,4.36-2.4,4.95-9.24,3.64-6.34,8.5-6.56,7.52-6.67,12.66,7,9.78,3.25,12-5.69,9-4.33,11.09S215.21,415.09,215.21,415.09Z" style="fill:#fff;opacity:0.30000000000000004"></path><path d="M213.82,413a11,11,0,0,0,3.57-4.25,6.17,6.17,0,0,0,.57-2.63,7.79,7.79,0,0,0-.64-2.63c-.67-1.75-1.49-3.44-2.22-5.22a13.56,13.56,0,0,1-.84-2.82,5.44,5.44,0,0,1,.34-3.05c.92-1.9,2.61-3.06,4-4.28A4.49,4.49,0,0,0,220,386a6.44,6.44,0,0,0,.06-2.63c-.29-1.86-.74-3.71-.87-5.64a5.54,5.54,0,0,1,.5-2.86,3.69,3.69,0,0,1,2.21-1.76,3.74,3.74,0,0,0-2,1.88,5.15,5.15,0,0,0-.25,2.7c.22,1.85.75,3.68,1.13,5.54a6.34,6.34,0,0,1,0,3,5.37,5.37,0,0,1-1.62,2.56c-.71.69-1.45,1.26-2.1,1.91a7.82,7.82,0,0,0-1.57,2.12c-.73,1.55-.22,3.43.44,5.14s1.52,3.46,2.09,5.29a8.72,8.72,0,0,1,.55,2.89,6.83,6.83,0,0,1-.76,2.85A10.7,10.7,0,0,1,213.82,413Z" style="fill:#59C983"></path><path d="M201.9,412.52s2.18-10.88-5.34-11.14-13.84,1.37-13.25-3.89,0-9.54-4.15-9.93-8.11-3.25-7.52-5.33-7.12-4.49-7.12-4.49,4.55,2.61,4.35,5.78.79,5.75,5.74,8.12,0,6.52,2.37,11.26,5.37,4.55,11,5.34a8.16,8.16,0,0,1,6.81,5.89Z" style="fill:#59C983"></path><path d="M201.9,412.52s2.18-10.88-5.34-11.14-13.84,1.37-13.25-3.89,0-9.54-4.15-9.93-8.11-3.25-7.52-5.33-7.12-4.49-7.12-4.49,4.55,2.61,4.35,5.78.79,5.75,5.74,8.12,0,6.52,2.37,11.26,5.37,4.55,11,5.34a8.16,8.16,0,0,1,6.81,5.89Z" style="fill:#fff;opacity:0.30000000000000004"></path><path d="M197.67,411.08a3.71,3.71,0,0,0,.63-2.64,3.27,3.27,0,0,0-1.58-2.08,13,13,0,0,0-5.24-1.64,45.58,45.58,0,0,0-5.62-.13,10.39,10.39,0,0,1-3-.3c-.25-.1-.5-.2-.75-.32a5.31,5.31,0,0,1-.66-.48,4,4,0,0,1-.53-.64,6.8,6.8,0,0,1-.38-.7,25.31,25.31,0,0,1-1-5.73,27.21,27.21,0,0,0-.78-5.51,3.38,3.38,0,0,0-1.51-2,8.39,8.39,0,0,0-2.61-.81,7.6,7.6,0,0,1-2.72-1,2.8,2.8,0,0,1-.94-1.11c-.09-.23-.15-.46-.22-.69l-.08-.71a3,3,0,0,0,1.39,2.29,7.33,7.33,0,0,0,2.66.71,8.54,8.54,0,0,1,2.82.74,4.09,4.09,0,0,1,1.94,2.31,23.62,23.62,0,0,1,1,5.68c.09.94.19,1.87.34,2.79a15.82,15.82,0,0,0,.62,2.65,2.61,2.61,0,0,0,1.69,1.61,9.55,9.55,0,0,0,2.67.3,34.37,34.37,0,0,1,5.71.29,13.27,13.27,0,0,1,5.42,2,3.32,3.32,0,0,1,.67,5.12Z" style="fill:#59C983"></path><path d="M139.14,413.1s-8.17-8.78-10.54-9.2-8,4.43-12.94,3.26-16.93,5.94-16.93,5.94Z" style="fill:#59C983"></path><path d="M139.14,413.1s-8.17-8.78-10.54-9.2-8,4.43-12.94,3.26-16.93,5.94-16.93,5.94Z" style="fill:#fff;opacity:0.6000000000000001"></path><path d="M151.33,382.87s3.75-10.42,3.12-11.69-.48-3.51.07-3.47,1.34-.07,1.18,1.57-.74,4.27,0,4.2,1.85-2.6,2.63-3.75.47-3.63,1.56-3.8a1.2,1.2,0,0,1,1.4.66,24.31,24.31,0,0,1-1.4,2.69c-.47.63-2.34,3.44-2.34,4.2s1.09.74,2.34,0,2.34-2.69,3-2.3,1.72,2,.78,2.3-2.65-.53-3.74.94a28,28,0,0,1-2.23,2.63,2,2,0,0,0,2.85.17,6.84,6.84,0,0,1,3.49-1.49s3.48,2.82,0,2.15a4.77,4.77,0,0,0-5,1.68,26.5,26.5,0,0,0-3.16,3.31,14.41,14.41,0,0,0-1.25,2Z" style="fill:#59C983"></path><path d="M143.5,415.55s7.18-2.72,7.8-8.47,1.82-13.46,7.15-16.74,8.45-4.75,4.39-8.17-15.59-7.69-18.09-5.22,1.87,3.12-1.25,6.78-4.24,11.55-9.76,15.9-4.58,15.92-4.58,15.92Z" style="fill:#59C983"></path><path d="M143.5,415.55s7.18-2.72,7.8-8.47,1.82-13.46,7.15-16.74,8.45-4.75,4.39-8.17-15.59-7.69-18.09-5.22,1.87,3.12-1.25,6.78-4.24,11.55-9.76,15.9-4.58,15.92-4.58,15.92Z" style="fill:#fff;opacity:0.30000000000000004"></path><path d="M190.58,411.91s.47-3.53-2.34-3.38-4.83-1.09-3.74-3.27,1.56-6.55-1.56-5.93-1.25,3.95-2,4.62-3.36,2.29-3.94,0,.82-8.24-2.61-7.29-1.71,3.76-1.87,4.7-4.74,4.37-6.35,1.4-2.07-4.05-3.16-4.36-.16-1.72,0-3.44-1.56-1.65-2.34,0-.16,2.5-2.5,2.66-3.27-1.41-3.27-2.19.93-3.65-1.56-2.91-3.28.57-1.72,3.07,1.86,3.43-1.33,4.36-5.22,2.55-4.44,4-2.49,3.49-3.43,1.62-.31-4.33-2-3.42-3,2.17-1.25,3.26,3.12,2.81,1.71,3.43,1.14.27-2.53-.62-6,1.14-2.27,2.13,1.06,2.49-1,3.38-1.56,1.82-1.56,1.82h53.34Z" style="fill:#59C983"></path><path d="M190.58,411.91s.47-3.53-2.34-3.38-4.83-1.09-3.74-3.27,1.56-6.55-1.56-5.93-1.25,3.95-2,4.62-3.36,2.29-3.94,0,.82-8.24-2.61-7.29-1.71,3.76-1.87,4.7-4.74,4.37-6.35,1.4-2.07-4.05-3.16-4.36-.16-1.72,0-3.44-1.56-1.65-2.34,0-.16,2.5-2.5,2.66-3.27-1.41-3.27-2.19.93-3.65-1.56-2.91-3.28.57-1.72,3.07,1.86,3.43-1.33,4.36-5.22,2.55-4.44,4-2.49,3.49-3.43,1.62-.31-4.33-2-3.42-3,2.17-1.25,3.26,3.12,2.81,1.71,3.43,1.14.27-2.53-.62-6,1.14-2.27,2.13,1.06,2.49-1,3.38-1.56,1.82-1.56,1.82h53.34Z" style="fill:#fff;opacity:0.1"></path><path d="M80.23,417.18h172a40.69,40.69,0,0,0-18.88-5.08c-10.75-.12-12.94,1.38-18.57,1.38s-14.13-7.18-19.77-7.11-6.65,5.73-17,5.73-14.93,3-27.88,3-17.22-4.52-23.59-4.61-9.78,3.86-17.85,3.86-10.21-1-18.75-.87S80.23,417.18,80.23,417.18Z" style="fill:#59C983"></path><path d="M80.23,417.18h172a40.69,40.69,0,0,0-18.88-5.08c-10.75-.12-12.94,1.38-18.57,1.38s-14.13-7.18-19.77-7.11-6.65,5.73-17,5.73-14.93,3-27.88,3-17.22-4.52-23.59-4.61-9.78,3.86-17.85,3.86-10.21-1-18.75-.87S80.23,417.18,80.23,417.18Z" style="fill:#fff;opacity:0.6000000000000001"></path></g><g id="freepik--Plant--inject-40"><path d="M308.43,413.53c-.8,3-4,.08-4.64,1.73h22.39l11.34-3.88-1-2.9c-2.32.19-4.24,0-5-1.29-2.18-3.68-.13-6.53-3.38-10.39s-4.2,6.83-9.3,6.52c-4.75-.3-.14-15.61-6-17.09-4.67-1.17-2.63,10-2.86,13.78s-4.52-8.62-8.12-7.36c-3,1-2.09,6.85,3,11.89C310.1,409.86,308.43,413.53,308.43,413.53Z" style="fill:#59C983"></path><path d="M308.43,413.53c-.8,3-4,.08-4.64,1.73h22.39l11.34-3.88-1-2.9c-2.32.19-4.24,0-5-1.29-2.18-3.68-.13-6.53-3.38-10.39s-4.2,6.83-9.3,6.52c-4.75-.3-.14-15.61-6-17.09-4.67-1.17-2.63,10-2.86,13.78s-4.52-8.62-8.12-7.36c-3,1-2.09,6.85,3,11.89C310.1,409.86,308.43,413.53,308.43,413.53Z" style="fill:#fff;opacity:0.30000000000000004"></path><path d="M386,413.72c-.32-1.56-.35-3.78,1.44-5.2,2.95-2.36,15.38,2.14,17.34-1.72s-.31-6.51,2.67-10.58,4.65,6.53,9.72,5.87c4.72-.61-.91-15.59,4.88-17.45,4.58-1.48,3.31,9.8,3.78,13.56s3.94-8.92,7.62-7.9c3,.84,2.54,6.69-2.16,12.06-4.95,5.67-3.05,9.22-3.05,9.22,1.12,3.25,4.74-1,4.92,2.16a6.05,6.05,0,0,1-.15,2Z" style="fill:#59C983"></path><path d="M386,413.72c-.32-1.56-.35-3.78,1.44-5.2,2.95-2.36,15.38,2.14,17.34-1.72s-.31-6.51,2.67-10.58,4.65,6.53,9.72,5.87c4.72-.61-.91-15.59,4.88-17.45,4.58-1.48,3.31,9.8,3.78,13.56s3.94-8.92,7.62-7.9c3,.84,2.54,6.69-2.16,12.06-4.95,5.67-3.05,9.22-3.05,9.22,1.12,3.25,4.74-1,4.92,2.16a6.05,6.05,0,0,1-.15,2Z" style="fill:#fff;opacity:0.30000000000000004"></path><path d="M357.83,403.3l-.58-.09a3,3,0,0,0-.4-.77c-.8-1.09-1.59-.82-3.2-.42l-.31-.35-.15.46c-.23.05-.46.11-.71.15a28.24,28.24,0,0,0-4.18,1.47l-.21-.34-.17.49a4.36,4.36,0,0,1-2.48.41c-1.21-.41-.93-1.36-1.22-2.71l.31-.39-.43-.07a1.59,1.59,0,0,0-.07-.2c-.6-1.7.44-2.64,2-3.13a2.86,2.86,0,0,0,.41-.19l.74.11,0-.63a22.05,22.05,0,0,0,4-4.37h0l.62-.22-.07-.64a7.9,7.9,0,0,0,.81-1.72c.49-1.67.23-2.57-.53-3.1l.06-.64-.79.28a5.6,5.6,0,0,0-.92-.24c-.61-.13-1,.23-1.19.84l-.34,0,.1.89c-.3,1.3-.45,3-1.27,3.9l-.71.08.06.56a9.55,9.55,0,0,1-3.29,1.95l-.63-.47-.21.63a1.89,1.89,0,0,1-1-.18c-.75-.43-1.21-2.3-1.51-4.09l.4-.77-.54-.2c-.15-1.13-.23-2.1-.27-2.46a8.45,8.45,0,0,1,.37-2.81l.81-.09-.43-1a5.45,5.45,0,0,1,.58-1,10.56,10.56,0,0,0,1.27-3.26l.46-.17-.28-.7a8.38,8.38,0,0,0,.08-3.29l.56-.62-.91-.23a1.7,1.7,0,0,0-.38-.42,1.25,1.25,0,0,0-1.17-.25l-.42-.5-.09.8a5.61,5.61,0,0,0-1.29,2.39l-.59.24.38.5a9.46,9.46,0,0,0-.22,1,7.94,7.94,0,0,1-.66,2,1.09,1.09,0,0,1-.56-.18c-.1-.1.07.35.23.78-.63,1-1.52,1.59-2.54.83a12.08,12.08,0,0,1-1.65-1.64l-.06-.49-.34,0a19.77,19.77,0,0,0-2.16-2.24l0-.92-.82.3h0a6.7,6.7,0,0,0-1.5-.79l-.69-.78-.34.53a2,2,0,0,0-2.21,2.94l-.4.4.71.21a5.85,5.85,0,0,0,.88,1.07,26.18,26.18,0,0,0,3.71,2.76l.09.64h.82a7.73,7.73,0,0,1,3,3.79c.07.19.13.37.2.55l-.36.51.7.35c.86,2.09,1.78,3.7,1.6,5l-.2.63-.15.22-1,.1.2.61c-1.62,1.16-2.31.47-3.47.13l-.38-.12-.44-.84-.72.47a31.81,31.81,0,0,0-3.77-1l-.55-.74-.31.64a2,2,0,0,0-.51,0c-1,.18-1.54,1.45-.82,2.7l-.17.36.45,0a4,4,0,0,0,1,.87,14.72,14.72,0,0,0,4.16,1.51l.78.91.83-.55a25.91,25.91,0,0,1,3.06.72c1.24.48,3.14,2.44,4.43,4.35l-.36.89,1.11.35a22.13,22.13,0,0,1,1.49,4.65l-.34.43.43,1.19.25,0c.17.84.26,1.41.26,1.41l6-.51a13.7,13.7,0,0,1-.95-2l.4-.43-.71-.5a2.46,2.46,0,0,1,.18-2.19,6.88,6.88,0,0,1,.51-.54l.36.19v-.47c.72-.48,1.49-.49,3.3-1a8.36,8.36,0,0,1,2-.35l.55.52.24-.48c.56.08,1.12.23,2,.33,1.51.16,2-1.08,1.74-2.27Z" style="fill:#59C983"></path><path d="M334.64,397.64a.6.6,0,1,1-1.19.13.6.6,0,1,1,1.19-.13Z" style="fill:#fff;opacity:0.2"></path><path d="M327.71,394.84a.6.6,0,1,1-.66-.53A.59.59,0,0,1,327.71,394.84Z" style="fill:#fff;opacity:0.2"></path><path d="M330.9,398.05a.6.6,0,1,1-.66-.53A.59.59,0,0,1,330.9,398.05Z" style="fill:#fff;opacity:0.2"></path><path d="M339.43,388.07a.61.61,0,0,1-.54.66.6.6,0,0,1-.66-.53.61.61,0,0,1,.53-.67A.62.62,0,0,1,339.43,388.07Z" style="fill:#fff;opacity:0.2"></path><path d="M344.15,397.76a.6.6,0,1,1-.67-.53A.61.61,0,0,1,344.15,397.76Z" style="fill:#fff;opacity:0.2"></path><path d="M351.34,388a.6.6,0,1,1-.66-.53A.59.59,0,0,1,351.34,388Z" style="fill:#fff;opacity:0.2"></path><path d="M349.59,393.63a.61.61,0,0,1-.54.66.6.6,0,0,1-.13-1.19A.61.61,0,0,1,349.59,393.63Z" style="fill:#fff;opacity:0.2"></path><path d="M342.35,376a.61.61,0,0,1-.54.66.6.6,0,0,1-.13-1.19A.61.61,0,0,1,342.35,376Z" style="fill:#fff;opacity:0.2"></path><path d="M340.27,379.26a.6.6,0,0,1-.53.66.61.61,0,0,1-.67-.53.59.59,0,0,1,.53-.66A.61.61,0,0,1,340.27,379.26Z" style="fill:#fff;opacity:0.2"></path><path d="M340.08,383.08a.6.6,0,1,1-.66-.53A.6.6,0,0,1,340.08,383.08Z" style="fill:#fff;opacity:0.2"></path><path d="M337.38,384.59a.6.6,0,1,1-1.19.13.6.6,0,0,1,1.19-.13Z" style="fill:#fff;opacity:0.2"></path><path d="M333.75,381.24a.61.61,0,0,1-.54.66.6.6,0,0,1-.66-.53.61.61,0,0,1,.53-.67A.62.62,0,0,1,333.75,381.24Z" style="fill:#fff;opacity:0.2"></path><path d="M329.49,379.85a.6.6,0,1,1-1.19.13.6.6,0,1,1,1.19-.13Z" style="fill:#fff;opacity:0.2"></path><path d="M328.21,376.44a.59.59,0,0,1-.53.66.61.61,0,0,1-.67-.53.6.6,0,0,1,1.2-.13Z" style="fill:#fff;opacity:0.2"></path><path d="M342.12,401.48a.6.6,0,0,1-.53.66.61.61,0,0,1-.67-.53.6.6,0,0,1,.53-.66A.61.61,0,0,1,342.12,401.48Z" style="fill:#fff;opacity:0.2"></path><path d="M342.08,406.7a.61.61,0,0,1-.53.67.61.61,0,0,1-.67-.53.62.62,0,0,1,.54-.67A.6.6,0,0,1,342.08,406.7Z" style="fill:#fff;opacity:0.2"></path><path d="M346.29,406.24a.6.6,0,1,1-.66-.53A.6.6,0,0,1,346.29,406.24Z" style="fill:#fff;opacity:0.2"></path><path d="M351.9,403.59a.61.61,0,0,1-.53.67.62.62,0,0,1-.67-.54.6.6,0,0,1,.53-.66A.61.61,0,0,1,351.9,403.59Z" style="fill:#fff;opacity:0.2"></path><path d="M356.68,404.48a.61.61,0,0,1-.53.67.61.61,0,0,1-.67-.53A.62.62,0,0,1,356,404,.6.6,0,0,1,356.68,404.48Z" style="fill:#fff;opacity:0.2"></path><path d="M344.86,409.65a.6.6,0,1,1-.67-.53A.61.61,0,0,1,344.86,409.65Z" style="fill:#fff;opacity:0.2"></path><path d="M338.19,391.87a.6.6,0,1,1-.67-.53A.6.6,0,0,1,338.19,391.87Z" style="fill:#fff;opacity:0.2"></path><path d="M340.87,395.64a.6.6,0,0,1-1.2.13.61.61,0,0,1,.53-.67A.62.62,0,0,1,340.87,395.64Z" style="fill:#fff;opacity:0.2"></path><path d="M338.37,399a.6.6,0,1,1-.66-.53A.59.59,0,0,1,338.37,399Z" style="fill:#fff;opacity:0.2"></path><path d="M371.74,407.16s-3.37-6.37,0-12,7.71-7.76,3.76-13.77,6.46-7.39,7.43-13.05-4.83-6.14,0-11.28,7.8-11.88,2.85-16.42c0,0,9.5,5.69,7.12,9s-3.56,7.08-2,8.84,7.1,10.61,2.36,13.76-4.93,10.36-2.16,15.1-.59,8.71-4.35,10.49-3,12.38-3,12.38Z" style="fill:#59C983"></path><path d="M371.74,407.16s-3.37-6.37,0-12,7.71-7.76,3.76-13.77,6.46-7.39,7.43-13.05-4.83-6.14,0-11.28,7.8-11.88,2.85-16.42c0,0,9.5,5.69,7.12,9s-3.56,7.08-2,8.84,7.1,10.61,2.36,13.76-4.93,10.36-2.16,15.1-.59,8.71-4.35,10.49-3,12.38-3,12.38Z" style="fill:#fff;opacity:0.2"></path><path d="M376.68,407.16a13.87,13.87,0,0,1-1.34-7.06,8,8,0,0,1,1.19-3.49,5.06,5.06,0,0,1,.55-.76c.2-.23.41-.49.6-.69a10,10,0,0,0,1.05-1.38,13.37,13.37,0,0,0,1.93-6.61c.1-2.32-.46-4.74,0-7.26a7.79,7.79,0,0,1,1.67-3.41l.63-.7.63-.64c.41-.43.83-.85,1.22-1.29a12.08,12.08,0,0,0,2-2.82,7,7,0,0,0,.69-3.29,19.09,19.09,0,0,0-.6-3.48,21.78,21.78,0,0,1-.48-3.6,13.54,13.54,0,0,1,1.6-7,14,14,0,0,0-1.11,7,23.28,23.28,0,0,0,.6,3.5,19.14,19.14,0,0,1,.76,3.57,8.56,8.56,0,0,1-.09,1.89,8.16,8.16,0,0,1-.59,1.81,12.53,12.53,0,0,1-2.1,3.05c-.78.92-1.72,1.78-2.42,2.63a6.93,6.93,0,0,0-1.43,3c-.48,2.22,0,4.63-.1,7.09a13.35,13.35,0,0,1-2.19,7,11.58,11.58,0,0,1-1.18,1.44c-.23.22-.4.43-.6.64a3.46,3.46,0,0,0-.53.68,7.59,7.59,0,0,0-1.24,3.21A14.46,14.46,0,0,0,376.68,407.16Z" style="fill:#59C983"></path><path d="M370.53,412.77s-10.18-3.23-9.33-7.61,6.84-8.32,1.05-11.66-7.29-3.27-6.59-8.43,5.51-8.88-.22-10.83-4.1-8.89-4.1-8.89.77,4.28,3.27,4.42,9.75,1.88,7.79,7.2,7.83,6.19,8.88,11.22-5.11,10.89-1,12.38,7.25,7.85,6.29,10.11S370.53,412.77,370.53,412.77Z" style="fill:#59C983"></path><path d="M370.53,412.77s-10.18-3.23-9.33-7.61,6.84-8.32,1.05-11.66-7.29-3.27-6.59-8.43,5.51-8.88-.22-10.83-4.1-8.89-4.1-8.89.77,4.28,3.27,4.42,9.75,1.88,7.79,7.2,7.83,6.19,8.88,11.22-5.11,10.89-1,12.38,7.25,7.85,6.29,10.11S370.53,412.77,370.53,412.77Z" style="fill:#fff;opacity:0.30000000000000004"></path><path d="M371.51,410.44a10.78,10.78,0,0,1-4.68-3.24,6.61,6.61,0,0,1-1.26-2.66,8.54,8.54,0,0,1,0-2.94c.23-1.91.76-3.75,1.09-5.58s.49-3.74-.51-5.13a7.75,7.75,0,0,0-1.93-1.8c-.75-.52-1.59-.95-2.41-1.49a5.38,5.38,0,0,1-2.07-2.23,6.6,6.6,0,0,1-.53-2.95c0-1.9.22-3.8.1-5.65a5.11,5.11,0,0,0-.74-2.61,3.75,3.75,0,0,0-2.28-1.49,3.72,3.72,0,0,1,2.5,1.33,5.5,5.5,0,0,1,1,2.72c.24,1.92.13,3.82.19,5.7a6.47,6.47,0,0,0,.54,2.58,4.53,4.53,0,0,0,1.78,1.83c1.55,1,3.42,1.79,4.68,3.49a5.41,5.41,0,0,1,.88,2.94,13.49,13.49,0,0,1-.31,2.93c-.39,1.88-.88,3.7-1.22,5.53a7.57,7.57,0,0,0-.14,2.71,6.07,6.07,0,0,0,1,2.48A11.23,11.23,0,0,0,371.51,410.44Z" style="fill:#59C983"></path><path d="M383,414.36s-4.3-10.23,3-12,13.84-1.42,12.21-6.46-1.89-9.34,2.1-10.55,7.3-4.8,6.31-6.72,6.08-5.81,6.08-5.81-3.94,3.46-3.11,6.53.36,5.79-4,9.09,1.29,6.39-.09,11.51-4.36,5.53-9.71,7.42a8.17,8.17,0,0,0-5.5,7.13Z" style="fill:#59C983"></path><path d="M383,414.36s-4.3-10.23,3-12,13.84-1.42,12.21-6.46-1.89-9.34,2.1-10.55,7.3-4.8,6.31-6.72,6.08-5.81,6.08-5.81-3.94,3.46-3.11,6.53.36,5.79-4,9.09,1.29,6.39-.09,11.51-4.36,5.53-9.71,7.42a8.17,8.17,0,0,0-5.5,7.13Z" style="fill:#fff;opacity:0.30000000000000004"></path><path d="M386.84,412.11a3.33,3.33,0,0,1-.36-5.15,13.34,13.34,0,0,1,4.91-3,34.52,34.52,0,0,1,5.55-1.42,9.38,9.38,0,0,0,2.56-.83,2.57,2.57,0,0,0,1.32-1.91,14.2,14.2,0,0,0,.08-2.71c0-.93-.12-1.87-.21-2.81a23,23,0,0,1-.19-5.76,4.09,4.09,0,0,1,1.44-2.65,8.87,8.87,0,0,1,2.62-1.29,7,7,0,0,0,2.46-1.22,3,3,0,0,0,.91-2.51l.06.71a5.71,5.71,0,0,1-.08.71,2.74,2.74,0,0,1-.7,1.28,7.56,7.56,0,0,1-2.47,1.49,8.65,8.65,0,0,0-2.4,1.31,3.44,3.44,0,0,0-1.08,2.29,26.28,26.28,0,0,0,.34,5.55,25.31,25.31,0,0,1,.2,5.8,7.49,7.49,0,0,1-.23.77,3.35,3.35,0,0,1-.95,1.33c-.21.17-.44.31-.66.46a10.23,10.23,0,0,1-2.84.88,45.82,45.82,0,0,0-5.47,1.25,13,13,0,0,0-4.82,2.64,3.26,3.26,0,0,0-1.13,2.36A3.68,3.68,0,0,0,386.84,412.11Z" style="fill:#59C983"></path><path d="M393.59,413.46s.47-3.54-2.34-3.38-4.83-1.09-3.74-3.27,1.56-6.55-1.56-5.93-1.25,3.94-2,4.62-3.36,2.29-3.94,0,.82-8.24-2.61-7.29-1.71,3.76-1.87,4.7-4.74,4.36-6.35,1.4-2.07-4.05-3.16-4.37-.16-1.71,0-3.43-1.56-1.65-2.34,0-.16,2.5-2.5,2.65-3.27-1.4-3.27-2.18.94-3.65-1.56-2.91-3.27.57-1.72,3.07,1.86,3.43-1.33,4.36-5.22,2.54-4.44,4-2.49,3.49-3.43,1.62-.31-4.34-2-3.42-3,2.17-1.25,3.26,3.12,2.81,1.71,3.43,1.14.27-2.53-.62-6,1.14-2.27,2.13,1.06,2.49-1,3.38-1.56,1.82-1.56,1.82h53.34Z" style="fill:#59C983"></path><path d="M393.59,413.46s.47-3.54-2.34-3.38-4.83-1.09-3.74-3.27,1.56-6.55-1.56-5.93-1.25,3.94-2,4.62-3.36,2.29-3.94,0,.82-8.24-2.61-7.29-1.71,3.76-1.87,4.7-4.74,4.36-6.35,1.4-2.07-4.05-3.16-4.37-.16-1.71,0-3.43-1.56-1.65-2.34,0-.16,2.5-2.5,2.65-3.27-1.4-3.27-2.18.94-3.65-1.56-2.91-3.27.57-1.72,3.07,1.86,3.43-1.33,4.36-5.22,2.54-4.44,4-2.49,3.49-3.43,1.62-.31-4.34-2-3.42-3,2.17-1.25,3.26,3.12,2.81,1.71,3.43,1.14.27-2.53-.62-6,1.14-2.27,2.13,1.06,2.49-1,3.38-1.56,1.82-1.56,1.82h53.34Z" style="fill:#fff;opacity:0.1"></path><path d="M435.34,417.1s-12.87-8.31-16.61-8.7-12.65,4.19-20.37,3.08-26.67,5.62-26.67,5.62Z" style="fill:#59C983"></path><path d="M435.34,417.1s-12.87-8.31-16.61-8.7-12.65,4.19-20.37,3.08-26.67,5.62-26.67,5.62Z" style="fill:#fff;opacity:0.6000000000000001"></path><path d="M352.94,417.1s-12.87-8.31-16.6-8.7-12.66,4.19-20.38,3.08-26.67,5.62-26.67,5.62Z" style="fill:#59C983"></path><path d="M352.94,417.1s-12.87-8.31-16.6-8.7-12.66,4.19-20.38,3.08-26.67,5.62-26.67,5.62Z" style="fill:#fff;opacity:0.6000000000000001"></path></g><g id="freepik--Seahorse--inject-40"><path d="M373.64,195.9l-8.12-.52s-3.18,8.67-10.48,10.74l2,3.15s7.33-2.76,9.17-2.76,4.53,2-1.53,6.89-5.36,14.4-3.15,19.4,12.85,6.15,12.63,12.53-1.57,11.4-9.54,9.48-4.29-10.29-.77-9.52c5.37,1.18,3.22,6,3.22,6,3.72.6,5.15-9.1-3.22-9.81s-10.35,9.65-6,14.41,13.23,7.86,18,2.42c5.4-6.19,1.94-17.55,4.29-24.56S379.63,199.13,373.64,195.9Z" style="fill:#263238"></path><path d="M373.64,195.9l-8.12-.52s-3.18,8.67-10.48,10.74l2,3.15s7.33-2.76,9.17-2.76,4.53,2-1.53,6.89-5.36,14.4-3.15,19.4,12.85,6.15,12.63,12.53-1.57,11.4-9.54,9.48-4.29-10.29-.77-9.52c5.37,1.18,3.22,6,3.22,6,3.72.6,5.15-9.1-3.22-9.81s-10.35,9.65-6,14.41,13.23,7.86,18,2.42c5.4-6.19,1.94-17.55,4.29-24.56S379.63,199.13,373.64,195.9Z" style="fill:#fff;opacity:0.4"></path><g style="opacity:0.4"><path d="M373.78,197.47a18.9,18.9,0,0,0-1.26,2.62c-.35.87-.68,1.67-1.1,2.62a4,4,0,0,0,2-2.25A5.34,5.34,0,0,0,373.78,197.47Z" style="fill:#fff"></path></g><path d="M376.92,203.37c-1,.56-1.85,1.14-2.74,1.66-.44.28-.89.52-1.34.8s-.93.49-1.42.81a5,5,0,0,0,3.27-.76A5.34,5.34,0,0,0,376.92,203.37Z" style="fill:#fff;opacity:0.4"></path><path d="M378,211.62c-1.34.06-2.57.23-3.81.35-.62.08-1.24.11-1.86.18s-1.26.06-1.93.13a6.63,6.63,0,0,0,3.89.68A7.79,7.79,0,0,0,378,211.62Z" style="fill:#fff;opacity:0.4"></path><path d="M378,218.3c-2.29-.33-4.55-.46-6.8-.65-1.12-.07-2.24-.19-3.36-.3a19.31,19.31,0,0,1-3.34-.58,9.17,9.17,0,0,0,3.21,1.34,20.79,20.79,0,0,0,3.42.53A26.39,26.39,0,0,0,378,218.3Z" style="fill:#fff;opacity:0.4"></path><path d="M378,224.59c-2.55,0-5,0-7.52-.08a36.6,36.6,0,0,1-7.42-.83,11.94,11.94,0,0,0,3.58,1.36,20.34,20.34,0,0,0,3.8.46A25,25,0,0,0,378,224.59Z" style="fill:#fff;opacity:0.4"></path><path d="M376.13,228.92a53.41,53.41,0,0,1-5.67,2.43,24.29,24.29,0,0,1-2.92.82,20.17,20.17,0,0,1-3.07.34,9.72,9.72,0,0,0,6.32-.22A13.84,13.84,0,0,0,376.13,228.92Z" style="fill:#fff;opacity:0.4"></path><path d="M378,234.91c-.89.61-1.6,1.26-2.36,1.83a10.13,10.13,0,0,1-2.49,1.48,3.38,3.38,0,0,0,3.09-.69A4.86,4.86,0,0,0,378,234.91Z" style="fill:#fff;opacity:0.4"></path><path d="M379.54,222.09l8-4.34s-1,3.57,0,4.88a7.51,7.51,0,0,0,3.15,2s-4.46,2-4.46,3.7a5.74,5.74,0,0,0,1.44,3.25l-8.12-4.46Z" style="fill:#263238"></path><path d="M379.54,222.09l8-4.34s-1,3.57,0,4.88a7.51,7.51,0,0,0,3.15,2s-4.46,2-4.46,3.7a5.74,5.74,0,0,0,1.44,3.25l-8.12-4.46Z" style="fill:#fff;opacity:0.6000000000000001"></path><path d="M366.68,201.2a1.11,1.11,0,0,1-2.21,0,1.11,1.11,0,1,1,2.21,0Z" style="fill:#263238"></path></g><g id="freepik--Character--inject-40"><path d="M285.34,298.27c4.1-3.74,12.47-3,15.05-9.27s.06-11,1.49-11.68,5,4.46,3.9,9.68c0,0,2.72-5.63,2.66-8.74,0,0,3.77,7.2.72,13.72a12.23,12.23,0,0,0,3.27-2.94c1.59-2,1.22,6.17-2,8.42,0,0,6.45,1.89-1.86,5.88S285.34,298.27,285.34,298.27Z" style="fill:#59C983"></path><path d="M285.34,298.27c4.1-3.74,12.47-3,15.05-9.27s.06-11,1.49-11.68,5,4.46,3.9,9.68c0,0,2.72-5.63,2.66-8.74,0,0,3.77,7.2.72,13.72a12.23,12.23,0,0,0,3.27-2.94c1.59-2,1.22,6.17-2,8.42,0,0,6.45,1.89-1.86,5.88S285.34,298.27,285.34,298.27Z" style="fill:#fff;opacity:0.6000000000000001"></path><path d="M326.4,242.27c-3.66-5.1-17.73-8-31.06-1.32s-28-.5-33.15-5.78c-3.79-3.9-8.89-10.77-8.47-15.83,0,0,1.82,5,6,3.64s16.85-1,20.62,2.62c0,0-6.09-4.66-13.46-4.59,0,0,6.44-3.22,15.73-1s12.37,4.45,14.94,3.47a25.71,25.71,0,0,1-9.85-4.95S300,222.7,311.17,222c0,0-6.6-2.88-8.72-9s-1.67-7.95-1.67-7.95,4.07,10.09,8.5,12.11c0,0-5.36-6.92-5.43-11.72s.11-14.87-3.39-17.18a12.25,12.25,0,0,1,9.41,6.69s-2-12.39-13.94-10.45a16.33,16.33,0,0,1,17.19-2.87c10.41,4,15.36,14.17,14.36,27.34s0,21.89,5.2,30.22S326.4,242.27,326.4,242.27Z" style="fill:#59C983"></path><path d="M326.4,242.27c-3.66-5.1-17.73-8-31.06-1.32s-28-.5-33.15-5.78c-3.79-3.9-8.89-10.77-8.47-15.83,0,0,1.82,5,6,3.64s16.85-1,20.62,2.62c0,0-6.09-4.66-13.46-4.59,0,0,6.44-3.22,15.73-1s12.37,4.45,14.94,3.47a25.71,25.71,0,0,1-9.85-4.95S300,222.7,311.17,222c0,0-6.6-2.88-8.72-9s-1.67-7.95-1.67-7.95,4.07,10.09,8.5,12.11c0,0-5.36-6.92-5.43-11.72s.11-14.87-3.39-17.18a12.25,12.25,0,0,1,9.41,6.69s-2-12.39-13.94-10.45a16.33,16.33,0,0,1,17.19-2.87c10.41,4,15.36,14.17,14.36,27.34s0,21.89,5.2,30.22S326.4,242.27,326.4,242.27Z" style="fill:#fff;opacity:0.6000000000000001"></path><path d="M203.08,286s14.26,34.84,40.42,44.71,70,17.82,91-13.8,7.9-65-1.86-77.68-19.18-14.86-19.18-14.86a100.93,100.93,0,0,0,9.2,12.21c9.78,11.44,16.73,34.24,9.9,51s-34.31,17.23-46.27,8.72S250.68,272.43,226,272.65,203.08,286,203.08,286Z" style="fill:#59C983"></path><path d="M203.08,286s14.26,34.84,40.42,44.71,70,17.82,91-13.8,7.9-65-1.86-77.68-19.18-14.86-19.18-14.86a100.93,100.93,0,0,0,9.2,12.21c9.78,11.44,16.73,34.24,9.9,51s-34.31,17.23-46.27,8.72S250.68,272.43,226,272.65,203.08,286,203.08,286Z" style="fill:#fff;opacity:0.2"></path><path d="M214.21,302.37a4.18,4.18,0,0,0,.81.86.53.53,0,0,0,.45.11.63.63,0,0,0,.26-.42,4.76,4.76,0,0,0,.15-1.27.28.28,0,0,1,0-.13.19.19,0,0,1,.28-.07h0a11.31,11.31,0,0,0,2,1.29,3.14,3.14,0,0,0,2.08.42,1.23,1.23,0,0,0,.74-.64,2.79,2.79,0,0,0,.35-1.1,6.45,6.45,0,0,0-.26-2.51.7.7,0,0,1,0-.32.41.41,0,0,1,.52-.3,18.57,18.57,0,0,0,1.9.66,4.94,4.94,0,0,0,1.87.21.91.91,0,0,0,.32-.11.41.41,0,0,0,.13-.22,1.83,1.83,0,0,0,0-.9,8,8,0,0,0-.79-2h0a.48.48,0,0,1-.06-.24.49.49,0,0,1,.39-.52c.62-.06,1.25-.15,1.87-.27a6.9,6.9,0,0,0,1.77-.56,2.24,2.24,0,0,0,.34-.23,1,1,0,0,0,.18-.28,2.23,2.23,0,0,0,0-.91,7.72,7.72,0,0,0-.59-2v0a.29.29,0,0,1,0-.1.34.34,0,0,1,.23-.38,16.38,16.38,0,0,0,1.79-.49,5,5,0,0,0,1.64-.82c.1-.12.17-.19.17-.33a1.68,1.68,0,0,0,0-.49,5.9,5.9,0,0,0-.32-1,17.71,17.71,0,0,0-.9-1.86,11.8,11.8,0,0,1,1.06,1.75,6.23,6.23,0,0,1,.41,1,2.15,2.15,0,0,1,.09.59,1,1,0,0,1-.07.35,2.53,2.53,0,0,1-.18.27,4.89,4.89,0,0,1-1.74,1c-.48.19-1,.36-1.46.5a7.76,7.76,0,0,1,.59,1.8,3,3,0,0,1-.05,1.33,2.67,2.67,0,0,1-.14.36c-.08.1-.16.22-.24.3a2.55,2.55,0,0,1-.49.36,7.52,7.52,0,0,1-1.95.7c-.43.09-.86.17-1.28.23a7.93,7.93,0,0,1,.57,1.62,3,3,0,0,1,0,1.5,1.44,1.44,0,0,1-.5.73,1.5,1.5,0,0,1-.65.26,5.37,5.37,0,0,1-2.18-.25c-.43-.12-.85-.27-1.27-.43a7.38,7.38,0,0,1,.05,2,2.7,2.7,0,0,1-1.71,2.4,3.58,3.58,0,0,1-2.42-.6,10.78,10.78,0,0,1-1.71-1.24,4.24,4.24,0,0,1-.22,1,1,1,0,0,1-.49.59.75.75,0,0,1-.63-.19,4.47,4.47,0,0,1-.79-1c-.21-.36-.41-.74-.59-1.13C213.74,301.69,214,302,214.21,302.37Z" style="fill:#59C983"></path><path d="M245.71,288.75a2,2,0,0,1-.56.39,4.38,4.38,0,0,1-1.05.33,9.93,9.93,0,0,1-1.32.17c.19.39.37.79.53,1.2a5.77,5.77,0,0,1,.46,2.29,1.63,1.63,0,0,1-.22.71,1.59,1.59,0,0,1-.44.48,3.11,3.11,0,0,1-1,.47,5.06,5.06,0,0,1-1.53.19,8.51,8.51,0,0,1,.28,1,4.2,4.2,0,0,1,.08,1.59,1,1,0,0,1-.46.68,1.85,1.85,0,0,1-.63.28,3,3,0,0,1-1.29,0,3.36,3.36,0,0,0,1.25-.22c.38-.16.83-.4.85-.84a3.5,3.5,0,0,0-.19-1.38,11.62,11.62,0,0,0-.47-1.33.32.32,0,0,1,0-.14.29.29,0,0,1,.25-.29h0a5.14,5.14,0,0,0,1.73-.28c.53-.19,1.09-.58,1-1a5.26,5.26,0,0,0-.45-1.84,19.44,19.44,0,0,0-.88-1.77.51.51,0,0,1-.07-.28.47.47,0,0,1,.42-.48,10.15,10.15,0,0,0,1.9-.22,3.41,3.41,0,0,0,.87-.28,1.36,1.36,0,0,0,.32-.21l.06-.08s0,0,0-.07A2.71,2.71,0,0,0,245,287c-.14-.31-.29-.63-.46-.94-.34-.62-.73-1.22-1.12-1.79a.54.54,0,0,1-.09-.22.49.49,0,0,1,.34-.55l.7-.16a4.46,4.46,0,0,0,.63-.28,1,1,0,0,0,.62-1,3,3,0,0,0-.51-1.4,7.82,7.82,0,0,0-.95-1.24h0a.3.3,0,0,1-.07-.27.25.25,0,0,1,.29-.22,4.42,4.42,0,0,0,1.2.13,1.25,1.25,0,0,0,1-.48,1.13,1.13,0,0,0-.2-1.2,4.7,4.7,0,0,0-.95-.94,3.89,3.89,0,0,1,1.06.81,1.84,1.84,0,0,1,.38.64,1.22,1.22,0,0,1,0,.86,1.67,1.67,0,0,1-1.24.78,3.63,3.63,0,0,1-.57,0,7.41,7.41,0,0,1,.55.68,3.87,3.87,0,0,1,.71,1.74,3.82,3.82,0,0,1,0,.58,3.29,3.29,0,0,1-.21.55c-.11.14-.22.3-.34.43l-.38.28a5.1,5.1,0,0,1-.78.38l-.12,0c.28.41.55.83.8,1.27a11.2,11.2,0,0,1,.52,1,3.27,3.27,0,0,1,.31,1.34,1.37,1.37,0,0,1-.11.5A1.34,1.34,0,0,1,245.71,288.75Z" style="fill:#59C983"></path><path d="M225.37,305.6a2.3,2.3,0,0,0,1.2-.14c.7-.27,1-1.35,1-2.26a7.21,7.21,0,0,0-.49-2.78.57.57,0,0,1,0-.26.44.44,0,0,1,.46-.42h0a17,17,0,0,0,2.48.17,5.49,5.49,0,0,0,2.32-.44c.61-.26.62-1.16.35-2a9.05,9.05,0,0,0-1.2-2.41v0a.46.46,0,0,1-.06-.31.37.37,0,0,1,.39-.35,6.59,6.59,0,0,0,1.83,0,2.52,2.52,0,0,0,1.64-.71,1.55,1.55,0,0,0,.38-.86,2,2,0,0,0-.19-1,5.14,5.14,0,0,0-1.21-1.63,4.3,4.3,0,0,1,1.42,1.48,2.27,2.27,0,0,1,.31,1.15,2,2,0,0,1-.4,1.2,3.08,3.08,0,0,1-1.89,1,7.2,7.2,0,0,1-1.22.12,9,9,0,0,1,1,1.92,4,4,0,0,1,.22,1.7,2.23,2.23,0,0,1-.31.93,1.45,1.45,0,0,1-.31.37,1.52,1.52,0,0,1-.35.25,5.47,5.47,0,0,1-2.69.55,17.71,17.71,0,0,1-1.93-.14,7.81,7.81,0,0,1,.23,2.47,4.89,4.89,0,0,1-.42,1.65,2.06,2.06,0,0,1-1.15,1.18,2.73,2.73,0,0,1-1.41.07,6,6,0,0,1-1.29-.39,12.63,12.63,0,0,1-2.35-1.32,16,16,0,0,0,2.45,1A6.86,6.86,0,0,0,225.37,305.6Z" style="fill:#59C983"></path><path d="M227.31,312.48a4.39,4.39,0,0,0,.4-2.09,15.18,15.18,0,0,0-.19-2.25.48.48,0,0,1,0-.31.37.37,0,0,1,.52-.21h0a9.78,9.78,0,0,0,2.27,1,2.59,2.59,0,0,0,2.18-.16,2.83,2.83,0,0,0,.83-2.29,10.44,10.44,0,0,0-.44-2.83v0a.37.37,0,0,1,0-.18.27.27,0,0,1,.32-.24,11.32,11.32,0,0,0,2.1.31,4.1,4.1,0,0,0,1.05-.08,1.22,1.22,0,0,0,.89-.64,1.35,1.35,0,0,1-.84.84,4,4,0,0,1-1.11.26,7.69,7.69,0,0,1-1.73,0,9.61,9.61,0,0,1,.5,2.55,5.81,5.81,0,0,1-.19,1.69,2.82,2.82,0,0,1-.94,1.47,3.12,3.12,0,0,1-2.83.31,9.55,9.55,0,0,1-1.79-.79,13.82,13.82,0,0,1,0,1.58,5,5,0,0,1-.68,2.45,1.73,1.73,0,0,1-1,.69,2.27,2.27,0,0,1-1.07,0,5,5,0,0,1-1.81-1,5.45,5.45,0,0,0,1.87.63A1.62,1.62,0,0,0,227.31,312.48Z" style="fill:#59C983"></path><path d="M343.35,278.25c-.1-.34-.36,0-.52.25l-.05,0s-.1,0-.12-.08h0a5.41,5.41,0,0,0-.31-.91,1.43,1.43,0,0,0-.48-.68.53.53,0,0,0-.59.22,2.33,2.33,0,0,0-.41.8.22.22,0,0,1-.09.12.17.17,0,0,1-.26-.07c-.12-.24-.26-.48-.4-.71a2.24,2.24,0,0,0-.47-.56c-.1-.05-.09-.05-.13,0a.54.54,0,0,0-.16.24,3.34,3.34,0,0,0-.17.8h0a.2.2,0,0,1,0,.11.19.19,0,0,1-.28.07,4,4,0,0,0-1.16-.74c-.11,0-.16,0-.21,0a.76.76,0,0,0-.18.23,3,3,0,0,0-.22.74v0l0,.05a.13.13,0,0,1-.19.06c-.19-.12-.38-.24-.58-.35a1.93,1.93,0,0,0-.61-.21c-.15,0-.23.34-.29.57s-.09.53-.12.8a7.58,7.58,0,0,1,0-.82,3.28,3.28,0,0,1,.08-.41.64.64,0,0,1,.09-.21.32.32,0,0,1,.2-.13,1.51,1.51,0,0,1,.71.16l.46.23a3.33,3.33,0,0,1,.18-.67,1,1,0,0,1,.29-.41.49.49,0,0,1,.47-.07,3.77,3.77,0,0,1,1,.58,3.25,3.25,0,0,1,.14-.58,1,1,0,0,1,.32-.48.37.37,0,0,1,.31-.09.52.52,0,0,1,.26.11,2.43,2.43,0,0,1,.56.69,4.36,4.36,0,0,1,.23.42,2.61,2.61,0,0,1,.36-.57.78.78,0,0,1,1-.26,1.77,1.77,0,0,1,.57.87,4.4,4.4,0,0,1,.22.81,1.1,1.1,0,0,1,.23-.2.27.27,0,0,1,.26,0c.1.05.12.16.15.24a3.16,3.16,0,0,1,0,1A3.84,3.84,0,0,0,343.35,278.25Z" style="fill:#59C983"></path><path d="M341.67,269.53c-.22-.1-.5.14-.68.39a2.88,2.88,0,0,0-.39.94.23.23,0,0,1-.06.12.17.17,0,0,1-.28,0h0a7.41,7.41,0,0,0-.65-.72,2.21,2.21,0,0,0-.71-.5c-.18-.08-.33.14-.43.47a3.81,3.81,0,0,0-.14,1v0a.35.35,0,0,1-.06.14.15.15,0,0,1-.24,0,3,3,0,0,0-.49-.51.84.84,0,0,0-.58-.24.51.51,0,0,0-.4.47,2.51,2.51,0,0,0,0,.82,2.12,2.12,0,0,1-.13-.84.75.75,0,0,1,.5-.71,1,1,0,0,1,.75.21,3.85,3.85,0,0,1,.3.27,4.19,4.19,0,0,1,.11-.78,1.42,1.42,0,0,1,.28-.6.59.59,0,0,1,.62-.21,2.09,2.09,0,0,1,.88.58c.17.17.31.36.46.54a2.77,2.77,0,0,1,.4-.76,1.63,1.63,0,0,1,.45-.38.63.63,0,0,1,.58,0,1.84,1.84,0,0,1,.7.86,7.73,7.73,0,0,1,.38,1,8.44,8.44,0,0,0-.52-.94A1.73,1.73,0,0,0,341.67,269.53Z" style="fill:#59C983"></path><path d="M336.32,249.23c-.17-.08-.38.1-.52.31a2,2,0,0,0-.31.75.23.23,0,0,1-.06.12.18.18,0,0,1-.28,0h0a7.45,7.45,0,0,0-.53-.58,1.75,1.75,0,0,0-.57-.4c-.12-.06-.22.08-.3.34a3.2,3.2,0,0,0-.12.83v0a.35.35,0,0,1-.06.14.16.16,0,0,1-.24,0,2.59,2.59,0,0,0-.39-.42.65.65,0,0,0-.45-.2c-.15,0-.28.15-.32.36a2.15,2.15,0,0,0,0,.67,1.9,1.9,0,0,1-.11-.68.61.61,0,0,1,.41-.6,1.05,1.05,0,0,1,.83.34,4.09,4.09,0,0,1,.09-.58,1.23,1.23,0,0,1,.23-.51.55.55,0,0,1,.55-.19,1.92,1.92,0,0,1,.73.49c.12.13.23.26.34.4a2.42,2.42,0,0,1,.31-.57c.21-.24.54-.5.88-.34a1.49,1.49,0,0,1,.57.72,4.44,4.44,0,0,1,.29.87,6.82,6.82,0,0,0-.42-.76C336.69,249.54,336.52,249.29,336.32,249.23Z" style="fill:#59C983"></path><path d="M340.54,260a1.48,1.48,0,0,0-.37.64,5.64,5.64,0,0,0-.2.81.21.21,0,0,1-.07.13.16.16,0,0,1-.27,0h0a4.47,4.47,0,0,0-.63-.73.9.9,0,0,0-.7-.31c-.22,0-.41.29-.52.6a4.47,4.47,0,0,0-.22,1v0a.11.11,0,0,1,0,.08.12.12,0,0,1-.18,0,5.26,5.26,0,0,0-.65-.49,1.58,1.58,0,0,0-.35-.16.4.4,0,0,0-.38.05.44.44,0,0,1,.39-.16,1.87,1.87,0,0,1,.41.09,3.89,3.89,0,0,1,.54.27,3.71,3.71,0,0,1,.13-.92,1.27,1.27,0,0,1,.8-.94,1.2,1.2,0,0,1,1,.39,3.17,3.17,0,0,1,.45.52,3.47,3.47,0,0,1,.17-.45,1.77,1.77,0,0,1,.55-.75.65.65,0,0,1,.8.16,2.18,2.18,0,0,1,.47.67,2.27,2.27,0,0,0-.56-.52A.52.52,0,0,0,340.54,260Z" style="fill:#59C983"></path><path d="M315.22,309.81a1.09,1.09,0,0,1,.42.11.5.5,0,0,1,.21.18,1.45,1.45,0,0,1,.11.26,5.81,5.81,0,0,1,0,1.95c-.06.48-.15,1-.24,1.43a4.23,4.23,0,0,1,1.37.06,1.68,1.68,0,0,1,.87.49,1.17,1.17,0,0,1,.29.59,3.07,3.07,0,0,1,.05.59,10,10,0,0,1-.32,2c-.1.39-.2.77-.32,1.15a4.46,4.46,0,0,1,1.21,0,1.68,1.68,0,0,1,1,.52,1.29,1.29,0,0,1,.3.74,2.19,2.19,0,0,1-.09.71,7.19,7.19,0,0,1-1,1.93c-.23.33-.47.64-.71.95a3.78,3.78,0,0,1,1.27.6,2.38,2.38,0,0,1,.9,2.42,4.57,4.57,0,0,1-1.37,2,10.38,10.38,0,0,1-1.46,1.13,2.45,2.45,0,0,1,.52.5.81.81,0,0,1,.18.65.87.87,0,0,1-.38.53,4.44,4.44,0,0,1-1.93.55,8,8,0,0,0,.95-.3,3,3,0,0,0,.87-.47.43.43,0,0,0,.07-.71,2.76,2.76,0,0,0-.76-.54.24.24,0,0,1-.08-.09.27.27,0,0,1,.07-.33h0a11.56,11.56,0,0,0,1.6-1.38,3.91,3.91,0,0,0,1.08-1.74,1.54,1.54,0,0,0-.69-1.5,3.45,3.45,0,0,0-1.71-.57.36.36,0,0,1-.24-.13.54.54,0,0,1,0-.67h0c.4-.48.81-1,1.17-1.51a6.76,6.76,0,0,0,.87-1.62.72.72,0,0,0,0-.3.2.2,0,0,0-.07-.15.92.92,0,0,0-.55-.26,4.35,4.35,0,0,0-1.6.07h0a.31.31,0,0,1-.21,0,.5.5,0,0,1-.22-.62c.21-.58.4-1.19.57-1.79a9.08,9.08,0,0,0,.33-1.78,2.19,2.19,0,0,0,0-.37.52.52,0,0,0-.1-.23,1.14,1.14,0,0,0-.55-.33,4.2,4.2,0,0,0-1.51-.12h-.11a.34.34,0,0,1-.18-.4c.16-.58.29-1.19.4-1.79a7.1,7.1,0,0,0,.12-1.75c0-.13-.05-.2-.14-.25a.69.69,0,0,0-.32-.12,3.23,3.23,0,0,0-.76,0,12,12,0,0,0-1.57.2,8.57,8.57,0,0,1,1.56-.42A3.6,3.6,0,0,1,315.22,309.81Z" style="fill:#59C983"></path><path d="M323.87,321.33a1.77,1.77,0,0,0-1.05-1.62,3.78,3.78,0,0,0-2-.45.31.31,0,0,1-.22-.07.51.51,0,0,1-.11-.64h0c.38-.71.76-1.45,1.07-2.2a7.23,7.23,0,0,0,.63-2.24.7.7,0,0,0-.28-.66,1.74,1.74,0,0,0-.84-.26,6.23,6.23,0,0,0-2,.3h0a.28.28,0,0,1-.26-.05.44.44,0,0,1-.08-.55,10,10,0,0,0,.75-1.66,3.2,3.2,0,0,0,.19-1.7,1.1,1.1,0,0,0-.39-.61,1.07,1.07,0,0,0-.71-.16,3.56,3.56,0,0,0-1.54.56,3.37,3.37,0,0,1,1.52-.84,1.31,1.31,0,0,1,.89.08,1.34,1.34,0,0,1,.64.77,3.82,3.82,0,0,1-.08,2.1,9.07,9.07,0,0,1-.35,1,6.09,6.09,0,0,1,1.54-.21,2.13,2.13,0,0,1,1.22.35,1.51,1.51,0,0,1,.5.62,1.18,1.18,0,0,1,.13.43,1.93,1.93,0,0,1,0,.41,7.61,7.61,0,0,1-.72,2.68c-.25.56-.52,1.1-.8,1.63a4.07,4.07,0,0,1,1.62.59,3.1,3.1,0,0,1,.92.95,2,2,0,0,1,.31,1.48,5.13,5.13,0,0,1-1.29,2.37,12.55,12.55,0,0,1-1.81,1.7,18.56,18.56,0,0,0,1.58-1.94A5.45,5.45,0,0,0,323.87,321.33Z" style="fill:#59C983"></path><path d="M326.17,314.64a7.4,7.4,0,0,0-1.34-.48.4.4,0,0,1-.22-.15.51.51,0,0,1,.08-.64l0,0a9.8,9.8,0,0,0,1.34-1.53,3,3,0,0,0,.65-1.71,1.59,1.59,0,0,0-1-1.23,5,5,0,0,0-1.74-.48h0a.34.34,0,0,1-.15-.07.36.36,0,0,1,0-.45,13.52,13.52,0,0,0,.93-1.57,5,5,0,0,0,.34-.86,1.24,1.24,0,0,0,0-.89,1.17,1.17,0,0,1,.21.93,5.55,5.55,0,0,1-.22,1,9.4,9.4,0,0,1-.52,1.27,4.68,4.68,0,0,1,1.54.33,2.58,2.58,0,0,1,.93.65,2,2,0,0,1,.55,1.25,3.78,3.78,0,0,1-.83,2.46,10.15,10.15,0,0,1-.95,1.1,4.81,4.81,0,0,1,.75.38,2.78,2.78,0,0,1,1.2,1.3,2.14,2.14,0,0,1-.39,1.92,4.72,4.72,0,0,1-1.22,1.15,6.21,6.21,0,0,0,1-1.35,1.67,1.67,0,0,0,.15-1.42A2.22,2.22,0,0,0,326.17,314.64Z" style="fill:#59C983"></path><path d="M280.25,334.69a3.22,3.22,0,0,0-.27-1.49,10.24,10.24,0,0,0-.72-1.4.5.5,0,0,1-.07-.3.42.42,0,0,1,.4-.44h0a7.44,7.44,0,0,0,1.82-.17,2.22,2.22,0,0,0,1.41-.84,2.1,2.1,0,0,0,0-1.72,7.07,7.07,0,0,0-1-1.72l0,0a.38.38,0,0,1-.07-.17A.33.33,0,0,1,282,326a9.58,9.58,0,0,0,1.54-.51,4,4,0,0,0,.72-.42,1.16,1.16,0,0,0,.47-.73,1.23,1.23,0,0,1-.36.89,3.59,3.59,0,0,1-.7.6,6.4,6.4,0,0,1-1.08.6,6.27,6.27,0,0,1,.95,1.45,4.19,4.19,0,0,1,.32,1.23,2.45,2.45,0,0,1-.29,1.41,2.82,2.82,0,0,1-1.95,1.3,7.25,7.25,0,0,1-1.3.13,7.63,7.63,0,0,1,.33.88,3.6,3.6,0,0,1,.16,1.95,1.68,1.68,0,0,1-1.33,1.21,3.43,3.43,0,0,1-1.53,0,4.82,4.82,0,0,0,1.46-.31A1.41,1.41,0,0,0,280.25,334.69Z" style="fill:#59C983"></path><path d="M250.67,287.69a3.66,3.66,0,0,1-1,.53,7.64,7.64,0,0,1-1.29.33,11.75,11.75,0,0,1,.8,1.19,4.64,4.64,0,0,1,.76,2.39,1.62,1.62,0,0,1-.24.71,1.84,1.84,0,0,1-.45.47,2.46,2.46,0,0,1-1.05.39,5,5,0,0,1-2-.11,6.15,6.15,0,0,0,2-.22,2.3,2.3,0,0,0,.87-.47,1,1,0,0,0,.41-.78,3.93,3.93,0,0,0-.79-1.91,16.66,16.66,0,0,0-1.33-1.66.5.5,0,0,1-.11-.28.45.45,0,0,1,.35-.5h0a10.22,10.22,0,0,0,1.89-.46,3.52,3.52,0,0,0,.82-.43,1.09,1.09,0,0,0,.24-.26.34.34,0,0,0,0-.22,2.06,2.06,0,0,0-.38-.78,5.89,5.89,0,0,0-.65-.77A13.74,13.74,0,0,0,248,283.5h0a.49.49,0,0,1-.16-.47.43.43,0,0,1,.47-.4,5.55,5.55,0,0,0,1.86.08,1.86,1.86,0,0,0,.79-.29.79.79,0,0,0,.29-.7,2.18,2.18,0,0,0-.85-1.66,6,6,0,0,0-1.68-1h0a.19.19,0,0,1-.1-.2c0-.1.1-.18.18-.16a2.91,2.91,0,0,0,1.1,0,1.17,1.17,0,0,0,.48-.28.81.81,0,0,0,.21-.59.88.88,0,0,1-.14.66,1.18,1.18,0,0,1-.51.41,3,3,0,0,1-.32.08,4.52,4.52,0,0,1,1.09.61,2.75,2.75,0,0,1,1.18,2.1,2.07,2.07,0,0,1-.1.75,1.52,1.52,0,0,1-.42.64,2.24,2.24,0,0,1-1.1.49,3.94,3.94,0,0,1-.67.08c.17.15.34.3.5.47a6.94,6.94,0,0,1,.74.86,2.79,2.79,0,0,1,.56,1.25,1.56,1.56,0,0,1-.18.92A1.86,1.86,0,0,1,250.67,287.69Z" style="fill:#59C983"></path><path d="M256.56,287.32a1.14,1.14,0,0,1-.33.3,1.48,1.48,0,0,1-.33.17,3.78,3.78,0,0,1-1.24.22q-.63,0-1.23-.06a8.74,8.74,0,0,1,.51.78,6.35,6.35,0,0,1,.86,2.13,1.86,1.86,0,0,1-.24,1.3,1.82,1.82,0,0,1-.91.68,4.17,4.17,0,0,1-1.94.17,5.09,5.09,0,0,0,1.84-.5,1.29,1.29,0,0,0,.75-1.5,5.44,5.44,0,0,0-.9-1.78,16.24,16.24,0,0,0-1.25-1.57.54.54,0,0,1-.11-.4.43.43,0,0,1,.45-.4h0a12.09,12.09,0,0,0,2.16.16c.69,0,1.49-.27,1.38-.61a2.4,2.4,0,0,0-.34-1,8.71,8.71,0,0,0-.62-1,22.35,22.35,0,0,0-1.48-1.86l0,0a.38.38,0,0,1-.08-.35.32.32,0,0,1,.38-.27,5.06,5.06,0,0,0,1.22.17,1.2,1.2,0,0,0,.55-.1c.16-.07.19-.15.18-.32a2.54,2.54,0,0,0-.69-1.1,12.64,12.64,0,0,0-1-.93,7.33,7.33,0,0,1,1.14.73,2.59,2.59,0,0,1,.93,1.18.71.71,0,0,1,0,.55.76.76,0,0,1-.34.38,1.75,1.75,0,0,1-.73.22h-.37c.32.34.64.7.94,1.09a9.65,9.65,0,0,1,.72,1.08,3.39,3.39,0,0,1,.48,1.43,2.32,2.32,0,0,1-.07.52A1.18,1.18,0,0,1,256.56,287.32Z" style="fill:#59C983"></path><path d="M294.43,304.45a4.45,4.45,0,0,0,1.21-.14,1.38,1.38,0,0,0,.94-.7,1.07,1.07,0,0,0-.4-1.12,4.26,4.26,0,0,0-1.08-.7,3.83,3.83,0,0,1,1.18.55,1.78,1.78,0,0,1,.47.54,1.14,1.14,0,0,1,.09.84,1.8,1.8,0,0,1-1.1,1,3.58,3.58,0,0,1-.56.16,5.47,5.47,0,0,1,.65.54,3.46,3.46,0,0,1,1,1.54,3.31,3.31,0,0,1,.06.56,2.94,2.94,0,0,1-.12.59c-.08.16-.17.34-.26.49l-.33.36a5.88,5.88,0,0,1-.72.54l-.11.06c.34.34.68.68,1,1.06s.46.57.68.89a3.17,3.17,0,0,1,.52,1.24,1.52,1.52,0,0,1,0,.51,1.49,1.49,0,0,1-.2.42,2.12,2.12,0,0,1-.49.5,5.2,5.2,0,0,1-1,.56,11.07,11.07,0,0,1-1.29.46c.25.34.49.69.72,1.06a5.2,5.2,0,0,1,.82,2.12,1.51,1.51,0,0,1-.1.74,1.74,1.74,0,0,1-.35.56,3.38,3.38,0,0,1-.87.68,5.75,5.75,0,0,1-1.49.52,9.05,9.05,0,0,1,.45.94,3.94,3.94,0,0,1,.33,1.53,1.13,1.13,0,0,1-.34.77,2.46,2.46,0,0,1-.58.41,3.28,3.28,0,0,1-1.28.33,3.76,3.76,0,0,0,1.21-.49c.35-.25.76-.58.71-1a3.45,3.45,0,0,0-.41-1.31,11.55,11.55,0,0,0-.69-1.19.39.39,0,0,1-.05-.13.3.3,0,0,1,.2-.33h0a5.73,5.73,0,0,0,1.67-.67c.5-.31,1-.82.87-1.23a4.62,4.62,0,0,0-.74-1.69,17.46,17.46,0,0,0-1.15-1.53.41.41,0,0,1-.11-.25.5.5,0,0,1,.33-.57,11.25,11.25,0,0,0,1.85-.64,3.65,3.65,0,0,0,.82-.47,1.83,1.83,0,0,0,.28-.27s0-.07.05-.09,0,0,0-.07a2.36,2.36,0,0,0-.35-.79,9.53,9.53,0,0,0-.61-.81,19.85,19.85,0,0,0-1.4-1.49.56.56,0,0,1-.12-.2.5.5,0,0,1,.25-.6l.66-.32a6.79,6.79,0,0,0,.59-.41,1.11,1.11,0,0,0,.45-1.11,2.82,2.82,0,0,0-.73-1.25,7,7,0,0,0-1.14-1h0a.3.3,0,0,1-.11-.25A.29.29,0,0,1,294.43,304.45Z" style="fill:#59C983"></path><path d="M298.87,307.17a5.63,5.63,0,0,0,1.86-.35,1.86,1.86,0,0,0,.73-.46.82.82,0,0,0,.18-.74,2,2,0,0,0-1.11-1.42,5.86,5.86,0,0,0-1.83-.59h0a.17.17,0,0,1-.13-.17.2.2,0,0,1,.15-.2,3.15,3.15,0,0,0,1.09-.25,1.2,1.2,0,0,0,.43-.38.81.81,0,0,0,.11-.63.85.85,0,0,1,0,.68,1.16,1.16,0,0,1-.44.51,1.68,1.68,0,0,1-.3.15,5.13,5.13,0,0,1,1.18.35,2.52,2.52,0,0,1,1.5,1.78,2,2,0,0,1,0,.75,1.69,1.69,0,0,1-.32.72,2.6,2.6,0,0,1-1,.73c-.22.09-.43.16-.65.23.19.11.38.21.57.34a6.74,6.74,0,0,1,.87.67,2.5,2.5,0,0,1,.75,1.09,1.41,1.41,0,0,1,0,.93,2.07,2.07,0,0,1-.41.66,4.3,4.3,0,0,1-.94.76,7,7,0,0,1-1.23.6,11.33,11.33,0,0,1,1,1,4.27,4.27,0,0,1,1.14,2.16,1.56,1.56,0,0,1-.12.74,1.71,1.71,0,0,1-.37.56,2.71,2.71,0,0,1-1,.62,5.29,5.29,0,0,1-2.05.36,6.63,6.63,0,0,0,1.95-.67,2.78,2.78,0,0,0,.79-.65,1.11,1.11,0,0,0,.28-.86,3.55,3.55,0,0,0-1.09-1.67,14.93,14.93,0,0,0-1.58-1.32.44.44,0,0,1-.16-.25.49.49,0,0,1,.26-.57h0a10.34,10.34,0,0,0,1.8-.88,3.73,3.73,0,0,0,.74-.6.94.94,0,0,0,.2-.31.41.41,0,0,0,0-.22,1.91,1.91,0,0,0-.5-.67,6.66,6.66,0,0,0-.77-.61,12.64,12.64,0,0,0-1.72-1h0a.46.46,0,0,1-.23-.43A.47.47,0,0,1,298.87,307.17Z" style="fill:#59C983"></path><path d="M305.35,303.64a13.18,13.18,0,0,0-1.14-.68,6.4,6.4,0,0,1,1.24.46,2.32,2.32,0,0,1,1.12.93.83.83,0,0,1,.05.55,1,1,0,0,1-.28.45,2,2,0,0,1-.69.37c-.12,0-.25.06-.37.09.38.27.75.55,1.11.86a7.31,7.31,0,0,1,.88.88,3,3,0,0,1,.71,1.29,2.16,2.16,0,0,1,0,.51,1.52,1.52,0,0,1-.17.52,1.43,1.43,0,0,1-.28.37,1.36,1.36,0,0,1-.31.24,4.11,4.11,0,0,1-1.19.49,10.81,10.81,0,0,1-1.22.22,6.48,6.48,0,0,1,.63.65,5.77,5.77,0,0,1,1.19,1.87,1.78,1.78,0,0,1,0,1.32,1.93,1.93,0,0,1-.79.87,4.36,4.36,0,0,1-1.9.6,5.49,5.49,0,0,0,1.75-.9,1.34,1.34,0,0,0,.5-1.63,5,5,0,0,0-1.18-1.53,15.79,15.79,0,0,0-1.48-1.25.47.47,0,0,1-.18-.36.46.46,0,0,1,.38-.48h0a12,12,0,0,0,2.16-.32c.68-.17,1.44-.6,1.28-.91a2.21,2.21,0,0,0-.5-.88,7.5,7.5,0,0,0-.77-.83,20.58,20.58,0,0,0-1.77-1.47l0,0a.4.4,0,0,1-.14-.32.37.37,0,0,1,.33-.36,4.69,4.69,0,0,0,1.24-.1,1.6,1.6,0,0,0,.53-.22.3.3,0,0,0,.13-.35A2.28,2.28,0,0,0,305.35,303.64Z" style="fill:#59C983"></path><path d="M234.55,324a1.25,1.25,0,0,0,.58-.38,1.23,1.23,0,0,0,.25-.67v0a.14.14,0,0,1,.17-.12h0a15.27,15.27,0,0,0,1.87.42,5.5,5.5,0,0,0,1.85.06.87.87,0,0,0,.63-.39,2.91,2.91,0,0,0,.29-1,7.67,7.67,0,0,0,0-2.14v-.1a.41.41,0,0,1,.39-.41h0a9.42,9.42,0,0,0,1.84-.07,4.1,4.1,0,0,0,.87-.21,1.06,1.06,0,0,0,.57-.41,2.19,2.19,0,0,0,.17-.87,7.53,7.53,0,0,0,0-1.06,19,19,0,0,0-.29-2.14.74.74,0,0,1,0-.21.45.45,0,0,1,.5-.42,6.73,6.73,0,0,0,1.62.11c.51,0,1.09-.19,1.27-.51a2.54,2.54,0,0,0,.1-1.59,9.33,9.33,0,0,0-.5-1.81h0a.48.48,0,0,1,0-.18.42.42,0,0,1,.37-.45,5.36,5.36,0,0,0,1.76-.36,1.69,1.69,0,0,0,1.14-1.25,3.58,3.58,0,0,0-.34-2,9.78,9.78,0,0,0-1-1.79h0l0,0a.23.23,0,0,1,.08-.26,2.85,2.85,0,0,0,1.22-1.34,1.78,1.78,0,0,0,.11-1,2.54,2.54,0,0,0-.33-.92,2.72,2.72,0,0,1,.43.89,2,2,0,0,1,0,1.07,2.68,2.68,0,0,1-.52.92,3.24,3.24,0,0,1-.56.55A7.81,7.81,0,0,1,250,305.6a4.11,4.11,0,0,1,.48,2.33,2.24,2.24,0,0,1-.54,1.2,3.22,3.22,0,0,1-.92.68,4.9,4.9,0,0,1-1.46.44,8.27,8.27,0,0,1,.4,1.42,5.07,5.07,0,0,1,.11,1.12,2.5,2.5,0,0,1-.33,1.26,1.83,1.83,0,0,1-1,.73,4.1,4.1,0,0,1-.95.19,6.85,6.85,0,0,1-1.2,0c.08.53.15,1.06.18,1.61a8,8,0,0,1,0,1.2,3.45,3.45,0,0,1-.31,1.33,1.74,1.74,0,0,1-1,.81,4.38,4.38,0,0,1-1,.23,9,9,0,0,1-1.55,0,8.71,8.71,0,0,1-.12,1.9,4.11,4.11,0,0,1-.43,1.2,1.4,1.4,0,0,1-1.06.65,6,6,0,0,1-2-.18,15.32,15.32,0,0,1-1.74-.56,1.35,1.35,0,0,1-1,1,2.89,2.89,0,0,1-1.43-.14A2.92,2.92,0,0,0,234.55,324Z" style="fill:#59C983"></path><path d="M248.18,324.07c.37-.51,0-1.34-.35-2a11.57,11.57,0,0,0-1.38-1.78.48.48,0,0,1-.11-.41.39.39,0,0,1,.44-.35h0a18.92,18.92,0,0,0,2.67.4,4,4,0,0,0,2.44-.45c.61-.4.52-1.44.17-2.36a11.77,11.77,0,0,0-1.36-2.61h0a.44.44,0,0,1-.07-.32c0-.23.21-.41.4-.38a8.3,8.3,0,0,0,2,.08,2.24,2.24,0,0,0,1.68-.82,2.05,2.05,0,0,0,.24-1,3.55,3.55,0,0,0-.23-1.11,8.15,8.15,0,0,0-1.1-2,6.58,6.58,0,0,1,1.33,1.84,4,4,0,0,1,.37,1.19,2.38,2.38,0,0,1-.24,1.35,2.81,2.81,0,0,1-2,1.23,5.75,5.75,0,0,1-1.3.1,11.08,11.08,0,0,1,1,2,5.06,5.06,0,0,1,.35,1.76,2.66,2.66,0,0,1-.21,1,2,2,0,0,1-.62.8,3.06,3.06,0,0,1-1.51.58,7.06,7.06,0,0,1-1.45,0,11.19,11.19,0,0,1-1.64-.25,8.46,8.46,0,0,1,.61,1,4.45,4.45,0,0,1,.46,1.27,1.79,1.79,0,0,1-.29,1.49,2.76,2.76,0,0,1-2.24.7,11.24,11.24,0,0,1-2.16-.3,15.72,15.72,0,0,0,2.17,0A2.83,2.83,0,0,0,248.18,324.07Z" style="fill:#59C983"></path><path d="M245.25,307.78a2.29,2.29,0,0,1-.68,1.29,2.62,2.62,0,0,1-1.15.56,4.51,4.51,0,0,1-1.41.09,9.85,9.85,0,0,1,.59,1.27,6,6,0,0,1,.34,1.26,2.25,2.25,0,0,1-.27,1.57,1.79,1.79,0,0,1-1.21.66,4.53,4.53,0,0,1-1.1,0,8.16,8.16,0,0,1-1.22-.19,8.39,8.39,0,0,1,.49,1.54,4,4,0,0,1,.07,1.44,1.82,1.82,0,0,1-.75,1.28,2.64,2.64,0,0,1-2.32.1,8.06,8.06,0,0,1-2-1,9.42,9.42,0,0,0,2.09.67,2.65,2.65,0,0,0,2-.26c.54-.38.51-1.23.29-2a9.51,9.51,0,0,0-.92-2.17.49.49,0,0,1,0-.36.4.4,0,0,1,.46-.35h0a11.74,11.74,0,0,0,1.94.33,3.65,3.65,0,0,0,.94,0,1,1,0,0,0,.65-.3,1.11,1.11,0,0,0,.09-.76,5.06,5.06,0,0,0-.27-1,12.93,12.93,0,0,0-.94-2h0a.49.49,0,0,1-.05-.36.41.41,0,0,1,.47-.35,5.32,5.32,0,0,0,2,.17,1.53,1.53,0,0,0,1.42-1.2,2.66,2.66,0,0,0,0-1.16,5.41,5.41,0,0,0-.32-1.16,10.18,10.18,0,0,0-1.17-2.09,7.69,7.69,0,0,1,1.43,1.92A4.07,4.07,0,0,1,245.25,307.78Z" style="fill:#59C983"></path><path d="M265.9,323.4a1.19,1.19,0,0,0,.17-.7v0c0-.09.08-.16.15-.15h0a17.33,17.33,0,0,0,1.91.07,5.43,5.43,0,0,0,1.85-.28,1,1,0,0,0,.58-.5,3.11,3.11,0,0,0,.16-1,7.4,7.4,0,0,0-.29-2.1s0-.06,0-.09a.45.45,0,0,1,.34-.48h0a9.65,9.65,0,0,0,1.83-.4,4.87,4.87,0,0,0,.84-.37c.24-.14.48-.36.51-.5A2.42,2.42,0,0,0,274,316a7.53,7.53,0,0,0-.15-1,17.37,17.37,0,0,0-.57-2.06.64.64,0,0,1,0-.2.49.49,0,0,1,.45-.5,6.83,6.83,0,0,0,1.62-.19,1.82,1.82,0,0,0,1.2-.73,2.45,2.45,0,0,0-.1-1.58,9.08,9.08,0,0,0-.73-1.69h0a.84.84,0,0,1-.05-.17.45.45,0,0,1,.31-.51,5.72,5.72,0,0,0,1.71-.68,1.81,1.81,0,0,0,1-1.43,3.43,3.43,0,0,0-.6-1.87,9,9,0,0,0-1.24-1.57h0s0,0,0,0a.23.23,0,0,1,0-.27,3.13,3.13,0,0,0,1.05-1.54,1.84,1.84,0,0,0,0-1,2.4,2.4,0,0,0-.45-.85,2.4,2.4,0,0,1,.54.8A1.88,1.88,0,0,1,278,300a3.06,3.06,0,0,1-.39,1,4.51,4.51,0,0,1-.49.64,7.36,7.36,0,0,1,1.26,1.4,4,4,0,0,1,.78,2.2,2.34,2.34,0,0,1-.38,1.27,3.35,3.35,0,0,1-.84.84,5.61,5.61,0,0,1-1.38.7,9.25,9.25,0,0,1,.58,1.32,5.7,5.7,0,0,1,.25,1.08,2.49,2.49,0,0,1-.17,1.29,1.94,1.94,0,0,1-.85.89,3.74,3.74,0,0,1-.92.36,6.24,6.24,0,0,1-1.2.19,15.77,15.77,0,0,1,.39,1.54,7.43,7.43,0,0,1,.16,1.19,3.43,3.43,0,0,1-.13,1.35,1.92,1.92,0,0,1-.93,1,4.62,4.62,0,0,1-1,.41,10.63,10.63,0,0,1-1.55.31,8.47,8.47,0,0,1,.14,1.89,4,4,0,0,1-.27,1.25,1.48,1.48,0,0,1-1,.83,6,6,0,0,1-2,.19,13.65,13.65,0,0,1-1.8-.24,1.45,1.45,0,0,1-.89,1.2,3,3,0,0,1-1.44.13,3.19,3.19,0,0,0,1.39-.3A1.17,1.17,0,0,0,265.9,323.4Z" style="fill:#59C983"></path><path d="M278.94,321.47c.3-.57-.14-1.33-.59-1.88a10.74,10.74,0,0,0-1.61-1.49.43.43,0,0,1-.16-.38.42.42,0,0,1,.39-.43h0a18.89,18.89,0,0,0,2.71-.1,4.14,4.14,0,0,0,2.37-.88c.55-.5.32-1.51-.14-2.35a10.72,10.72,0,0,0-1.69-2.31h0a.42.42,0,0,1-.11-.3.42.42,0,0,1,.35-.45,8.15,8.15,0,0,0,2-.27A2.4,2.4,0,0,0,284,309.5a2.07,2.07,0,0,0,.12-1,3.82,3.82,0,0,0-.38-1,7.39,7.39,0,0,0-1.35-1.74,5.93,5.93,0,0,1,1.56,1.56,3.49,3.49,0,0,1,.52,1.1,2.3,2.3,0,0,1-.06,1.37,3,3,0,0,1-1.84,1.57,5.88,5.88,0,0,1-1.28.33,9.75,9.75,0,0,1,1.31,1.81,4.59,4.59,0,0,1,.58,1.66,2.65,2.65,0,0,1-.07,1,2.23,2.23,0,0,1-.52.9,3.33,3.33,0,0,1-1.43.84,6.66,6.66,0,0,1-1.44.28,11.57,11.57,0,0,1-1.66.06,8,8,0,0,1,.74.88,4.51,4.51,0,0,1,.62,1.15,1.81,1.81,0,0,1-.1,1.52,2.93,2.93,0,0,1-2.13,1.1,11.62,11.62,0,0,1-2.2.1,17.53,17.53,0,0,0,2.16-.42A3,3,0,0,0,278.94,321.47Z" style="fill:#59C983"></path><path d="M266.79,317.91a2.76,2.76,0,0,0,1.95-.62,1.79,1.79,0,0,0,0-2,9,9,0,0,0-1.2-2,.49.49,0,0,1,.32-.77h0a11.77,11.77,0,0,0,2,0,4.6,4.6,0,0,0,.94-.2,1.13,1.13,0,0,0,.6-.42,1.14,1.14,0,0,0,0-.76,4.65,4.65,0,0,0-.4-1,12.94,12.94,0,0,0-1.19-1.79h0a.48.48,0,0,1-.1-.34.43.43,0,0,1,.42-.42,5.43,5.43,0,0,0,2-.21,1.63,1.63,0,0,0,1.26-1.44,2.58,2.58,0,0,0-.13-1.13,4.14,4.14,0,0,0-.46-1.08,8.9,8.9,0,0,0-1.43-1.84,7.27,7.27,0,0,1,1.66,1.62,3.76,3.76,0,0,1,.85,2.46,2.32,2.32,0,0,1-.51,1.39,2.75,2.75,0,0,1-1.07.76,4.62,4.62,0,0,1-1.39.33,9.09,9.09,0,0,1,.75,1.15,5.42,5.42,0,0,1,.5,1.17,2.26,2.26,0,0,1-.06,1.59,1.88,1.88,0,0,1-1.12.87,4.38,4.38,0,0,1-1.1.22,8.43,8.43,0,0,1-1.23,0,7.16,7.16,0,0,1,.68,1.42,3.88,3.88,0,0,1,.26,1.4,1.91,1.91,0,0,1-.58,1.4,2.77,2.77,0,0,1-2.29.51,7.48,7.48,0,0,1-2.13-.63A9.34,9.34,0,0,0,266.79,317.91Z" style="fill:#59C983"></path><path d="M337.36,293.39a7.88,7.88,0,0,0,.19-1,1.23,1.23,0,0,0-.09-.74.8.8,0,0,0-.63-.11,3.62,3.62,0,0,0-.84.23h0a.2.2,0,0,1-.11,0,.31.31,0,0,1-.24-.36c.08-.68.08-1.64-.4-1.81a1.21,1.21,0,0,0-.87.12,4.53,4.53,0,0,0-.88.54h0a.11.11,0,0,1-.15-.09,1.44,1.44,0,0,0-.47-.81.74.74,0,0,0-.85,0,.82.82,0,0,1,.92-.18,1.51,1.51,0,0,1,.56.7,4.06,4.06,0,0,1,.79-.59,1.5,1.5,0,0,1,1.12-.21.87.87,0,0,1,.52.41,2.21,2.21,0,0,1,.24.63,4.65,4.65,0,0,1,.07.83,3,3,0,0,1,.59-.16,1.18,1.18,0,0,1,1.11.26,1.84,1.84,0,0,1,.27,1.32c0,.22-.05.43-.09.64.2,0,.41,0,.62,0a1.79,1.79,0,0,1,1.15.32,1.16,1.16,0,0,1,.3.76,3.76,3.76,0,0,1,0,.67,6.57,6.57,0,0,1-.12.89,2.58,2.58,0,0,1,.77.16,1.37,1.37,0,0,1,.52.34,1,1,0,0,1,.21.74,5.49,5.49,0,0,1-.27,1.27,10.11,10.11,0,0,1-.42,1,.78.78,0,0,1,.35.7,2.63,2.63,0,0,1-.2.9,2.67,2.67,0,0,0,.09-.88.54.54,0,0,0-.39-.54h0a.12.12,0,0,1-.06-.15h0c.13-.38.24-.77.33-1.15a4.81,4.81,0,0,0,.18-1.14c0-.19,0-.31-.1-.36a1,1,0,0,0-.38-.21,2.9,2.9,0,0,0-.93-.07h-.07a.3.3,0,0,1-.2-.37h0a8.82,8.82,0,0,0,.12-1.14.72.72,0,0,0-.91-1,6.25,6.25,0,0,0-1,.1.34.34,0,0,1-.33-.48Z" style="fill:#59C983"></path><path d="M342,289.8a.31.31,0,0,1-.23.16.27.27,0,0,1-.28-.3v0c0-.43,0-.86-.06-1.27a2.14,2.14,0,0,0-.27-1c-.08-.18-.33-.08-.61.15a4.88,4.88,0,0,0-.77.85v0a.25.25,0,0,1-.19.11.27.27,0,0,1-.28-.28,4.63,4.63,0,0,0-.08-.92,1,1,0,0,0-.31-.66.6.6,0,0,0-.64.15,3.62,3.62,0,0,0-.62.67,2.88,2.88,0,0,1,.5-.84.83.83,0,0,1,.9-.36,1.3,1.3,0,0,1,.61.87c0,.11.05.22.08.33a3.74,3.74,0,0,1,.47-.51,1.53,1.53,0,0,1,.62-.37.85.85,0,0,1,.42,0,.8.8,0,0,1,.36.26,2.66,2.66,0,0,1,.43,1.43c0,.15,0,.31,0,.46l.1-.12a1.5,1.5,0,0,1,.43-.35.54.54,0,0,1,.6,0,1.55,1.55,0,0,1,.37,1.06,6.25,6.25,0,0,1,0,1.06c-.07-.34-.11-.68-.2-1a1.28,1.28,0,0,0-.36-.74c-.13-.06-.34.12-.52.36A4.29,4.29,0,0,0,342,289.8Z" style="fill:#59C983"></path><path d="M329.71,237.4c-.08,0-.12.21-.13.41a4.12,4.12,0,0,0,0,.6.22.22,0,0,1-.06.19.16.16,0,0,1-.26,0h0a6.54,6.54,0,0,0-.46-.56.93.93,0,0,0-.47-.33c-.09,0-.17.11-.24.35a3.1,3.1,0,0,0-.09.76v0a.3.3,0,0,1-.07.15.15.15,0,0,1-.25,0c-.2-.27-.47-.59-.71-.54s-.22.18-.27.37a2.89,2.89,0,0,0-.09.6,2.18,2.18,0,0,1,0-.63.71.71,0,0,1,.33-.6.68.68,0,0,1,.61.11l.13.12a3.87,3.87,0,0,1,.06-.46,1.41,1.41,0,0,1,.19-.47.51.51,0,0,1,.48-.27,1.23,1.23,0,0,1,.71.47c.06.06.1.13.15.19s0-.05,0-.08c0-.2.09-.57.4-.65s.41.17.55.31a3.7,3.7,0,0,1,.35.5,4.8,4.8,0,0,0-.44-.37A.61.61,0,0,0,329.71,237.4Z" style="fill:#59C983"></path><path d="M327.86,299.54a5.14,5.14,0,0,1,1.22-1.11,1.87,1.87,0,0,1,1.59-.37,1.2,1.2,0,0,1,.73.64,2.49,2.49,0,0,1,.22,1,4.36,4.36,0,0,1,0,.89,4.75,4.75,0,0,1,.59-.31A2.82,2.82,0,0,1,333,300a1,1,0,0,1,1,.31,1.65,1.65,0,0,1,.29,1.11,5.31,5.31,0,0,1-.09.92c-.05.25-.11.48-.17.72a3.56,3.56,0,0,1,.72-.23,1.71,1.71,0,0,1,.87,0,1.08,1.08,0,0,1,.72.73,3,3,0,0,1-.21,1.93,8,8,0,0,1-.83,1.56,11.25,11.25,0,0,0,.55-1.67,2.72,2.72,0,0,0,0-1.55c-.15-.36-.56-.37-1-.23a5,5,0,0,0-1.3.66.32.32,0,0,1-.3,0,.45.45,0,0,1-.24-.56v0a13.46,13.46,0,0,0,.37-1.52,3.84,3.84,0,0,0,.06-.73.78.78,0,0,0-.07-.43A.43.43,0,0,0,333,301a2,2,0,0,0-.58.17,8,8,0,0,0-1.22.65v0a.34.34,0,0,1-.31,0,.46.46,0,0,1-.22-.57,5.66,5.66,0,0,0,.3-1.57c0-.52-.1-.94-.47-1.1a1.63,1.63,0,0,0-1.3.1A6.35,6.35,0,0,0,327.86,299.54Z" style="fill:#59C983"></path><path d="M262.12,301.53c.4-.33.34-1,.13-1.59a8.27,8.27,0,0,0-.85-1.71.5.5,0,0,1-.08-.36.42.42,0,0,1,.45-.38h0a9.74,9.74,0,0,0,1.61.15,3.14,3.14,0,0,0,.77-.08.8.8,0,0,0,.48-.25.94.94,0,0,0,0-.57,3.8,3.8,0,0,0-.26-.81,10,10,0,0,0-.85-1.58v0a.51.51,0,0,1-.07-.35.41.41,0,0,1,.46-.37,4.63,4.63,0,0,0,1.66,0,1.25,1.25,0,0,0,1.1-1,3.27,3.27,0,0,0-.32-1.87,8.23,8.23,0,0,0-1-1.68,6.21,6.21,0,0,1,1.28,1.49,3.25,3.25,0,0,1,.56,2.14,1.92,1.92,0,0,1-.53,1.14,2.21,2.21,0,0,1-.95.55,3.4,3.4,0,0,1-1,.16c.16.29.32.59.46.91a5,5,0,0,1,.34,1,2,2,0,0,1-.17,1.39,1.58,1.58,0,0,1-1,.65,4.33,4.33,0,0,1-.93.08,6.44,6.44,0,0,1-.89-.06,7.26,7.26,0,0,1,.4,1.11,3.4,3.4,0,0,1,.11,1.21,1.57,1.57,0,0,1-.6,1.14,2.19,2.19,0,0,1-1.94.21,6.54,6.54,0,0,1-1.71-.75,8.44,8.44,0,0,0,1.76.4A2.21,2.21,0,0,0,262.12,301.53Z" style="fill:#59C983"></path><path d="M123.05,238.7s26.17,15.17,27.51,14.87c.7-.17,7.88-1.48,14.66-2.72l10.86-2,1.43-.26.37-9.27c-4.86.31-21,6.34-23.27,7.09s-29.72-10.34-29.72-10.34Z" style="fill:#eec1bb"></path><path d="M165.22,250.85l10.86-2,1.28-1.09a10.82,10.82,0,0,0-1.63-1.61S167.6,246.44,165.22,250.85Z" style="opacity:0.2;isolation:isolate"></path><path d="M230.27,273.8S212.14,292,204.6,287.36a37.26,37.26,0,0,1-11.4-10.88s-14.75.15-17.21-15a47.63,47.63,0,0,1-.26-15.28,19.7,19.7,0,0,1,2.15-6.83,15.71,15.71,0,0,1,4.33-.05c1,.08,2,.22,3,.4,7,1.17,16.06,4,21.85,5.62.89.25,1.72.47,2.43.63a19,19,0,0,0,2.14.44c2.42.31,4.59,2.89,6.43,6.25a56.16,56.16,0,0,1,3.63,8.54l.24.73c.66,2,1.2,3.8,1.6,5.26.56,2,.86,3.38.86,3.38Z" style="fill:#eec1bb"></path><path d="M222,261.9c-5.31-.41-9.83-5.86-9.83-5.86a19.16,19.16,0,0,1,6-3.41,56.16,56.16,0,0,1,3.63,8.54Z" style="opacity:0.2;isolation:isolate"></path><path d="M185.65,242.51a.25.25,0,0,1-.18-.08.25.25,0,0,1,0-.36,9.16,9.16,0,0,1,6.84-2.59,7.4,7.4,0,0,1,5.5,2.47.25.25,0,1,1-.38.32,7,7,0,0,0-5.16-2.3,8.76,8.76,0,0,0-6.47,2.48A.27.27,0,0,1,185.65,242.51Z" style="fill:#59C983"></path><path d="M205.63,246.24s-7.76,10.38-14.78,7.41a11.44,11.44,0,0,1-6.87-9.23,9.64,9.64,0,0,1-.1-1.18s4,0,2.68-3.92l11.23-4.27a26.29,26.29,0,0,0-.75,3c-.32,1.79-.45,3.85.47,4.67C199.26,244.22,205.63,246.24,205.63,246.24Z" style="fill:#eec1bb"></path><path d="M197,238c-.73,6.57-6.23,9.56-13.06,6.41a9.64,9.64,0,0,1-.1-1.18s4,0,2.68-3.92l11.23-4.27A26.29,26.29,0,0,0,197,238Z" style="opacity:0.2;isolation:isolate"></path><path d="M208.5,273.09a.26.26,0,0,1-.24-.17.25.25,0,0,1,.17-.32c.1,0,10.07-3.19,13.53-10.18a.25.25,0,0,1,.33-.11.23.23,0,0,1,.11.33c-3.54,7.19-13.72,10.41-13.83,10.44Z" style="fill:#59C983"></path><path d="M179,263.21a.24.24,0,0,1-.25-.21c-1.17-7.46,1.75-16.45,6.79-20.93a.24.24,0,0,1,.35,0,.25.25,0,0,1,0,.35c-4.84,4.3-7.76,13.29-6.63,20.48a.25.25,0,0,1-.21.28Z" style="fill:#59C983"></path><path d="M201.67,265.19a.24.24,0,0,1-.23-.14A33.08,33.08,0,0,1,199.11,253c0-.65,0-1.36,0-2.08.06-3,.13-6.44-1.67-8.64a.25.25,0,0,1,0-.36.25.25,0,0,1,.35,0c1.92,2.34,1.85,5.86,1.79,9,0,.72,0,1.41,0,2.06a32.6,32.6,0,0,0,2.28,11.86.24.24,0,0,1-.12.33Z" style="fill:#59C983"></path><path d="M192.75,276.47c1.35,0-3.15-9.1-4.72-9.78a1.54,1.54,0,0,0-2.14.89s-2.08-4-3.14-4.27-1.7,1.24-1.7,1.24-2.08-3.43-3.28-3.9-2.65.54-1.69,3.83S181.13,276.8,192.75,276.47Z" style="fill:#59C983"></path><path d="M176.08,264.47a17.06,17.06,0,0,0,8.48,10.36l.09,0a17.22,17.22,0,0,0,8.09,1.6c1.36,0-3.14-9.09-4.71-9.78a1.54,1.54,0,0,0-2.14.89s-2.07-4-3.14-4.26-1.7,1.23-1.7,1.23-2.08-3.42-3.28-3.9S175.13,261.18,176.08,264.47Z" style="fill:#fff;opacity:0.6000000000000001"></path><path d="M203.74,279.88c-8.61-1-15.34-9.89-15.28-11.45s2.86-1.84,2.86-1.84-.58-5.88,3.2-4c0,0,2.58-4.05,5.77,0,0,0,4.91-1.54,5.64,3.45,0,0,2.9-.89,2.54,3.74,0,0,2-1.47,2.1,2.2S205.66,280.09,203.74,279.88Z" style="fill:#59C983"></path><path d="M188.46,268.43c0,.71,1.36,3,3.69,5.29,2.79,2.75,6.91,5.62,11.59,6.16,1.9.21,6.8-4.08,6.83-7.72V272c0-1.63-.46-2.25-.92-2.42a1.39,1.39,0,0,0-1.18.22c.22-2.78-.74-3.56-1.54-3.74a2,2,0,0,0-1,0,3.88,3.88,0,0,0-4.66-3.64,5,5,0,0,0-1,.19c-3.18-4.09-5.77,0-5.77,0a3.3,3.3,0,0,0-1.11-.36c-2.45-.25-2.12,4-2.09,4.35v0a6.57,6.57,0,0,0-.91.17C189.59,267,188.5,267.46,188.46,268.43Z" style="fill:#fff;opacity:0.6000000000000001"></path><path d="M176.08,264.47a17.06,17.06,0,0,0,8.48,10.36l.09,0s4,.37,4.88-.38-3.05-6.25-3.41-6.22-1.21,3.27-.82,4.92c-.12-.34-2-5.76-2.45-7.5s-1.26-1.29-1.78.84c-.46,1.92.86,4.72,1.1,5.24-.43-.67-3.84-6-4.41-8.53C177.15,260.55,176.06,261.42,176.08,264.47Z" style="fill:#fff;opacity:0.6000000000000001"></path><path d="M188.46,268.43c0,.71,1.36,3,3.69,5.29,4.18,2.74,9.8,4.43,10.9,4.15a11.23,11.23,0,0,0,6.11-3.09,6,6,0,0,0,1.41-2.62V272c0-1.63-.46-2.25-.92-2.42a15.08,15.08,0,0,1-4.77,6.24c.57-.5,2.2-2.18,3.59-6,.22-2.78-.74-3.56-1.54-3.74-.75,6.43-2.79,8.21-2.79,8.21s1.9-2.6,1.79-8.21a3.88,3.88,0,0,0-4.66-3.64,55.63,55.63,0,0,1,.76,11,49.62,49.62,0,0,0-1.74-10.85c-3.18-4.09-5.77,0-5.77,0,1,3.27,5.48,11,5.48,11a26,26,0,0,1-6.59-11.39c-2.45-.25-2.12,4-2.09,4.35v0c1.17,3.13,5.38,7.61,5.64,7.89a22.39,22.39,0,0,1-6.55-7.72C189.59,267,188.5,267.46,188.46,268.43Z" style="fill:#fff;opacity:0.6000000000000001"></path><path d="M201.56,229.67a.25.25,0,0,1-.23-.17c-.1-.29-.6-3,10.72-7.08,6.41-2.31,11-7.63,10.55-12.11-.35-3.27-3.37-5.43-8.48-6.08a.25.25,0,0,1-.21-.28.24.24,0,0,1,.28-.22c7.23.93,8.69,4.49,8.91,6.52.52,4.7-4.26,10.25-10.88,12.64-10.88,3.92-10.42,6.44-10.41,6.47a.26.26,0,0,1-.18.3Z" style="fill:#263238"></path><path d="M199.55,231.15c7.51-6.55,12.5-9.38,13.79-17.12s-.19-17.93-16.31-20.8-25.31,0-32.06-4.51,6.55-9.67,15.47-12,9.54-12.44-8.12-16.12c0,0,7.67,3.08,7,6s-32.49,8-37.92,14.44-7,18,7.9,26.68,10.46,28.43,31.1,28.83S199.55,231.15,199.55,231.15Z" style="fill:#263238"></path><path d="M203,224s4.3-21.6-15.54-19c-24.9,3.23-14.72,34-2.39,31.84S203,224,203,224Z" style="fill:#263238"></path><path d="M192,211.09c8.51.54,11,5.26,11,14.07.08,11-2.84,18.64-13.33,15.62C175.42,236.69,177.83,210.19,192,211.09Z" style="fill:#eec1bb"></path><path d="M197.52,224.34a18.24,18.24,0,0,0,2.25,3.68,2.34,2.34,0,0,1-2.3.82Z" style="fill:#d4827d"></path><path d="M192.36,223.31c0,.7-.43,1.25-.9,1.24s-.82-.61-.79-1.31.42-1.25.89-1.23S192.38,222.61,192.36,223.31Z" style="fill:#263238"></path><path d="M191.37,222l1.54-.54S192.1,222.75,191.37,222Z" style="fill:#263238"></path><path d="M201.06,223.51c0,.7-.43,1.26-.89,1.24s-.83-.6-.8-1.3.43-1.26.9-1.24S201.09,222.81,201.06,223.51Z" style="fill:#263238"></path><path d="M200.07,222.24l1.55-.54S200.81,223,200.07,222.24Z" style="fill:#263238"></path><path d="M188.87,218.85a.39.39,0,0,1-.25-.1.37.37,0,0,1,0-.51,4.75,4.75,0,0,1,4.11-1.16.35.35,0,0,1,.29.42.37.37,0,0,1-.43.29,4.08,4.08,0,0,0-3.43.94A.36.36,0,0,1,188.87,218.85Z" style="fill:#263238"></path><path d="M202.19,218.74a.33.33,0,0,1-.21-.07,3.65,3.65,0,0,0-3-.86.36.36,0,0,1-.21-.69,4.31,4.31,0,0,1,3.67,1,.37.37,0,0,1,.07.51A.37.37,0,0,1,202.19,218.74Z" style="fill:#263238"></path><path d="M181.76,224.84s4.42-6.74,4.16-12.17c0,0,17.29-5.82,17,11.34,0,0,2.61-15.09-12-16.35s-17.59,19.85-10.44,26.7C180.53,234.36,179,229.05,181.76,224.84Z" style="fill:#263238"></path><path d="M183,226.72a3.73,3.73,0,0,0-3.8-3.66c-2.65.12-4.25,5.45,2.22,7.17C182.38,230.47,183,229.59,183,226.72Z" style="fill:#eec1bb"></path><path d="M198,232.29a21.39,21.39,0,0,0-1.27,2.86l-.54-.11c-2.45-.48-3.42-1.52-3.76-2.52a3.19,3.19,0,0,1-.1-1.51,3,3,0,0,1,.24-.84,11.69,11.69,0,0,0,4.6,1.94C197.7,232.24,198,232.29,198,232.29Z" style="fill:#263238"></path><path d="M197.19,232.11l-.4.84c-2.3-.47-3.86-1.1-4.44-1.94a3,3,0,0,1,.24-.84A11.69,11.69,0,0,0,197.19,232.11Z" style="fill:#fff"></path><path d="M196.21,235c-2.45-.48-3.42-1.52-3.76-2.52a8.09,8.09,0,0,1,2.61,1.08A3,3,0,0,1,196.21,235Z" style="fill:#de5753"></path><path d="M206.05,219.32s6.48,0,10-11.14-.05-17.47-13.7-18.46-26.08-.74-22.88-5.48,30.79-10.58,9.7-16c0,0,6.73,1.46,6.1,4.46s-16.5,7-19,11.44.13,6.68,9.4,7.05,23.82.82,22.93,9.62S206.05,219.32,206.05,219.32Z" style="fill:#263238"></path><path d="M210.19,215.84a.27.27,0,0,1-.18-.08.25.25,0,0,1,0-.35c.08-.08,8.14-8,7.95-15.28a8.64,8.64,0,0,0-3.13-6.45c-5.64-4.94-15-5.32-21.91-5.59-4.62-.19-8.27-.33-9.36-1.77a1.58,1.58,0,0,1-.42-1.55c.37-.91,2-1.14,3.9-1.4s4-.58,4.49-1.63a.23.23,0,0,1,.32-.13.25.25,0,0,1,.14.32c-.55,1.32-2.75,1.63-4.88,1.93-1.6.23-3.25.46-3.51,1.1-.11.25,0,.61.36,1.06.94,1.25,4.67,1.4,9,1.57,6.94.28,16.45.66,22.22,5.72a9.07,9.07,0,0,1,3.3,6.8c.19,7.49-7.76,15.33-8.1,15.66A.24.24,0,0,1,210.19,215.84Z" style="fill:#263238"></path><path d="M180.2,193.78h0c-7.27-1.49-11.11-3.59-11.41-6.23-.44-3.87,6.7-7.44,8.9-8.44a.25.25,0,0,1,.2.46c-1.51.69-9,4.3-8.6,7.93.27,2.4,4,4.35,11,5.79a.26.26,0,0,1,.2.3A.27.27,0,0,1,180.2,193.78Z" style="fill:#263238"></path><path d="M172.45,229.71c1.69,7-17.35-8.27-22.26-5.51s-13.55-3.12-6-10.57-3.3-8.32-6.95-3.2c0,0,2.93-5.35,8.66-3.88s.75,6.6-.07,10.56,1.24,3.47,5.86,1.85S169.76,218.53,172.45,229.71Z" style="fill:#263238"></path><path d="M174.37,237.51c-3.7,0-7.32-.69-8.79-2.9a14.31,14.31,0,0,1-1.41-3.12c-1-2.78-2-5.66-7.88-6.72a14.6,14.6,0,0,0-8.7,1.32c-2.58,1-4.62,1.88-6.78-.84a9.68,9.68,0,0,1-1.39-10,.25.25,0,0,1,.33-.11.24.24,0,0,1,.11.34,9.21,9.21,0,0,0,1.34,9.44c1.93,2.43,3.63,1.73,6.2.69a15,15,0,0,1,9-1.35c6.15,1.11,7.22,4.13,8.26,7a13.25,13.25,0,0,0,1.36,3c2,3.07,9.4,3.17,15.39,2a.25.25,0,0,1,.29.2.24.24,0,0,1-.19.29A36.89,36.89,0,0,1,174.37,237.51Z" style="fill:#263238"></path><path d="M204.41,244.56c6.29.42,30.29-3.65,31.53-5S246,211.72,246,211.72l3.69,1.13s-6.46,29.89-8.59,33.48-29,9.71-29,9.71-4.85-3.17-6.32-5.73A12.61,12.61,0,0,1,204.41,244.56Z" style="fill:#eec1bb"></path><path d="M249.7,212.85l-4-.06s-1.29-1.91-1.18-2.71,1.79-8.55,2.66-8.7,5.61,2.41,6,3.07S251.13,212.88,249.7,212.85Z" style="fill:#eec1bb"></path><path d="M123.43,239.53l2.62-3.08s-.59-2.22-1.26-2.66-7.6-4.31-8.29-3.75-1.89,5.8-1.63,6.5S122.5,240.62,123.43,239.53Z" style="fill:#eec1bb"></path></g></svg>