<svg xmlns="http://www.w3.org/2000/svg" viewBox="0 0 500 500"><g id="freepik--background-complete--inject-121"><rect y="382.4" width="500" height="0.25" style="fill:#ebebeb"></rect><rect x="416.78" y="398.49" width="33.12" height="0.25" style="fill:#ebebeb"></rect><rect x="322.53" y="401.21" width="8.69" height="0.25" style="fill:#ebebeb"></rect><rect x="396.59" y="389.21" width="19.19" height="0.25" style="fill:#ebebeb"></rect><rect x="52.46" y="390.89" width="43.19" height="0.25" style="fill:#ebebeb"></rect><rect x="104.56" y="390.89" width="6.33" height="0.25" style="fill:#ebebeb"></rect><rect x="131.47" y="395.11" width="93.68" height="0.25" style="fill:#ebebeb"></rect><path d="M237,337.8H43.91a5.71,5.71,0,0,1-5.7-5.71V60.66A5.71,5.71,0,0,1,43.91,55H237a5.71,5.71,0,0,1,5.71,5.71V332.09A5.71,5.71,0,0,1,237,337.8ZM43.91,55.2a5.46,5.46,0,0,0-5.45,5.46V332.09a5.46,5.46,0,0,0,5.45,5.46H237a5.47,5.47,0,0,0,5.46-5.46V60.66A5.47,5.47,0,0,0,237,55.2Z" style="fill:#ebebeb"></path><path d="M453.31,337.8H260.21a5.72,5.72,0,0,1-5.71-5.71V60.66A5.72,5.72,0,0,1,260.21,55h193.1A5.71,5.71,0,0,1,459,60.66V332.09A5.71,5.71,0,0,1,453.31,337.8ZM260.21,55.2a5.47,5.47,0,0,0-5.46,5.46V332.09a5.47,5.47,0,0,0,5.46,5.46h193.1a5.47,5.47,0,0,0,5.46-5.46V60.66a5.47,5.47,0,0,0-5.46-5.46Z" style="fill:#ebebeb"></path><path d="M212.43,115.57a8.79,8.79,0,0,1,11.35-8.44A18.67,18.67,0,0,1,245.7,86.07,16.31,16.31,0,0,1,276,94.32h.28a15,15,0,0,1,0,30.08H221A8.82,8.82,0,0,1,212.43,115.57Z" style="fill:#f0f0f0"></path><path d="M383.16,244.62a5.63,5.63,0,0,1,5.63-5.63,5.72,5.72,0,0,1,1.62.24,12.25,12.25,0,0,1-.13-1.73,11.92,11.92,0,0,1,11.92-11.92,11.32,11.32,0,0,1,2.2.21,10.42,10.42,0,0,1,19.32,5.26h.17a9.6,9.6,0,1,1,0,19.2H388.64A5.62,5.62,0,0,1,383.16,244.62Z" style="fill:#f0f0f0"></path><path d="M72.78,105.76a3.44,3.44,0,0,1,3.45-3.45,3.64,3.64,0,0,1,1,.14,7.28,7.28,0,0,1,7.22-8.36,7.53,7.53,0,0,1,1.35.13,6.38,6.38,0,0,1,11.83,3.22h.11a5.88,5.88,0,1,1,0,11.76H76.13A3.44,3.44,0,0,1,72.78,105.76Z" style="fill:#f0f0f0"></path><path d="M399.47,103.67a2.56,2.56,0,0,1,2.56-2.56,2.53,2.53,0,0,1,.73.11,5.12,5.12,0,0,1-.06-.78A5.42,5.42,0,0,1,408.12,95a5.55,5.55,0,0,1,1,.09,4.73,4.73,0,0,1,8.77,2.4H418a4.37,4.37,0,0,1,0,8.73H402A2.56,2.56,0,0,1,399.47,103.67Z" style="fill:#f0f0f0"></path><path d="M76.18,198a12,12,0,0,1-.37-2.49c-.31-5.16-5.24-4.35-9.43-5-3.28-.54,5.4-8.82-1.21-11.49A5.86,5.86,0,0,1,62,176.72c-.83-1.55,0-3.57,1.44-4.59a8.87,8.87,0,0,1,5-1.25c1.07-1.31.2-3.28-.85-4.62s-2.32-2.86-1.92-4.51c.6-2.49,4.08-2.58,6.59-2.1.93-1.5.91-3.39,1.37-5.1s1.81-3.5,3.56-3.29,2.67,2.07,4.29,2.45c1.88.45,3.51-1.22,5-2.47s4.06-2,5.08-.38c.61,1,.25,2.36.88,3.33,1.1,1.68,3.7.64,5.32-.56s4.19-2.27,5.32-.61a6.67,6.67,0,0,1,.63,1.72c.76,2.21,3.15,3.31,5,4.72s3.33,4.23,1.75,6c-.77.85-2.14,1.19-2.52,2.28-.48,1.36.9,2.57,2,3.5,1.83,1.56,2.16,6.2-.26,7.47-1,.54-2.5.7-2.74,1.82s.79,1.78,1.46,2.55a4.79,4.79,0,0,1-1.47,7.14c-.58.28-1.29.5-1.5,1.11a2.19,2.19,0,0,0,.14,1.35,7.29,7.29,0,0,1,.23,2.59,1.2,1.2,0,0,1-.32.81,1.23,1.23,0,0,1-.76.21c-3.49.16-5.17-1.08-7.3,2a2.41,2.41,0,0,1-.72.77,2.27,2.27,0,0,1-1,.24c-2.4.2-4-1.3-6.16-1.58-3-.39-3.68,1.18-6.35,2.44C79,202.06,77,200.84,76.18,198Z" style="fill:#ebebeb"></path><path d="M116.33,193.63a11.33,11.33,0,0,1-.38-2.49c-.31-5.16-5.24-4.34-9.43-5-3.28-.55,5.4-8.83-1.21-11.5a5.86,5.86,0,0,1-3.19-2.22c-.83-1.54,0-3.57,1.44-4.58a8.87,8.87,0,0,1,5-1.26c1.08-1.31.2-3.28-.84-4.62s-2.32-2.86-1.93-4.51c.6-2.49,4.08-2.58,6.59-2.1.93-1.5.92-3.38,1.37-5.09s1.81-3.51,3.56-3.3,2.67,2.07,4.29,2.46c1.88.44,3.52-1.23,5-2.48s4.07-2,5.08-.38c.61,1,.25,2.36.88,3.33,1.1,1.68,3.7.64,5.32-.55s4.19-2.28,5.33-.62a7.12,7.12,0,0,1,.62,1.73c.77,2.2,3.15,3.3,5,4.72s3.33,4.22,1.76,6c-.78.85-2.14,1.2-2.53,2.28-.48,1.36.91,2.57,2,3.51,1.83,1.55,2.16,6.2-.26,7.47-1,.53-2.49.69-2.74,1.81s.79,1.78,1.46,2.55a4.79,4.79,0,0,1-1.47,7.14c-.58.28-1.29.51-1.5,1.11a2.18,2.18,0,0,0,.14,1.35,7.29,7.29,0,0,1,.23,2.59.93.93,0,0,1-1.08,1c-3.49.16-5.17-1.07-7.3,2a2.41,2.41,0,0,1-.72.77,2.27,2.27,0,0,1-1,.24c-2.4.2-4-1.3-6.15-1.58-3-.38-3.69,1.18-6.36,2.44C119.16,197.72,117.12,196.5,116.33,193.63Z" style="fill:#ebebeb"></path><path d="M120.19,168.07a12,12,0,0,1-.37-2.49c-.31-5.17-5.24-4.35-9.43-5.05-3.28-.55,5.4-8.82-1.21-11.49a5.82,5.82,0,0,1-3.19-2.23c-.83-1.54,0-3.57,1.44-4.58a8.87,8.87,0,0,1,5-1.25c1.07-1.31.2-3.29-.85-4.62s-2.32-2.86-1.92-4.51c.6-2.5,4.08-2.58,6.59-2.1.93-1.51.91-3.39,1.37-5.1s1.81-3.5,3.56-3.29,2.67,2.07,4.29,2.45c1.88.45,3.51-1.22,5-2.47s4.06-2,5.08-.38c.61,1,.25,2.36.88,3.33,1.1,1.68,3.7.63,5.32-.56s4.19-2.27,5.32-.62a6.88,6.88,0,0,1,.63,1.73c.76,2.21,3.15,3.31,5,4.72s3.33,4.23,1.75,6c-.77.85-2.14,1.19-2.52,2.28-.48,1.36.9,2.57,2,3.5,1.83,1.56,2.16,6.2-.26,7.47-1,.54-2.5.7-2.74,1.82s.79,1.78,1.46,2.55a4.79,4.79,0,0,1-1.47,7.14c-.58.28-1.29.5-1.5,1.11a2.2,2.2,0,0,0,.14,1.35,7.26,7.26,0,0,1,.23,2.58,1.2,1.2,0,0,1-.32.82,1.23,1.23,0,0,1-.76.21c-3.49.16-5.17-1.08-7.3,2a2.53,2.53,0,0,1-.72.77,2.43,2.43,0,0,1-1,.24c-2.4.19-4-1.3-6.16-1.58-3-.39-3.68,1.18-6.35,2.44C123,172.16,121,170.94,120.19,168.07Z" style="fill:#ebebeb"></path><path d="M146.64,180.8a12.66,12.66,0,0,1-.38-2.49c-.31-5.16-5.24-4.34-9.43-5-3.28-.55,5.4-8.83-1.21-11.5a5.86,5.86,0,0,1-3.19-2.22c-.83-1.54,0-3.57,1.44-4.58a8.87,8.87,0,0,1,5-1.26c1.08-1.31.2-3.28-.84-4.62s-2.32-2.86-1.93-4.51c.6-2.49,4.08-2.58,6.6-2.1.93-1.5.91-3.38,1.36-5.1s1.81-3.5,3.57-3.29,2.66,2.07,4.28,2.45c1.89.45,3.52-1.22,5-2.47s4.07-2,5.08-.38c.61,1,.25,2.36.88,3.33,1.1,1.68,3.7.64,5.32-.56s4.19-2.27,5.33-.61a7,7,0,0,1,.62,1.72c.77,2.21,3.15,3.31,5,4.72s3.33,4.23,1.76,6c-.78.85-2.14,1.2-2.53,2.28-.48,1.36.91,2.57,2,3.51,1.83,1.55,2.16,6.2-.25,7.47-1,.53-2.5.69-2.75,1.81s.79,1.78,1.46,2.55a4.8,4.8,0,0,1-1.46,7.14c-.58.28-1.3.51-1.51,1.11a2.26,2.26,0,0,0,.14,1.35,7.29,7.29,0,0,1,.23,2.59,1.24,1.24,0,0,1-.31.81,1.28,1.28,0,0,1-.77.21c-3.49.16-5.17-1.07-7.29,2a2.56,2.56,0,0,1-.73.77,2.27,2.27,0,0,1-1,.24c-2.4.2-4-1.3-6.15-1.58-3-.38-3.69,1.18-6.36,2.44C149.47,184.89,147.43,183.67,146.64,180.8Z" style="fill:#ebebeb"></path><path d="M173.36,174.92a12,12,0,0,1-.37-2.49c-.31-5.16-5.24-4.35-9.44-5.05-3.27-.54,5.4-8.82-1.2-11.49a5.86,5.86,0,0,1-3.19-2.22c-.83-1.55,0-3.57,1.44-4.58a8.76,8.76,0,0,1,5-1.26c1.08-1.31.2-3.28-.84-4.62s-2.32-2.86-1.92-4.51c.59-2.49,4.07-2.58,6.59-2.1.93-1.5.91-3.39,1.36-5.1s1.81-3.5,3.57-3.29,2.66,2.07,4.29,2.45c1.88.45,3.51-1.22,5-2.47s4.06-2,5.08-.38c.61,1,.24,2.36.88,3.33,1.09,1.68,3.7.64,5.31-.56s4.19-2.27,5.33-.61a6.67,6.67,0,0,1,.63,1.72c.76,2.21,3.15,3.31,5,4.72s3.33,4.23,1.76,6c-.77.85-2.14,1.2-2.52,2.28-.49,1.36.9,2.57,2,3.51,1.82,1.55,2.15,6.19-.26,7.47-1,.53-2.5.69-2.75,1.81s.79,1.78,1.47,2.55a4.79,4.79,0,0,1-1.47,7.14c-.58.28-1.29.51-1.51,1.11a2.34,2.34,0,0,0,.14,1.35,6.86,6.86,0,0,1,.23,2.59,1.14,1.14,0,0,1-.31.81,1.25,1.25,0,0,1-.76.21c-3.49.16-5.17-1.08-7.3,2a2.44,2.44,0,0,1-.73.77,2.2,2.2,0,0,1-1,.24c-2.39.2-4-1.3-6.15-1.58-3-.39-3.68,1.18-6.36,2.44C176.19,179,174.15,177.79,173.36,174.92Z" style="fill:#ebebeb"></path><path d="M173.71,203.51a10.09,10.09,0,0,1-.3-2c-.24-4.07-4.12-3.42-7.42-4-2.58-.43,4.25-6.95-1-9a4.53,4.53,0,0,1-2.51-1.75,3,3,0,0,1,1.13-3.61,7.05,7.05,0,0,1,4-1c.85-1,.16-2.58-.66-3.63s-1.83-2.26-1.52-3.55c.47-2,3.21-2,5.19-1.65.73-1.19.72-2.67,1.08-4s1.42-2.76,2.8-2.59,2.1,1.63,3.38,1.93c1.48.35,2.77-1,3.93-1.95s3.2-1.59,4-.3c.48.78.19,1.86.69,2.62.87,1.33,2.92.51,4.19-.43s3.3-1.79,4.19-.49a5.27,5.27,0,0,1,.5,1.36c.6,1.74,2.48,2.6,3.94,3.72s2.62,3.33,1.38,4.69c-.61.67-1.68.94-2,1.79-.38,1.07.72,2,1.58,2.76,1.44,1.23,1.7,4.88-.2,5.88-.8.42-2,.55-2.17,1.43s.63,1.4,1.16,2a3.78,3.78,0,0,1-1.16,5.62c-.45.22-1,.4-1.18.88a1.77,1.77,0,0,0,.1,1.06,5.61,5.61,0,0,1,.19,2,.93.93,0,0,1-.25.64,1,1,0,0,1-.6.17c-2.75.12-4.07-.85-5.75,1.53a2,2,0,0,1-.57.61,1.74,1.74,0,0,1-.76.19c-1.88.16-3.11-1-4.84-1.24-2.39-.31-2.9.93-5,1.92C175.94,206.73,174.33,205.77,173.71,203.51Z" style="fill:#ebebeb"></path><path d="M188.68,193.63a12,12,0,0,1-.37-2.49c-.31-5.16-5.24-4.34-9.43-5-3.28-.55,5.4-8.83-1.21-11.5a5.86,5.86,0,0,1-3.19-2.22c-.83-1.54,0-3.57,1.44-4.58a8.87,8.87,0,0,1,5-1.26c1.07-1.31.2-3.28-.85-4.62s-2.32-2.86-1.92-4.51c.6-2.49,4.08-2.58,6.59-2.1.93-1.5.91-3.38,1.37-5.09s1.81-3.51,3.56-3.3,2.67,2.07,4.29,2.46c1.88.44,3.51-1.23,5-2.48s4.06-2,5.08-.38c.61,1,.25,2.36.88,3.33,1.1,1.68,3.7.64,5.32-.55s4.19-2.28,5.32-.62a6.74,6.74,0,0,1,.63,1.73c.77,2.2,3.15,3.3,5,4.72s3.33,4.22,1.75,6c-.77.85-2.14,1.2-2.52,2.28-.48,1.36.9,2.57,2,3.51,1.83,1.55,2.16,6.2-.26,7.47-1,.53-2.5.69-2.74,1.81s.79,1.78,1.46,2.55a4.79,4.79,0,0,1-1.47,7.14c-.58.28-1.29.51-1.5,1.11a2.18,2.18,0,0,0,.14,1.35,7.29,7.29,0,0,1,.23,2.59.93.93,0,0,1-1.08,1c-3.49.16-5.17-1.07-7.3,2a2.41,2.41,0,0,1-.72.77,2.27,2.27,0,0,1-1,.24c-2.4.2-4-1.3-6.16-1.58-3-.38-3.68,1.18-6.35,2.44C191.52,197.72,189.48,196.5,188.68,193.63Z" style="fill:#ebebeb"></path><path d="M146.64,149.36a12.66,12.66,0,0,1-.38-2.49c-.31-5.17-5.24-4.35-9.43-5.05-3.28-.55,5.4-8.83-1.21-11.5a5.76,5.76,0,0,1-3.19-2.22c-.83-1.54,0-3.57,1.44-4.58a9,9,0,0,1,5-1.26c1.08-1.31.2-3.28-.84-4.62s-2.32-2.86-1.93-4.51c.6-2.49,4.08-2.58,6.6-2.09.93-1.51.91-3.39,1.36-5.1s1.81-3.51,3.57-3.29,2.66,2.07,4.28,2.45c1.89.44,3.52-1.22,5-2.47s4.07-2,5.08-.39c.61,1,.25,2.36.88,3.33,1.1,1.69,3.7.64,5.32-.55s4.19-2.27,5.33-.62a7.27,7.27,0,0,1,.62,1.73c.77,2.21,3.15,3.3,5,4.72s3.33,4.23,1.76,6c-.78.86-2.14,1.2-2.53,2.29-.48,1.35.91,2.57,2,3.5,1.83,1.55,2.16,6.2-.25,7.47-1,.54-2.5.7-2.75,1.82s.79,1.77,1.46,2.54a4.81,4.81,0,0,1-1.46,7.15c-.58.27-1.3.5-1.51,1.11A2.27,2.27,0,0,0,176,144a7.24,7.24,0,0,1,.23,2.58,1.2,1.2,0,0,1-.31.81,1.22,1.22,0,0,1-.77.22c-3.49.15-5.17-1.08-7.29,2a2.35,2.35,0,0,1-.73.77,2.13,2.13,0,0,1-1,.24c-2.4.2-4-1.29-6.15-1.57-3-.39-3.69,1.18-6.36,2.44C149.47,153.44,147.43,152.22,146.64,149.36Z" style="fill:#ebebeb"></path><path d="M112.3,151.11a12,12,0,0,1-.37-2.49c-.31-5.16-5.24-4.34-9.43-5-3.28-.55,5.4-8.83-1.21-11.5a5.86,5.86,0,0,1-3.19-2.22c-.83-1.54,0-3.57,1.44-4.58a8.87,8.87,0,0,1,5-1.26c1.07-1.31.2-3.28-.84-4.62s-2.32-2.86-1.93-4.51c.6-2.49,4.08-2.58,6.59-2.1.93-1.5.91-3.38,1.37-5.09s1.81-3.51,3.56-3.3,2.67,2.07,4.29,2.46c1.88.44,3.52-1.23,5-2.48s4.07-2,5.08-.38c.61,1,.25,2.36.88,3.33,1.1,1.68,3.7.64,5.32-.55s4.19-2.28,5.32-.62a6.74,6.74,0,0,1,.63,1.73c.77,2.2,3.15,3.3,5,4.72s3.33,4.22,1.75,6c-.77.85-2.13,1.2-2.52,2.28-.48,1.36.9,2.57,2,3.51,1.83,1.55,2.16,6.2-.26,7.47-1,.53-2.5.69-2.74,1.81s.79,1.78,1.46,2.55a4.79,4.79,0,0,1-1.47,7.14c-.58.28-1.29.51-1.5,1.11a2.18,2.18,0,0,0,.14,1.35,7.29,7.29,0,0,1,.23,2.59,1.18,1.18,0,0,1-.32.81,1.24,1.24,0,0,1-.76.22c-3.49.15-5.17-1.08-7.3,1.95a2.41,2.41,0,0,1-.72.77,2.27,2.27,0,0,1-1,.24c-2.4.2-4-1.3-6.16-1.58-3-.38-3.68,1.18-6.35,2.44C115.14,155.2,113.1,154,112.3,151.11Z" style="fill:#ebebeb"></path><path d="M91.45,165.16a12.66,12.66,0,0,1-.38-2.49c-.3-5.16-5.23-4.34-9.43-5-3.27-.55,5.4-8.83-1.2-11.5a5.86,5.86,0,0,1-3.19-2.22c-.83-1.54,0-3.57,1.44-4.58a8.84,8.84,0,0,1,5-1.26c1.08-1.31.2-3.28-.84-4.62s-2.32-2.86-1.92-4.51c.59-2.49,4.07-2.58,6.59-2.1.93-1.5.91-3.38,1.36-5.09s1.81-3.51,3.57-3.3,2.66,2.07,4.29,2.46c1.88.44,3.51-1.23,5-2.48s4.06-2,5.08-.38c.61,1,.24,2.36.88,3.33,1.09,1.68,3.7.64,5.31-.56s4.19-2.27,5.33-.61a6.61,6.61,0,0,1,.63,1.73c.76,2.2,3.15,3.3,5,4.72s3.33,4.22,1.76,6c-.77.85-2.14,1.2-2.52,2.28-.49,1.36.9,2.57,2,3.51,1.82,1.55,2.15,6.2-.26,7.47-1,.53-2.5.69-2.75,1.81s.79,1.78,1.47,2.55a4.79,4.79,0,0,1-1.47,7.14c-.58.28-1.29.51-1.51,1.11a2.34,2.34,0,0,0,.14,1.35,6.86,6.86,0,0,1,.23,2.59,1.12,1.12,0,0,1-.31.81,1.2,1.2,0,0,1-.77.21c-3.48.16-5.16-1.07-7.29,2a2.44,2.44,0,0,1-.73.77,2.2,2.2,0,0,1-1,.24c-2.39.2-4-1.3-6.15-1.58-3-.38-3.68,1.18-6.36,2.44C94.28,169.25,92.24,168,91.45,165.16Z" style="fill:#ebebeb"></path><path d="M97.77,182.92s8.72,12.33,11.73,16.24,18,28.27,20.09,44.38c.22,1.72.44,3.2.65,4.49-6.47,42.69-5.46,120.8-5.23,134.17H145.5c.19-15.08,1.93-152.91,2.57-157.12.68-4.45,9.25-21.41,22.48-28.38s24.67-30,24.67-30H191s-7.82,14.13-18.95,21.95a42.43,42.43,0,0,1-5,3c.4-12.74-4.43-24.92-4.43-24.92l-2.27,2.11c3.07,12.58,2.67,20.65,1.74,25.28a45.79,45.79,0,0,0-11.51,7.7c-11.54-15-18-49.33-18-49.33l-3,1.61a174.37,174.37,0,0,0,3.82,21c2.16,8.88,8.52,25.61,11.49,33.21a78.09,78.09,0,0,0-8.72,16.36,6.58,6.58,0,0,0-1.12-1.33c-7.51-6.8-21.65-38.92-21.65-38.92-3.42-7.46,1.81-27.06,1.81-27.06h-4L109.5,174.5l-9.92-10.83-1.81,1.51,10.53,13.53,5.41,17.15L99.58,180.21Z" style="fill:#e6e6e6"></path><path d="M206,252.43a8.73,8.73,0,0,1-.26-1.75c-.22-3.64-3.69-3.06-6.64-3.55-2.31-.39,3.8-6.22-.86-8.1a4.1,4.1,0,0,1-2.24-1.57,2.64,2.64,0,0,1,1-3.22,6.26,6.26,0,0,1,3.54-.89c.75-.92.14-2.31-.6-3.25s-1.63-2-1.35-3.18c.42-1.75,2.87-1.82,4.64-1.48.66-1.06.64-2.38,1-3.59s1.28-2.47,2.51-2.32,1.88,1.46,3,1.73c1.33.31,2.48-.86,3.52-1.74s2.86-1.43,3.58-.27c.43.69.17,1.66.62,2.35.77,1.18,2.6.45,3.74-.39s3-1.61,3.75-.44a4.68,4.68,0,0,1,.44,1.22c.54,1.55,2.22,2.32,3.53,3.32s2.35,3,1.24,4.2c-.55.6-1.51.84-1.78,1.6-.34,1,.64,1.82,1.41,2.47,1.29,1.1,1.52,4.37-.18,5.26-.71.38-1.76.49-1.94,1.28s.56,1.25,1,1.8a3.38,3.38,0,0,1-1,5c-.41.19-.91.35-1.06.78a1.57,1.57,0,0,0,.1,1,5.08,5.08,0,0,1,.16,1.82.81.81,0,0,1-.22.57.84.84,0,0,1-.54.16c-2.45.1-3.64-.76-5.14,1.37a1.29,1.29,0,0,1-1.19.71c-1.68.14-2.79-.91-4.33-1.11-2.14-.27-2.59.83-4.48,1.72C208,255.31,206.53,254.45,206,252.43Z" style="fill:#e0e0e0"></path><path d="M234.25,249.38a8.93,8.93,0,0,1-.27-1.75c-.21-3.64-3.69-3.07-6.64-3.56-2.31-.38,3.8-6.22-.85-8.1a4.11,4.11,0,0,1-2.25-1.56,2.65,2.65,0,0,1,1-3.23,6.22,6.22,0,0,1,3.53-.88c.76-.93.14-2.32-.59-3.26s-1.64-2-1.36-3.17c.42-1.76,2.87-1.82,4.65-1.48.65-1.06.64-2.39.95-3.59s1.28-2.47,2.52-2.32,1.87,1.46,3,1.73c1.32.31,2.47-.86,3.51-1.74s2.87-1.43,3.58-.27c.43.69.17,1.66.62,2.34.77,1.19,2.61.45,3.75-.39s2.95-1.6,3.75-.43a4.85,4.85,0,0,1,.44,1.21c.54,1.56,2.22,2.33,3.53,3.33s2.34,3,1.23,4.19c-.54.6-1.5.84-1.78,1.61-.33.95.64,1.81,1.41,2.47,1.29,1.09,1.52,4.36-.18,5.26-.71.37-1.76.49-1.93,1.28s.56,1.25,1,1.79a3.38,3.38,0,0,1-1,5c-.41.2-.91.36-1.07.78a1.64,1.64,0,0,0,.1,1,5.14,5.14,0,0,1,.17,1.83.84.84,0,0,1-.23.57.87.87,0,0,1-.53.15c-2.46.11-3.64-.76-5.14,1.38a2,2,0,0,1-.51.54,1.63,1.63,0,0,1-.68.17c-1.69.14-2.79-.92-4.33-1.11-2.14-.28-2.6.83-4.48,1.71C236.24,252.26,234.8,251.4,234.25,249.38Z" style="fill:#e0e0e0"></path><path d="M237,231.37a8.73,8.73,0,0,1-.26-1.75c-.22-3.64-3.69-3.06-6.65-3.56-2.3-.38,3.81-6.21-.85-8.09A4.1,4.1,0,0,1,227,216.4a2.64,2.64,0,0,1,1-3.22,6.17,6.17,0,0,1,3.53-.89c.76-.92.15-2.31-.59-3.25s-1.63-2-1.35-3.18c.42-1.76,2.87-1.82,4.64-1.48.65-1.06.64-2.38,1-3.59s1.28-2.47,2.51-2.32,1.88,1.46,3,1.73c1.33.31,2.48-.86,3.52-1.74s2.86-1.43,3.58-.27c.43.69.17,1.66.62,2.34.77,1.19,2.6.45,3.74-.39s3-1.6,3.75-.43a4.68,4.68,0,0,1,.44,1.22c.54,1.55,2.22,2.32,3.53,3.32s2.34,3,1.24,4.19c-.55.6-1.51.85-1.78,1.61-.34,1,.64,1.81,1.41,2.47,1.28,1.09,1.52,4.37-.18,5.26-.72.38-1.76.49-1.94,1.28s.56,1.25,1,1.8a3.37,3.37,0,0,1-1,5c-.41.19-.91.35-1.06.78a1.57,1.57,0,0,0,.1,1,5.08,5.08,0,0,1,.16,1.82.81.81,0,0,1-.22.57.8.8,0,0,1-.54.15c-2.45.11-3.64-.76-5.14,1.38a1.29,1.29,0,0,1-1.19.71c-1.68.14-2.79-.91-4.33-1.11-2.14-.27-2.59.83-4.48,1.72C239,234.25,237.53,233.39,237,231.37Z" style="fill:#e0e0e0"></path><path d="M255.6,240.34a8.7,8.7,0,0,1-.27-1.75c-.21-3.64-3.69-3.06-6.64-3.56-2.31-.38,3.8-6.21-.85-8.09a4.13,4.13,0,0,1-2.25-1.57,2.66,2.66,0,0,1,1-3.23,6.22,6.22,0,0,1,3.53-.88c.76-.92.14-2.31-.59-3.26s-1.64-2-1.36-3.17c.42-1.76,2.87-1.82,4.65-1.48.65-1.06.64-2.38,1-3.59s1.27-2.47,2.51-2.32,1.87,1.46,3,1.73c1.32.31,2.47-.86,3.51-1.74s2.87-1.43,3.58-.27c.43.69.17,1.66.62,2.34.77,1.19,2.61.45,3.75-.39s2.95-1.6,3.75-.43a4.85,4.85,0,0,1,.44,1.21c.54,1.56,2.22,2.33,3.53,3.33s2.34,3,1.23,4.19c-.54.6-1.5.85-1.78,1.61-.33,1,.64,1.81,1.41,2.47,1.29,1.09,1.52,4.37-.18,5.26-.71.38-1.76.49-1.93,1.28s.56,1.25,1,1.79a3.38,3.38,0,0,1-1,5c-.41.2-.91.36-1.07.79a1.65,1.65,0,0,0,.1,1,5.08,5.08,0,0,1,.17,1.82.84.84,0,0,1-.23.57.87.87,0,0,1-.53.15c-2.46.11-3.64-.76-5.14,1.38a1.88,1.88,0,0,1-.51.54,1.63,1.63,0,0,1-.68.17c-1.69.14-2.79-.91-4.33-1.11-2.14-.27-2.6.83-4.48,1.72C257.59,243.22,256.15,242.36,255.6,240.34Z" style="fill:#e0e0e0"></path><path d="M274.42,236.2a8.16,8.16,0,0,1-.26-1.75c-.22-3.64-3.69-3.07-6.65-3.56-2.3-.38,3.81-6.22-.85-8.1a4.09,4.09,0,0,1-2.24-1.56,2.63,2.63,0,0,1,1-3.23,6.24,6.24,0,0,1,3.53-.88c.76-.93.15-2.32-.59-3.26s-1.63-2-1.35-3.17c.42-1.76,2.87-1.82,4.64-1.48.65-1.06.64-2.39,1-3.59s1.27-2.47,2.51-2.32,1.88,1.46,3,1.73c1.33.31,2.48-.86,3.52-1.74s2.86-1.43,3.58-.27c.43.69.17,1.66.61,2.34.78,1.19,2.61.45,3.75-.39s2.95-1.6,3.75-.43a4.48,4.48,0,0,1,.44,1.21c.54,1.56,2.22,2.33,3.53,3.33s2.34,3,1.24,4.19c-.55.6-1.51.84-1.78,1.61-.34,1,.64,1.81,1.41,2.47,1.28,1.09,1.52,4.36-.18,5.26-.72.37-1.76.49-1.94,1.28s.56,1.25,1,1.79a3.37,3.37,0,0,1-1,5c-.41.2-.91.36-1.06.78a1.57,1.57,0,0,0,.1.95,5.13,5.13,0,0,1,.16,1.83.83.83,0,0,1-.22.57.92.92,0,0,1-.54.15c-2.46.11-3.64-.76-5.14,1.38a1.75,1.75,0,0,1-.51.54,1.55,1.55,0,0,1-.68.17c-1.68.14-2.79-.92-4.33-1.11-2.14-.28-2.59.83-4.48,1.71C276.42,239.08,275,238.22,274.42,236.2Z" style="fill:#e0e0e0"></path><path d="M274.67,256.34a6.89,6.89,0,0,1-.21-1.39c-.17-2.86-2.91-2.41-5.23-2.79-1.82-.31,3-4.9-.67-6.38a3.29,3.29,0,0,1-1.77-1.23,2.08,2.08,0,0,1,.8-2.54,4.93,4.93,0,0,1,2.78-.7c.6-.73.11-1.82-.47-2.56s-1.28-1.59-1.06-2.5c.33-1.39,2.26-1.44,3.65-1.17a9.88,9.88,0,0,0,.76-2.82c.25-.95,1-1.95,2-1.83s1.47,1.15,2.37,1.36,1.95-.68,2.77-1.37,2.26-1.13,2.82-.21c.34.54.14,1.3.49,1.84.61.94,2.05.36,2.95-.3s2.32-1.27,2.95-.35a3.93,3.93,0,0,1,.35,1c.42,1.22,1.74,1.83,2.77,2.62s1.85,2.34,1,3.3c-.43.47-1.19.67-1.4,1.27s.5,1.42,1.11,1.94c1,.86,1.19,3.44-.14,4.14-.57.3-1.39.39-1.53,1s.44,1,.81,1.41a2.65,2.65,0,0,1-.81,4c-.32.16-.72.28-.83.62a1.22,1.22,0,0,0,.07.75,3.83,3.83,0,0,1,.13,1.43.63.63,0,0,1-.17.45.66.66,0,0,1-.43.12c-1.93.09-2.86-.6-4,1.09a1.37,1.37,0,0,1-.41.42,1.23,1.23,0,0,1-.53.14c-1.33.11-2.2-.72-3.41-.88-1.69-.21-2,.66-3.53,1.35C276.24,258.6,275.11,257.93,274.67,256.34Z" style="fill:#e0e0e0"></path><path d="M285.21,249.38a9,9,0,0,1-.26-1.75c-.22-3.64-3.69-3.07-6.64-3.56-2.31-.38,3.8-6.22-.85-8.1a4.07,4.07,0,0,1-2.25-1.56,2.66,2.66,0,0,1,1-3.23,6.25,6.25,0,0,1,3.54-.88c.76-.93.14-2.32-.6-3.26s-1.63-2-1.35-3.17c.42-1.76,2.87-1.82,4.64-1.48.66-1.06.64-2.39,1-3.59s1.28-2.47,2.51-2.32,1.88,1.46,3,1.73c1.33.31,2.48-.86,3.52-1.74s2.86-1.43,3.58-.27c.43.69.17,1.66.62,2.34.77,1.19,2.6.45,3.74-.39s3-1.6,3.75-.43a4.87,4.87,0,0,1,.45,1.21c.53,1.56,2.21,2.33,3.52,3.33s2.35,3,1.24,4.19c-.55.6-1.51.84-1.78,1.61-.34.95.64,1.81,1.41,2.47,1.29,1.09,1.52,4.36-.18,5.26-.71.37-1.76.49-1.94,1.28s.56,1.25,1,1.79a3.38,3.38,0,0,1-1,5c-.41.2-.91.36-1.06.78a1.57,1.57,0,0,0,.1,1,5.13,5.13,0,0,1,.16,1.83.83.83,0,0,1-.22.57.9.9,0,0,1-.54.15c-2.45.11-3.64-.76-5.14,1.38a1.75,1.75,0,0,1-.51.54,1.55,1.55,0,0,1-.67.17c-1.69.14-2.8-.92-4.34-1.11-2.14-.28-2.59.83-4.48,1.71C287.21,252.26,285.77,251.4,285.21,249.38Z" style="fill:#e0e0e0"></path><path d="M255.6,218.19a8.7,8.7,0,0,1-.27-1.75c-.21-3.64-3.69-3.06-6.64-3.56-2.31-.38,3.8-6.21-.85-8.09a4.13,4.13,0,0,1-2.25-1.57,2.64,2.64,0,0,1,1-3.22,6.15,6.15,0,0,1,3.53-.89c.76-.92.14-2.31-.59-3.25s-1.64-2-1.36-3.18c.42-1.76,2.87-1.82,4.65-1.48.65-1.06.64-2.38,1-3.59s1.27-2.47,2.51-2.32,1.87,1.46,3,1.73c1.32.31,2.47-.86,3.51-1.74s2.87-1.43,3.58-.27c.43.69.17,1.66.62,2.34.77,1.19,2.61.45,3.75-.39s2.95-1.6,3.75-.43a5.07,5.07,0,0,1,.44,1.22c.54,1.55,2.22,2.32,3.53,3.32s2.34,3,1.23,4.19c-.54.6-1.5.85-1.78,1.61-.33,1,.64,1.81,1.41,2.47,1.29,1.09,1.52,4.37-.18,5.26-.71.38-1.76.49-1.93,1.28s.56,1.25,1,1.8a3.38,3.38,0,0,1-1,5c-.41.19-.91.35-1.07.78a1.65,1.65,0,0,0,.1.95,5.08,5.08,0,0,1,.17,1.82.82.82,0,0,1-.23.57.75.75,0,0,1-.53.15c-2.46.11-3.64-.76-5.14,1.38a1.76,1.76,0,0,1-.51.54,1.63,1.63,0,0,1-.68.17c-1.69.14-2.79-.91-4.33-1.11-2.14-.27-2.6.83-4.48,1.72C257.59,221.07,256.15,220.21,255.6,218.19Z" style="fill:#e0e0e0"></path><path d="M231.42,219.43a8,8,0,0,1-.27-1.75c-.22-3.64-3.69-3.07-6.64-3.56-2.31-.38,3.8-6.21-.85-8.1a4,4,0,0,1-2.25-1.56,2.66,2.66,0,0,1,1-3.23,6.27,6.27,0,0,1,3.54-.88c.76-.93.14-2.31-.6-3.26s-1.63-2-1.35-3.17c.42-1.76,2.87-1.82,4.64-1.48.66-1.06.65-2.39,1-3.59s1.28-2.47,2.52-2.32,1.87,1.46,3,1.73c1.32.31,2.47-.86,3.51-1.74s2.86-1.43,3.58-.27c.43.69.17,1.66.62,2.34.77,1.19,2.6.45,3.74-.39s3-1.6,3.76-.43a5.28,5.28,0,0,1,.44,1.21c.54,1.56,2.21,2.33,3.52,3.33s2.35,3,1.24,4.19c-.55.6-1.51.84-1.78,1.61-.34.95.64,1.81,1.41,2.47,1.29,1.09,1.52,4.36-.18,5.26-.71.37-1.76.49-1.93,1.28s.55,1.25,1,1.79a3.38,3.38,0,0,1-1,5c-.4.2-.91.36-1.06.79a1.58,1.58,0,0,0,.1,1,4.86,4.86,0,0,1,.16,1.82.83.83,0,0,1-.22.57.9.9,0,0,1-.54.15c-2.45.11-3.64-.76-5.13,1.38a1.91,1.91,0,0,1-.52.54,1.55,1.55,0,0,1-.67.17c-1.69.14-2.79-.92-4.34-1.11-2.14-.27-2.59.83-4.47,1.71C233.41,222.31,232,221.45,231.42,219.43Z" style="fill:#e0e0e0"></path><path d="M216.73,229.33a8.23,8.23,0,0,1-.27-1.76c-.21-3.64-3.69-3.06-6.64-3.55-2.31-.39,3.8-6.22-.85-8.1a4.07,4.07,0,0,1-2.25-1.56,2.65,2.65,0,0,1,1-3.23,6.31,6.31,0,0,1,3.53-.89c.76-.92.14-2.31-.59-3.25s-1.64-2-1.36-3.18c.42-1.75,2.87-1.82,4.64-1.47.66-1.06.65-2.39,1-3.6s1.28-2.46,2.52-2.31,1.87,1.45,3,1.72c1.32.32,2.47-.86,3.51-1.74s2.86-1.43,3.58-.27c.43.7.17,1.66.62,2.35.77,1.18,2.61.45,3.74-.39s3-1.6,3.76-.44a5.07,5.07,0,0,1,.44,1.22c.54,1.55,2.22,2.33,3.52,3.32s2.35,3,1.24,4.2c-.54.6-1.5.84-1.78,1.61-.34,1,.64,1.81,1.41,2.46,1.29,1.1,1.52,4.37-.18,5.27-.71.37-1.76.49-1.93,1.27s.55,1.26,1,1.8a3.38,3.38,0,0,1-1,5c-.41.19-.91.35-1.07.78a1.64,1.64,0,0,0,.1.95,5.08,5.08,0,0,1,.17,1.82.82.82,0,0,1-.23.57.84.84,0,0,1-.54.16c-2.45.11-3.63-.76-5.13,1.37a1.92,1.92,0,0,1-.51.55,1.62,1.62,0,0,1-.68.16c-1.69.14-2.79-.91-4.33-1.11-2.14-.27-2.6.83-4.48,1.72C218.72,232.21,217.28,231.35,216.73,229.33Z" style="fill:#e0e0e0"></path><path d="M221.18,241.83s6.14,8.69,8.26,11.44,12.71,19.91,14.15,31.26c.16,1.21.31,2.26.46,3.17-4.56,30.07-3.85,85.08-3.69,94.5H254.8c.13-10.62,1.36-107.71,1.81-110.67.48-3.14,6.51-15.08,15.83-20s17.38-21.14,17.38-21.14h-3s-5.5,9.95-13.34,15.46A30.86,30.86,0,0,1,270,248a50.12,50.12,0,0,0-3.11-17.55l-1.61,1.48c2.17,8.87,1.88,14.54,1.23,17.81a32.13,32.13,0,0,0-8.11,5.42c-8.12-10.57-12.7-34.75-12.7-34.75l-2.08,1.14a123.71,123.71,0,0,0,2.69,14.83c1.52,6.25,6,18,8.09,23.39a55.45,55.45,0,0,0-6.14,11.52,4.76,4.76,0,0,0-.78-.94c-5.3-4.79-15.26-27.41-15.26-27.41-2.4-5.26,1.28-19.06,1.28-19.06h-2.78l-1.25,12.07-7-7.62-1.27,1.06,7.41,9.53L232.41,251l-10-11Z" style="fill:#e0e0e0"></path><path d="M429.37,198a12.66,12.66,0,0,0,.38-2.49c.3-5.16,5.23-4.35,9.43-5,3.28-.54-5.4-8.82,1.21-11.49,1.22-.5,2.56-1.06,3.18-2.22.83-1.55,0-3.57-1.44-4.59a8.81,8.81,0,0,0-5-1.25c-1.08-1.31-.2-3.28.84-4.62s2.32-2.86,1.93-4.51c-.6-2.49-4.08-2.58-6.6-2.1-.93-1.5-.91-3.39-1.36-5.1s-1.81-3.5-3.57-3.29-2.66,2.07-4.28,2.45c-1.89.45-3.52-1.22-5-2.47s-4.06-2-5.08-.38c-.61,1-.24,2.36-.88,3.33-1.09,1.68-3.7.64-5.31-.56s-4.19-2.27-5.33-.61a7.06,7.06,0,0,0-.63,1.72c-.76,2.21-3.14,3.31-5,4.72s-3.33,4.23-1.76,6c.78.85,2.14,1.19,2.53,2.28.48,1.36-.91,2.57-2,3.5-1.82,1.56-2.15,6.2.26,7.47,1,.54,2.5.7,2.75,1.82s-.79,1.78-1.47,2.55a4.8,4.8,0,0,0,1.47,7.14c.58.28,1.29.5,1.51,1.11a2.34,2.34,0,0,1-.14,1.35,7.07,7.07,0,0,0-.23,2.59,1.24,1.24,0,0,0,.31.81,1.28,1.28,0,0,0,.77.21c3.48.16,5.16-1.08,7.29,2a2.56,2.56,0,0,0,.73.77,2.27,2.27,0,0,0,1,.24c2.4.2,4-1.3,6.15-1.58,3-.39,3.68,1.18,6.36,2.44C426.54,202.06,428.58,200.84,429.37,198Z" style="fill:#ebebeb"></path><path d="M389.23,193.63a12.66,12.66,0,0,0,.38-2.49c.3-5.16,5.23-4.34,9.43-5,3.27-.55-5.4-8.83,1.2-11.5a5.86,5.86,0,0,0,3.19-2.22c.83-1.54,0-3.57-1.44-4.58a8.84,8.84,0,0,0-5-1.26c-1.08-1.31-.2-3.28.84-4.62s2.32-2.86,1.92-4.51c-.59-2.49-4.07-2.58-6.59-2.1-.93-1.5-.91-3.38-1.36-5.09s-1.81-3.51-3.57-3.3-2.66,2.07-4.29,2.46c-1.88.44-3.51-1.23-5-2.48s-4.06-2-5.08-.38c-.61,1-.24,2.36-.88,3.33-1.09,1.68-3.7.64-5.31-.55s-4.19-2.28-5.33-.62a6.74,6.74,0,0,0-.63,1.73c-.76,2.2-3.15,3.3-5,4.72s-3.33,4.22-1.76,6c.78.85,2.14,1.2,2.52,2.28.49,1.36-.9,2.57-2,3.51-1.82,1.55-2.15,6.2.26,7.47,1,.53,2.5.69,2.75,1.81s-.79,1.78-1.47,2.55a4.79,4.79,0,0,0,1.47,7.14c.58.28,1.29.51,1.51,1.11a2.34,2.34,0,0,1-.14,1.35,6.86,6.86,0,0,0-.23,2.59,1.12,1.12,0,0,0,.31.81,1.21,1.21,0,0,0,.77.21c3.48.16,5.16-1.07,7.29,2a2.44,2.44,0,0,0,.73.77,2.23,2.23,0,0,0,1,.24c2.39.2,4-1.3,6.15-1.58,3-.38,3.68,1.18,6.36,2.44C386.4,197.72,388.44,196.5,389.23,193.63Z" style="fill:#ebebeb"></path><path d="M385.36,168.07a12.66,12.66,0,0,0,.38-2.49c.3-5.17,5.23-4.35,9.43-5.05,3.28-.55-5.4-8.82,1.21-11.49,1.22-.5,2.56-1.06,3.18-2.23.83-1.54,0-3.57-1.44-4.58a8.81,8.81,0,0,0-5-1.25c-1.08-1.31-.2-3.29.84-4.62s2.32-2.86,1.93-4.51c-.6-2.5-4.08-2.58-6.6-2.1-.93-1.51-.91-3.39-1.36-5.1s-1.81-3.5-3.57-3.29-2.66,2.07-4.28,2.45c-1.89.45-3.52-1.22-5-2.47s-4.06-2-5.08-.38c-.61,1-.24,2.36-.88,3.33-1.09,1.68-3.7.63-5.31-.56s-4.19-2.27-5.33-.62a7.3,7.3,0,0,0-.63,1.73c-.76,2.21-3.14,3.31-5,4.72s-3.33,4.23-1.76,6c.78.85,2.14,1.19,2.53,2.28.48,1.36-.91,2.57-2,3.5-1.82,1.56-2.15,6.2.26,7.47,1,.54,2.5.7,2.75,1.82s-.79,1.78-1.47,2.55a4.8,4.8,0,0,0,1.47,7.14c.58.28,1.29.5,1.51,1.11a2.35,2.35,0,0,1-.14,1.35,7,7,0,0,0-.23,2.58,1.24,1.24,0,0,0,.31.82,1.28,1.28,0,0,0,.77.21c3.48.16,5.16-1.08,7.29,2a2.56,2.56,0,0,0,.73.77,2.43,2.43,0,0,0,1,.24c2.4.19,4-1.3,6.15-1.58,3-.39,3.68,1.18,6.36,2.44C382.53,172.16,384.57,170.94,385.36,168.07Z" style="fill:#ebebeb"></path><path d="M358.92,180.8a12,12,0,0,0,.37-2.49c.31-5.16,5.24-4.34,9.44-5,3.27-.55-5.4-8.83,1.2-11.5a5.86,5.86,0,0,0,3.19-2.22c.83-1.54,0-3.57-1.44-4.58a8.84,8.84,0,0,0-5-1.26c-1.08-1.31-.2-3.28.84-4.62s2.32-2.86,1.92-4.51c-.59-2.49-4.08-2.58-6.59-2.1-.93-1.5-.91-3.38-1.36-5.1s-1.81-3.5-3.57-3.29-2.67,2.07-4.29,2.45c-1.88.45-3.51-1.22-5-2.47s-4.06-2-5.08-.38c-.61,1-.24,2.36-.88,3.33-1.1,1.68-3.7.64-5.31-.56s-4.19-2.27-5.33-.61a6.67,6.67,0,0,0-.63,1.72c-.76,2.21-3.15,3.31-5,4.72s-3.33,4.23-1.76,6c.77.85,2.14,1.2,2.52,2.28.48,1.36-.9,2.57-2,3.51-1.82,1.55-2.15,6.2.26,7.47,1,.53,2.5.69,2.75,1.81s-.79,1.78-1.47,2.55a4.79,4.79,0,0,0,1.47,7.14c.58.28,1.29.51,1.51,1.11a2.34,2.34,0,0,1-.14,1.35,7.08,7.08,0,0,0-.24,2.59,1.2,1.2,0,0,0,.32.81,1.23,1.23,0,0,0,.76.21c3.49.16,5.17-1.07,7.3,2a2.53,2.53,0,0,0,.72.77,2.28,2.28,0,0,0,1,.24c2.39.2,4-1.3,6.15-1.58,3-.38,3.68,1.18,6.36,2.44C356.09,184.89,358.13,183.67,358.92,180.8Z" style="fill:#ebebeb"></path><path d="M332.19,174.92a11.33,11.33,0,0,0,.38-2.49c.31-5.16,5.24-4.35,9.43-5.05,3.28-.54-5.4-8.82,1.21-11.49a5.86,5.86,0,0,0,3.19-2.22c.83-1.55,0-3.57-1.44-4.58a8.8,8.8,0,0,0-5-1.26c-1.08-1.31-.2-3.28.84-4.62s2.32-2.86,1.93-4.51c-.6-2.49-4.08-2.58-6.6-2.1-.92-1.5-.91-3.39-1.36-5.1s-1.81-3.5-3.56-3.29-2.67,2.07-4.29,2.45c-1.89.45-3.52-1.22-5-2.47s-4.07-2-5.08-.38c-.61,1-.25,2.36-.88,3.33-1.1,1.68-3.7.64-5.32-.56s-4.19-2.27-5.33-.61a7,7,0,0,0-.62,1.72c-.77,2.21-3.15,3.31-5,4.72s-3.33,4.23-1.76,6c.78.85,2.14,1.2,2.53,2.28.48,1.36-.91,2.57-2,3.51-1.83,1.55-2.16,6.19.25,7.47,1,.53,2.5.69,2.75,1.81s-.79,1.78-1.46,2.55a4.8,4.8,0,0,0,1.46,7.14c.58.28,1.3.51,1.51,1.11a2.26,2.26,0,0,1-.14,1.35,7.29,7.29,0,0,0-.23,2.59,1.24,1.24,0,0,0,.31.81,1.28,1.28,0,0,0,.77.21c3.49.16,5.17-1.08,7.29,2a2.56,2.56,0,0,0,.73.77,2.27,2.27,0,0,0,1,.24c2.4.2,4-1.3,6.15-1.58,3-.39,3.69,1.18,6.36,2.44C329.36,179,331.4,177.79,332.19,174.92Z" style="fill:#ebebeb"></path><path d="M331.84,203.51a9.38,9.38,0,0,0,.3-2c.24-4.07,4.12-3.42,7.43-4,2.58-.43-4.25-6.95.95-9a4.6,4.6,0,0,0,2.51-1.75,3,3,0,0,0-1.13-3.61,7.1,7.1,0,0,0-3.95-1c-.85-1-.16-2.58.66-3.63s1.83-2.26,1.51-3.55c-.47-2-3.21-2-5.19-1.65-.73-1.19-.72-2.67-1.07-4s-1.43-2.76-2.81-2.59-2.1,1.63-3.37,1.93c-1.49.35-2.77-1-3.94-1.95s-3.19-1.59-4-.3c-.48.78-.19,1.86-.69,2.62-.86,1.33-2.91.51-4.18-.43s-3.3-1.79-4.2-.49a5.65,5.65,0,0,0-.49,1.36c-.6,1.74-2.48,2.6-3.94,3.72s-2.62,3.33-1.39,4.69c.61.67,1.69.94,2,1.79.38,1.07-.71,2-1.57,2.76-1.44,1.23-1.7,4.88.2,5.88.8.42,2,.55,2.16,1.43s-.62,1.4-1.15,2a3.77,3.77,0,0,0,1.15,5.62c.46.22,1,.4,1.19.88a1.78,1.78,0,0,1-.11,1.06,5.39,5.39,0,0,0-.18,2,.93.93,0,0,0,.25.64,1,1,0,0,0,.6.17c2.74.12,4.07-.85,5.74,1.53a2,2,0,0,0,.57.61,1.82,1.82,0,0,0,.76.19c1.89.16,3.12-1,4.84-1.24,2.4-.31,2.9.93,5,1.92C329.62,206.73,331.22,205.77,331.84,203.51Z" style="fill:#ebebeb"></path><path d="M316.87,193.63a12.66,12.66,0,0,0,.38-2.49c.3-5.16,5.23-4.34,9.43-5,3.27-.55-5.4-8.83,1.21-11.5,1.22-.5,2.56-1.06,3.18-2.22.83-1.54,0-3.57-1.44-4.58a8.82,8.82,0,0,0-5-1.26c-1.08-1.31-.2-3.28.84-4.62s2.32-2.86,1.93-4.51c-.6-2.49-4.08-2.58-6.6-2.1-.93-1.5-.91-3.38-1.36-5.09s-1.81-3.51-3.57-3.3-2.66,2.07-4.28,2.46c-1.89.44-3.52-1.23-5-2.48s-4.06-2-5.08-.38c-.61,1-.24,2.36-.88,3.33-1.09,1.68-3.7.64-5.31-.55s-4.19-2.28-5.33-.62a7.14,7.14,0,0,0-.63,1.73c-.76,2.2-3.14,3.3-5,4.72s-3.33,4.22-1.76,6c.78.85,2.14,1.2,2.53,2.28.48,1.36-.91,2.57-2,3.51-1.82,1.55-2.15,6.2.26,7.47,1,.53,2.5.69,2.75,1.81s-.79,1.78-1.47,2.55a4.8,4.8,0,0,0,1.47,7.14c.58.28,1.29.51,1.51,1.11a2.34,2.34,0,0,1-.14,1.35,6.86,6.86,0,0,0-.23,2.59.92.92,0,0,0,1.08,1c3.48.16,5.16-1.07,7.29,2a2.56,2.56,0,0,0,.73.77,2.27,2.27,0,0,0,1,.24c2.4.2,4-1.3,6.15-1.58,3-.38,3.68,1.18,6.36,2.44C314,197.72,316.08,196.5,316.87,193.63Z" style="fill:#ebebeb"></path><path d="M358.92,149.36a12,12,0,0,0,.37-2.49c.31-5.17,5.24-4.35,9.44-5.05,3.27-.55-5.4-8.83,1.2-11.5a5.76,5.76,0,0,0,3.19-2.22c.83-1.54,0-3.57-1.44-4.58a8.92,8.92,0,0,0-5-1.26c-1.08-1.31-.2-3.28.84-4.62s2.32-2.86,1.92-4.51c-.59-2.49-4.08-2.58-6.59-2.09-.93-1.51-.91-3.39-1.36-5.1s-1.81-3.51-3.57-3.29-2.67,2.07-4.29,2.45c-1.88.44-3.51-1.22-5-2.47s-4.06-2-5.08-.39c-.61,1-.24,2.36-.88,3.33-1.1,1.69-3.7.64-5.31-.55s-4.19-2.27-5.33-.62a6.88,6.88,0,0,0-.63,1.73c-.76,2.21-3.15,3.3-5,4.72s-3.33,4.23-1.76,6c.77.86,2.14,1.2,2.52,2.29.48,1.35-.9,2.57-2,3.5-1.82,1.55-2.15,6.2.26,7.47,1,.54,2.5.7,2.75,1.82s-.79,1.77-1.47,2.54a4.8,4.8,0,0,0,1.47,7.15c.58.27,1.29.5,1.51,1.11a2.35,2.35,0,0,1-.14,1.35,7,7,0,0,0-.24,2.58,1.16,1.16,0,0,0,.32.81,1.18,1.18,0,0,0,.76.22c3.49.15,5.17-1.08,7.3,2a2.32,2.32,0,0,0,.72.77,2.14,2.14,0,0,0,1,.24c2.39.2,4-1.29,6.15-1.57,3-.39,3.68,1.18,6.36,2.44C356.09,153.44,358.13,152.22,358.92,149.36Z" style="fill:#ebebeb"></path><path d="M393.25,151.11a12.66,12.66,0,0,0,.38-2.49c.3-5.16,5.23-4.34,9.43-5,3.27-.55-5.4-8.83,1.21-11.5,1.22-.5,2.56-1.06,3.18-2.22.83-1.54,0-3.57-1.44-4.58a8.82,8.82,0,0,0-5-1.26c-1.08-1.31-.2-3.28.84-4.62s2.32-2.86,1.92-4.51c-.59-2.49-4.07-2.58-6.59-2.1-.93-1.5-.91-3.38-1.36-5.09s-1.81-3.51-3.57-3.3-2.66,2.07-4.29,2.46c-1.88.44-3.51-1.23-5-2.48s-4.06-2-5.08-.38c-.61,1-.24,2.36-.88,3.33-1.09,1.68-3.7.64-5.31-.55s-4.19-2.28-5.33-.62a7.14,7.14,0,0,0-.63,1.73c-.76,2.2-3.15,3.3-5,4.72s-3.33,4.22-1.76,6c.78.85,2.14,1.2,2.53,2.28.48,1.36-.91,2.57-2,3.51-1.82,1.55-2.15,6.2.26,7.47,1,.53,2.5.69,2.75,1.81s-.79,1.78-1.47,2.55a4.8,4.8,0,0,0,1.47,7.14c.58.28,1.29.51,1.51,1.11a2.34,2.34,0,0,1-.14,1.35,6.86,6.86,0,0,0-.23,2.59,1.17,1.17,0,0,0,.31.81,1.29,1.29,0,0,0,.77.22c3.48.15,5.16-1.08,7.29,1.95a2.56,2.56,0,0,0,.73.77,2.23,2.23,0,0,0,1,.24c2.39.2,4-1.3,6.15-1.58,3-.38,3.68,1.18,6.36,2.44C390.42,155.2,392.46,154,393.25,151.11Z" style="fill:#ebebeb"></path><path d="M414.1,165.16a11.33,11.33,0,0,0,.38-2.49c.31-5.16,5.24-4.34,9.43-5,3.28-.55-5.4-8.83,1.21-11.5a5.86,5.86,0,0,0,3.19-2.22c.83-1.54,0-3.57-1.44-4.58a8.87,8.87,0,0,0-5-1.26c-1.08-1.31-.2-3.28.84-4.62s2.32-2.86,1.93-4.51c-.6-2.49-4.08-2.58-6.6-2.1-.92-1.5-.91-3.38-1.36-5.09s-1.81-3.51-3.56-3.3-2.67,2.07-4.29,2.46c-1.89.44-3.52-1.23-5-2.48s-4.07-2-5.08-.38c-.61,1-.25,2.36-.88,3.33-1.1,1.68-3.7.64-5.32-.56s-4.19-2.27-5.33-.61a7,7,0,0,0-.62,1.73c-.77,2.2-3.15,3.3-5,4.72s-3.33,4.22-1.76,6c.78.85,2.14,1.2,2.53,2.28.48,1.36-.91,2.57-2,3.51-1.83,1.55-2.16,6.2.25,7.47,1,.53,2.5.69,2.75,1.81s-.79,1.78-1.46,2.55a4.8,4.8,0,0,0,1.46,7.14c.58.28,1.3.51,1.51,1.11a2.26,2.26,0,0,1-.14,1.35,7.29,7.29,0,0,0-.23,2.59.93.93,0,0,0,1.08,1c3.49.16,5.17-1.07,7.29,2a2.56,2.56,0,0,0,.73.77,2.27,2.27,0,0,0,1,.24c2.4.2,4-1.3,6.15-1.58,3-.38,3.69,1.18,6.36,2.44C411.27,169.25,413.31,168,414.1,165.16Z" style="fill:#ebebeb"></path><path d="M407.78,182.92s-8.72,12.33-11.73,16.24S378,227.43,376,243.54c-.22,1.72-.43,3.2-.64,4.49,6.47,42.69,5.45,120.8,5.22,134.17H360.05c-.18-15.08-1.93-152.91-2.57-157.12-.68-4.45-9.24-21.41-22.47-28.38s-24.67-30-24.67-30h4.22s7.81,14.13,18.94,21.95a42.55,42.55,0,0,0,5,3c-.4-12.74,4.42-24.92,4.42-24.92l2.28,2.11c-3.07,12.58-2.67,20.65-1.74,25.28a46,46,0,0,1,11.51,7.7c11.54-15,18-49.33,18-49.33l2.95,1.61a175.39,175.39,0,0,1-3.81,21c-2.17,8.88-8.53,25.61-11.49,33.21a79,79,0,0,1,8.72,16.36,6.54,6.54,0,0,1,1.11-1.33c7.52-6.8,21.65-38.92,21.65-38.92,3.42-7.46-1.8-27.06-1.8-27.06h3.94l1.77,17.14L406,163.67l1.8,1.51-10.52,13.53-5.42,17.15L406,180.21Z" style="fill:#e6e6e6"></path></g><g id="freepik--Shadow--inject-121"><ellipse id="freepik--path--inject-121" cx="250" cy="416.24" rx="193.89" ry="11.32" style="fill:#f5f5f5"></ellipse></g><g id="freepik--Waterfall--inject-121"><path d="M338.55,357.39,302.67,350s9.4-9.46,12.16-7.44c3.59,2.62,8.57-6.68,12.48-3.43,1.37,1.15.07,3.64.82,4.91,1.25,2.09,3.36,2.17,5.11,3.54C336.65,350.25,337.49,353.05,338.55,357.39Z" style="fill:#407BFF"></path><path d="M338.55,357.39,302.67,350s9.4-9.46,12.16-7.44c3.59,2.62,8.57-6.68,12.48-3.43,1.37,1.15.07,3.64.82,4.91,1.25,2.09,3.36,2.17,5.11,3.54C336.65,350.25,337.49,353.05,338.55,357.39Z" style="opacity:0.2;isolation:isolate"></path><path d="M307.22,347.75s5.18-13.18,4-15.52-3.45,7.07-3.45,7.07-1.39-20.88-4.87-21.7.63,18,.63,18-9.92-27.5-14.73-26.13,10.71,27.16,10.71,27.16-9-11.66-12-9.5,9.92,13.28,9.92,13.28-6.12-2.77-6.55-.63S300.55,347.64,307.22,347.75Z" style="fill:#407BFF"></path><path d="M307.22,347.75s5.18-13.18,4-15.52-3.45,7.07-3.45,7.07-1.39-20.88-4.87-21.7.63,18,.63,18-9.92-27.5-14.73-26.13,10.71,27.16,10.71,27.16-9-11.66-12-9.5,9.92,13.28,9.92,13.28-6.12-2.77-6.55-.63S300.55,347.64,307.22,347.75Z" style="fill:#fff;opacity:0.2;isolation:isolate"></path><path d="M309.78,346.25s11.65.27,13.12-1.33-6.44-.67-6.44-.67,15.75-7,15.41-9.89-13.74,5.56-13.74,5.56,18.48-15.44,16.05-18.77-18,16-18,16,6.48-10.24,4-11.92-7.47,11.42-7.47,11.42.41-5.51-1.36-5.25S308,341.05,309.78,346.25Z" style="fill:#407BFF"></path><path d="M309.78,346.25s11.65.27,13.12-1.33-6.44-.67-6.44-.67,15.75-7,15.41-9.89-13.74,5.56-13.74,5.56,18.48-15.44,16.05-18.77-18,16-18,16,6.48-10.24,4-11.92-7.47,11.42-7.47,11.42.41-5.51-1.36-5.25S308,341.05,309.78,346.25Z" style="fill:#fff;opacity:0.2;isolation:isolate"></path><path d="M310.93,344.93s13.09-8.64,13.48-11.53-7.62,4.2-7.62,4.2,12-19.79,9.43-22.75-10.91,16.68-10.91,16.68,8.57-31.23,3.34-33S311,329.89,311,329.89s-.7-16.29-4.75-16.22.5,18.35.5,18.35-3.77-6.41-5.53-4.75S305,340.57,310.93,344.93Z" style="fill:#407BFF"></path><path d="M310.93,344.93s13.09-8.64,13.48-11.53-7.62,4.2-7.62,4.2,12-19.79,9.43-22.75-10.91,16.68-10.91,16.68,8.57-31.23,3.34-33S311,329.89,311,329.89s-.7-16.29-4.75-16.22.5,18.35.5,18.35-3.77-6.41-5.53-4.75S305,340.57,310.93,344.93Z" style="fill:#fff;opacity:0.4;isolation:isolate"></path><path d="M322.74,354.13l-28.59-5.89s7.49-7.54,9.69-5.94c2.86,2.09,6.83-5.31,9.94-2.72,1.1.91.06,2.89.66,3.91,1,1.66,2.68,1.73,4.07,2.82C321.23,348.44,321.9,350.67,322.74,354.13Z" style="fill:#407BFF"></path><path d="M110.56,264.55s.14-14.15-1.83-15.91-.7,7.83-.7,7.83-8.75-19-12.29-18.53,7,16.58,7,16.58-19.06-22.17-23.07-19.17,19.69,21.56,19.69,21.56-12.56-7.69-14.55-4.62,14,8.87,14,8.87-6.7-.4-6.35,1.75S104.29,266.83,110.56,264.55Z" style="fill:#407BFF"></path><path d="M110.56,264.55s.14-14.15-1.83-15.91-.7,7.83-.7,7.83-8.75-19-12.29-18.53,7,16.58,7,16.58-19.06-22.17-23.07-19.17,19.69,21.56,19.69,21.56-12.56-7.69-14.55-4.62,14,8.87,14,8.87-6.7-.4-6.35,1.75S104.29,266.83,110.56,264.55Z" style="fill:#fff;opacity:0.2;isolation:isolate"></path><path d="M109.33,253s4.86-10.6,4-12.58-3.16,5.65-3.16,5.65-.18-17.22-3-18.06-.32,14.81-.32,14.81-6.88-23.07-10.9-22.16,7.55,22.82,7.55,22.82-6.85-10-9.38-8.36,7.54,11.37,7.54,11.37-4.9-2.55-5.36-.82S103.85,252.57,109.33,253Z" style="fill:#407BFF"></path><path d="M109.33,253s4.86-10.6,4-12.58-3.16,5.65-3.16,5.65-.18-17.22-3-18.06-.32,14.81-.32,14.81-6.88-23.07-10.9-22.16,7.55,22.82,7.55,22.82-6.85-10-9.38-8.36,7.54,11.37,7.54,11.37-4.9-2.55-5.36-.82S103.85,252.57,109.33,253Z" style="fill:#fff;opacity:0.2;isolation:isolate"></path><path d="M118.75,256.91s13.08-8.64,13.48-11.53-7.63,4.2-7.63,4.2,12.05-19.79,9.43-22.75-10.91,16.68-10.91,16.68,8.58-31.23,3.34-33-7.62,31.41-7.62,31.41-.71-16.29-4.76-16.22.5,18.35.5,18.35-3.77-6.41-5.52-4.75S112.78,252.55,118.75,256.91Z" style="fill:#407BFF"></path><path d="M118.75,256.91s13.08-8.64,13.48-11.53-7.63,4.2-7.63,4.2,12.05-19.79,9.43-22.75-10.91,16.68-10.91,16.68,8.58-31.23,3.34-33-7.62,31.41-7.62,31.41-.71-16.29-4.76-16.22.5,18.35.5,18.35-3.77-6.41-5.52-4.75S112.78,252.55,118.75,256.91Z" style="fill:#fff;opacity:0.4;isolation:isolate"></path><path d="M156.13,251.52s11.42-8.08,22.33-6.5,11.3,8.71,11.3,8.71,18.61-1.19,24.93,0,11.45,9.58,11.46,11.71-3.17,10.05,0,11.43,19.91-1,22.42,3.76,7.84,33.34,12.1,33.68,21.65-2.43,29.76,5.88,8,2.07,12.21,12.31,8.43,14.43,11.27,14.71S346,351,352.75,360.93A141,141,0,0,0,367.66,379s40.22,3.54,43.24,11.59H60.61S60,330,65.14,325.08A39.63,39.63,0,0,1,76.9,317.7s5.87-33.73,6.15-35.8,7.41-11,9-17.62,14-15.7,19.85-17.68,21,.73,22.31,4.92S156.13,251.52,156.13,251.52Z" style="fill:#263238"></path><path d="M410.9,390.59H60.61s-.07-6.48,0-15.38c.19-18.3,1-46.83,4.5-50.13A39.63,39.63,0,0,1,76.9,317.7a.65.65,0,0,0,0-.1c.32-1.85,5.16-29.66,6-34.94l.12-.76c.29-2.06,7.41-11,9-17.62s14-15.7,19.85-17.68,21,.73,22.31,4.92,21.93,0,21.93,0a43.59,43.59,0,0,1,12.54-5.75h0a24.59,24.59,0,0,1,9.77-.75c10.9,1.58,11.3,8.71,11.3,8.71s18.61-1.19,24.93,0c5.84,1.09,10.66,8.35,11.37,11.12a2.42,2.42,0,0,1,.09.59c0,2.13-3.17,10.05,0,11.43a17,17,0,0,0,5,.51c6.18.11,15.6-.22,17.43,3.25A27.77,27.77,0,0,1,250.1,285v0c2.8,9.46,7,29,10.57,29.31h.21c4.59.24,21.57-2.31,29.55,5.87,6.81,7,7.82,3.7,10.46,8.51a38,38,0,0,1,1.75,3.8c4.22,10.24,8.43,14.43,11.27,14.71,2.64.25,28.18,3.35,37.13,11.76a11.49,11.49,0,0,1,1.71,2A141,141,0,0,0,367.66,379S407.88,382.54,410.9,390.59Z" style="fill:#fff;opacity:0.4"></path><path d="M109.62,320.76s-14.3-5.19-15.68-4.92c-1.18.22-13.47,1.42-17,1.76.32-1.85,5.16-29.66,6-34.94,3.34,3.12,15.81,14.81,17.5,17.09C102.37,302.38,109.62,320.76,109.62,320.76Z" style="opacity:0.2;isolation:isolate"></path><path d="M189.76,253.73s-3.83.45-5.14-.76-5.77-6.32-15.93-7.2a24.59,24.59,0,0,1,9.77-.75C189.36,246.6,189.76,253.73,189.76,253.73Z" style="opacity:0.2;isolation:isolate"></path><path d="M231.14,277.38v0H210.57s-7.65-6.48-9-8.15-3.35-6.69-3.35-6.69,12.66,2.73,16.44,3.34c2.5.41,8-.43,11.36-1a2.42,2.42,0,0,1,.09.59c0,2.13-3.17,10.05,0,11.43A17,17,0,0,0,231.14,277.38Z" style="opacity:0.2;isolation:isolate"></path><path d="M260.88,314.32H240s-4.82-18.86-4.26-20.54,5.82,2.24,9.13,3.58c2.18.87,4.14-6.92,5.23-12.36,2.8,9.46,7,29,10.57,29.31Z" style="opacity:0.2;isolation:isolate"></path><path d="M351,359c-6.37,5.67-19.82,9.56-24.45,13.75-3.52,3.19-7.86,12-10.48,17.87H239c-16.64-1.19-29.6-2.08-30.2-2-1.72.22.56-69.77,12.26-65.37s31.45,29.54,31.45,29.54l18.38,12.37,8.49-9.36s8.67-5.65,11.1-4.28c2.21,1.24,8.79-16.86,10.46-22.79a38,38,0,0,1,1.75,3.8c4.22,10.24,8.43,14.43,11.27,14.71C316.55,347.46,342.09,350.56,351,359Z" style="opacity:0.2;isolation:isolate"></path><path d="M184.26,390.59H60.61s-.07-6.48,0-15.38a90.37,90.37,0,0,1,9-2.49c1.32-.34,17.14-18.59,17.14-18.59s14.5-7.17,16.78-6.22,18.56,18.56,21.46,22.56,14.51-1.36,19-1.55,15.82-18,17.67-21.71,13.3-6.86,13.3-6.86S182.5,377.28,184.26,390.59Z" style="opacity:0.2;isolation:isolate"></path><path d="M183.23,262.41v51.21h29.33a10.88,10.88,0,0,1,10.89,10.89v61.4H439a8.83,8.83,0,0,1,8.83,8.83v3.91H49.35V395.3a8.83,8.83,0,0,1,8.83-8.83H173.74V335.71a10.63,10.63,0,0,0-10.63-10.63h-9.76a9.14,9.14,0,0,1-9.15-9.15V263.85a12.6,12.6,0,0,0-10-12.33h38.14A10.88,10.88,0,0,1,183.23,262.41Z" style="fill:#407BFF"></path><path d="M183.23,262.41v51.21h29.33a10.88,10.88,0,0,1,10.89,10.89v61.4H439a8.83,8.83,0,0,1,8.83,8.83v3.91H49.35V395.3a8.83,8.83,0,0,1,8.83-8.83H173.74V335.71a10.63,10.63,0,0,0-10.63-10.63h-9.76a9.14,9.14,0,0,1-9.15-9.15V263.85a12.6,12.6,0,0,0-10-12.33h38.14A10.88,10.88,0,0,1,183.23,262.41Z" style="fill:#fff;opacity:0.6000000000000001"></path><path d="M167.41,386.47c-2.9-3.21-2.9-7.74,0-5.34s4.22,5.43,6.33,2.33,5-7.2,7.38-3.3,7.12,4.77,9.5,2.36,6.09-7.34,8-4,3,6.28,7.24,3.38,9.76-3.31,10.82-1.78,0,2.57,4.22,1.78,11.86,1.61,7.91,4Z" style="fill:#407BFF"></path><path d="M167.41,386.47c-2.9-3.21-2.9-7.74,0-5.34s4.22,5.43,6.33,2.33,5-7.2,7.38-3.3,7.12,4.77,9.5,2.36,6.09-7.34,8-4,3,6.28,7.24,3.38,9.76-3.31,10.82-1.78,0,2.57,4.22,1.78,11.86,1.61,7.91,4Z" style="fill:#fff;opacity:0.8"></path><path d="M144.68,314.31c-2.4-3.21-2.4-7.74,0-5.34s3.49,5.43,5.23,2.33,4.15-7.21,6.11-3.31,5.89,4.78,7.86,2.37,5-7.34,6.66-4,2.5,6.28,6,3.38,8.07-3.31,8.94-1.79,0,2.58,3.49,1.79,9.82,1.61,6.55,4Z" style="fill:#407BFF"></path><path d="M144.68,314.31c-2.4-3.21-2.4-7.74,0-5.34s3.49,5.43,5.23,2.33,4.15-7.21,6.11-3.31,5.89,4.78,7.86,2.37,5-7.34,6.66-4,2.5,6.28,6,3.38,8.07-3.31,8.94-1.79,0,2.58,3.49,1.79,9.82,1.61,6.55,4Z" style="fill:#fff;opacity:0.8"></path><path d="M178.46,320.76c3.72,0,4.24,22.42,4.77,31.91s.53-8.7,4-10.81,3.16,9.31,5.54,7,1.05-17.85,3.69-19.16,2.9,14.1,5.54,14.17,4.25-11.27,5.16-11,3.28,12.4,5.12,9.76,2.64-13.45,4.75-8.7,4.16-9.66,2.11-14.51c0,0-.26,9.44-2.9,5.64s-.27-6.7-4.49-7.22-3.69,7.59-6.85,7.22-3.45-5.38-7.27-5.38-3.81,6.28-7.24,5.38-4.48-3.79-7.12-5.38S178.46,320.76,178.46,320.76Z" style="fill:#fff;opacity:0.2"></path><path d="M145.78,258.56c3.09,0,3.53,15.11,4,21.51s.44-5.87,3.29-7.29,2.62,6.27,4.59,4.74.88-12,3.07-12.91,2.4,9.5,4.59,9.55,3.54-7.6,4.29-7.42,2.72,8.35,4.25,6.57,2.19-9.06,3.94-5.86,3.45-6.51,1.75-9.77c0,0-.22,6.36-2.41,3.8s-.22-4.52-3.72-4.87-3.06,5.12-5.69,4.87-2.86-3.63-6-3.63-3.16,4.23-6,3.63-3.72-2.56-5.91-3.63A3.61,3.61,0,0,0,145.78,258.56Z" style="fill:#fff;opacity:0.2"></path></g><g id="freepik--Character--inject-121"><g id="freepik--group--inject-121"><path d="M321.32,189.63s7.37,16.47,8.07,18.35,20.61.57,20.61.57v5.29s-22.17,3.53-24.66,1-9.71-16.78-9.71-16.78Z" style="fill:#e4897b"></path><path d="M260.73,185s-7.31,2.92-9.59,3.18-12.57-17.39-12.57-17.39l-3.88,3s9.82,20.58,13.93,21.48,14.62-2.47,14.62-2.47Z" style="fill:#e4897b"></path><path d="M274.07,177.26c-5.89,1.4-19.87,7.71-19.87,7.71S257.63,200.55,259,200s16.55-2.62,16.55-2.62Z" style="fill:#407BFF"></path><path d="M275.5,197.41l-2.09.29c-2.27.32-6,.85-9.12,1.34a50.47,50.47,0,0,0-5.34,1c-1.32.52-4.75-15.06-4.75-15.06s14-6.31,19.87-7.71l.44,6.16.77,10.86Z" style="fill:#fff;opacity:0.6000000000000001"></path><path d="M275.28,194.28a24.91,24.91,0,0,1-1.87,3.42c-2.27.32-6,.85-9.12,1.34-4.74-9.42,8.11-15.23,8.11-15.23a5.46,5.46,0,0,1,2.11-.39C278.17,183.53,277.56,189.21,275.28,194.28Z" style="opacity:0.2;isolation:isolate"></path><polygon points="254.86 183.41 259.6 200.04 257.23 200.68 252.88 184.97 254.86 183.41" style="fill:#407BFF"></polygon><path d="M308.12,409.79s-17.07-92-17.28-143.8l17.31-.55s-2.48,47.54,7.42,144Z" style="fill:#e4897b"></path><path d="M265.53,409.1s-4.66-93.42,2.05-144.82L284.8,266S276,312.82,273,409.73Z" style="fill:#e4897b"></path><path d="M282.26,296.29c1.34-8.45,3-15.8,5-21.24.29,3.57,1.11,11.27,2.23,21.24h22.17c-.71-26.47-1.11-56.94-1.15-60.77H270c-1.75,9.56-5.2,32.44-7.62,60.77Z" style="fill:#407BFF"></path><path d="M282.26,296.29c1.34-8.45,3-15.8,5-21.24.29,3.57,1.11,11.27,2.23,21.24h22.17c-.71-26.47-1.11-56.94-1.15-60.77H270c-1.75,9.56-5.2,32.44-7.62,60.77Z" style="fill:#fff;opacity:0.2"></path><path d="M287.26,275.06a109.2,109.2,0,0,0-4.53,17.54c-1.13-15.52,3.4-32,3.4-32Z" style="opacity:0.2;isolation:isolate"></path><polygon points="269.61 236 310.43 236 310.43 240.86 269.09 240.36 269.61 236" style="fill:#263238"></polygon><rect x="295.85" y="233.82" width="1.46" height="8.63" style="fill:#407BFF"></rect><rect x="275.2" y="233.82" width="1.46" height="8.63" style="fill:#407BFF"></rect><g style="opacity:0.2"><rect x="295.85" y="233.82" width="1.46" height="8.63" style="fill:#fff"></rect><rect x="275.2" y="233.82" width="1.46" height="8.63" style="fill:#fff"></rect></g><rect x="280.67" y="235.15" width="7.55" height="5.44" style="fill:#fff"></rect><path d="M227.32,172.33c-1.8-1.31,1.26-8.33,1.26-8.33l11.07,4.54s-.19,5.25-1.54,7C237.4,176.42,227.32,172.33,227.32,172.33Z" style="fill:#e4897b"></path><path d="M357.94,215.51c2.23-.15,3.38-7.72,3.38-7.72l-11.78-2.06s-2.64,4.54-2.42,6.72C347.24,213.6,357.94,215.51,357.94,215.51Z" style="fill:#e4897b"></path><polygon points="288.22 294.83 288.49 297.36 312.35 296.25 312.35 293.78 288.22 294.83" style="fill:#407BFF"></polygon><polygon points="261.78 294.31 283.14 295.1 282.55 297.36 261.78 296.29 261.78 294.31" style="fill:#407BFF"></polygon><path d="M310.56,236.79c1.08-23.23,7.91-56.11,7.91-56.11-19-4.57-44.4-3.42-44.4-3.42-5,17.74-4.86,46.36-4.44,59.53Z" style="fill:#407BFF"></path><path d="M318.47,180.69s-1.29,6.22-2.84,15.17c-.87,5-1.81,10.83-2.66,16.92-1.12,8.06-2.06,16.53-2.41,24H269.63c-.42-13.17-.52-41.79,4.44-59.53,0,0,4.09-.18,10.21-.11a201.08,201.08,0,0,1,22.25,1.42A108.79,108.79,0,0,1,318.47,180.69Z" style="fill:#fff;opacity:0.6000000000000001"></path><path d="M306.53,178.57l-10.95,10.67-3-6.18c-6.39,22.73-8,48.24-8.11,50.59,1.14-29.42,4.39-46.35,6-50.92L285.21,187l-.93-9.82A201.08,201.08,0,0,1,306.53,178.57Z" style="opacity:0.2;isolation:isolate"></path><path d="M289.76,172.07a5.1,5.1,0,0,1-.39,3.24,4.53,4.53,0,0,1-2.2,1.38,8.81,8.81,0,0,0,2.8,2.76h5.61s2.54.56,3.51,0c.79-.45,1.63-.87,2.39-1.38a10.2,10.2,0,0,0,1.1-.89,5.47,5.47,0,0,1-2.64-2.86c-1-3.18.08-14,.08-14l-11.86,4.87s.1.27.23.72A36.58,36.58,0,0,1,289.76,172.07Z" style="fill:#e4897b"></path><path d="M298.16,167s-2.55,5.29-8.4,5.11a36.58,36.58,0,0,0-1.37-6.16l.73-.27Z" style="opacity:0.2;isolation:isolate"></path><path d="M282.69,139.76c-2.54.35-1.12,4.17.41,6.21s.55,4,2.39,6.79,8.93,3.1,10.11,5.25,2.16,5.6,6.12,4.9,8.93,3.45,9.57,0-2.66-9.73-9.57-15.48S287.18,139.14,282.69,139.76Z" style="fill:#407BFF"></path><path d="M292.27,173.71c-8,2.35-8.22-18-5.44-23.85" style="fill:none;stroke:#407BFF;stroke-linecap:round;stroke-linejoin:round;stroke-width:0.5px"></path><path d="M291.56,140s-6.71,7.89-4.16,14.09,12.57-10,12.57-10Z" style="fill:#263238"></path><path d="M296.54,169.28a9.28,9.28,0,0,1-11-2.54,10.41,10.41,0,0,1-2.5-7.2c0-.36.05-.72.1-1.09,1-6.73,6-16.48,13.82-16.49a10.08,10.08,0,0,1,9.1,14.54C303,163.14,301.41,167.2,296.54,169.28Z" style="fill:#e4897b"></path><path d="M295,154.22c-.19.56-.7.88-1.07.73s-.47-.72-.25-1.27.71-.88,1.07-.74S295.2,153.65,295,154.22Z" style="fill:#263238"></path><path d="M288.7,151.68c-.18.56-.7.88-1.06.73s-.47-.72-.25-1.27.7-.88,1.06-.74S288.91,151.15,288.7,151.68Z" style="fill:#263238"></path><path d="M290.59,152.76a21,21,0,0,1-4.58,3.67,3.43,3.43,0,0,0,2.47,1.58Z" style="fill:#de5753"></path><path d="M287.46,148.05a.35.35,0,0,0,.34.14,2.81,2.81,0,0,1,2.45.67.35.35,0,1,0,.51-.48h0a3.49,3.49,0,0,0-3.08-.89.35.35,0,0,0-.29.4h0A.41.41,0,0,0,287.46,148.05Z" style="fill:#263238"></path><path d="M297.23,152.21a.38.38,0,0,0,.21,0,.36.36,0,0,0,.16-.47h0a3.45,3.45,0,0,0-2.58-1.9.35.35,0,0,0-.38.31h0a.35.35,0,0,0,.31.38h0a2.88,2.88,0,0,1,2,1.54A.34.34,0,0,0,297.23,152.21Z" style="fill:#263238"></path><path d="M304.54,146l-1.72,2.77a2.43,2.43,0,0,1-.17,3.28c-2.09,2-2.46,6.52-1.27,8.93,0,0,.56-1,1.35-.37s-2,6.14-5,8c0,0,3.79-1.18,8-6.35,3.89-4.78,6.15-9.22,6-11.83Z" style="fill:#263238"></path><path d="M306.82,163.29a7,7,0,0,1-5.05,1.78c-2.45-.15-2.87-2.54-1.53-4.44,1.21-1.67,4-3.68,6.09-2.58S308.49,161.75,306.82,163.29Z" style="fill:#e4897b"></path><path d="M288.19,159.94a18.51,18.51,0,0,1-.11,2.79l.47.14c2.15.58,3.35.14,4-.52a3,3,0,0,0,.68-1.18,2.75,2.75,0,0,0,.14-.77,10.31,10.31,0,0,1-4.46-.27C288.47,160,288.19,159.94,288.19,159.94Z" style="fill:#263238"></path><path d="M288.93,160.13V161c2,.55,3.53.66,4.33.22a2.75,2.75,0,0,0,.14-.77A10.31,10.31,0,0,1,288.93,160.13Z" style="fill:#fff"></path><path d="M288.55,162.87c2.15.58,3.35.14,4-.52a7.21,7.21,0,0,0-2.52-.18A2.67,2.67,0,0,0,288.55,162.87Z" style="fill:#de5753"></path><path d="M291.56,140c-.66.57-.45,3.66,1.83,6s.41-1.61.41-1.61,4.83,4,5.26,3.37-.9-2.34-.9-2.34,3.79,3.94,7.9,4.44-.36-8.31-4.77-9.85S293.54,138.26,291.56,140Z" style="fill:#263238"></path><path d="M306,154s-5.69,17.42-13.69,19.76" style="fill:none;stroke:#407BFF;stroke-linecap:round;stroke-linejoin:round;stroke-width:0.5px"></path><path d="M292.27,139.3l7.21-4.34s4.12,0,8.77,5.06,5.1,8.74,5.1,8.74l-2.17,5.56Z" style="fill:#407BFF"></path><path d="M292.27,139.3l7.21-4.34s4.12,0,8.77,5.06,5.1,8.74,5.1,8.74l-2.17,5.56Z" style="fill:#fff;opacity:0.6000000000000001"></path><path d="M292.27,139.3a14.13,14.13,0,0,1,6.77,1.17c3.3,1.56,9.69,7.28,12.14,13.85,0,0-10.61-5.55-13.78-9S292.27,139.3,292.27,139.3Z" style="opacity:0.2;isolation:isolate"></path><path d="M282.69,139.76l9.58-.46a25.82,25.82,0,0,1,10.22,4.63c4.28,3.51,8.69,10.39,8.69,10.39l.11,8.59s-.05-3.53-5-5.71c-2.7-1.19-4.86-6.66-6.64-8.61s-6.7-2.41-8.28-3.79S287.23,140.21,282.69,139.76Z" style="fill:#407BFF"></path><path d="M282.69,139.76l9.58-.46a25.82,25.82,0,0,1,10.22,4.63c4.28,3.51,8.69,10.39,8.69,10.39l.11,8.59s-.05-3.53-5-5.71c-2.7-1.19-4.86-6.66-6.64-8.61s-6.7-2.41-8.28-3.79S287.23,140.21,282.69,139.76Z" style="fill:#fff;opacity:0.6000000000000001"></path><polygon points="301.14 173.9 292.57 178.76 288.92 173.71 285.21 176.24 286.82 184 292.27 179.85 294.85 186.18 305.96 178.07 301.14 173.9" style="fill:#407BFF"></polygon><polygon points="301.14 173.9 292.57 178.76 288.92 173.71 285.21 176.24 286.82 184 292.27 179.85 294.85 186.18 305.96 178.07 301.14 173.9" style="fill:#fff;opacity:0.6000000000000001"></polygon><polygon points="294.51 196.88 305.96 198.45 304.7 213.47 292.74 212.33 294.51 198.45 299.35 202.76 304.7 200.09 299.09 203.88 294.95 200.07 293.75 211 303.71 211.79 305.05 199.03 294.51 196.88" style="opacity:0.2;isolation:isolate"></polygon><polygon points="273.73 194.02 283.74 195.6 282.64 210.62 272.18 209.47 273.73 195.6 277.96 199.9 282.64 197.23 277.73 201.02 274.11 197.21 273.07 208.15 281.78 208.94 282.95 196.18 273.73 194.02" style="opacity:0.2;isolation:isolate"></polygon><path d="M275.66,414.67l-1.1-4.94-.18-8.91h-7.46a1.82,1.82,0,0,0-3-1.22l-1,8.23c-1.88,1.69-6.31,3.47-12.2,4.75-1.32.29-.9,3.46,2.31,3.46s10.22-.24,12.54-.24c3.77,0,6,.18,9,.23l.25,0A1.13,1.13,0,0,0,275.66,414.67Z" style="fill:#263238"></path><path d="M318.66,414.67l-1.1-4.94-1.65-8.91h-7.45a1.82,1.82,0,0,0-3-1.22l.44,8.23c-1.88,1.69-6.31,3.47-12.2,4.75-1.32.29-.9,3.46,2.31,3.46s10.22-.24,12.54-.24c3.77,0,6,.18,9,.23l.25,0A1.13,1.13,0,0,0,318.66,414.67Z" style="fill:#263238"></path><path d="M315.63,195.86c-.87,5-1.81,10.83-2.66,16.92-3.55-8.2-.09-20.15-.09-20.15A13.55,13.55,0,0,1,315.63,195.86Z" style="opacity:0.2;isolation:isolate"></path><path d="M318.47,180.69c5.88,5.09,10.89,21.63,10.89,21.63l-10.89,8.3-5.12-8.3a42.61,42.61,0,0,1,0-13.67C314.59,181.56,318.47,180.69,318.47,180.69Z" style="fill:#407BFF"></path><path d="M318.47,180.69c5.88,5.09,10.89,21.63,10.89,21.63l-10.89,8.3-5.12-8.3a42.61,42.61,0,0,1,0-13.67C314.59,181.56,318.47,180.69,318.47,180.69Z" style="fill:#fff;opacity:0.6000000000000001"></path><polygon points="317.23 210.62 329.89 200.68 330.82 203 318.96 212.75 317.23 210.62" style="fill:#407BFF"></polygon></g></g><g id="freepik--Plants--inject-121"><path d="M119.69,416H83.05s7.3-11.16,10.41-9.74c4,1.84,7-8.27,11.52-5.88,1.58.85.81,3.55,1.8,4.64,1.65,1.8,3.73,1.45,5.72,2.44C116.39,409.43,117.77,412,119.69,416Z" style="fill:#263238"></path><path d="M87.06,412.93s2.4-14,.74-16-2,7.61-2,7.61-5.58-20.16-9.15-20.27,4.24,17.49,4.24,17.49-15.26-24.94-19.7-22.61,16,24.43,16,24.43-11.17-9.61-13.63-6.9,12.4,11,12.4,11-6.55-1.47-6.55.71S80.5,414.17,87.06,412.93Z" style="fill:#407BFF"></path><path d="M87.06,412.93s2.4-14,.74-16-2,7.61-2,7.61-5.58-20.16-9.15-20.27,4.24,17.49,4.24,17.49-15.26-24.94-19.7-22.61,16,24.43,16,24.43-11.17-9.61-13.63-6.9,12.4,11,12.4,11-6.55-1.47-6.55.71S80.5,414.17,87.06,412.93Z" style="fill:#fff;opacity:0.2;isolation:isolate"></path><path d="M89.26,410.93s11.47-2.08,12.58-3.94-6.44.64-6.44.64,14-10,13.09-12.8-12.33,8.22-12.33,8.22,15-18.85,11.93-21.62-14.38,19.25-14.38,19.25S98,389.34,95.19,388.2s-5,12.69-5,12.69-.71-5.48-2.4-4.86S86.45,406.21,89.26,410.93Z" style="fill:#407BFF"></path><path d="M89.26,410.93s11.47-2.08,12.58-3.94-6.44.64-6.44.64,14-10,13.09-12.8-12.33,8.22-12.33,8.22,15-18.85,11.93-21.62-14.38,19.25-14.38,19.25S98,389.34,95.19,388.2s-5,12.69-5,12.69-.71-5.48-2.4-4.86S86.45,406.21,89.26,410.93Z" style="fill:#fff;opacity:0.2;isolation:isolate"></path><path d="M90.12,409.41s11.07-11.1,10.88-14-6.63,5.65-6.63,5.65,7.81-21.81,4.65-24.18S91.7,395.4,91.7,395.4s2.09-32.31-3.4-33-1.13,32.31-1.13,32.31-4-15.82-7.93-14.93,4.2,17.87,4.2,17.87-5-5.51-6.38-3.53S83.39,406.35,90.12,409.41Z" style="fill:#407BFF"></path><path d="M90.12,409.41s11.07-11.1,10.88-14-6.63,5.65-6.63,5.65,7.81-21.81,4.65-24.18S91.7,395.4,91.7,395.4s2.09-32.31-3.4-33-1.13,32.31-1.13,32.31-4-15.82-7.93-14.93,4.2,17.87,4.2,17.87-5-5.51-6.38-3.53S83.39,406.35,90.12,409.41Z" style="fill:#fff;opacity:0.4;isolation:isolate"></path><path d="M103.55,416H74.35s5.82-8.89,8.29-7.77c3.23,1.47,5.62-6.58,9.19-4.68,1.26.68.64,2.83,1.43,3.7,1.31,1.43,3,1.16,4.56,1.94C100.91,410.78,102,412.82,103.55,416Z" style="fill:#263238"></path><path d="M103.55,416H74.35s5.82-8.89,8.29-7.77c3.23,1.47,5.62-6.58,9.19-4.68,1.26.68.64,2.83,1.43,3.7,1.31,1.43,3,1.16,4.56,1.94C100.91,410.78,102,412.82,103.55,416Z" style="fill:#fff;opacity:0.2"></path><path d="M379.15,395.61s11-40.13,19.85-52.84-5.37,28.72-5.37,28.72,12.46-26.41,16.37-25.58-12.87,29.36-12.87,29.36,12.78-22.83,18.38-19.1-16.32,27.2-16.32,27.2,19.67-14.74,21.63-10.64-19.05,17.2-19.05,17.2,20-4,22.09,3-19.89,6-19.89,6,10.17-.46,12.1,6.89S389.38,410.49,379.15,395.61Z" style="fill:#407BFF"></path><path d="M379.15,395.61s11-40.13,19.85-52.84-5.37,28.72-5.37,28.72,12.46-26.41,16.37-25.58-12.87,29.36-12.87,29.36,12.78-22.83,18.38-19.1-16.32,27.2-16.32,27.2,19.67-14.74,21.63-10.64-19.05,17.2-19.05,17.2,20-4,22.09,3-19.89,6-19.89,6,10.17-.46,12.1,6.89S389.38,410.49,379.15,395.61Z" style="fill:#fff;opacity:0.2;isolation:isolate"></path><path d="M373.56,407.22s14.85-28.58,11.84-33.59-9.35,11.17-9.35,11.17,11.45-36.61,7.32-40.64-11.72,31.53-11.72,31.53,4-41.66,0-43.88-6,37.7-6,37.7-2.74-42.24-7.78-41.6,0,37.53,0,37.53-11.28-28.08-16.34-26.95,8.13,29.07,8.13,29.07-13.37-16.87-17.23-12.91,11.95,22.43,11.95,22.43-13.57-8.46-17.07-4.24,14.22,13.32,14.22,13.32-14.46,3.75-13.45,7.35,13.45,3.11,13.45,3.11S347,422.22,373.56,407.22Z" style="fill:#407BFF"></path><path d="M373.56,407.22s14.85-28.58,11.84-33.59-9.35,11.17-9.35,11.17,11.45-36.61,7.32-40.64-11.72,31.53-11.72,31.53,4-41.66,0-43.88-6,37.7-6,37.7-2.74-42.24-7.78-41.6,0,37.53,0,37.53-11.28-28.08-16.34-26.95,8.13,29.07,8.13,29.07-13.37-16.87-17.23-12.91,11.95,22.43,11.95,22.43-13.57-8.46-17.07-4.24,14.22,13.32,14.22,13.32-14.46,3.75-13.45,7.35,13.45,3.11,13.45,3.11S347,422.22,373.56,407.22Z" style="fill:#fff;opacity:0.4;isolation:isolate"></path><path d="M405.48,338.92a2.25,2.25,0,1,1-2.25-2.25A2.25,2.25,0,0,1,405.48,338.92Z" style="fill:#407BFF"></path><path d="M377.47,397.76s8.18-45.55,28.22-65.26" style="fill:none;stroke:#407BFF;stroke-linecap:round;stroke-miterlimit:10"></path><path d="M408.33,332.5a2.64,2.64,0,1,1-2.64-2.64A2.64,2.64,0,0,1,408.33,332.5Z" style="fill:#407BFF"></path><circle cx="397.62" cy="353.74" r="2.25" style="fill:#407BFF"></circle><path d="M389.88,347.21a2.25,2.25,0,1,1-2.25-2.26A2.25,2.25,0,0,1,389.88,347.21Z" style="fill:#407BFF"></path><path d="M396.87,361.9a2.25,2.25,0,1,1-2.25-2.25A2.26,2.26,0,0,1,396.87,361.9Z" style="fill:#407BFF"></path><path d="M386.58,358.68a2.25,2.25,0,1,1-2.25-2.25A2.25,2.25,0,0,1,386.58,358.68Z" style="fill:#407BFF"></path><path d="M397.79,335.14a2.25,2.25,0,1,1-2.25-2.25A2.25,2.25,0,0,1,397.79,335.14Z" style="fill:#407BFF"></path><polyline points="395.54 335.14 395.54 346.03 405.69 343.51" style="fill:none;stroke:#407BFF;stroke-linecap:round;stroke-miterlimit:10"></polyline><polyline points="387.63 347.21 390.54 355.77 397.62 354.18" style="fill:none;stroke:#407BFF;stroke-linecap:round;stroke-miterlimit:10"></polyline><polyline points="384.33 358.68 386.67 365.13 394.62 361.9" style="fill:none;stroke:#407BFF;stroke-linecap:round;stroke-miterlimit:10"></polyline><path d="M350.55,409.63C340,395,326.92,379.08,310.05,371.56" style="fill:none;stroke:#407BFF;stroke-linecap:round;stroke-miterlimit:10"></path><path d="M307.58,372.48a2.64,2.64,0,1,0,1.54-3.39A2.63,2.63,0,0,0,307.58,372.48Z" style="fill:#407BFF"></path><path d="M323,389.41a2.25,2.25,0,1,0,1.32-2.9A2.26,2.26,0,0,0,323,389.41Z" style="fill:#407BFF"></path><path d="M330,379.79a2.25,2.25,0,1,0,1.31-2.9A2.25,2.25,0,0,0,330,379.79Z" style="fill:#407BFF"></path><path d="M328.62,396a2.25,2.25,0,1,0,1.32-2.89A2.25,2.25,0,0,0,328.62,396Z" style="fill:#407BFF"></path><path d="M337.12,389.38a2.25,2.25,0,1,0,1.32-2.9A2.27,2.27,0,0,0,337.12,389.38Z" style="fill:#407BFF"></path><path d="M318.38,371.26a2.25,2.25,0,1,0,1.31-2.9A2.25,2.25,0,0,0,318.38,371.26Z" style="fill:#407BFF"></path><polyline points="320.48 370.47 324.3 380.67 313.91 381.87" style="fill:none;stroke:#407BFF;stroke-linecap:round;stroke-miterlimit:10"></polyline><polyline points="332.12 379 332.4 388.04 325.21 389.04" style="fill:none;stroke:#407BFF;stroke-linecap:round;stroke-miterlimit:10"></polyline><polyline points="339.23 388.59 339.31 395.45 330.73 395.21" style="fill:none;stroke:#407BFF;stroke-linecap:round;stroke-miterlimit:10"></polyline><path d="M307.54,416H427.78s-30.41-9.92-31.17-12.73-.74-4.76-4.44-7.21-8.79-3.95-10.2-6.63-5.78-7-7.29-8.27-19.55,7.81-19.76,8-5.23,10.05-6.94,12.25-13.51-.49-16.33,1.84-12.29,8.34-12.29,8.34S314.71,411,307.54,416Z" style="fill:#263238"></path><path d="M307.54,416H427.78s-30.41-9.92-31.17-12.73-.74-4.76-4.44-7.21-8.79-3.95-10.2-6.63-5.78-7-7.29-8.27-19.55,7.81-19.76,8-5.23,10.05-6.94,12.25-13.51-.49-16.33,1.84-12.29,8.34-12.29,8.34S314.71,411,307.54,416Z" style="fill:#fff;opacity:0.2"></path></g><g id="freepik--Animals--inject-121"><path d="M223.51,155.41s3.92-17.91,2.34-20-3.24,7.35-3.24,7.35-.7-5.79-3.22-5.18-.51,6.95-.51,6.95-1.33-2.46-3.14-1S216.59,155.25,223.51,155.41Z" style="fill:#407BFF"></path><path d="M228.62,150.41c-3.16-2.47-7.66,2-7.66,2L207,132.9c-4.79,1.49.42,10.8.42,10.8s-6.61-4.39-6.86-1.44,5.59,5.17,7.42,5.76c-1.28-.37-4.35-1.05-4.69.73-.43,2.24,8.25,5.05,8.25,5.05s-.06.11-.15.31l-6.4.5L196,149s-2.32,2,1.39,6,7.59,2.41,7.59,2.41,2.37,5.25,10.72,6.17h.18C222.5,164.75,231.59,152.74,228.62,150.41Z" style="fill:#407BFF"></path><path d="M228.62,150.41c-3.16-2.47-7.66,2-7.66,2L207,132.9c-4.79,1.49.42,10.8.42,10.8s-6.61-4.39-6.86-1.44,5.59,5.17,7.42,5.76c-1.28-.37-4.35-1.05-4.69.73-.43,2.24,8.25,5.05,8.25,5.05s-.06.11-.15.31l-6.4.5L196,149s-2.32,2,1.39,6,7.59,2.41,7.59,2.41,2.37,5.25,10.72,6.17h.18C222.5,164.75,231.59,152.74,228.62,150.41Z" style="fill:#fff;opacity:0.2"></path><path d="M229.24,152.32l2.38.75-2.35.61.9,1.6-1.84-.58A1.6,1.6,0,0,1,229.24,152.32Z" style="fill:#407BFF"></path><path d="M227.5,152.65a.43.43,0,0,1-.54.28.42.42,0,0,1-.27-.54.43.43,0,0,1,.53-.28A.43.43,0,0,1,227.5,152.65Z" style="fill:#263238"></path><path d="M329.36,187.86a21.48,21.48,0,0,0-1.51,5.29c-.2,2.22-.47,2.73-1.85,1S323.41,186.08,329.36,187.86Z" style="fill:#407BFF"></path><path d="M316.84,176.68s-1.85,1.88-2.2,1.88-3,.51-2.94,1.15,3.29.83,4.57,1S316.84,176.68,316.84,176.68Z" style="fill:#407BFF"></path><path d="M329.23,180.67a5.34,5.34,0,0,0,4.25-4.22c1.06-3.9-12.42-8-13.42-15.26s9.76-15.1,15.9-7.54-1.18,7.81-1.18,7.81-5.79-.51-1.66,3.7S342,171.6,341.63,180s-9,7.07-10.81,5.19A6.23,6.23,0,0,1,329.23,180.67Z" style="fill:#407BFF"></path><path d="M316.84,168.57s-.73-5.06-2.77-4.95.92,5.24.92,5.24Z" style="fill:#407BFF"></path><path d="M315.93,167.41c-5.5-.49-7.13,5.39-4.35,6.69s4.35,0,4.35,0v5s-4.84,1.21-4,2.52,5.89,0,5.89,0l4.15,3.6a5.28,5.28,0,0,0,.35,4.56s-2.22-2.61-2.71-.81,3.72,5.88,5.29,5.88,2.28-3.43,2.28-3.43a8.87,8.87,0,0,0,5.66-7.84c.33-6.05-10.62-7.84-12.41-10.46s-1.47-3.61-1.47-3.61a4.69,4.69,0,0,0-.94-5.21C315.66,161.69,315.93,167.41,315.93,167.41Z" style="fill:#407BFF"></path><path d="M315.93,167.41c-5.5-.49-7.13,5.39-4.35,6.69s4.35,0,4.35,0v5s-4.84,1.21-4,2.52,5.89,0,5.89,0l4.15,3.6a5.28,5.28,0,0,0,.35,4.56s-2.22-2.61-2.71-.81,3.72,5.88,5.29,5.88,2.28-3.43,2.28-3.43a8.87,8.87,0,0,0,5.66-7.84c.33-6.05-10.62-7.84-12.41-10.46s-1.47-3.61-1.47-3.61a4.69,4.69,0,0,0-.94-5.21C315.66,161.69,315.93,167.41,315.93,167.41Z" style="fill:#fff;opacity:0.2"></path><path d="M314.88,171.24c0,.38-.23.69-.51.69s-.51-.31-.51-.69.22-.69.51-.69S314.88,170.86,314.88,171.24Z" style="fill:#263238"></path><path d="M310.46,172.91a.71.71,0,0,1,.91.34C311.66,173.85,310.08,173.36,310.46,172.91Z" style="fill:#263238"></path><path d="M150,414.14c-5.1-6.49,2.77-21.87,18.79-23s24.92,11.72,25.52,16.47,11.47,5.57,11.47,5.57v3.06S154.35,419.68,150,414.14Z" style="fill:#407BFF"></path><circle cx="206.44" cy="414.27" r="2.31" style="fill:#263238"></circle><path d="M195,412a.79.79,0,1,1-.79-.79A.79.79,0,0,1,195,412Z" style="fill:#263238"></path><path d="M193.87,405.94s3.54-13.09,1.16-18.63-1.16,7.8-1.16,7.8-4-16.11-7.28-17.3,1.85,8.44,1.85,8.44-12-11.73-15-10.41,3.71,5.23,3.71,5.23-16-5-17.43-2.73,5.28,2,5.28,2-16.88,1.45-17.15,3.16,5.41.79,5.41.79-9.1,5.81-8.83,7.39,4.06-.82,4.06-.82-7,8.07-7,10.71,3.7-1.19,3.7-1.19-3,5.8-2.11,8.44,2.77-2.37,2.5-2-2.9,7.49,8.44,9.42,27,3,29.28,1,1.71-8.53,1.71-8.53S190.47,403.74,193.87,405.94Z" style="fill:#407BFF"></path><path d="M193.87,405.94s3.54-13.09,1.16-18.63-1.16,7.8-1.16,7.8-4-16.11-7.28-17.3,1.85,8.44,1.85,8.44-12-11.73-15-10.41,3.71,5.23,3.71,5.23-16-5-17.43-2.73,5.28,2,5.28,2-16.88,1.45-17.15,3.16,5.41.79,5.41.79-9.1,5.81-8.83,7.39,4.06-.82,4.06-.82-7,8.07-7,10.71,3.7-1.19,3.7-1.19-3,5.8-2.11,8.44,2.77-2.37,2.5-2-2.9,7.49,8.44,9.42,27,3,29.28,1,1.71-8.53,1.71-8.53S190.47,403.74,193.87,405.94Z" style="opacity:0.2;isolation:isolate"></path></g></svg>